<svg width="28" height="32" viewBox="0 0 28 32" fill="none" xmlns="http://www.w3.org/2000/svg">
<path d="M27.4425 8.90664C27.4335 8.8649 27.4335 8.82172 27.4425 8.77997C27.4348 8.74343 27.4348 8.70569 27.4425 8.66914V8.52664L27.3475 8.28914C27.3089 8.22434 27.2609 8.16564 27.205 8.11497L27.0625 7.98831H26.9833L20.745 4.04581L14.855 0.404142C14.7187 0.296048 14.5628 0.215393 14.3958 0.166642H14.2692C14.1276 0.14302 13.9832 0.14302 13.8417 0.166642H13.6833C13.4994 0.207321 13.3231 0.276788 13.1608 0.372475L1.33332 7.73498L1.19082 7.84581L1.04832 7.97248L0.889986 8.08331L0.810819 8.17831L0.715819 8.41581V8.65331C0.70044 8.7583 0.70044 8.86498 0.715819 8.96998V22.7925C0.715281 23.0616 0.783326 23.3263 0.913532 23.5618C1.04374 23.7973 1.23181 23.9957 1.45999 24.1383L13.335 31.485L13.5725 31.58H13.6992C13.967 31.6649 14.2546 31.6649 14.5225 31.58H14.6492L14.8867 31.485L26.6667 24.2491C26.8948 24.1065 27.0829 23.9081 27.2131 23.6726C27.3433 23.4372 27.4114 23.1724 27.4108 22.9033V9.08081C27.4108 9.08081 27.4425 8.96998 27.4425 8.90664ZM14 3.60248L16.8183 5.34414L7.96749 10.8225L5.13332 9.08081L14 3.60248ZM12.4167 27.3525L3.70832 22.0325V11.915L12.4167 17.2983V27.3525ZM14 14.5116L10.9758 12.6908L19.8267 7.19664L22.8667 9.08081L14 14.5116ZM24.2917 21.985L15.5833 27.4V17.2983L24.2917 11.915V21.985Z" fill="white"/>
</svg>
