<svg width="30" height="26" viewBox="0 0 30 26" fill="none" xmlns="http://www.w3.org/2000/svg">
<path d="M0.333344 13.6667V20.3333C0.333344 20.687 0.473819 21.0261 0.723868 21.2762C0.973916 21.5262 1.31305 21.6667 1.66668 21.6667H3.00001C3.00001 22.7275 3.42144 23.745 4.17158 24.4951C4.92173 25.2453 5.93915 25.6667 7.00001 25.6667C8.06088 25.6667 9.07829 25.2453 9.82844 24.4951C10.5786 23.745 11 22.7275 11 21.6667H19C19 22.7275 19.4214 23.745 20.1716 24.4951C20.9217 25.2453 21.9391 25.6667 23 25.6667C24.0609 25.6667 25.0783 25.2453 25.8284 24.4951C26.5786 23.745 27 22.7275 27 21.6667H28.3333C28.687 21.6667 29.0261 21.5262 29.2762 21.2762C29.5262 21.0261 29.6667 20.687 29.6667 20.3333V4.33334C29.6667 3.27248 29.2453 2.25506 28.4951 1.50492C27.745 0.754771 26.7275 0.333344 25.6667 0.333344H13.6667C12.6058 0.333344 11.5884 0.754771 10.8383 1.50492C10.0881 2.25506 9.66668 3.27248 9.66668 4.33334V7.00001H7.00001C6.37903 7.00001 5.76658 7.14459 5.21116 7.4223C4.65573 7.70001 4.1726 8.10323 3.80001 8.60001L0.60001 12.8667C0.561012 12.9246 0.529643 12.9874 0.506677 13.0533L0.426677 13.2C0.367832 13.3487 0.336217 13.5068 0.333344 13.6667ZM21.6667 21.6667C21.6667 21.403 21.7449 21.1452 21.8914 20.9259C22.0379 20.7067 22.2461 20.5358 22.4898 20.4348C22.7334 20.3339 23.0015 20.3075 23.2601 20.359C23.5188 20.4104 23.7564 20.5374 23.9428 20.7239C24.1293 20.9103 24.2563 21.1479 24.3077 21.4066C24.3592 21.6652 24.3328 21.9333 24.2319 22.1769C24.1309 22.4206 23.96 22.6288 23.7408 22.7753C23.5215 22.9218 23.2637 23 23 23C22.6464 23 22.3073 22.8595 22.0572 22.6095C21.8072 22.3594 21.6667 22.0203 21.6667 21.6667ZM12.3333 4.33334C12.3333 3.97972 12.4738 3.64058 12.7239 3.39054C12.9739 3.14049 13.3131 3.00001 13.6667 3.00001H25.6667C26.0203 3.00001 26.3594 3.14049 26.6095 3.39054C26.8595 3.64058 27 3.97972 27 4.33334V19H25.96C25.5851 18.5875 25.1281 18.258 24.6184 18.0325C24.1087 17.8069 23.5574 17.6904 23 17.6904C22.4426 17.6904 21.8914 17.8069 21.3816 18.0325C20.8719 18.258 20.4149 18.5875 20.04 19H12.3333V4.33334ZM9.66668 12.3333H4.33334L5.93334 10.2C6.05754 10.0344 6.21859 9.90001 6.40373 9.80744C6.58887 9.71487 6.79302 9.66668 7.00001 9.66668H9.66668V12.3333ZM5.66668 21.6667C5.66668 21.403 5.74488 21.1452 5.89138 20.9259C6.03789 20.7067 6.24613 20.5358 6.48977 20.4348C6.7334 20.3339 7.00149 20.3075 7.26013 20.359C7.51877 20.4104 7.75635 20.5374 7.94282 20.7239C8.12929 20.9103 8.25628 21.1479 8.30772 21.4066C8.35917 21.6652 8.33277 21.9333 8.23185 22.1769C8.13093 22.4206 7.96004 22.6288 7.74077 22.7753C7.52151 22.9218 7.26372 23 7.00001 23C6.64639 23 6.30725 22.8595 6.0572 22.6095C5.80715 22.3594 5.66668 22.0203 5.66668 21.6667ZM3.00001 15H9.66668V18.7067C8.87979 18.0034 7.84686 17.6396 6.79293 17.6946C5.73901 17.7495 4.74951 18.2187 4.04001 19H3.00001V15Z" fill="#222222"/>
</svg>
