<svg width="28" height="21" viewBox="0 0 28 21" fill="none" xmlns="http://www.w3.org/2000/svg">
<path d="M7.33332 13.9998H11.3333C11.6869 13.9998 12.0261 13.8594 12.2761 13.6093C12.5262 13.3593 12.6667 13.0201 12.6667 12.6665C12.6667 12.3129 12.5262 11.9737 12.2761 11.7237C12.0261 11.4736 11.6869 11.3332 11.3333 11.3332H7.33332C6.9797 11.3332 6.64056 11.4736 6.39051 11.7237C6.14047 11.9737 5.99999 12.3129 5.99999 12.6665C5.99999 13.0201 6.14047 13.3593 6.39051 13.6093C6.64056 13.8594 6.9797 13.9998 7.33332 13.9998ZM23.3333 0.666504H4.66666C3.60579 0.666504 2.58838 1.08793 1.83823 1.83808C1.08808 2.58822 0.666656 3.60564 0.666656 4.6665V16.6665C0.666656 17.7274 1.08808 18.7448 1.83823 19.4949C2.58838 20.2451 3.60579 20.6665 4.66666 20.6665H23.3333C24.3942 20.6665 25.4116 20.2451 26.1618 19.4949C26.9119 18.7448 27.3333 17.7274 27.3333 16.6665V4.6665C27.3333 3.60564 26.9119 2.58822 26.1618 1.83808C25.4116 1.08793 24.3942 0.666504 23.3333 0.666504ZM24.6667 16.6665C24.6667 17.0201 24.5262 17.3593 24.2761 17.6093C24.0261 17.8594 23.6869 17.9998 23.3333 17.9998H4.66666C4.31303 17.9998 3.9739 17.8594 3.72385 17.6093C3.4738 17.3593 3.33332 17.0201 3.33332 16.6665V8.6665H24.6667V16.6665ZM24.6667 5.99984H3.33332V4.6665C3.33332 4.31288 3.4738 3.97374 3.72385 3.7237C3.9739 3.47365 4.31303 3.33317 4.66666 3.33317H23.3333C23.6869 3.33317 24.0261 3.47365 24.2761 3.7237C24.5262 3.97374 24.6667 4.31288 24.6667 4.6665V5.99984Z" fill="white"/>
</svg>
