<svg width="22" height="26" viewBox="0 0 22 26" fill="none" xmlns="http://www.w3.org/2000/svg">
<path d="M19.4 8.45334L20.6133 7.25334C20.8644 7.00227 21.0055 6.66175 21.0055 6.30668C21.0055 5.95161 20.8644 5.61108 20.6133 5.36001C20.3623 5.10894 20.0218 4.96789 19.6667 4.96789C19.3116 4.96789 18.9711 5.10894 18.72 5.36001L17.52 6.57334C15.6514 5.12782 13.3558 4.34352 10.9933 4.34352C8.63089 4.34352 6.33528 5.12782 4.46668 6.57334L3.25335 5.34668C3.00051 5.09561 2.65829 4.95526 2.30197 4.95651C1.94565 4.95776 1.60442 5.1005 1.35335 5.35334C1.10228 5.60618 0.961928 5.94841 0.963179 6.30472C0.964429 6.66104 1.10717 7.00227 1.36001 7.25334L2.58668 8.46668C1.12404 10.3301 0.330402 12.6311 0.333348 15C0.328994 16.7006 0.731299 18.3775 1.50671 19.891C2.28213 21.4045 3.40817 22.7107 4.79094 23.7006C6.1737 24.6905 7.77311 25.3354 9.45576 25.5816C11.1384 25.8278 12.8555 25.6681 14.4639 25.1159C16.0723 24.5636 17.5254 23.6348 18.7019 22.4069C19.8784 21.179 20.7443 19.6876 21.2273 18.057C21.7103 16.4265 21.7965 14.7041 21.4787 13.0335C21.1608 11.3629 20.4481 9.79255 19.4 8.45334ZM11 23C9.41776 23 7.87105 22.5308 6.55545 21.6518C5.23986 20.7727 4.21448 19.5233 3.60898 18.0615C3.00348 16.5997 2.84505 14.9911 3.15373 13.4393C3.46241 11.8874 4.22434 10.462 5.34316 9.34316C6.46198 8.22434 7.88744 7.46241 9.43929 7.15373C10.9911 6.84505 12.5997 7.00347 14.0615 7.60897C15.5233 8.21448 16.7727 9.23985 17.6518 10.5554C18.5308 11.871 19 13.4178 19 15C19 17.1217 18.1572 19.1566 16.6569 20.6569C15.1566 22.1572 13.1217 23 11 23ZM8.33335 3.00001H13.6667C14.0203 3.00001 14.3594 2.85953 14.6095 2.60949C14.8595 2.35944 15 2.0203 15 1.66668C15 1.31305 14.8595 0.973916 14.6095 0.723868C14.3594 0.473819 14.0203 0.333344 13.6667 0.333344H8.33335C7.97973 0.333344 7.64059 0.473819 7.39054 0.723868C7.14049 0.973916 7.00001 1.31305 7.00001 1.66668C7.00001 2.0203 7.14049 2.35944 7.39054 2.60949C7.64059 2.85953 7.97973 3.00001 8.33335 3.00001ZM12.3333 11C12.3333 10.6464 12.1929 10.3073 11.9428 10.0572C11.6928 9.80715 11.3536 9.66668 11 9.66668C10.6464 9.66668 10.3073 9.80715 10.0572 10.0572C9.80716 10.3073 9.66668 10.6464 9.66668 11V13.52C9.36477 13.79 9.15198 14.1454 9.05644 14.539C8.96091 14.9326 8.98714 15.346 9.13167 15.7244C9.2762 16.1028 9.53222 16.4283 9.86584 16.658C10.1995 16.8877 10.595 17.0107 11 17.0107C11.4051 17.0107 11.8006 16.8877 12.1342 16.658C12.4678 16.4283 12.7238 16.1028 12.8684 15.7244C13.0129 15.346 13.0391 14.9326 12.9436 14.539C12.8481 14.1454 12.6353 13.79 12.3333 13.52V11Z" fill="#222222"/>
</svg>
