<svg width="24" height="28" viewBox="0 0 24 28" fill="none" xmlns="http://www.w3.org/2000/svg">
<path d="M20 3.97338C17.8783 1.85164 15.0006 0.659668 12 0.659668C8.99941 0.659668 6.12172 1.85164 3.99999 3.97338C1.87826 6.09511 0.686279 8.9728 0.686279 11.9734C0.686279 14.974 1.87826 17.8516 3.99999 19.9734L11.0267 27.0134C11.1506 27.1383 11.2981 27.2375 11.4606 27.3052C11.623 27.3729 11.7973 27.4078 11.9733 27.4078C12.1493 27.4078 12.3236 27.3729 12.4861 27.3052C12.6486 27.2375 12.796 27.1383 12.92 27.0134L20 19.9067C22.1129 17.7938 23.2998 14.9281 23.2998 11.94C23.2998 8.95197 22.1129 6.08628 20 3.97338ZM18.0933 18L12 24.12L5.90665 18C4.70285 16.7951 3.88329 15.2604 3.55158 13.5898C3.21987 11.9192 3.39091 10.1877 4.04306 8.61428C4.69521 7.04086 5.79921 5.69611 7.2155 4.75001C8.63178 3.80392 10.2968 3.29895 12 3.29895C13.7032 3.29895 15.3682 3.80392 16.7845 4.75001C18.2008 5.69611 19.3048 7.04086 19.9569 8.61428C20.6091 10.1877 20.7801 11.9192 20.4484 13.5898C20.1167 15.2604 19.2971 16.7951 18.0933 18ZM7.99999 7.88004C6.92361 8.95974 6.31918 10.4221 6.31918 11.9467C6.31918 13.4713 6.92361 14.9337 7.99999 16.0134C8.79967 16.8144 9.8181 17.3615 10.9275 17.5859C12.0369 17.8103 13.1879 17.7022 14.2361 17.2749C15.2842 16.8477 16.1829 16.1204 16.8193 15.1844C17.4557 14.2483 17.8015 13.1452 17.8133 12.0134C17.8193 11.2576 17.6738 10.5084 17.3852 9.80989C17.0966 9.1114 16.671 8.47785 16.1333 7.94671C15.6049 7.40615 14.9748 6.97543 14.2792 6.67933C13.5837 6.38323 12.8364 6.22761 12.0805 6.22141C11.3246 6.21522 10.5749 6.35857 9.87462 6.64323C9.17431 6.92788 8.53722 7.34822 7.99999 7.88004ZM14.2533 14.12C13.748 14.633 13.0803 14.9546 12.3642 15.0297C11.648 15.1048 10.9281 14.9289 10.3273 14.5319C9.72659 14.135 9.28238 13.5417 9.07066 12.8535C8.85894 12.1653 8.89285 11.4249 9.1666 10.7589C9.44034 10.0929 9.93692 9.54273 10.5714 9.20236C11.2059 8.86199 11.939 8.75259 12.6452 8.89287C13.3515 9.03314 13.9871 9.41439 14.4433 9.97142C14.8996 10.5284 15.1482 11.2267 15.1467 11.9467C15.1273 12.7697 14.782 13.5514 14.1867 14.12H14.2533Z" fill="white"/>
</svg>
