<svg width="30" height="20" viewBox="0 0 30 20" fill="none" xmlns="http://www.w3.org/2000/svg">
<path d="M7.00001 8.6665C6.7363 8.6665 6.47852 8.7447 6.25925 8.89121C6.03998 9.03772 5.86909 9.24596 5.76817 9.48959C5.66725 9.73323 5.64085 10.0013 5.6923 10.26C5.74374 10.5186 5.87073 10.7562 6.0572 10.9426C6.24367 11.1291 6.48125 11.2561 6.73989 11.3076C6.99853 11.359 7.26662 11.3326 7.51025 11.2317C7.75389 11.1308 7.96213 10.9599 8.10864 10.7406C8.25515 10.5213 8.33334 10.2635 8.33334 9.99984C8.33334 9.64622 8.19287 9.30708 7.94282 9.05703C7.69277 8.80698 7.35363 8.6665 7.00001 8.6665ZM23 8.6665C22.7363 8.6665 22.4785 8.7447 22.2593 8.89121C22.04 9.03772 21.8691 9.24596 21.7682 9.48959C21.6673 9.73323 21.6409 10.0013 21.6923 10.26C21.7437 10.5186 21.8707 10.7562 22.0572 10.9426C22.2437 11.1291 22.4812 11.2561 22.7399 11.3076C22.9985 11.359 23.2666 11.3326 23.5103 11.2317C23.7539 11.1308 23.9621 10.9599 24.1086 10.7406C24.2551 10.5213 24.3333 10.2635 24.3333 9.99984C24.3333 9.64622 24.1929 9.30708 23.9428 9.05703C23.6928 8.80698 23.3536 8.6665 23 8.6665ZM25.6667 0.666504H4.33334C3.27248 0.666504 2.25506 1.08793 1.50492 1.83808C0.754771 2.58822 0.333344 3.60564 0.333344 4.6665V15.3332C0.333344 16.394 0.754771 17.4115 1.50492 18.1616C2.25506 18.9117 3.27248 19.3332 4.33334 19.3332H25.6667C26.7275 19.3332 27.745 18.9117 28.4951 18.1616C29.2453 17.4115 29.6667 16.394 29.6667 15.3332V4.6665C29.6667 3.60564 29.2453 2.58822 28.4951 1.83808C27.745 1.08793 26.7275 0.666504 25.6667 0.666504ZM27 15.3332C27 15.6868 26.8595 16.0259 26.6095 16.276C26.3594 16.526 26.0203 16.6665 25.6667 16.6665H4.33334C3.97972 16.6665 3.64058 16.526 3.39053 16.276C3.14049 16.0259 3.00001 15.6868 3.00001 15.3332V4.6665C3.00001 4.31288 3.14049 3.97374 3.39053 3.7237C3.64058 3.47365 3.97972 3.33317 4.33334 3.33317H25.6667C26.0203 3.33317 26.3594 3.47365 26.6095 3.7237C26.8595 3.97374 27 4.31288 27 4.6665V15.3332ZM15 5.99984C14.2089 5.99984 13.4355 6.23443 12.7777 6.67396C12.1199 7.11348 11.6072 7.7382 11.3045 8.4691C11.0017 9.20001 10.9225 10.0043 11.0769 10.7802C11.2312 11.5561 11.6122 12.2689 12.1716 12.8283C12.731 13.3877 13.4437 13.7686 14.2196 13.923C14.9956 14.0773 15.7998 13.9981 16.5307 13.6954C17.2616 13.3926 17.8864 12.8799 18.3259 12.2221C18.7654 11.5643 19 10.791 19 9.99984C19 8.93897 18.5786 7.92156 17.8284 7.17141C17.0783 6.42126 16.0609 5.99984 15 5.99984ZM15 11.3332C14.7363 11.3332 14.4785 11.255 14.2592 11.1085C14.04 10.962 13.8691 10.7537 13.7682 10.5101C13.6673 10.2664 13.6409 9.99836 13.6923 9.73972C13.7437 9.48108 13.8707 9.2435 14.0572 9.05703C14.2437 8.87056 14.4812 8.74357 14.7399 8.69212C14.9985 8.64068 15.2666 8.66708 15.5103 8.768C15.7539 8.86891 15.9621 9.03981 16.1086 9.25908C16.2551 9.47834 16.3333 9.73613 16.3333 9.99984C16.3333 10.3535 16.1929 10.6926 15.9428 10.9426C15.6928 11.1927 15.3536 11.3332 15 11.3332Z" fill="white"/>
</svg>
