<svg width="22" height="22" viewBox="0 0 22 22" fill="none" xmlns="http://www.w3.org/2000/svg">
<path d="M5.34401 9.344C6.13513 9.344 6.90849 9.1094 7.56629 8.66988C8.22408 8.23035 8.73677 7.60564 9.03952 6.87473C9.34227 6.14383 9.42149 5.33956 9.26715 4.56364C9.11281 3.78771 8.73184 3.07498 8.17243 2.51557C7.61302 1.95616 6.90029 1.5752 6.12437 1.42086C5.34844 1.26652 4.54418 1.34573 3.81327 1.64848C3.08237 1.95123 2.45765 2.46392 2.01813 3.12172C1.5786 3.77952 1.34401 4.55287 1.34401 5.344C1.34507 6.40454 1.76683 7.42134 2.51675 8.17126C3.26667 8.92117 4.28347 9.34294 5.34401 9.344ZM5.34401 4.01067C5.60771 4.01067 5.8655 4.08887 6.08477 4.23537C6.30403 4.38188 6.47493 4.59012 6.57585 4.83376C6.67676 5.07739 6.70317 5.34548 6.65172 5.60412C6.60027 5.86276 6.47329 6.10034 6.28682 6.28681C6.10035 6.47328 5.86277 6.60027 5.60413 6.65171C5.34549 6.70316 5.0774 6.67676 4.83376 6.57584C4.59013 6.47492 4.38189 6.30403 4.23538 6.08476C4.08887 5.86549 4.01067 5.60771 4.01067 5.344C4.01067 4.99038 4.15115 4.65124 4.4012 4.40119C4.65125 4.15114 4.99038 4.01067 5.34401 4.01067ZM16.656 12.656C15.8649 12.656 15.0915 12.8906 14.4337 13.3301C13.7759 13.7696 13.2632 14.3944 12.9605 15.1253C12.6577 15.8562 12.5785 16.6604 12.7329 17.4364C12.8872 18.2123 13.2682 18.925 13.8276 19.4844C14.387 20.0438 15.0997 20.4248 15.8756 20.5791C16.6516 20.7335 17.4558 20.6543 18.1867 20.3515C18.9176 20.0488 19.5424 19.5361 19.9819 18.8783C20.4214 18.2205 20.656 17.4471 20.656 16.656C20.6549 15.5955 20.2332 14.5787 19.4833 13.8287C18.7333 13.0788 17.7165 12.6571 16.656 12.656ZM16.656 17.9893C16.3923 17.9893 16.1345 17.9111 15.9152 17.7646C15.696 17.6181 15.5251 17.4099 15.4242 17.1662C15.3232 16.9226 15.2968 16.6545 15.3483 16.3959C15.3997 16.1372 15.5267 15.8997 15.7132 15.7132C15.8997 15.5267 16.1372 15.3997 16.3959 15.3483C16.6545 15.2968 16.9226 15.3232 17.1663 15.4242C17.4099 15.5251 17.6181 15.696 17.7646 15.9152C17.9111 16.1345 17.9893 16.3923 17.9893 16.656C17.9893 17.0096 17.8489 17.3488 17.5988 17.5988C17.3488 17.8489 17.0096 17.9893 16.656 17.9893ZM21.276 0.724C21.026 0.474039 20.6869 0.333618 20.3333 0.333618C19.9798 0.333618 19.6407 0.474039 19.3907 0.724L0.724007 19.3907C0.59666 19.5137 0.495083 19.6608 0.425205 19.8235C0.355326 19.9861 0.318544 20.1611 0.317006 20.3381C0.315467 20.5152 0.349203 20.6907 0.416244 20.8546C0.483285 21.0185 0.582289 21.1673 0.70748 21.2925C0.83267 21.4177 0.981539 21.5167 1.1454 21.5838C1.30926 21.6508 1.48484 21.6845 1.66188 21.683C1.83891 21.6815 2.01387 21.6447 2.17655 21.5748C2.33922 21.5049 2.48634 21.4033 2.60934 21.276L21.276 2.60933C21.526 2.3593 21.6664 2.02022 21.6664 1.66667C21.6664 1.31311 21.526 0.974037 21.276 0.724Z" fill="#222222"/>
</svg>
