<svg width="30" height="32" viewBox="0 0 30 32" fill="none" xmlns="http://www.w3.org/2000/svg">
<path d="M29.0442 24.3125L24.7533 16.9025C25.6314 15.2899 26.0888 13.482 26.0833 11.6458C26.0833 8.70635 24.9156 5.88726 22.8371 3.80873C20.7586 1.7302 17.9395 0.5625 15 0.5625C12.0605 0.5625 9.24144 1.7302 7.16291 3.80873C5.08439 5.88726 3.91668 8.70635 3.91668 11.6458C3.91123 13.482 4.36865 15.2899 5.24668 16.9025L0.955847 24.3125C0.816611 24.5537 0.743439 24.8273 0.743714 25.1057C0.743989 25.3842 0.817701 25.6577 0.957414 25.8986C1.09713 26.1395 1.2979 26.3392 1.53947 26.4777C1.78105 26.6163 2.05488 26.6886 2.33335 26.6875H6.87751L9.18918 30.5825C9.26711 30.7116 9.36308 30.8289 9.47418 30.9308C9.7677 31.2137 10.159 31.3725 10.5667 31.3742H10.7883C11.0274 31.3415 11.2558 31.2546 11.4561 31.1201C11.6564 30.9856 11.8234 30.8072 11.9442 30.5983L15 25.3417L18.0558 30.6458C18.1784 30.8517 18.3462 31.0271 18.5464 31.1587C18.7466 31.2904 18.9741 31.3749 19.2117 31.4058H19.4333C19.8465 31.4083 20.2442 31.2492 20.5417 30.9625C20.6482 30.8664 20.739 30.7542 20.8108 30.63L23.1225 26.735H27.6667C27.9457 26.7361 28.22 26.6635 28.4619 26.5245C28.7038 26.3854 28.9047 26.185 29.0442 25.9433C29.1921 25.6971 29.2703 25.4152 29.2703 25.1279C29.2703 24.8406 29.1921 24.5588 29.0442 24.3125ZM10.5508 26.735L9.14168 24.3758C9.00292 24.1418 8.80619 23.9474 8.57045 23.8115C8.33471 23.6756 8.06793 23.6028 7.79585 23.6H5.05668L7.32085 19.6733C8.88 21.1757 10.8451 22.1885 12.9733 22.5867L10.5508 26.735ZM15 19.5625C13.4342 19.5625 11.9036 19.0982 10.6017 18.2283C9.29986 17.3584 8.28516 16.122 7.68597 14.6754C7.08677 13.2288 6.93 11.6371 7.23546 10.1014C7.54093 8.56569 8.29492 7.15507 9.40209 6.0479C10.5093 4.94074 11.9199 4.18675 13.4556 3.88128C14.9912 3.57582 16.583 3.73259 18.0296 4.33179C19.4762 4.93098 20.7126 5.94568 21.5825 7.24757C22.4524 8.54946 22.9167 10.0801 22.9167 11.6458C22.9167 13.7455 22.0826 15.7591 20.5979 17.2438C19.1133 18.7284 17.0996 19.5625 15 19.5625ZM22.2042 23.6C21.9321 23.6028 21.6653 23.6756 21.4296 23.8115C21.1938 23.9474 20.9971 24.1418 20.8583 24.3758L19.4492 26.735L17.0425 22.5392C19.1634 22.1329 21.1211 21.121 22.6792 19.6258L24.9433 23.5525L22.2042 23.6Z" fill="white"/>
</svg>
