<svg width="34" height="30" viewBox="0 0 34 30" fill="none" xmlns="http://www.w3.org/2000/svg">
<path d="M20.9583 7.08333C19.7057 7.08333 18.4812 7.45478 17.4397 8.15069C16.3982 8.84661 15.5865 9.83574 15.1071 10.993C14.6277 12.1503 14.5023 13.4237 14.7467 14.6522C14.9911 15.8808 15.5943 17.0093 16.48 17.895C17.3657 18.7807 18.4942 19.3839 19.7228 19.6283C20.9513 19.8727 22.2247 19.7473 23.382 19.2679C24.5393 18.7885 25.5284 17.9768 26.2243 16.9353C26.9202 15.8938 27.2917 14.6693 27.2917 13.4167C27.2917 11.737 26.6244 10.1261 25.4367 8.93832C24.2489 7.75059 22.638 7.08333 20.9583 7.08333ZM20.9583 16.5833C20.332 16.5833 19.7198 16.3976 19.199 16.0497C18.6783 15.7017 18.2724 15.2071 18.0327 14.6285C17.793 14.0499 17.7303 13.4132 17.8525 12.7989C17.9747 12.1846 18.2763 11.6204 18.7192 11.1775C19.162 10.7346 19.7263 10.433 20.3405 10.3108C20.9548 10.1887 21.5915 10.2514 22.1702 10.491C22.7488 10.7307 23.2434 11.1366 23.5913 11.6574C23.9393 12.1781 24.125 12.7904 24.125 13.4167C24.125 14.2565 23.7914 15.062 23.1975 15.6558C22.6036 16.2497 21.7982 16.5833 20.9583 16.5833ZM22.5417 0.75H19.375C16.4355 0.75 13.6164 1.9177 11.5379 3.99623C9.45937 6.07476 8.29167 8.89385 8.29167 11.8333V16.5833H6.70833C6.28841 16.5833 5.88568 16.7501 5.58875 17.0471C5.29182 17.344 5.125 17.7467 5.125 18.1667C5.125 18.5866 5.29182 18.9893 5.58875 19.2863C5.88568 19.5832 6.28841 19.75 6.70833 19.75H8.29167V22.9167H1.95833C1.53841 22.9167 1.13568 23.0835 0.838748 23.3804C0.541815 23.6773 0.375 24.0801 0.375 24.5V27.6667C0.375 28.0866 0.541815 28.4893 0.838748 28.7863C1.13568 29.0832 1.53841 29.25 1.95833 29.25C2.37826 29.25 2.78099 29.0832 3.07792 28.7863C3.37485 28.4893 3.54167 28.0866 3.54167 27.6667V26.0833H22.5417C25.4811 26.0833 28.3002 24.9156 30.3788 22.8371C32.4573 20.7586 33.625 17.9395 33.625 15V11.8333C33.625 8.89385 32.4573 6.07476 30.3788 3.99623C28.3002 1.9177 25.4811 0.75 22.5417 0.75ZM30.4583 15C30.4583 16.0396 30.2536 17.0691 29.8557 18.0296C29.4579 18.9901 28.8747 19.8628 28.1396 20.5979C27.4045 21.3331 26.5317 21.9162 25.5712 22.314C24.6108 22.7119 23.5813 22.9167 22.5417 22.9167H11.4583V11.8333C11.4583 9.7337 12.2924 7.72007 13.7771 6.2354C15.2617 4.75074 17.2754 3.91667 19.375 3.91667H22.5417C23.5813 3.91667 24.6108 4.12144 25.5712 4.51929C26.5317 4.91714 27.4045 5.50027 28.1396 6.2354C28.8747 6.97054 29.4579 7.84326 29.8557 8.80376C30.2536 9.76425 30.4583 10.7937 30.4583 11.8333V15Z" fill="white"/>
</svg>
