<svg width="584" height="580" viewBox="0 0 584 580" fill="none" xmlns="http://www.w3.org/2000/svg">
<g clip-path="url(#clip0_5_2510)">
<path d="M138.882 169.539L134.614 162.708L126.285 165.618C125.029 164.229 123.657 162.949 122.184 161.79L124.518 153.301L117.391 149.514L111.631 156.196C109.844 155.623 108.012 155.2 106.154 154.932L103.922 146.41L95.8395 146.696L94.1928 155.342C92.357 155.742 90.5579 156.295 88.8146 156.996L82.6169 150.733L75.7741 155.004L78.6763 163.314C77.2849 164.571 76.0011 165.942 74.8384 167.412L66.3431 165.092L62.5185 172.209L69.1983 177.957C68.626 179.742 68.2017 181.571 67.9295 183.425L59.3925 185.664L59.6701 193.738L68.3272 195.372C68.7233 197.207 69.2747 199.005 69.9753 200.747L63.6992 206.944L67.9675 213.775L76.2951 210.862C77.5528 212.25 78.9246 213.531 80.3962 214.69L78.0653 223.179L85.1898 226.966L90.9536 220.287C92.7457 220.861 94.583 221.285 96.4461 221.554L98.6787 230.079L106.76 229.791L108.407 221.145C110.244 220.747 112.043 220.195 113.786 219.494L119.971 225.758L126.814 221.487L123.909 213.171C125.302 211.915 126.586 210.545 127.747 209.073L136.263 211.385L140.061 204.261L133.379 198.515C133.953 196.73 134.378 194.9 134.65 193.045L143.184 190.807L142.907 182.734L134.253 181.098C133.854 179.265 133.302 177.468 132.603 175.728L138.882 169.539ZM112.308 205.838C108.818 208.014 104.762 209.109 100.652 208.984C96.542 208.859 92.5628 207.518 89.2176 205.133C85.8724 202.748 83.3116 199.425 81.8588 195.584C80.4061 191.743 80.1267 187.556 81.0561 183.554C81.9855 179.552 84.0819 175.914 87.0801 173.099C90.0783 170.285 93.8437 168.422 97.9002 167.744C101.957 167.066 106.122 167.605 109.869 169.293C113.616 170.98 116.777 173.74 118.952 177.224C120.397 179.537 121.371 182.113 121.819 184.804C122.266 187.495 122.178 190.248 121.559 192.906C120.941 195.564 119.804 198.075 118.214 200.295C116.624 202.515 114.612 204.4 112.293 205.843L112.308 205.838Z" fill="#222222"/>
<path d="M262.19 72.4544L259.714 58.8767L244.63 58.2428C243.509 55.2339 242.136 52.3247 240.526 49.546L249.591 37.5023L240.646 26.9831L227.267 33.9557C224.787 31.9195 222.141 30.0929 219.357 28.4949L221.188 13.529L208.174 8.90164L200.099 21.6268C196.926 21.101 193.715 20.8445 190.5 20.8598L184.593 7L170.994 9.47213L170.359 24.5331C167.344 25.6518 164.43 27.0227 161.646 28.6311L149.6 19.5793L139.061 28.5075L146.045 41.8697C144.005 44.3458 142.174 46.9865 140.572 49.7647L125.583 47.9391L120.93 60.9337L133.662 68.9966C133.137 72.1642 132.88 75.3703 132.894 78.5809L119 84.4791L121.479 98.0568L136.56 98.6907C137.682 101.7 139.055 104.611 140.664 107.391L131.599 119.419L140.544 129.941L153.923 122.968C156.413 124.991 159.066 126.803 161.855 128.388L160.024 143.354L173.038 148L181.117 135.297C184.289 135.822 187.5 136.078 190.716 136.064L196.639 149.94L210.237 147.465L210.872 132.404C213.886 131.286 216.8 129.915 219.582 128.306L231.644 137.361L242.18 128.429L235.145 115.076C237.186 112.6 239.017 109.958 240.618 107.178L255.607 109.007L260.26 96.0126L247.528 87.9464C248.055 84.7791 248.312 81.5729 248.296 78.3622L262.19 72.4544ZM196.985 113.413C190.062 114.672 182.92 113.852 176.463 111.059C170.007 108.265 164.524 103.623 160.71 97.7184C156.896 91.814 154.92 84.9128 155.034 77.8875C155.148 70.8622 157.345 64.0284 161.349 58.2501C165.352 52.4718 170.982 48.0087 177.526 45.425C184.07 42.8413 191.234 42.2531 198.113 43.7349C204.992 45.2166 211.276 48.7016 216.171 53.7494C221.066 58.7971 224.352 65.1807 225.613 72.0931C226.451 76.6832 226.376 81.3931 225.39 85.9539C224.405 90.5147 222.53 94.8371 219.871 98.6741C217.213 102.511 213.823 105.788 209.896 108.316C205.969 110.845 201.582 112.577 196.985 113.413Z" fill="#222222"/>
<path d="M244.928 580C231.481 579.99 218.077 578.486 204.964 575.515C204.789 575.465 204.639 575.349 204.547 575.192C204.454 575.035 204.425 574.849 204.466 574.671C204.507 574.494 204.614 574.339 204.765 574.237C204.917 574.136 205.101 574.097 205.281 574.127C231.292 580.043 258.301 580.062 284.32 574.181C284.411 574.16 284.505 574.157 284.597 574.173C284.689 574.189 284.778 574.222 284.857 574.272C284.936 574.321 285.005 574.386 285.059 574.462C285.113 574.538 285.151 574.624 285.172 574.715C285.193 574.806 285.196 574.9 285.18 574.992C285.165 575.084 285.131 575.172 285.081 575.251C285.032 575.33 284.967 575.399 284.891 575.453C284.814 575.507 284.728 575.545 284.637 575.566C271.606 578.505 258.288 579.992 244.928 580Z" fill="#FF1D1D"/>
<path d="M242.461 565.614C189.899 565.614 139.454 544.674 138.848 544.42C138.674 544.347 138.536 544.207 138.465 544.033C138.395 543.858 138.396 543.662 138.47 543.489C138.544 543.315 138.683 543.178 138.858 543.107C139.033 543.036 139.229 543.038 139.403 543.111C140.127 543.428 212.728 573.538 274.245 561.247C274.338 561.225 274.434 561.222 274.528 561.238C274.622 561.254 274.712 561.289 274.792 561.34C274.873 561.391 274.942 561.458 274.996 561.537C275.05 561.616 275.087 561.705 275.106 561.798C275.124 561.891 275.124 561.988 275.105 562.081C275.086 562.174 275.048 562.263 274.993 562.341C274.939 562.42 274.87 562.486 274.789 562.537C274.708 562.588 274.618 562.623 274.524 562.638C264.021 564.739 253.193 565.614 242.461 565.614Z" fill="#FF1D1D"/>
<path d="M98.2969 261.575C96.796 262.164 95.1553 262.3 93.5785 261.966C92.0018 261.632 90.5583 260.843 89.4272 259.697C87.8624 258.138 86.9708 256.028 86.9429 253.82C86.915 251.611 87.753 249.478 89.2778 247.876C90.0256 247.103 90.9207 246.487 91.9102 246.064C92.8996 245.642 93.9636 245.421 95.0393 245.416C96.1413 245.407 97.2337 245.619 98.252 246.039C99.2703 246.458 100.194 247.078 100.968 247.86C102.534 249.419 103.427 251.529 103.456 253.738C103.484 255.947 102.647 258.081 101.122 259.683C100.324 260.505 99.3612 261.15 98.2969 261.575ZM92.6335 247.305C91.7557 247.654 90.9619 248.185 90.3048 248.863C89.038 250.197 88.3439 251.973 88.371 253.811C88.3982 255.648 89.1444 257.401 90.45 258.694C91.09 259.343 91.8538 259.857 92.6961 260.206C93.5385 260.555 94.4425 260.733 95.3548 260.727C96.2423 260.722 97.12 260.54 97.9364 260.191C98.7528 259.842 99.4914 259.334 100.109 258.697C101.375 257.363 102.069 255.587 102.041 253.75C102.014 251.913 101.269 250.16 99.9638 248.866C99.3238 248.217 98.5601 247.703 97.7177 247.354C96.8753 247.005 95.9713 246.828 95.0589 246.833C94.225 246.832 93.3982 246.988 92.6218 247.292L92.6335 247.305Z" fill="#FF1D1D"/>
<path d="M295.808 44.509C295.714 44.5092 295.621 44.4909 295.535 44.455C295.448 44.419 295.369 44.3663 295.303 44.2998L292.208 41.2128C292.075 41.0795 292 40.8988 292 40.7104C292 40.522 292.075 40.3413 292.208 40.2081C292.342 40.0748 292.523 40 292.712 40C292.9 40 293.081 40.0748 293.215 40.2081L296.31 43.2982C296.408 43.3975 296.476 43.5238 296.503 43.6612C296.53 43.7986 296.516 43.9409 296.463 44.0704C296.409 44.1998 296.318 44.3105 296.202 44.3885C296.085 44.4666 295.948 44.5085 295.808 44.509Z" fill="#FF1D1D"/>
<path d="M306.639 55.3071C306.545 55.3069 306.453 55.2884 306.367 55.2525C306.281 55.2166 306.203 55.1641 306.137 55.0979L303.042 52.0109C302.976 51.945 302.924 51.8666 302.888 51.7804C302.852 51.6942 302.834 51.6019 302.834 51.5086C302.834 51.4153 302.852 51.3229 302.888 51.2367C302.924 51.1505 302.976 51.0722 303.042 51.0062C303.108 50.9403 303.187 50.8879 303.273 50.8522C303.359 50.8165 303.452 50.7981 303.545 50.7981C303.639 50.7981 303.731 50.8165 303.818 50.8522C303.904 50.8879 303.982 50.9403 304.048 51.0062L307.143 54.0932C307.242 54.1931 307.309 54.3198 307.336 54.4576C307.363 54.5953 307.348 54.7378 307.294 54.8674C307.241 54.997 307.15 55.1078 307.033 55.186C306.916 55.2642 306.779 55.3064 306.639 55.3071Z" fill="#FF1D1D"/>
<path d="M292.713 55.3071C292.573 55.3064 292.435 55.2642 292.319 55.186C292.202 55.1078 292.111 54.997 292.057 54.8674C292.003 54.7378 291.989 54.5953 292.016 54.4576C292.043 54.3198 292.11 54.1931 292.208 54.0932L295.303 51.0062C295.437 50.873 295.618 50.7981 295.806 50.7981C295.995 50.7981 296.176 50.873 296.31 51.0062C296.443 51.1395 296.518 51.3202 296.518 51.5086C296.518 51.697 296.443 51.8777 296.31 52.0109L293.215 55.0979C293.149 55.1641 293.071 55.2166 292.985 55.2525C292.899 55.2884 292.806 55.3069 292.713 55.3071Z" fill="#FF1D1D"/>
<path d="M303.544 44.509C303.403 44.5085 303.266 44.4666 303.15 44.3885C303.033 44.3105 302.943 44.1998 302.889 44.0704C302.835 43.9409 302.821 43.7986 302.848 43.6612C302.876 43.5238 302.943 43.3975 303.042 43.2982L306.137 40.2081C306.27 40.0748 306.451 40 306.64 40C306.829 40 307.01 40.0748 307.143 40.2081C307.277 40.3413 307.351 40.522 307.351 40.7104C307.351 40.8988 307.277 41.0795 307.143 41.2128L304.048 44.2998C303.982 44.3663 303.904 44.419 303.817 44.455C303.73 44.4909 303.637 44.5092 303.544 44.509Z" fill="#FF1D1D"/>
<path d="M557.009 447.928L149.558 447.161C145.298 447.161 141.924 443.323 142.193 438.784L160.617 131.568C160.864 127.419 164.089 124.19 167.981 124.19L576.007 123.448C580.267 123.448 584.26 128.031 583.975 132.57L565.539 439.786C565.304 443.931 560.888 447.928 557.009 447.928Z" fill="#222222"/>
<path d="M545.738 447.928H137.105C132.845 447.928 129.471 444.087 129.744 439.548L148.18 130.719C148.427 126.573 151.649 123.344 155.541 123.344H564.174C568.433 123.344 571.808 127.185 571.538 131.723L553.102 440.546C552.854 444.698 549.632 447.928 545.738 447.928Z" fill="white"/>
<path d="M341.631 448.638H276.368C276.18 448.638 275.999 448.563 275.866 448.43C275.732 448.297 275.657 448.116 275.657 447.928C275.657 447.74 275.732 447.559 275.866 447.426C275.999 447.293 276.18 447.218 276.368 447.218H341.631C341.819 447.218 342 447.293 342.134 447.426C342.267 447.559 342.342 447.74 342.342 447.928C342.342 448.116 342.267 448.297 342.134 448.43C342 448.563 341.819 448.638 341.631 448.638Z" fill="#222222"/>
<path d="M522.604 448.638H371.592C371.404 448.638 371.223 448.563 371.09 448.43C370.956 448.297 370.881 448.116 370.881 447.928C370.881 447.74 370.956 447.559 371.09 447.426C371.223 447.293 371.404 447.218 371.592 447.218H522.604C522.792 447.218 522.973 447.293 523.107 447.426C523.24 447.559 523.315 447.74 523.315 447.928C523.315 448.116 523.24 448.297 523.107 448.43C522.973 448.563 522.792 448.638 522.604 448.638Z" fill="#222222"/>
<path d="M554.467 432.027H554.426C554.237 432.016 554.061 431.932 553.936 431.791C553.81 431.651 553.745 431.467 553.756 431.279L570.827 131.685C570.893 130.672 570.752 129.656 570.412 128.699C570.073 127.741 569.542 126.863 568.852 126.117C568.256 125.47 567.533 124.954 566.728 124.599C565.923 124.245 565.054 124.06 564.174 124.057L468.515 124.209C468.326 124.209 468.145 124.134 468.012 124.001C467.879 123.868 467.804 123.687 467.804 123.499C467.804 123.311 467.879 123.13 468.012 122.997C468.145 122.864 468.326 122.789 468.515 122.789L564.177 122.637C565.251 122.639 566.312 122.864 567.296 123.295C568.279 123.726 569.162 124.356 569.89 125.144C570.714 126.03 571.347 127.074 571.753 128.213C572.158 129.352 572.327 130.562 572.249 131.768L555.175 431.355C555.165 431.536 555.086 431.707 554.955 431.832C554.823 431.957 554.648 432.027 554.467 432.027Z" fill="#222222"/>
<path d="M139.587 275.361H139.543C139.355 275.349 139.179 275.264 139.054 275.123C138.929 274.982 138.865 274.797 138.876 274.609L147.469 130.677C147.739 126.167 151.278 122.634 155.541 122.634H385.626C385.814 122.634 385.995 122.708 386.129 122.841C386.262 122.975 386.337 123.155 386.337 123.344C386.337 123.532 386.262 123.712 386.129 123.846C385.995 123.979 385.814 124.053 385.626 124.053H155.538C152.046 124.053 149.11 127.001 148.872 130.763L140.301 274.695C140.291 274.876 140.211 275.047 140.078 275.171C139.945 275.294 139.769 275.362 139.587 275.361Z" fill="#222222"/>
<path d="M538.351 435.944H146.421C142.476 435.944 139.352 432.388 139.603 428.183L156.677 142.157C156.906 138.316 159.893 135.327 163.496 135.327H555.429C559.374 135.327 562.498 138.883 562.247 143.086L545.173 429.111C544.944 432.94 541.957 435.944 538.351 435.944Z" fill="white"/>
<path d="M538.351 436.654H146.421C145.42 436.652 144.429 436.443 143.512 436.04C142.595 435.638 141.771 435.05 141.092 434.315C140.325 433.489 139.735 432.516 139.356 431.454C138.978 430.393 138.82 429.266 138.892 428.141L155.966 142.116C156.217 137.91 159.525 134.614 163.496 134.614H555.429C556.43 134.618 557.42 134.828 558.337 135.23C559.254 135.632 560.078 136.219 560.758 136.953C561.524 137.78 562.115 138.753 562.493 139.814C562.871 140.876 563.029 142.003 562.958 143.127L545.884 429.156C545.633 433.358 542.325 436.654 538.351 436.654ZM163.496 136.037C160.277 136.037 157.595 138.744 157.388 142.201L140.301 428.227C140.24 429.158 140.369 430.091 140.681 430.971C140.992 431.85 141.48 432.657 142.114 433.342C142.66 433.937 143.324 434.413 144.063 434.741C144.802 435.068 145.6 435.239 146.409 435.244H538.351C541.57 435.244 544.252 432.537 544.458 429.08L561.523 143.044C561.584 142.114 561.455 141.18 561.144 140.301C560.832 139.421 560.345 138.614 559.711 137.929C559.164 137.334 558.501 136.858 557.762 136.531C557.023 136.203 556.224 136.032 555.416 136.027L163.496 136.037Z" fill="#222222"/>
<path d="M475.625 192.807H559.276L560.082 179.385H476.431L479.082 135.33H457.18L454.526 179.385H289.545L292.119 135.33H278.324L276.203 171.642C275.912 176.619 274.048 181.376 270.88 185.229L229.761 235.22L235.675 135.333H213.756L207.408 242.716H150.659L149.418 263.786H202.11C202.63 263.785 203.145 263.89 203.623 264.096C204.1 264.301 204.531 264.602 204.888 264.979C205.245 265.357 205.52 265.804 205.698 266.292C205.875 266.78 205.95 267.299 205.919 267.817L203.062 316.027C202.807 320.343 203.87 324.634 206.11 328.334L213.484 340.527H182.033C180.016 340.526 178.076 341.296 176.609 342.678C175.142 344.059 174.259 345.949 174.142 347.959L171.987 384.813H142.187L141.279 398.238H171.203L169 435.954H182.795L185.017 398.238H248.349L271.134 435.954H293.052L270.268 398.238H415.159L384.14 435.954H406.042L434.027 401.93C434.976 400.777 436.169 399.847 437.521 399.209C438.873 398.572 440.349 398.241 441.845 398.241H546.953L547.804 384.816H448.117L461.354 368.721C463.898 365.63 465.398 361.813 465.639 357.819L475.625 192.807ZM453.707 192.807L449.301 265.982H284.485L288.761 192.807H453.707ZM228.456 329.044C225.934 324.877 224.738 320.044 225.025 315.184L227.666 270.603C227.93 266.167 229.597 261.929 232.427 258.499L274.08 207.982L266.862 331.494C266.719 333.935 265.647 336.23 263.866 337.908C262.084 339.586 259.728 340.52 257.279 340.52H235.398L228.456 329.044ZM185.785 384.806L187.353 357.933C187.416 356.854 187.89 355.841 188.677 355.1C189.464 354.358 190.506 353.946 191.588 353.946H221.594L240.239 384.806H185.785ZM257.84 377.65L243.518 353.946H265.976C269.612 353.945 273.109 352.553 275.747 350.055C278.385 347.558 279.964 344.145 280.158 340.52H280.139L283.71 279.408H448.504L443.892 356.003C443.585 361.125 441.663 366.018 438.401 369.983L426.208 384.806H270.528C267.973 384.806 265.462 384.147 263.238 382.893C261.013 381.639 259.151 379.833 257.831 377.65H257.84Z" fill="white"/>
<path d="M406.055 436.654H384.153C384.018 436.656 383.885 436.618 383.771 436.546C383.656 436.475 383.565 436.372 383.507 436.25C383.449 436.128 383.428 435.992 383.445 435.858C383.462 435.724 383.517 435.598 383.604 435.494L413.667 398.942H271.528L293.662 435.577C293.727 435.685 293.763 435.808 293.764 435.934C293.766 436.06 293.735 436.184 293.673 436.294C293.611 436.403 293.52 436.495 293.411 436.558C293.302 436.621 293.178 436.655 293.052 436.654H271.134C271.012 436.654 270.892 436.622 270.785 436.562C270.678 436.503 270.589 436.416 270.525 436.312L247.95 398.942H185.671L183.506 435.986C183.495 436.166 183.415 436.336 183.283 436.46C183.151 436.585 182.976 436.654 182.795 436.654H169C168.903 436.655 168.807 436.636 168.718 436.598C168.629 436.56 168.548 436.503 168.482 436.433C168.415 436.363 168.364 436.279 168.332 436.188C168.299 436.097 168.285 436 168.292 435.903L170.45 398.942H141.279C141.182 398.942 141.085 398.922 140.996 398.884C140.906 398.845 140.825 398.788 140.759 398.717C140.692 398.646 140.641 398.562 140.608 398.471C140.575 398.379 140.562 398.281 140.568 398.184L141.479 384.759C141.49 384.579 141.57 384.41 141.702 384.287C141.833 384.164 142.007 384.096 142.187 384.096H171.317L173.431 347.911C173.561 345.721 174.524 343.663 176.123 342.157C177.722 340.651 179.836 339.812 182.033 339.81H212.22L205.497 328.695C203.18 324.877 202.083 320.445 202.352 315.989L205.208 267.779C205.233 267.358 205.171 266.936 205.027 266.539C204.882 266.142 204.658 265.779 204.368 265.472C204.078 265.165 203.728 264.92 203.34 264.753C202.951 264.586 202.533 264.499 202.11 264.499H149.418C149.321 264.498 149.226 264.478 149.137 264.439C149.048 264.401 148.968 264.345 148.902 264.275C148.836 264.205 148.784 264.122 148.751 264.031C148.717 263.941 148.702 263.844 148.707 263.748L149.951 242.678C149.962 242.497 150.041 242.327 150.172 242.203C150.304 242.079 150.478 242.009 150.659 242.009H206.729L213.046 135.292C213.057 135.111 213.137 134.942 213.269 134.817C213.401 134.693 213.575 134.624 213.757 134.623H235.659C235.756 134.623 235.852 134.643 235.941 134.682C236.03 134.721 236.11 134.777 236.176 134.848C236.244 134.918 236.296 135.002 236.329 135.093C236.362 135.184 236.376 135.281 236.37 135.378L230.586 233.09L270.331 184.776C273.413 181.045 275.221 176.429 275.492 171.601L277.616 135.286C277.626 135.105 277.706 134.936 277.837 134.811C277.969 134.687 278.143 134.618 278.324 134.617H292.119C292.216 134.618 292.312 134.638 292.401 134.677C292.49 134.716 292.57 134.772 292.636 134.842C292.703 134.913 292.754 134.996 292.787 135.087C292.821 135.178 292.835 135.275 292.83 135.371L290.291 178.675H453.837L456.446 135.286C456.458 135.105 456.537 134.935 456.669 134.811C456.801 134.687 456.976 134.618 457.157 134.617H479.06C479.157 134.617 479.254 134.638 479.343 134.676C479.432 134.715 479.513 134.771 479.58 134.842C479.647 134.913 479.698 134.996 479.73 135.087C479.763 135.178 479.777 135.275 479.771 135.371L477.165 178.675H560.06C560.157 178.676 560.253 178.696 560.342 178.735C560.43 178.773 560.51 178.83 560.577 178.9C560.643 178.971 560.695 179.054 560.728 179.145C560.762 179.236 560.776 179.333 560.771 179.429L559.965 192.855C559.953 193.035 559.873 193.205 559.741 193.328C559.609 193.452 559.435 193.521 559.254 193.52H476.292L466.35 357.857C466.106 362.001 464.55 365.961 461.906 369.165L449.622 384.099H547.817C547.914 384.1 548.011 384.12 548.1 384.159C548.19 384.197 548.27 384.254 548.337 384.324C548.404 384.395 548.455 384.478 548.488 384.569C548.52 384.66 548.534 384.757 548.528 384.854L547.677 398.279C547.665 398.46 547.585 398.629 547.453 398.752C547.321 398.876 547.147 398.945 546.966 398.945H441.854C440.464 398.942 439.09 399.249 437.832 399.843C436.575 400.436 435.466 401.302 434.585 402.377L406.62 436.395C406.552 436.478 406.466 436.545 406.368 436.59C406.27 436.635 406.163 436.657 406.055 436.654ZM385.645 435.235H405.722L433.49 401.471C434.504 400.234 435.781 399.238 437.228 398.555C438.676 397.872 440.257 397.519 441.858 397.522H546.29L547.052 385.516H448.117C447.982 385.517 447.849 385.48 447.735 385.408C447.62 385.336 447.529 385.233 447.471 385.111C447.413 384.989 447.392 384.854 447.409 384.72C447.426 384.586 447.481 384.46 447.568 384.356L460.805 368.259C463.262 365.289 464.708 361.614 464.931 357.768L474.917 192.766C474.929 192.585 475.008 192.415 475.14 192.291C475.272 192.167 475.447 192.098 475.628 192.097H558.609L559.33 180.095H476.431C476.334 180.095 476.238 180.075 476.149 180.036C476.06 179.997 475.98 179.941 475.914 179.87C475.848 179.799 475.797 179.716 475.763 179.625C475.73 179.534 475.715 179.437 475.72 179.34L478.33 136.037H457.837L455.224 179.426C455.213 179.607 455.133 179.777 455.001 179.901C454.869 180.025 454.695 180.094 454.513 180.095H289.545C289.448 180.094 289.352 180.074 289.263 180.035C289.174 179.996 289.094 179.94 289.027 179.87C288.961 179.799 288.91 179.716 288.877 179.625C288.844 179.534 288.831 179.437 288.837 179.34L291.376 136.037H278.997L276.911 171.68C276.623 176.809 274.703 181.713 271.429 185.676L230.31 235.67C230.216 235.79 230.086 235.877 229.939 235.918C229.791 235.959 229.635 235.951 229.493 235.896C229.35 235.841 229.229 235.741 229.148 235.612C229.066 235.483 229.029 235.331 229.041 235.179L234.91 136.037H214.426L208.11 242.751C208.099 242.932 208.02 243.102 207.887 243.226C207.755 243.351 207.58 243.42 207.399 243.419H151.332L150.173 263.07H202.107C202.724 263.07 203.334 263.196 203.899 263.44C204.465 263.684 204.976 264.041 205.398 264.488C205.821 264.936 206.148 265.466 206.359 266.044C206.57 266.622 206.66 267.238 206.624 267.852L203.767 316.062C203.514 320.234 204.541 324.385 206.71 327.96L214.087 340.153C214.152 340.26 214.187 340.383 214.189 340.509C214.191 340.634 214.16 340.758 214.098 340.868C214.037 340.978 213.947 341.069 213.838 341.132C213.73 341.196 213.606 341.23 213.48 341.23H182.033C180.197 341.232 178.431 341.934 177.096 343.192C175.761 344.45 174.958 346.17 174.85 348L172.698 384.854C172.687 385.034 172.608 385.204 172.477 385.328C172.345 385.453 172.171 385.522 171.99 385.523H142.841L142.028 397.528H171.19C171.287 397.528 171.383 397.548 171.472 397.586C171.561 397.624 171.641 397.68 171.708 397.75C171.775 397.821 171.826 397.904 171.859 397.995C171.892 398.086 171.907 398.183 171.901 398.279L169.743 435.241H182.122L184.287 398.197C184.297 398.016 184.377 397.847 184.508 397.722C184.64 397.598 184.814 397.529 184.995 397.528H248.349C248.472 397.528 248.592 397.559 248.699 397.619C248.806 397.679 248.895 397.766 248.959 397.87L271.537 435.241H291.792L269.658 398.603C269.593 398.495 269.557 398.372 269.555 398.246C269.553 398.12 269.585 397.996 269.647 397.887C269.709 397.777 269.799 397.686 269.908 397.623C270.018 397.56 270.142 397.527 270.268 397.528H415.159C415.294 397.528 415.425 397.567 415.539 397.639C415.653 397.711 415.744 397.813 415.801 397.935C415.859 398.056 415.88 398.192 415.864 398.325C415.847 398.458 415.793 398.584 415.708 398.688L385.645 435.235ZM426.199 385.516H270.528C267.853 385.508 265.224 384.814 262.894 383.501C260.565 382.188 258.611 380.3 257.221 378.017L242.899 354.31C242.834 354.203 242.799 354.079 242.797 353.953C242.795 353.827 242.826 353.703 242.888 353.594C242.95 353.484 243.041 353.393 243.15 353.329C243.259 353.266 243.383 353.232 243.509 353.233H265.967C269.394 353.233 272.692 351.931 275.193 349.591C277.694 347.251 279.209 344.049 279.432 340.634C279.425 340.583 279.425 340.531 279.432 340.479L283.003 279.367C283.012 279.186 283.091 279.016 283.223 278.891C283.355 278.767 283.529 278.698 283.71 278.698H448.504C448.601 278.697 448.697 278.717 448.786 278.755C448.875 278.793 448.955 278.849 449.022 278.92C449.088 278.991 449.139 279.074 449.172 279.165C449.205 279.256 449.22 279.352 449.215 279.449L444.603 356.044C444.297 361.318 442.317 366.358 438.95 370.433L426.758 385.256C426.69 385.339 426.605 385.405 426.508 385.45C426.411 385.495 426.306 385.518 426.199 385.516ZM258.44 377.276C259.702 379.35 261.476 381.066 263.593 382.259C265.709 383.452 268.097 384.083 270.528 384.09H425.863L437.842 369.511C441.017 365.665 442.885 360.911 443.175 355.936L447.739 280.096H284.374L280.851 340.393C280.857 340.445 280.857 340.497 280.851 340.549C280.648 344.355 278.992 347.939 276.224 350.563C273.455 353.188 269.784 354.652 265.967 354.656H244.769L258.44 377.276ZM240.239 385.516H185.785C185.688 385.516 185.592 385.497 185.503 385.458C185.414 385.42 185.334 385.364 185.267 385.294C185.201 385.224 185.149 385.14 185.116 385.049C185.083 384.958 185.069 384.862 185.074 384.765L186.661 357.892C186.736 356.633 187.289 355.449 188.207 354.584C189.126 353.718 190.34 353.235 191.604 353.233H221.594C221.716 353.234 221.837 353.266 221.943 353.326C222.05 353.387 222.14 353.474 222.203 353.578L240.849 384.448C240.914 384.556 240.95 384.679 240.951 384.805C240.953 384.931 240.922 385.055 240.86 385.165C240.798 385.275 240.707 385.366 240.598 385.429C240.489 385.493 240.365 385.526 240.239 385.526V385.516ZM186.537 384.096H238.979L221.203 354.656H191.588C190.688 354.657 189.822 355 189.167 355.617C188.512 356.234 188.118 357.077 188.064 357.974L186.537 384.096ZM257.279 341.23H235.399C235.276 341.23 235.156 341.198 235.049 341.138C234.943 341.078 234.853 340.992 234.789 340.888L227.847 329.411C225.246 325.126 224.014 320.151 224.317 315.149L226.958 270.562C227.219 265.974 228.942 261.59 231.875 258.049L273.534 207.529C273.628 207.408 273.759 207.321 273.906 207.281C274.054 207.24 274.211 207.248 274.353 207.304C274.496 207.359 274.617 207.459 274.698 207.589C274.779 207.719 274.816 207.871 274.804 208.023L267.589 331.535C267.432 334.159 266.278 336.624 264.361 338.426C262.445 340.229 259.911 341.232 257.279 341.23ZM235.802 339.81H257.279C259.549 339.814 261.735 338.95 263.388 337.395C265.041 335.84 266.035 333.713 266.166 331.449L273.242 210.131L232.97 258.94C230.23 262.249 228.619 266.345 228.374 270.632L225.736 315.228C225.453 319.942 226.614 324.629 229.066 328.667L235.802 339.81ZM449.301 266.692H284.485C284.388 266.693 284.292 266.674 284.203 266.635C284.114 266.597 284.033 266.541 283.967 266.471C283.901 266.4 283.849 266.317 283.817 266.226C283.784 266.135 283.771 266.038 283.777 265.941L288.053 192.766C288.063 192.586 288.142 192.416 288.274 192.292C288.406 192.167 288.58 192.098 288.761 192.097H453.707C453.804 192.097 453.9 192.117 453.989 192.156C454.078 192.195 454.158 192.251 454.224 192.322C454.29 192.393 454.342 192.476 454.375 192.567C454.408 192.658 454.423 192.755 454.418 192.852L450.012 266.023C450.002 266.205 449.922 266.375 449.79 266.499C449.658 266.623 449.483 266.693 449.301 266.692ZM285.24 265.279H448.631L452.964 193.517H289.434L285.24 265.279Z" fill="#222222"/>
<path d="M263.608 392.216C260.757 392.225 257.977 391.327 255.672 389.652C255.52 389.541 255.417 389.374 255.388 389.188C255.358 389.002 255.404 388.811 255.515 388.659C255.626 388.506 255.794 388.404 255.98 388.374C256.167 388.345 256.358 388.391 256.51 388.502C258.568 390 261.051 390.804 263.598 390.796H264.109C264.298 390.796 264.479 390.871 264.612 391.004C264.746 391.137 264.821 391.318 264.821 391.506C264.821 391.695 264.746 391.875 264.612 392.008C264.479 392.141 264.298 392.216 264.109 392.216H263.608ZM272.655 392.216C272.466 392.216 272.285 392.141 272.152 392.008C272.018 391.875 271.944 391.695 271.944 391.506C271.944 391.318 272.018 391.137 272.152 391.004C272.285 390.871 272.466 390.796 272.655 390.796H281.19C281.371 390.808 281.54 390.889 281.664 391.021C281.788 391.153 281.857 391.327 281.857 391.508C281.857 391.689 281.788 391.863 281.664 391.995C281.54 392.127 281.371 392.207 281.19 392.219H272.655V392.216ZM289.722 392.188C289.534 392.188 289.353 392.113 289.22 391.98C289.086 391.847 289.011 391.666 289.011 391.478C289.011 391.29 289.086 391.109 289.22 390.976C289.353 390.843 289.534 390.768 289.722 390.768H298.255C298.443 390.768 298.624 390.843 298.758 390.976C298.891 391.109 298.966 391.29 298.966 391.478C298.966 391.666 298.891 391.847 298.758 391.98C298.624 392.113 298.443 392.188 298.255 392.188H289.719H289.722ZM306.79 392.162C306.602 392.162 306.421 392.088 306.288 391.954C306.154 391.821 306.079 391.641 306.079 391.452C306.079 391.264 306.154 391.084 306.288 390.95C306.421 390.817 306.602 390.743 306.79 390.743H315.323C315.511 390.743 315.692 390.817 315.825 390.95C315.959 391.084 316.034 391.264 316.034 391.452C316.034 391.641 315.959 391.821 315.825 391.954C315.692 392.088 315.511 392.162 315.323 392.162H306.79ZM323.861 392.134C323.673 392.134 323.492 392.059 323.359 391.926C323.225 391.793 323.15 391.612 323.15 391.424C323.15 391.236 323.225 391.055 323.359 390.922C323.492 390.789 323.673 390.714 323.861 390.714H332.397C332.586 390.714 332.766 390.789 332.9 390.922C333.033 391.055 333.108 391.236 333.108 391.424C333.108 391.612 333.033 391.793 332.9 391.926C332.766 392.059 332.586 392.134 332.397 392.134H323.861ZM340.929 392.109C340.741 392.109 340.56 392.034 340.426 391.901C340.293 391.767 340.218 391.587 340.218 391.399C340.218 391.21 340.293 391.03 340.426 390.897C340.56 390.763 340.741 390.689 340.929 390.689L349.465 390.673C349.653 390.673 349.834 390.748 349.968 390.881C350.101 391.014 350.176 391.194 350.176 391.383C350.176 391.571 350.101 391.752 349.968 391.885C349.834 392.018 349.653 392.093 349.465 392.093L340.929 392.109ZM357.997 392.08C357.809 392.08 357.628 392.005 357.494 391.872C357.361 391.739 357.286 391.558 357.286 391.37C357.286 391.182 357.361 391.001 357.494 390.868C357.628 390.735 357.809 390.66 357.997 390.66H366.53C366.718 390.66 366.899 390.735 367.032 390.868C367.166 391.001 367.241 391.182 367.241 391.37C367.241 391.558 367.166 391.739 367.032 391.872C366.899 392.005 366.718 392.08 366.53 392.08H357.997ZM375.065 392.055C374.876 392.055 374.696 391.98 374.562 391.847C374.429 391.714 374.354 391.533 374.354 391.345C374.354 391.156 374.429 390.976 374.562 390.843C374.696 390.71 374.876 390.635 375.065 390.635H383.597C383.786 390.635 383.967 390.71 384.1 390.843C384.234 390.976 384.308 391.156 384.308 391.345C384.308 391.533 384.234 391.714 384.1 391.847C383.967 391.98 383.786 392.055 383.597 392.055H375.065ZM392.133 392.026C391.944 392.026 391.764 391.951 391.63 391.818C391.497 391.685 391.422 391.504 391.422 391.316C391.422 391.128 391.497 390.947 391.63 390.814C391.764 390.681 391.944 390.606 392.133 390.606H400.668C400.857 390.606 401.038 390.681 401.171 390.814C401.305 390.947 401.38 391.128 401.38 391.316C401.38 391.504 401.305 391.685 401.171 391.818C401.038 391.951 400.857 392.026 400.668 392.026H392.133ZM409.204 392.001C409.015 392.001 408.835 391.926 408.701 391.793C408.568 391.66 408.493 391.479 408.493 391.291C408.493 391.103 408.568 390.922 408.701 390.789C408.835 390.656 409.015 390.581 409.204 390.581H417.74C417.928 390.581 418.109 390.656 418.242 390.789C418.376 390.922 418.451 391.103 418.451 391.291C418.451 391.479 418.376 391.66 418.242 391.793C418.109 391.926 417.928 392.001 417.74 392.001H409.204ZM426.269 391.912C426.086 391.913 425.91 391.843 425.777 391.717C425.644 391.592 425.565 391.419 425.556 391.237C425.547 391.054 425.609 390.876 425.728 390.737C425.848 390.599 426.017 390.513 426.199 390.495C428.894 390.223 431.415 389.038 433.344 387.139C433.409 387.069 433.488 387.012 433.576 386.973C433.663 386.934 433.758 386.914 433.854 386.912C433.95 386.91 434.045 386.928 434.134 386.964C434.222 387.001 434.303 387.054 434.37 387.122C434.438 387.19 434.491 387.271 434.526 387.36C434.562 387.449 434.579 387.544 434.576 387.64C434.574 387.736 434.552 387.83 434.512 387.917C434.472 388.004 434.415 388.082 434.344 388.147C432.184 390.275 429.361 391.602 426.342 391.909L426.269 391.912ZM250.924 383.126C250.8 383.126 250.679 383.094 250.572 383.032C250.464 382.971 250.374 382.884 250.311 382.778L245.953 375.45C245.904 375.37 245.871 375.281 245.856 375.188C245.842 375.095 245.846 375 245.869 374.909C245.891 374.817 245.932 374.732 245.988 374.656C246.044 374.58 246.114 374.517 246.195 374.469C246.276 374.421 246.366 374.389 246.459 374.376C246.553 374.363 246.648 374.368 246.739 374.392C246.83 374.416 246.915 374.457 246.99 374.514C247.065 374.572 247.128 374.643 247.175 374.724L251.533 382.052C251.581 382.132 251.613 382.221 251.627 382.313C251.64 382.405 251.635 382.5 251.612 382.59C251.589 382.681 251.549 382.766 251.493 382.84C251.436 382.915 251.366 382.978 251.286 383.025C251.175 383.087 251.05 383.118 250.924 383.114V383.126ZM439.242 381.757C439.08 381.758 438.923 381.702 438.797 381.599C438.725 381.541 438.664 381.469 438.619 381.388C438.574 381.306 438.545 381.217 438.535 381.124C438.525 381.032 438.533 380.938 438.559 380.849C438.585 380.76 438.628 380.676 438.686 380.604L444.022 373.948C444.079 373.87 444.15 373.804 444.233 373.755C444.316 373.705 444.408 373.673 444.503 373.66C444.599 373.647 444.696 373.654 444.789 373.68C444.882 373.706 444.968 373.75 445.043 373.81C445.119 373.87 445.181 373.945 445.226 374.03C445.271 374.115 445.299 374.208 445.307 374.304C445.315 374.4 445.304 374.497 445.273 374.588C445.243 374.679 445.194 374.763 445.13 374.835L439.797 381.491C439.729 381.572 439.644 381.637 439.548 381.68C439.452 381.724 439.348 381.746 439.242 381.745V381.757ZM242.195 368.458C242.071 368.459 241.95 368.427 241.842 368.367C241.735 368.306 241.645 368.219 241.582 368.113L237.224 360.785C237.174 360.705 237.142 360.616 237.127 360.523C237.113 360.43 237.117 360.335 237.139 360.244C237.162 360.153 237.202 360.067 237.259 359.991C237.315 359.916 237.385 359.852 237.466 359.804C237.547 359.756 237.637 359.724 237.73 359.711C237.823 359.698 237.918 359.703 238.01 359.727C238.101 359.751 238.186 359.793 238.261 359.85C238.336 359.907 238.399 359.978 238.446 360.06L242.829 367.387C242.894 367.495 242.929 367.617 242.931 367.743C242.932 367.868 242.9 367.992 242.838 368.101C242.776 368.21 242.686 368.3 242.578 368.363C242.469 368.426 242.346 368.459 242.22 368.458H242.195ZM449.71 368.303C449.583 368.303 449.459 368.269 449.349 368.205C449.24 368.141 449.149 368.048 449.088 367.937C449.026 367.826 448.996 367.701 448.999 367.574C449.002 367.447 449.04 367.324 449.107 367.216C450.59 364.855 451.782 362.323 452.656 359.676C452.682 359.583 452.726 359.497 452.786 359.422C452.846 359.347 452.921 359.285 453.006 359.239C453.091 359.194 453.184 359.166 453.28 359.158C453.376 359.149 453.473 359.161 453.564 359.191C453.655 359.221 453.74 359.269 453.812 359.333C453.884 359.396 453.943 359.474 453.984 359.561C454.025 359.648 454.048 359.742 454.052 359.838C454.056 359.934 454.04 360.03 454.005 360.12C453.097 362.876 451.857 365.512 450.314 367.97C450.25 368.07 450.163 368.153 450.06 368.211C449.957 368.269 449.841 368.301 449.723 368.303H449.71ZM233.478 353.806C233.354 353.806 233.233 353.774 233.125 353.713C233.018 353.652 232.928 353.564 232.865 353.458L228.507 346.133C228.414 345.972 228.388 345.78 228.435 345.599C228.483 345.419 228.599 345.264 228.76 345.169C228.92 345.073 229.112 345.045 229.294 345.089C229.475 345.134 229.632 345.248 229.729 345.407L234.088 352.735C234.136 352.815 234.167 352.903 234.181 352.995C234.194 353.088 234.19 353.181 234.167 353.272C234.144 353.362 234.103 353.447 234.047 353.521C233.991 353.595 233.92 353.658 233.84 353.705C233.735 353.769 233.614 353.804 233.491 353.806H233.478ZM454.999 352.272H454.945C454.852 352.266 454.761 352.24 454.677 352.198C454.594 352.157 454.519 352.099 454.458 352.028C454.397 351.957 454.351 351.875 454.322 351.787C454.292 351.698 454.281 351.605 454.288 351.512C454.307 351.261 454.323 351.008 454.339 350.757L454.745 343.018C454.747 342.924 454.769 342.831 454.808 342.745C454.848 342.66 454.904 342.583 454.974 342.52C455.044 342.457 455.127 342.409 455.216 342.379C455.305 342.349 455.4 342.338 455.494 342.346C455.682 342.356 455.859 342.441 455.985 342.581C456.111 342.721 456.176 342.906 456.167 343.094L455.761 350.833C455.761 351.096 455.726 351.36 455.707 351.619C455.693 351.795 455.614 351.959 455.485 352.08C455.357 352.2 455.188 352.269 455.011 352.272H454.999ZM224.762 339.151C224.638 339.151 224.517 339.12 224.409 339.059C224.302 338.999 224.212 338.911 224.149 338.806L219.791 331.478C219.743 331.398 219.712 331.309 219.698 331.216C219.685 331.124 219.69 331.03 219.713 330.939C219.736 330.849 219.777 330.764 219.833 330.689C219.889 330.614 219.959 330.551 220.04 330.503C220.12 330.456 220.209 330.424 220.302 330.411C220.395 330.398 220.489 330.403 220.58 330.426C220.67 330.449 220.755 330.49 220.83 330.546C220.905 330.602 220.968 330.672 221.016 330.752L225.371 338.08C225.436 338.187 225.471 338.31 225.472 338.435C225.474 338.561 225.442 338.684 225.38 338.793C225.318 338.902 225.228 338.993 225.119 339.056C225.011 339.119 224.887 339.152 224.762 339.151ZM455.907 335.253H455.869C455.775 335.248 455.683 335.225 455.599 335.185C455.514 335.145 455.438 335.089 455.376 335.019C455.313 334.949 455.265 334.868 455.234 334.78C455.203 334.692 455.19 334.598 455.196 334.505L455.643 325.998C455.646 325.904 455.668 325.812 455.707 325.726C455.747 325.641 455.803 325.565 455.873 325.502C455.943 325.439 456.026 325.391 456.115 325.361C456.204 325.331 456.298 325.319 456.392 325.326C456.58 325.336 456.757 325.42 456.883 325.56C457.009 325.699 457.075 325.883 457.065 326.071L456.614 334.581C456.606 334.76 456.529 334.929 456.4 335.054C456.271 335.179 456.099 335.25 455.919 335.253H455.907ZM216.35 324.34C216.208 324.341 216.069 324.299 215.952 324.219C215.834 324.14 215.743 324.028 215.69 323.897C214.599 321.192 213.915 318.342 213.658 315.438C213.641 315.252 213.698 315.067 213.817 314.922C213.936 314.778 214.107 314.687 214.293 314.667C214.385 314.658 214.478 314.667 214.567 314.694C214.656 314.721 214.738 314.766 214.809 314.825C214.881 314.883 214.94 314.956 214.983 315.038C215.026 315.12 215.053 315.209 215.061 315.301C215.305 318.068 215.958 320.782 216.997 323.358C217.04 323.466 217.056 323.582 217.044 323.697C217.031 323.813 216.991 323.923 216.926 324.019C216.861 324.115 216.773 324.194 216.67 324.248C216.568 324.302 216.453 324.331 216.337 324.331L216.35 324.34ZM456.802 318.236H456.773C456.585 318.226 456.409 318.142 456.282 318.003C456.156 317.863 456.091 317.679 456.1 317.491L456.551 308.982C456.552 308.886 456.572 308.791 456.61 308.703C456.649 308.616 456.705 308.537 456.775 308.471C456.844 308.405 456.927 308.354 457.017 308.321C457.107 308.288 457.203 308.274 457.299 308.279C457.394 308.284 457.488 308.308 457.574 308.35C457.66 308.392 457.737 308.451 457.8 308.524C457.863 308.596 457.91 308.68 457.939 308.772C457.968 308.863 457.979 308.959 457.97 309.054L457.522 317.564C457.513 317.745 457.434 317.916 457.302 318.041C457.171 318.166 456.996 318.236 456.814 318.236H456.802ZM214.55 307.571H214.512C214.419 307.566 214.327 307.543 214.243 307.503C214.158 307.463 214.083 307.406 214.02 307.337C213.958 307.267 213.909 307.186 213.878 307.098C213.847 307.01 213.834 306.916 213.839 306.823L214.302 298.317C214.313 298.128 214.397 297.952 214.538 297.826C214.678 297.7 214.863 297.635 215.052 297.645C215.24 297.655 215.417 297.739 215.543 297.879C215.669 298.02 215.735 298.204 215.725 298.393L215.261 306.902C215.251 307.083 215.171 307.254 215.039 307.378C214.907 307.502 214.732 307.571 214.55 307.571ZM457.725 301.217H457.687C457.499 301.207 457.323 301.123 457.197 300.983C457.07 300.843 457.005 300.66 457.014 300.472L457.462 291.962C457.464 291.868 457.485 291.775 457.524 291.689C457.564 291.603 457.62 291.526 457.69 291.463C457.761 291.4 457.843 291.352 457.933 291.323C458.022 291.293 458.117 291.282 458.211 291.29C458.399 291.3 458.576 291.384 458.702 291.523C458.828 291.663 458.894 291.847 458.884 292.035L458.436 300.545C458.426 300.726 458.347 300.896 458.214 301.021C458.082 301.146 457.907 301.216 457.725 301.217ZM215.48 290.555H215.439C215.251 290.544 215.075 290.459 214.949 290.319C214.823 290.179 214.759 289.995 214.769 289.807L215.233 281.297C215.234 281.201 215.255 281.107 215.295 281.02C215.334 280.933 215.39 280.855 215.46 280.79C215.53 280.725 215.612 280.675 215.702 280.643C215.792 280.61 215.888 280.596 215.983 280.602C216.079 280.607 216.172 280.631 216.258 280.674C216.343 280.716 216.42 280.775 216.482 280.847C216.544 280.919 216.592 281.003 216.621 281.094C216.65 281.185 216.66 281.281 216.651 281.376L216.188 289.883C216.179 290.064 216.101 290.235 215.969 290.36C215.837 290.485 215.662 290.555 215.48 290.555ZM458.611 284.197H458.573C458.48 284.192 458.388 284.169 458.304 284.129C458.219 284.088 458.144 284.032 458.081 283.962C458.019 283.893 457.97 283.812 457.939 283.724C457.908 283.635 457.895 283.542 457.9 283.449L458.348 274.939C458.351 274.845 458.373 274.753 458.413 274.668C458.452 274.583 458.509 274.507 458.579 274.444C458.649 274.381 458.731 274.333 458.82 274.303C458.909 274.272 459.003 274.26 459.097 274.267C459.285 274.278 459.462 274.362 459.588 274.503C459.714 274.643 459.779 274.827 459.77 275.015L459.313 283.525C459.303 283.705 459.225 283.874 459.095 283.999C458.964 284.124 458.792 284.195 458.611 284.197ZM216.417 273.538H216.378C216.285 273.534 216.193 273.511 216.109 273.471C216.024 273.431 215.948 273.374 215.886 273.304C215.823 273.235 215.775 273.154 215.744 273.065C215.713 272.977 215.7 272.884 215.705 272.79L216.166 264.28C216.169 264.187 216.192 264.095 216.232 264.01C216.272 263.925 216.328 263.85 216.398 263.787C216.468 263.725 216.55 263.677 216.639 263.647C216.727 263.617 216.821 263.605 216.915 263.612C217.008 263.616 217.1 263.64 217.184 263.68C217.268 263.72 217.344 263.777 217.406 263.846C217.468 263.916 217.516 263.997 217.547 264.085C217.577 264.173 217.59 264.266 217.585 264.36L217.118 272.866C217.108 273.048 217.028 273.218 216.896 273.343C216.764 273.468 216.589 273.538 216.407 273.538H216.417ZM459.506 267.18H459.468C459.28 267.17 459.103 267.085 458.977 266.945C458.851 266.805 458.786 266.621 458.795 266.432L459.246 257.923C459.247 257.827 459.268 257.733 459.307 257.645C459.345 257.558 459.401 257.479 459.471 257.414C459.541 257.348 459.624 257.298 459.714 257.265C459.804 257.232 459.899 257.218 459.995 257.223C460.091 257.228 460.184 257.253 460.27 257.295C460.356 257.337 460.433 257.396 460.495 257.469C460.558 257.541 460.605 257.625 460.634 257.716C460.663 257.807 460.674 257.903 460.665 257.999L460.217 266.508C460.207 266.69 460.128 266.861 459.996 266.986C459.864 267.111 459.688 267.181 459.506 267.18ZM216.042 256.721C215.918 256.721 215.797 256.689 215.689 256.628C215.582 256.567 215.492 256.479 215.429 256.373C214.82 255.342 213.953 254.487 212.914 253.891C211.875 253.295 210.698 252.978 209.5 252.972H208.865C208.676 252.972 208.496 252.897 208.362 252.764C208.229 252.631 208.154 252.45 208.154 252.262C208.154 252.074 208.229 251.893 208.362 251.76C208.496 251.627 208.676 251.552 208.865 251.552H209.5C210.946 251.556 212.366 251.934 213.622 252.649C214.877 253.365 215.926 254.393 216.664 255.634C216.728 255.742 216.762 255.865 216.763 255.99C216.764 256.115 216.732 256.239 216.67 256.348C216.607 256.456 216.517 256.547 216.409 256.61C216.3 256.673 216.177 256.706 216.051 256.705L216.042 256.721ZM200.317 252.988H191.788C191.599 252.988 191.418 252.913 191.285 252.78C191.151 252.647 191.077 252.466 191.077 252.278C191.077 252.09 191.151 251.909 191.285 251.776C191.418 251.643 191.599 251.568 191.788 251.568H200.323C200.512 251.568 200.693 251.643 200.826 251.776C200.959 251.909 201.034 252.09 201.034 252.278C201.034 252.466 200.959 252.647 200.826 252.78C200.693 252.913 200.512 252.988 200.323 252.988H200.317ZM183.249 252.988H174.72C174.531 252.988 174.35 252.913 174.217 252.78C174.084 252.647 174.009 252.466 174.009 252.278C174.009 252.09 174.084 251.909 174.217 251.776C174.35 251.643 174.531 251.568 174.72 251.568H183.255C183.444 251.568 183.625 251.643 183.758 251.776C183.891 251.909 183.966 252.09 183.966 252.278C183.966 252.466 183.891 252.647 183.758 252.78C183.625 252.913 183.444 252.988 183.255 252.988H183.249ZM166.178 252.988H157.652C157.463 252.988 157.282 252.913 157.149 252.78C157.016 252.647 156.941 252.466 156.941 252.278C156.941 252.09 157.016 251.909 157.149 251.776C157.282 251.643 157.463 251.568 157.652 251.568H166.184C166.373 251.568 166.554 251.643 166.687 251.776C166.82 251.909 166.895 252.09 166.895 252.278C166.895 252.466 166.82 252.647 166.687 252.78C166.554 252.913 166.373 252.988 166.184 252.988H166.178ZM460.398 250.173H460.36C460.172 250.163 459.995 250.078 459.869 249.938C459.743 249.798 459.678 249.613 459.687 249.425L460.135 240.916C460.138 240.82 460.161 240.727 460.202 240.641C460.243 240.554 460.301 240.477 460.372 240.414C460.444 240.351 460.527 240.303 460.618 240.273C460.709 240.243 460.805 240.232 460.9 240.24C461.088 240.251 461.265 240.336 461.391 240.476C461.517 240.616 461.582 240.8 461.573 240.988L461.125 249.498C461.111 249.679 461.029 249.848 460.895 249.97C460.762 250.093 460.586 250.16 460.404 250.157L460.398 250.173ZM461.296 233.154H461.258C461.165 233.149 461.073 233.126 460.989 233.085C460.905 233.045 460.829 232.989 460.766 232.919C460.704 232.85 460.656 232.769 460.625 232.68C460.594 232.592 460.58 232.499 460.585 232.406L461.033 223.896C461.036 223.802 461.058 223.71 461.098 223.625C461.138 223.54 461.194 223.463 461.264 223.401C461.334 223.338 461.416 223.29 461.505 223.26C461.594 223.229 461.688 223.217 461.782 223.224C461.97 223.235 462.147 223.319 462.273 223.459C462.399 223.6 462.465 223.784 462.455 223.972L462.004 232.482C461.991 232.659 461.911 232.825 461.781 232.946C461.652 233.068 461.481 233.136 461.303 233.138L461.296 233.154ZM462.192 216.134H462.169C461.981 216.123 461.805 216.039 461.678 215.899C461.552 215.758 461.487 215.574 461.496 215.386L461.944 206.879C461.946 206.785 461.968 206.693 462.007 206.607C462.047 206.521 462.103 206.445 462.173 206.382C462.244 206.319 462.326 206.271 462.415 206.241C462.505 206.211 462.599 206.2 462.693 206.207C462.881 206.217 463.058 206.301 463.184 206.441C463.31 206.581 463.376 206.764 463.366 206.952L462.918 215.462C462.906 215.643 462.824 215.812 462.689 215.934C462.555 216.056 462.379 216.122 462.198 216.118L462.192 216.134ZM463.09 199.114H463.052C462.959 199.11 462.867 199.087 462.783 199.047C462.698 199.007 462.623 198.951 462.56 198.882C462.498 198.813 462.449 198.732 462.418 198.644C462.387 198.556 462.374 198.463 462.379 198.37L462.826 189.86C462.83 189.766 462.852 189.674 462.892 189.589C462.932 189.504 462.989 189.428 463.059 189.365C463.129 189.303 463.21 189.255 463.299 189.224C463.388 189.194 463.482 189.181 463.576 189.188C463.764 189.198 463.94 189.282 464.066 189.421C464.193 189.561 464.258 189.745 464.249 189.933L463.798 198.442C463.785 198.62 463.706 198.786 463.576 198.908C463.446 199.029 463.274 199.097 463.096 199.098L463.09 199.114ZM463.988 182.098H463.947C463.759 182.088 463.582 182.004 463.456 181.864C463.33 181.725 463.264 181.541 463.274 181.353L463.338 180.155C463.338 180.025 463.338 179.898 463.338 179.768C463.338 178.717 463.106 177.679 462.661 176.728C462.215 175.776 461.565 174.933 460.757 174.26C460.617 174.137 460.532 173.965 460.518 173.78C460.504 173.596 460.563 173.413 460.682 173.271C460.802 173.129 460.972 173.039 461.157 173.021C461.341 173.002 461.526 173.057 461.671 173.173C462.638 173.979 463.416 174.988 463.949 176.128C464.483 177.268 464.76 178.51 464.76 179.768C464.76 179.924 464.76 180.085 464.76 180.231L464.696 181.426C464.683 181.603 464.603 181.769 464.473 181.89C464.343 182.012 464.173 182.08 463.995 182.082L463.988 182.098ZM453.132 172.536L444.6 172.425C444.411 172.425 444.231 172.35 444.097 172.217C443.964 172.084 443.889 171.903 443.889 171.715C443.889 171.527 443.964 171.346 444.097 171.213C444.231 171.08 444.411 171.005 444.6 171.005L453.132 171.116C453.321 171.116 453.502 171.191 453.635 171.324C453.768 171.457 453.843 171.638 453.843 171.826C453.843 172.014 453.768 172.195 453.635 172.328C453.502 172.461 453.321 172.536 453.132 172.536ZM436.064 172.311L428.964 172.216C428.775 172.216 428.594 172.141 428.461 172.008C428.328 171.875 428.253 171.694 428.253 171.506C428.253 171.317 428.328 171.137 428.461 171.004C428.594 170.871 428.775 170.796 428.964 170.796L436.064 170.891C436.253 170.891 436.434 170.966 436.567 171.099C436.701 171.232 436.775 171.412 436.775 171.601C436.775 171.789 436.701 171.97 436.567 172.103C436.434 172.236 436.253 172.311 436.064 172.311Z" fill="#222222"/>
<path d="M429.957 0C401.738 0 378.852 22.7721 378.852 50.8657C378.852 57.8891 382.045 67.7079 386.835 78.4902C398.897 105.668 421.117 138.95 427.916 148.892C428.141 149.221 428.443 149.491 428.796 149.677C429.149 149.864 429.542 149.961 429.941 149.961C430.341 149.961 430.734 149.864 431.087 149.677C431.44 149.491 431.742 149.221 431.967 148.892C441.451 135.01 481.034 75.587 481.034 50.8625C481.047 22.7721 458.17 0 429.957 0Z" fill="#222222"/>
<path d="M429.954 87.1997C450.12 87.1997 466.467 70.877 466.467 50.7421C466.467 30.6071 450.12 14.2845 429.954 14.2845C409.788 14.2845 393.441 30.6071 393.441 50.7421C393.441 70.877 409.788 87.1997 429.954 87.1997Z" fill="#FF1D1D"/>
<path d="M429.954 177.765C435.834 177.765 440.6 173.006 440.6 167.135C440.6 161.264 435.834 156.505 429.954 156.505C424.074 156.505 419.308 161.264 419.308 167.135C419.308 173.006 424.074 177.765 429.954 177.765Z" fill="#222222"/>
<path d="M449.168 39.2308H412.01V69.6792H449.168V39.2308Z" fill="#FF1D1D"/>
<path d="M449.155 70.3892H412.016C411.923 70.3896 411.83 70.3715 411.743 70.3361C411.657 70.3006 411.578 70.2483 411.512 70.1824C411.445 70.1164 411.393 70.038 411.357 69.9517C411.321 69.8653 411.302 69.7727 411.302 69.6792V39.2308C411.303 39.0422 411.379 38.8617 411.513 38.7286C411.646 38.5956 411.828 38.5209 412.016 38.5209H449.155C449.344 38.5209 449.524 38.5957 449.658 38.7288C449.791 38.862 449.866 39.0425 449.866 39.2308V69.6792C449.866 69.8675 449.791 70.0481 449.658 70.1812C449.524 70.3144 449.344 70.3892 449.155 70.3892ZM412.708 68.9693H448.457V39.9344H412.721L412.708 68.9693Z" fill="white"/>
<path d="M440.235 52.8085H432.201V69.6792H440.235V52.8085Z" fill="#FF1D1D"/>
<path d="M440.235 70.3892H432.201C432.013 70.3892 431.832 70.3144 431.699 70.1812C431.565 70.0481 431.49 69.8675 431.49 69.6792V52.8085C431.49 52.6202 431.565 52.4397 431.699 52.3065C431.832 52.1734 432.013 52.0986 432.201 52.0986H440.235C440.424 52.0986 440.605 52.1734 440.738 52.3065C440.872 52.4397 440.946 52.6202 440.946 52.8085V69.6792C440.946 69.8675 440.872 70.0481 440.738 70.1812C440.605 70.3144 440.424 70.3892 440.235 70.3892ZM432.912 68.9693H439.524V53.5185H432.912V68.9693Z" fill="white"/>
<path d="M424.602 50.7706H416.362V58.9984H424.602V50.7706Z" fill="#FF1D1D"/>
<path d="M424.605 59.7083H416.352C416.164 59.7083 415.983 59.6335 415.85 59.5004C415.716 59.3672 415.641 59.1866 415.641 58.9984V50.7579C415.641 50.5696 415.716 50.3891 415.85 50.2559C415.983 50.1228 416.164 50.048 416.352 50.048H424.605C424.794 50.048 424.975 50.1228 425.108 50.2559C425.242 50.3891 425.316 50.5696 425.316 50.7579V58.9984C425.316 59.1866 425.242 59.3672 425.108 59.5004C424.975 59.6335 424.794 59.7083 424.605 59.7083ZM417.073 58.2884H423.894V51.4805H417.073V58.2884Z" fill="white"/>
<path d="M451.282 33.1583H409.026V40.2545H451.282V33.1583Z" fill="#FF1D1D"/>
<path d="M451.282 40.9676H409.026C408.838 40.9676 408.657 40.8928 408.523 40.7597C408.39 40.6266 408.315 40.446 408.315 40.2577V33.1583C408.315 32.97 408.39 32.7894 408.523 32.6562C408.657 32.5231 408.838 32.4483 409.026 32.4483H451.282C451.47 32.4483 451.651 32.5231 451.785 32.6562C451.918 32.7894 451.993 32.97 451.993 33.1583V40.2514C451.994 40.3451 451.976 40.4381 451.94 40.525C451.905 40.6119 451.853 40.6909 451.787 40.7575C451.721 40.8241 451.642 40.8769 451.555 40.913C451.469 40.9491 451.376 40.9677 451.282 40.9676ZM409.737 39.5478H450.571V33.8682H409.737V39.5478Z" fill="white"/>
<path d="M306.908 465.239H293.316C287.761 465.239 283.26 478.551 283.26 494.813C283.26 511.075 287.761 524.396 293.316 524.396H306.908C312.463 524.396 316.967 511.085 316.967 494.819C316.967 478.554 312.463 465.239 306.908 465.239Z" fill="#222222"/>
<path d="M293.316 523.914C298.87 523.914 303.372 510.733 303.372 494.474C303.372 478.214 298.87 465.033 293.316 465.033C287.762 465.033 283.26 478.214 283.26 494.474C283.26 510.733 287.762 523.914 293.316 523.914Z" fill="white"/>
<path d="M293.316 524.624C287.285 524.624 282.549 511.379 282.549 494.474C282.549 477.568 287.269 464.317 293.316 464.317C299.363 464.317 304.092 477.568 304.092 494.474C304.092 511.379 299.353 524.624 293.316 524.624ZM293.316 465.743C288.802 465.743 283.971 477.289 283.971 494.474C283.971 511.658 288.802 523.204 293.316 523.204C297.829 523.204 302.661 511.658 302.661 494.474C302.661 477.289 297.829 465.743 293.316 465.743Z" fill="#222222"/>
<path d="M265.57 467.417H251.974C246.423 467.417 241.918 480.728 241.918 496.99C241.918 513.252 246.423 526.57 251.974 526.57H265.57C271.121 526.57 275.626 513.259 275.626 496.993C275.626 480.728 271.121 467.417 265.57 467.417Z" fill="#222222"/>
<path d="M251.974 526.092C257.528 526.092 262.03 512.911 262.03 496.651C262.03 480.392 257.528 467.211 251.974 467.211C246.421 467.211 241.918 480.392 241.918 496.651C241.918 512.911 246.421 526.092 251.974 526.092Z" fill="white"/>
<path d="M251.974 526.799C245.943 526.799 241.207 513.557 241.207 496.651C241.207 479.746 245.937 466.501 251.974 466.501C258.012 466.501 262.745 479.742 262.745 496.651C262.745 513.56 258.012 526.799 251.974 526.799ZM251.974 467.921C247.461 467.921 242.629 479.464 242.629 496.651C242.629 513.839 247.461 525.379 251.974 525.379C256.488 525.379 261.319 513.836 261.319 496.651C261.319 479.467 256.479 467.921 251.974 467.921Z" fill="#222222"/>
<path d="M154.693 468.012H143.044C138.283 468.012 134.423 479.349 134.423 493.285C134.423 507.221 138.283 518.564 143.044 518.564H154.693C159.455 518.564 163.315 507.224 163.315 493.288C163.315 479.353 159.455 468.012 154.693 468.012Z" fill="#222222"/>
<path d="M303.565 509.839L303.229 329.421L11.9987 366.24V495.317L303.565 509.839Z" fill="white"/>
<path d="M303.565 510.549H303.53L11.9605 496.027C11.7784 496.018 11.6067 495.939 11.4813 495.807C11.356 495.674 11.2866 495.499 11.2876 495.317V366.24C11.2877 366.068 11.3505 365.901 11.4644 365.772C11.5783 365.642 11.7355 365.559 11.9066 365.536L303.14 328.714C303.24 328.703 303.341 328.712 303.437 328.741C303.533 328.771 303.622 328.82 303.699 328.885C303.774 328.952 303.835 329.034 303.876 329.126C303.918 329.218 303.939 329.317 303.94 329.418L304.276 509.839C304.276 510.027 304.201 510.208 304.068 510.341C303.935 510.474 303.754 510.549 303.565 510.549ZM12.697 494.642L302.842 509.094L302.508 330.226L12.697 366.867V494.642Z" fill="#222222"/>
<path d="M342.986 463.604H206.986V288.498L342.986 294.884V463.604Z" fill="white"/>
<path d="M342.986 464.317C342.798 464.317 342.617 464.242 342.483 464.109C342.35 463.976 342.275 463.795 342.275 463.607V295.559L206.961 289.208C206.864 289.208 206.769 289.188 206.681 289.15C206.592 289.113 206.512 289.057 206.446 288.988C206.379 288.918 206.328 288.836 206.294 288.746C206.26 288.656 206.245 288.56 206.25 288.464C206.254 288.368 206.278 288.274 206.32 288.188C206.362 288.101 206.421 288.024 206.494 287.961C206.567 287.898 206.651 287.851 206.743 287.822C206.835 287.792 206.931 287.782 207.027 287.791L343.028 294.174C343.21 294.182 343.383 294.261 343.509 294.393C343.635 294.525 343.705 294.701 343.704 294.884V463.604C343.704 463.698 343.686 463.791 343.65 463.878C343.614 463.965 343.561 464.044 343.494 464.11C343.427 464.176 343.348 464.229 343.261 464.264C343.174 464.3 343.08 464.318 342.986 464.317Z" fill="#222222"/>
<path d="M206.986 463.604V288.498L0.71106 301.296V461.664L206.986 463.604Z" fill="white"/>
<path d="M194.511 300.966V374.382L129.154 376.071V304.75L194.511 300.966Z" fill="white"/>
<path d="M129.154 376.781C128.965 376.781 128.785 376.705 128.652 376.572C128.519 376.439 128.443 376.259 128.443 376.071V304.76C128.443 304.579 128.512 304.405 128.637 304.273C128.761 304.141 128.931 304.061 129.112 304.05L194.47 300.266C194.565 300.261 194.661 300.276 194.751 300.309C194.84 300.342 194.922 300.392 194.992 300.458C195.062 300.523 195.117 300.602 195.156 300.689C195.194 300.776 195.215 300.871 195.216 300.966V374.382C195.216 374.568 195.143 374.746 195.013 374.879C194.883 375.011 194.706 375.088 194.521 375.092L129.166 376.781H129.154ZM129.865 305.419V375.342L193.8 373.691V301.727L129.865 305.419Z" fill="#222222"/>
<path d="M206.989 300.966H194.511V374.385H206.989V300.966Z" fill="white"/>
<path d="M206.986 375.092H194.511C194.323 375.092 194.142 375.017 194.008 374.884C193.875 374.751 193.8 374.57 193.8 374.382V300.966C193.8 300.778 193.875 300.597 194.008 300.464C194.142 300.331 194.323 300.256 194.511 300.256H206.986C207.174 300.256 207.355 300.331 207.489 300.464C207.622 300.597 207.697 300.778 207.697 300.966V374.382C207.697 374.57 207.622 374.751 207.489 374.884C207.355 375.017 207.174 375.092 206.986 375.092ZM195.216 373.672H206.268V301.676H195.216V373.672Z" fill="#222222"/>
<path d="M155.874 304.269L155.963 313.222L165.908 312.87L166.086 303.647L155.874 304.269Z" fill="#FF1D1D"/>
<path d="M144.272 362.535C144.089 362.533 143.913 362.462 143.78 362.335C143.711 362.269 143.656 362.19 143.618 362.103C143.581 362.015 143.561 361.92 143.561 361.825V327.694C143.561 327.51 143.632 327.334 143.759 327.201C143.887 327.069 144.06 326.991 144.244 326.984L178.662 325.564C178.758 325.558 178.855 325.573 178.945 325.607C179.035 325.64 179.117 325.693 179.186 325.76C179.255 325.827 179.31 325.907 179.348 325.995C179.385 326.083 179.405 326.178 179.405 326.274V360.405C179.405 360.588 179.334 360.765 179.207 360.897C179.08 361.03 178.906 361.108 178.722 361.115L144.304 362.532L144.272 362.535ZM144.987 328.375V361.083L177.999 359.724V327.015L144.987 328.375Z" fill="#222222"/>
<path d="M172.526 344.108C172.659 344.101 172.789 344.068 172.908 344.009C173.027 343.951 173.133 343.869 173.22 343.768C173.306 343.667 173.37 343.549 173.41 343.422C173.449 343.296 173.461 343.162 173.447 343.03C172.856 338.232 167.733 334.676 161.483 334.933C155.233 335.189 150.113 339.17 149.519 344.016C149.502 344.145 149.513 344.275 149.552 344.399C149.591 344.523 149.657 344.637 149.745 344.732C149.832 344.828 149.94 344.903 150.06 344.952C150.181 345.002 150.31 345.024 150.44 345.018L172.526 344.108Z" fill="#222222"/>
<path d="M159.274 357.102C158.564 357.105 157.882 356.832 157.369 356.342C157.104 356.087 156.894 355.781 156.751 355.443C156.608 355.105 156.535 354.741 156.538 354.374V352.726C156.538 352.537 156.613 352.357 156.746 352.224C156.879 352.09 157.06 352.016 157.249 352.016C157.437 352.016 157.618 352.09 157.751 352.224C157.885 352.357 157.96 352.537 157.96 352.726V354.374C157.957 354.551 157.991 354.727 158.059 354.89C158.127 355.054 158.229 355.202 158.356 355.324C158.488 355.447 158.643 355.542 158.812 355.604C158.981 355.667 159.161 355.694 159.341 355.686C159.724 355.669 160.087 355.506 160.354 355.231C160.621 354.956 160.773 354.589 160.778 354.206V331.801C160.778 331.613 160.853 331.432 160.987 331.299C161.12 331.166 161.301 331.091 161.489 331.091C161.678 331.091 161.859 331.166 161.992 331.299C162.126 331.432 162.2 331.613 162.2 331.801V354.206C162.192 354.955 161.897 355.672 161.376 356.211C160.855 356.75 160.147 357.07 159.398 357.106L159.274 357.102Z" fill="#222222"/>
<path d="M194.511 380.981V454.4H129.154V382.239L194.511 380.981Z" fill="white"/>
<path d="M194.511 455.126H129.154C129.06 455.126 128.968 455.107 128.881 455.072C128.795 455.036 128.717 454.984 128.651 454.918C128.585 454.852 128.532 454.774 128.497 454.687C128.461 454.601 128.443 454.509 128.443 454.416V382.23C128.443 382.044 128.517 381.865 128.647 381.733C128.778 381.6 128.955 381.524 129.141 381.52L194.495 380.252C194.59 380.25 194.684 380.267 194.773 380.302C194.861 380.337 194.941 380.389 195.009 380.455C195.144 380.59 195.22 380.771 195.222 380.962V454.381C195.227 454.477 195.212 454.573 195.178 454.663C195.145 454.753 195.093 454.836 195.027 454.906C194.96 454.975 194.88 455.031 194.792 455.069C194.703 455.106 194.608 455.126 194.511 455.126ZM129.865 453.706H193.8V381.707L129.865 382.933V453.706Z" fill="#222222"/>
<path d="M206.989 380.981H194.511V454.4H206.989V380.981Z" fill="white"/>
<path d="M206.986 455.126H194.511C194.323 455.126 194.142 455.051 194.008 454.918C193.875 454.785 193.8 454.604 193.8 454.416V380.981C193.8 380.793 193.875 380.612 194.008 380.479C194.142 380.346 194.323 380.271 194.511 380.271H206.986C207.174 380.271 207.355 380.346 207.489 380.479C207.622 380.612 207.697 380.793 207.697 380.981V454.4C207.699 454.494 207.682 454.588 207.647 454.676C207.613 454.764 207.561 454.845 207.494 454.912C207.428 454.98 207.349 455.034 207.262 455.07C207.174 455.107 207.081 455.126 206.986 455.126ZM195.216 453.69H206.268V381.691H195.216V453.69Z" fill="#222222"/>
<path d="M154.021 382.553V391.421L163.87 391.598L164.096 382.375L154.021 382.553Z" fill="#FF1D1D"/>
<path d="M178.846 443.465H145.003C144.814 443.465 144.633 443.391 144.5 443.258C144.366 443.124 144.292 442.944 144.292 442.756V408.963C144.292 408.775 144.366 408.595 144.5 408.461C144.633 408.328 144.814 408.253 145.003 408.253H178.846C179.035 408.253 179.216 408.328 179.349 408.461C179.482 408.595 179.557 408.775 179.557 408.963V442.765C179.555 442.952 179.479 443.13 179.346 443.261C179.213 443.392 179.033 443.465 178.846 443.465ZM145.714 442.046H178.135V409.673H145.714V442.046Z" fill="#222222"/>
<path d="M173.948 433.989H149.897V438.049H173.948V433.989Z" fill="#222222"/>
<path d="M157.484 415.641H153.417V429.564H157.484V415.641Z" fill="#222222"/>
<path d="M150.065 418.332L155.452 412.954L160.836 418.332H150.065Z" fill="#222222"/>
<path d="M170.431 415.641H166.365V429.564H170.431V415.641Z" fill="#222222"/>
<path d="M163.01 418.332L168.397 412.954L173.783 418.332H163.01Z" fill="#222222"/>
<path d="M128.773 384.179H116.295V454.4H128.773V384.179Z" fill="white"/>
<path d="M128.769 455.126H116.295C116.106 455.126 115.925 455.051 115.792 454.918C115.659 454.785 115.584 454.604 115.584 454.416V384.179C115.584 383.99 115.659 383.81 115.792 383.677C115.925 383.544 116.106 383.469 116.295 383.469H128.769C128.958 383.469 129.139 383.544 129.272 383.677C129.406 383.81 129.48 383.99 129.48 384.179V454.4C129.483 454.494 129.466 454.588 129.431 454.676C129.396 454.764 129.344 454.845 129.278 454.912C129.212 454.98 129.133 455.033 129.045 455.07C128.958 455.107 128.864 455.126 128.769 455.126ZM117.006 453.706H128.058V384.889H117.006V453.706Z" fill="#222222"/>
<path d="M116.18 384.179V454.4H52.9178V386.21L116.18 384.179Z" fill="white"/>
<path d="M116.177 455.126H52.9178C52.7292 455.126 52.5483 455.051 52.415 454.918C52.2816 454.785 52.2067 454.604 52.2067 454.416V386.21C52.2066 386.026 52.2785 385.848 52.4071 385.716C52.5356 385.583 52.7108 385.506 52.8955 385.5L116.158 383.469C116.254 383.463 116.349 383.478 116.439 383.512C116.528 383.546 116.609 383.6 116.676 383.668C116.744 383.735 116.798 383.814 116.835 383.902C116.872 383.99 116.891 384.084 116.891 384.179V454.4C116.894 454.495 116.877 454.589 116.842 454.677C116.807 454.765 116.754 454.846 116.688 454.913C116.621 454.981 116.542 455.035 116.454 455.071C116.366 455.108 116.272 455.126 116.177 455.126ZM53.6447 453.69H115.469V384.914L53.6447 386.898V453.69Z" fill="#222222"/>
<path d="M77.9244 386.099V394.967L87.8185 395.145L88.0217 385.922L77.9244 386.099Z" fill="#FF1D1D"/>
<path d="M101.976 442.679H67.7923C67.6037 442.679 67.4228 442.605 67.2895 442.472C67.1562 442.338 67.0812 442.158 67.0812 441.97V407.838C67.0812 407.65 67.1562 407.469 67.2895 407.336C67.4228 407.203 67.6037 407.128 67.7923 407.128H101.976C102.164 407.128 102.345 407.203 102.478 407.336C102.612 407.469 102.687 407.65 102.687 407.838V441.97C102.687 442.158 102.612 442.338 102.478 442.472C102.345 442.605 102.164 442.679 101.976 442.679ZM68.5033 441.26H101.258V408.536H68.5033V441.26Z" fill="#222222"/>
<path d="M95.8621 425.419C95.993 425.418 96.1222 425.39 96.2413 425.335C96.3604 425.281 96.4666 425.202 96.553 425.104C96.6393 425.006 96.7039 424.891 96.7424 424.766C96.7809 424.641 96.7924 424.509 96.7763 424.379C96.189 419.559 91.0912 415.787 84.8951 415.787C78.699 415.787 73.5916 419.559 73.0076 424.383C72.9914 424.512 73.003 424.644 73.0417 424.77C73.0804 424.895 73.1452 425.01 73.2319 425.108C73.3186 425.207 73.4252 425.285 73.5447 425.34C73.6642 425.394 73.7938 425.422 73.9249 425.422L95.8621 425.419Z" fill="#222222"/>
<path d="M82.7778 437.868C82.0308 437.867 81.3147 437.571 80.7867 437.043C80.2588 436.515 79.9623 435.8 79.9623 435.054V433.409C79.9623 433.221 80.0372 433.04 80.1705 432.907C80.3039 432.774 80.4847 432.699 80.6733 432.699C80.8619 432.699 81.0427 432.774 81.1761 432.907C81.3094 433.04 81.3843 433.221 81.3843 433.409V435.054C81.3753 435.242 81.4047 435.431 81.4708 435.608C81.5368 435.784 81.6381 435.946 81.7686 436.083C81.899 436.219 82.0558 436.328 82.2296 436.402C82.4033 436.477 82.5904 436.515 82.7794 436.515C82.9684 436.515 83.1555 436.477 83.3292 436.402C83.503 436.328 83.6598 436.219 83.7903 436.083C83.9207 435.946 84.022 435.784 84.088 435.608C84.1541 435.431 84.1835 435.242 84.1745 435.054V412.656C84.1745 412.467 84.2494 412.287 84.3828 412.154C84.5161 412.021 84.697 411.946 84.8855 411.946C85.0741 411.946 85.255 412.021 85.3883 412.154C85.5216 412.287 85.5966 412.467 85.5966 412.656V435.057C85.5949 435.803 85.2973 436.517 84.7689 437.044C84.2406 437.571 83.5246 437.867 82.7778 437.868Z" fill="#222222"/>
<path d="M128.773 305.822H116.295V376.043H128.773V305.822Z" fill="white"/>
<path d="M128.769 376.753H116.295C116.106 376.753 115.925 376.678 115.792 376.545C115.659 376.412 115.584 376.231 115.584 376.043V305.822C115.584 305.633 115.659 305.453 115.792 305.32C115.925 305.186 116.106 305.112 116.295 305.112H128.769C128.958 305.112 129.139 305.186 129.272 305.32C129.406 305.453 129.48 305.633 129.48 305.822V376.043C129.48 376.231 129.406 376.412 129.272 376.545C129.139 376.678 128.958 376.753 128.769 376.753ZM117.006 375.333H128.058V306.532H117.006V375.333Z" fill="#222222"/>
<path d="M116.18 305.822V376.043L52.9178 377.729V307.853L116.18 305.822Z" fill="white"/>
<path d="M52.9178 378.426C52.7329 378.427 52.5552 378.355 52.4226 378.227C52.3543 378.16 52.3001 378.081 52.263 377.993C52.2259 377.906 52.2068 377.811 52.2067 377.716V307.853C52.2066 307.669 52.2785 307.491 52.4071 307.359C52.5356 307.226 52.7108 307.149 52.8955 307.143L116.158 305.112C116.254 305.107 116.349 305.123 116.438 305.157C116.527 305.191 116.608 305.244 116.676 305.311C116.744 305.378 116.798 305.457 116.835 305.545C116.872 305.633 116.891 305.727 116.891 305.822V376.043C116.891 376.228 116.819 376.406 116.69 376.538C116.561 376.671 116.385 376.748 116.199 376.753L52.9368 378.426H52.9178ZM53.6447 308.541V377L115.485 375.352V306.554L53.6447 308.541Z" fill="#222222"/>
<path d="M80.0575 308.081V316.946L89.9516 317.124L90.1547 307.726L80.0575 308.081Z" fill="#FF1D1D"/>
<path d="M67.9287 361.901C67.7442 361.9 67.5669 361.829 67.4336 361.701C67.3653 361.635 67.3111 361.556 67.274 361.468C67.2369 361.38 67.2178 361.286 67.2177 361.191V327.399C67.2176 327.214 67.2893 327.036 67.4178 326.903C67.5463 326.77 67.7215 326.692 67.9065 326.686L102.823 325.624C102.918 325.621 103.013 325.637 103.102 325.671C103.191 325.705 103.272 325.757 103.341 325.824C103.409 325.89 103.463 325.969 103.5 326.057C103.537 326.145 103.556 326.239 103.556 326.334V360.126C103.557 360.311 103.485 360.488 103.356 360.62C103.228 360.753 103.052 360.83 102.868 360.836L67.951 361.901H67.9287ZM68.6398 328.087V360.459L102.128 359.438V327.082L68.6398 328.087Z" fill="#222222"/>
<path d="M97.7856 355.572L72.9789 356.329V352.269L97.7856 351.515V355.572Z" fill="#222222"/>
<path d="M76.6103 347.737V333.814L80.8035 333.687V347.61L76.6103 347.737Z" fill="#222222"/>
<path d="M73.1504 336.609L78.7085 331.06L84.2634 336.27L73.1504 336.609Z" fill="#222222"/>
<path d="M89.9644 347.331V333.405L94.1575 333.278V347.201L89.9644 347.331Z" fill="#222222"/>
<path d="M86.5044 336.2L92.0593 330.654L97.6174 335.861L86.5044 336.2Z" fill="#222222"/>
<path d="M184.106 472.285H171.028C165.68 472.285 161.344 485.105 161.344 500.762C161.344 516.419 165.68 529.245 171.028 529.245H184.106C189.455 529.245 193.791 516.419 193.791 500.765C193.791 485.111 189.464 472.285 184.106 472.285Z" fill="#222222"/>
<path d="M171.028 528.779C176.377 528.779 180.713 516.088 180.713 500.432C180.713 484.777 176.377 472.085 171.028 472.085C165.679 472.085 161.344 484.777 161.344 500.432C161.344 516.088 165.679 528.779 171.028 528.779Z" fill="white"/>
<path d="M171.028 529.492C165.197 529.492 160.632 516.726 160.632 500.432C160.632 484.138 165.197 471.375 171.028 471.375C176.859 471.375 181.421 484.138 181.421 500.432C181.421 516.726 176.856 529.492 171.028 529.492ZM171.028 472.795C166.692 472.795 162.055 483.888 162.055 500.432C162.055 516.977 166.692 528.069 171.028 528.069C175.364 528.069 179.998 516.977 179.998 500.432C179.998 483.888 175.361 472.795 171.028 472.795Z" fill="#222222"/>
<path d="M224.885 473.16H211.293C205.738 473.16 201.237 486.471 201.237 502.733C201.237 518.995 205.738 532.313 211.293 532.313H224.885C230.44 532.313 234.941 519.002 234.941 502.736C234.941 486.471 230.45 473.16 224.885 473.16Z" fill="#222222"/>
<path d="M211.293 531.831C216.847 531.831 221.349 518.65 221.349 502.391C221.349 486.131 216.847 472.95 211.293 472.95C205.74 472.95 201.237 486.131 201.237 502.391C201.237 518.65 205.74 531.831 211.293 531.831Z" fill="white"/>
<path d="M211.293 532.541C205.262 532.541 200.526 519.3 200.526 502.391C200.526 485.482 205.256 472.24 211.293 472.24C217.331 472.24 222.06 485.485 222.06 502.391C222.06 519.297 217.331 532.541 211.293 532.541ZM211.293 473.664C206.78 473.664 201.948 485.206 201.948 502.391C201.948 519.575 206.78 531.122 211.293 531.122C215.807 531.122 220.638 519.575 220.638 502.391C220.638 485.206 215.807 473.664 211.293 473.664Z" fill="#222222"/>
<path d="M41.1286 468.722H29.9109C25.3241 468.722 21.6071 479.327 21.6071 492.572C21.6071 505.817 25.3241 516.428 29.9109 516.428H41.1286C45.7154 516.428 49.4293 505.82 49.4293 492.575C49.4293 479.33 45.7091 468.722 41.1286 468.722Z" fill="#222222"/>
<path d="M29.9109 516.152C34.4952 516.152 38.2115 505.415 38.2115 492.17C38.2115 478.924 34.4952 468.187 29.9109 468.187C25.3266 468.187 21.6102 478.924 21.6102 492.17C21.6102 505.415 25.3266 516.152 29.9109 516.152Z" fill="white"/>
<path d="M29.9108 516.862C24.8574 516.862 20.896 506.017 20.896 492.17C20.896 478.323 24.8574 467.486 29.9108 467.486C34.9642 467.486 38.9225 478.332 38.9225 492.179C38.9225 506.026 34.9642 516.862 29.9108 516.862ZM29.9108 468.897C26.2446 468.897 22.3181 478.25 22.3181 492.17C22.3181 506.09 26.2446 515.443 29.9108 515.443C33.5771 515.443 37.5004 506.093 37.5004 492.17C37.5004 478.246 33.5739 468.897 29.9108 468.897Z" fill="#222222"/>
<path d="M62.3833 470.149H51.1624C46.5788 470.149 42.8618 480.75 42.8618 493.998C42.8618 507.246 46.5788 517.851 51.1624 517.851H62.3833C66.9669 517.851 70.684 507.246 70.684 493.998C70.684 480.75 66.9765 470.149 62.3833 470.149Z" fill="#222222"/>
<path d="M51.1624 517.576C55.7467 517.576 59.463 506.838 59.463 493.593C59.463 480.347 55.7467 469.61 51.1624 469.61C46.5781 469.61 42.8618 480.347 42.8618 493.593C42.8618 506.838 46.5781 517.576 51.1624 517.576Z" fill="white"/>
<path d="M51.1624 518.289C46.109 518.289 42.1508 507.44 42.1508 493.593C42.1508 479.746 46.109 468.9 51.1624 468.9C56.2158 468.9 60.1741 479.749 60.1741 493.593C60.1741 507.437 56.2158 518.289 51.1624 518.289ZM51.1624 470.32C47.4962 470.32 43.5728 479.673 43.5728 493.593C43.5728 507.513 47.4962 516.869 51.1624 516.869C54.8287 516.869 58.752 507.516 58.752 493.593C58.752 479.669 54.8287 470.32 51.1624 470.32Z" fill="#222222"/>
<path d="M84.5586 470.149H72.9091C68.1478 470.149 64.2879 481.486 64.2879 495.421C64.2879 509.357 68.1478 520.701 72.9091 520.701H84.5586C89.32 520.701 93.1798 509.36 93.1798 495.425C93.1798 481.489 89.32 470.149 84.5586 470.149Z" fill="#222222"/>
<path d="M72.9091 520.247C77.6688 520.247 81.5272 508.951 81.5272 495.016C81.5272 481.081 77.6688 469.784 72.9091 469.784C68.1495 469.784 64.2911 481.081 64.2911 495.016C64.2911 508.951 68.1495 520.247 72.9091 520.247Z" fill="white"/>
<path d="M72.9091 520.96C67.6748 520.96 63.5768 509.551 63.5768 495.016C63.5768 480.481 67.6748 469.071 72.9091 469.071C78.1434 469.071 82.2382 480.481 82.2382 495.013C82.2382 509.544 78.1403 520.96 72.9091 520.96ZM72.9091 470.494C69.1 470.494 64.9989 480.348 64.9989 495.016C64.9989 509.684 69.0873 519.537 72.9091 519.537C76.7309 519.537 80.8161 509.684 80.8161 495.016C80.8161 480.348 76.7277 470.494 72.9091 470.494Z" fill="#222222"/>
<path d="M206.986 463.952L70.6808 462.91C70.4922 462.91 70.3114 462.835 70.178 462.702C70.0447 462.569 69.9698 462.388 69.9698 462.2C69.9698 462.011 70.0447 461.831 70.178 461.698C70.3114 461.565 70.4922 461.49 70.6808 461.49L206.265 462.526V289.255L1.42206 301.964V460.957L25.1368 461.141C25.3254 461.141 25.5062 461.216 25.6396 461.349C25.7729 461.482 25.8478 461.663 25.8478 461.851C25.8478 462.039 25.7729 462.22 25.6396 462.353C25.5062 462.486 25.3254 462.561 25.1368 462.561L0.714204 462.374C0.620564 462.374 0.527763 462.356 0.44113 462.321C0.354497 462.285 0.275739 462.233 0.209377 462.167C0.143015 462.101 0.0903569 462.023 0.054426 461.937C0.0184951 461.85 -9.33099e-07 461.758 0 461.664L0 301.293C0.000401589 301.112 0.0694369 300.938 0.193164 300.806C0.316891 300.675 0.48609 300.595 0.666591 300.583L206.941 287.781C207.039 287.776 207.136 287.79 207.227 287.823C207.319 287.855 207.403 287.906 207.475 287.972C207.545 288.038 207.601 288.118 207.639 288.207C207.677 288.296 207.697 288.392 207.697 288.488V463.233C207.697 463.421 207.622 463.602 207.489 463.735C207.355 463.868 207.174 463.943 206.986 463.943V463.952Z" fill="#222222"/>
<path d="M298.458 447.006L306.794 454.479L309.803 510.257H356.874V447.158L298.458 447.006Z" fill="white"/>
<path d="M356.873 510.967H309.806C309.624 510.967 309.449 510.897 309.317 510.772C309.185 510.647 309.105 510.477 309.095 510.295L306.102 454.809L297.982 447.519C297.874 447.423 297.799 447.297 297.765 447.157C297.731 447.017 297.74 446.87 297.792 446.736C297.843 446.601 297.935 446.486 298.054 446.404C298.173 446.323 298.314 446.279 298.458 446.28L356.864 446.432C357.052 446.433 357.232 446.508 357.365 446.641C357.497 446.774 357.572 446.954 357.572 447.142V510.273C357.568 510.457 357.493 510.631 357.363 510.761C357.232 510.89 357.057 510.964 356.873 510.967ZM310.476 509.547H356.15V447.868L300.305 447.722L307.257 453.95C307.327 454.012 307.383 454.088 307.423 454.172C307.464 454.256 307.487 454.348 307.492 454.441L310.476 509.547Z" fill="#222222"/>
<path d="M353.61 462.181H336.044C328.864 462.181 323.03 479.264 323.03 500.277C323.03 521.29 328.848 538.383 336.044 538.383H353.61C360.787 538.383 366.625 521.296 366.625 500.283C366.625 479.27 360.784 462.181 353.61 462.181Z" fill="#222222"/>
<path d="M336.038 537.777C343.217 537.777 349.036 520.742 349.036 499.729C349.036 478.715 343.217 461.68 336.038 461.68C328.859 461.68 323.039 478.715 323.039 499.729C323.039 520.742 328.859 537.777 336.038 537.777Z" fill="white"/>
<path d="M336.038 538.481C328.353 538.481 322.331 521.458 322.331 499.725C322.331 477.993 328.362 460.967 336.038 460.967C343.713 460.967 349.747 477.99 349.747 499.725C349.747 521.461 343.726 538.481 336.038 538.481ZM336.038 462.387C329.372 462.387 323.753 479.486 323.753 499.725C323.753 519.965 329.381 537.061 336.038 537.061C342.694 537.061 348.325 519.946 348.325 499.725C348.325 479.505 342.697 462.39 336.038 462.39V462.387Z" fill="#222222"/>
<path d="M425.872 367.156H427.062C428.217 367.156 429.324 367.614 430.14 368.429C430.956 369.243 431.414 370.349 431.414 371.501V390.47C431.414 391.395 431.046 392.281 430.392 392.935C429.737 393.589 428.849 393.956 427.923 393.956H425.282C424.558 393.956 423.863 393.669 423.351 393.158C422.839 392.647 422.552 391.953 422.552 391.231V370.487C422.55 369.606 422.899 368.76 423.521 368.135C424.144 367.511 424.989 367.158 425.872 367.156Z" fill="#222222"/>
<path d="M465.137 453.909H447.568C440.391 453.909 434.573 470.992 434.573 492.005C434.573 513.018 440.391 530.111 447.568 530.111H465.137C472.314 530.111 478.133 513.024 478.133 492.011C478.133 470.998 472.327 453.909 465.137 453.909Z" fill="#222222"/>
<path d="M447.568 529.505C454.747 529.505 460.566 512.47 460.566 491.456C460.566 470.443 454.747 453.408 447.568 453.408C440.389 453.408 434.569 470.443 434.569 491.456C434.569 512.47 440.389 529.505 447.568 529.505Z" fill="white"/>
<path d="M447.568 530.212C439.883 530.212 433.862 513.189 433.862 491.457C433.862 469.724 439.893 452.698 447.568 452.698C455.243 452.698 461.277 469.721 461.277 491.457C461.277 513.192 455.256 530.212 447.568 530.212ZM447.568 454.118C440.902 454.118 435.284 471.233 435.284 491.457C435.284 511.68 440.908 528.792 447.568 528.792C454.228 528.792 459.855 511.677 459.855 491.457C459.855 471.236 454.234 454.118 447.568 454.118Z" fill="#222222"/>
<path d="M213.499 463.547L303.222 464.891L303.565 509.839H310.523C310.396 503.992 310.304 498.397 310.304 494.417C310.304 470.447 321.544 451.018 335.412 451.018C344.465 451.018 352.401 459.306 356.816 471.73C374.313 472.589 401.11 472.161 427.037 471.334C466.232 470.066 503.422 467.924 503.422 467.924C503.917 447.047 483.053 438.429 483.053 438.429C483.053 438.429 481.031 421.4 478.069 418.443C475.108 415.486 427.856 398.745 427.856 398.745L406.195 343.959C403.951 338.544 400.77 333.565 396.799 329.25C387.029 318.696 368.231 305.736 334.219 304.129C329.004 303.882 264.068 298.691 231.621 297.22C225.573 296.973 219.515 297.185 213.499 297.854V463.547Z" fill="white"/>
<path d="M494.864 446.59L493.461 447.719C492.237 448.7 491.225 449.918 490.484 451.3C489.743 452.682 489.29 454.199 489.151 455.76L488.833 459.42C488.787 459.964 488.858 460.51 489.042 461.024C489.225 461.537 489.518 462.005 489.899 462.396C490.279 462.787 490.74 463.091 491.249 463.289C491.758 463.486 492.303 463.572 492.849 463.54L503.117 462.907C502.086 455.842 498.616 450.47 494.864 446.59Z" fill="white"/>
<path d="M492.607 464.257C491.982 464.257 491.364 464.126 490.792 463.875C490.22 463.623 489.707 463.255 489.285 462.795C488.863 462.334 488.542 461.791 488.341 461.199C488.141 460.608 488.067 459.982 488.122 459.36L488.439 455.703C488.59 454.047 489.072 452.438 489.856 450.971C490.641 449.504 491.712 448.21 493.007 447.164L494.41 446.036C494.549 445.928 494.722 445.874 494.898 445.885C495.073 445.896 495.239 445.971 495.362 446.096C500.057 450.955 502.898 456.574 503.806 462.802C503.82 462.899 503.814 462.998 503.788 463.093C503.762 463.188 503.716 463.276 503.654 463.352C503.592 463.429 503.515 463.491 503.427 463.536C503.34 463.581 503.244 463.607 503.146 463.613L492.877 464.247L492.607 464.257ZM494.797 447.554L493.905 448.27C492.76 449.196 491.811 450.341 491.117 451.639C490.422 452.937 489.995 454.361 489.862 455.826L489.544 459.487C489.505 459.928 489.562 460.373 489.712 460.79C489.861 461.208 490.098 461.588 490.408 461.906C490.718 462.223 491.092 462.47 491.506 462.63C491.921 462.789 492.364 462.858 492.807 462.831L502.295 462.244C501.346 456.818 498.829 451.88 494.797 447.554Z" fill="#222222"/>
<path d="M405.538 421.042L326.947 398.745L309.031 341.753C306.818 334.6 303.043 328.026 297.979 322.505C286.275 309.875 261.659 293.803 213.499 297.86V463.547L302.854 464.498L303.565 509.249L310.52 510.254C310.393 504.403 310.304 498.394 310.304 494.407C310.304 470.437 321.544 451.009 335.412 451.009C344.465 451.009 352.401 459.297 356.816 471.721C374.313 472.58 401.11 472.152 427.037 471.324C429.576 471.245 434.573 471.074 434.573 471.074L417.543 431.558C416.449 429.025 414.804 426.768 412.727 424.949C410.651 423.13 408.195 421.795 405.538 421.042Z" fill="white"/>
<path d="M409.794 423.552C409.669 423.551 409.545 423.519 409.436 423.457C408.152 422.713 406.779 422.131 405.351 421.727L326.747 399.43C326.633 399.397 326.529 399.337 326.445 399.255C326.36 399.172 326.297 399.07 326.261 398.958L308.339 341.978C306.148 334.93 302.429 328.45 297.445 323C289.738 314.674 279.689 308.294 267.579 304.028C267.401 303.965 267.255 303.834 267.173 303.664C267.092 303.494 267.081 303.299 267.144 303.121C267.207 302.944 267.338 302.798 267.508 302.716C267.678 302.635 267.874 302.624 268.052 302.687C280.384 307.029 290.624 313.539 298.49 322.02C303.616 327.625 307.443 334.289 309.698 341.538L327.499 398.165L405.735 420.351C407.276 420.788 408.757 421.415 410.144 422.218C410.279 422.296 410.385 422.417 410.445 422.561C410.505 422.705 410.515 422.865 410.475 423.016C410.434 423.167 410.345 423.301 410.221 423.396C410.097 423.491 409.945 423.543 409.788 423.543L409.794 423.552Z" fill="#222222"/>
<path d="M310.52 510.967H310.476L303.524 510.552C303.344 510.542 303.174 510.463 303.05 510.332C302.926 510.202 302.856 510.029 302.854 509.849L302.505 464.368C302.505 464.239 302.539 464.112 302.604 464C304.575 460.669 322.569 431.355 347.881 427.276C360.686 425.216 373.649 426.81 386.407 432.011C403.075 438.8 419.457 451.795 435.106 470.63C435.191 470.732 435.246 470.856 435.264 470.988C435.282 471.119 435.263 471.253 435.208 471.374C435.154 471.495 435.066 471.599 434.955 471.672C434.844 471.746 434.715 471.787 434.582 471.79C432.087 471.879 429.576 471.964 427.05 472.044C395.545 473.049 371.9 473.182 356.769 472.44C356.628 472.433 356.492 472.385 356.379 472.301C356.266 472.217 356.181 472.101 356.134 471.968C351.626 459.29 343.878 451.728 335.4 451.728C321.947 451.728 311.003 470.878 311.003 494.414C311.003 498.179 311.082 504.096 311.218 510.242C311.22 510.34 311.202 510.437 311.164 510.527C311.126 510.618 311.07 510.7 310.999 510.768C310.871 510.893 310.7 510.965 310.52 510.967ZM304.273 509.17L309.79 509.487C309.666 503.608 309.593 498.014 309.593 494.398C309.593 470.079 321.176 450.292 335.412 450.292C344.415 450.292 352.585 458.035 357.315 471.03C372.427 471.743 395.869 471.603 427.005 470.608C429.041 470.545 431.067 470.478 433.084 470.408C405.804 438.027 377.217 423.983 348.109 428.661C323.817 432.563 306.311 460.558 303.934 464.539L304.273 509.17Z" fill="#222222"/>
<path d="M312.904 400.989H280.425C280.332 400.989 280.239 400.971 280.153 400.935C280.067 400.899 279.988 400.847 279.922 400.781C279.856 400.715 279.804 400.637 279.768 400.551C279.732 400.465 279.714 400.372 279.714 400.279V360.827C279.714 360.733 279.732 360.641 279.768 360.555C279.804 360.469 279.856 360.39 279.922 360.325C279.988 360.259 280.067 360.206 280.153 360.171C280.239 360.135 280.332 360.117 280.425 360.117H304.232C305.295 360.118 306.327 360.468 307.172 361.112C308.017 361.756 308.626 362.659 308.908 363.682C310.749 370.446 314.897 386.502 317.205 395.452C317.373 396.107 317.389 396.792 317.251 397.454C317.113 398.116 316.826 398.737 316.411 399.271C315.996 399.806 315.465 400.238 314.857 400.536C314.249 400.833 313.581 400.989 312.904 400.989ZM281.136 399.569H312.904C313.364 399.569 313.819 399.464 314.232 399.262C314.646 399.059 315.008 398.765 315.29 398.402C315.572 398.039 315.767 397.616 315.86 397.165C315.953 396.715 315.942 396.249 315.827 395.804C313.52 386.847 309.374 370.81 307.536 364.056C307.34 363.33 306.91 362.689 306.313 362.231C305.716 361.773 304.985 361.523 304.232 361.521H281.136V399.569Z" fill="#222222"/>
<path d="M482.97 445.164C483.353 440.423 483.051 435.652 482.072 430.997C480.996 425.901 479.291 420.25 477.358 418.443C476.016 417.175 475.174 416.738 471.851 415.318H425.774C424.048 415.318 422.347 415.728 420.811 416.513C419.275 417.298 417.948 418.437 416.94 419.834C415.571 421.729 414.655 423.911 414.263 426.213C413.871 428.516 414.012 430.878 414.677 433.117L419.704 450.064C420.131 451.51 421.014 452.779 422.224 453.681C423.433 454.584 424.902 455.07 426.412 455.069H474.978C476.944 455.069 478.838 454.329 480.283 452.997C481.727 451.665 482.615 449.838 482.77 447.88L482.97 445.164Z" fill="white"/>
<path d="M474.962 455.779H426.396C424.735 455.771 423.121 455.231 421.791 454.239C420.461 453.247 419.485 451.855 419.006 450.267L413.978 433.32C413.292 430.975 413.148 428.506 413.559 426.097C413.969 423.689 414.922 421.406 416.346 419.419C417.423 417.932 418.837 416.721 420.473 415.885C422.109 415.048 423.92 414.611 425.758 414.608H471.851C471.947 414.608 472.042 414.627 472.13 414.665C475.406 416.066 476.393 416.567 477.844 417.923C480.221 420.142 481.948 426.975 482.767 430.851C483.76 435.572 484.067 440.41 483.681 445.218L483.465 447.937C483.286 450.069 482.314 452.057 480.74 453.508C479.166 454.959 477.104 455.769 474.962 455.779ZM425.761 416.028C424.149 416.031 422.561 416.415 421.126 417.148C419.692 417.882 418.452 418.945 417.508 420.25C416.208 422.061 415.338 424.143 414.964 426.34C414.59 428.536 414.722 430.789 415.349 432.927L420.377 449.874C420.767 451.17 421.563 452.306 422.649 453.116C423.735 453.925 425.053 454.364 426.408 454.368H474.974C476.759 454.359 478.477 453.684 479.788 452.474C481.099 451.265 481.909 449.609 482.059 447.833L482.275 445.117C482.652 440.443 482.353 435.74 481.386 431.152C480.072 424.931 478.39 420.376 476.885 418.969C475.663 417.828 474.981 417.432 471.718 416.037L425.761 416.028Z" fill="#222222"/>
<path d="M279.882 358.278H286.526C287.097 358.278 287.663 358.391 288.191 358.609C288.719 358.828 289.199 359.148 289.603 359.551C290.007 359.955 290.328 360.434 290.547 360.961C290.765 361.488 290.878 362.053 290.878 362.624V381.58C290.878 382.504 290.51 383.391 289.855 384.045C289.2 384.699 288.312 385.066 287.386 385.066H279.292C278.568 385.066 277.874 384.779 277.362 384.268C276.85 383.757 276.562 383.063 276.562 382.34V361.597C276.564 360.718 276.914 359.875 277.536 359.253C278.158 358.631 279.002 358.281 279.882 358.278Z" fill="#222222"/>
<path d="M279.882 387.617H286.526C287.68 387.617 288.787 388.075 289.603 388.89C290.419 389.705 290.878 390.81 290.878 391.963V398.466C290.878 399.391 290.51 400.278 289.855 400.932C289.2 401.585 288.312 401.953 287.386 401.953H279.292C278.933 401.953 278.578 401.882 278.247 401.745C277.916 401.608 277.615 401.407 277.362 401.154C277.108 400.901 276.907 400.601 276.77 400.27C276.633 399.939 276.562 399.585 276.562 399.227V390.945C276.561 390.065 276.91 389.22 277.533 388.596C278.155 387.972 279 387.62 279.882 387.617Z" fill="#222222"/>
<path d="M376.855 515.582L488.947 510.333C491.867 510.197 494.64 509.013 496.755 506.998C498.869 504.983 500.184 502.273 500.457 499.367L503.422 467.924L356.816 471.727L363.914 505.576C364.528 508.508 366.168 511.125 368.539 512.959C370.911 514.792 373.859 515.722 376.855 515.582Z" fill="white"/>
<path d="M376.246 516.295C373.188 516.299 370.222 515.247 367.851 513.319C365.479 511.391 363.847 508.704 363.232 505.712L356.137 471.863C356.115 471.762 356.116 471.656 356.14 471.555C356.163 471.454 356.209 471.359 356.274 471.277C356.339 471.196 356.421 471.13 356.514 471.083C356.607 471.037 356.709 471.011 356.813 471.008L503.419 467.204C503.519 467.202 503.62 467.221 503.712 467.26C503.805 467.299 503.889 467.358 503.957 467.431C504.026 467.505 504.078 467.592 504.111 467.688C504.143 467.783 504.155 467.884 504.146 467.984L501.181 499.428C500.879 502.499 499.484 505.36 497.248 507.49C495.012 509.621 492.085 510.879 488.998 511.037L376.89 516.295C376.674 516.295 376.465 516.295 376.246 516.295ZM376.824 514.863L488.916 509.639C491.66 509.5 494.264 508.381 496.252 506.486C498.24 504.592 499.481 502.048 499.749 499.317L502.638 468.669L357.689 472.434L364.609 505.449C365.185 508.217 366.732 510.688 368.972 512.416C371.212 514.144 373.996 515.017 376.824 514.875V514.863Z" fill="#222222"/>
<path d="M414.381 397.975H414.238L337.739 395.757C336.238 395.715 334.789 395.198 333.6 394.282C332.412 393.366 331.545 392.096 331.124 390.657L321.624 358.351C321.436 357.714 321.404 357.041 321.531 356.389C321.657 355.737 321.938 355.125 322.35 354.603C322.763 354.082 323.294 353.667 323.9 353.392C324.505 353.118 325.168 352.993 325.833 353.027L399.583 354.643C401.115 354.671 402.603 355.159 403.852 356.044C405.102 356.928 406.056 358.169 406.589 359.603L418.619 391.639C418.905 392.338 419.014 393.095 418.938 393.845C418.861 394.596 418.601 395.316 418.18 395.942C417.759 396.568 417.191 397.081 416.524 397.437C415.858 397.792 415.114 397.978 414.359 397.978L414.381 397.975ZM325.649 354.428C325.222 354.425 324.8 354.523 324.417 354.713C324.035 354.902 323.702 355.179 323.445 355.519C323.189 355.86 323.016 356.256 322.94 356.676C322.864 357.096 322.887 357.527 323.008 357.936L332.508 390.239C332.844 391.39 333.537 392.406 334.488 393.139C335.439 393.872 336.599 394.285 337.8 394.318L414.299 396.555C414.833 396.577 415.364 396.462 415.84 396.22C416.317 395.978 416.723 395.617 417.019 395.173C417.322 394.736 417.51 394.229 417.565 393.701C417.621 393.172 417.542 392.637 417.336 392.147L405.293 360.088C404.859 358.919 404.081 357.907 403.062 357.186C402.042 356.465 400.829 356.068 399.58 356.047L325.81 354.431L325.649 354.428Z" fill="#222222"/>
<path d="M355.963 382.946H329.416C329.262 382.945 329.113 382.896 328.989 382.804C328.866 382.712 328.775 382.583 328.731 382.436L321.646 358.348C321.458 357.711 321.427 357.038 321.553 356.386C321.679 355.734 321.96 355.121 322.373 354.6C322.785 354.079 323.316 353.663 323.922 353.389C324.528 353.115 325.191 352.989 325.855 353.023L399.605 354.64C401.137 354.667 402.625 355.155 403.875 356.04C405.124 356.925 406.078 358.166 406.611 359.6L409.741 367.936C409.779 368.043 409.792 368.157 409.777 368.27C409.761 368.383 409.72 368.49 409.654 368.584C409.589 368.677 409.502 368.753 409.401 368.806C409.3 368.858 409.188 368.886 409.074 368.886H389.914C386.857 368.878 383.829 369.475 381.004 370.643C378.179 371.811 375.615 373.527 373.459 375.691C371.169 377.997 368.443 379.826 365.44 381.071C362.436 382.317 359.215 382.954 355.963 382.946ZM329.934 381.526H355.963C359.019 381.534 362.047 380.937 364.871 379.769C367.695 378.601 370.259 376.885 372.415 374.721C374.704 372.414 377.431 370.584 380.435 369.337C383.439 368.091 386.661 367.453 389.914 367.46H408.045L405.278 360.088C404.843 358.919 404.065 357.907 403.046 357.186C402.027 356.465 400.813 356.068 399.564 356.047L325.795 354.431C325.355 354.404 324.916 354.484 324.514 354.663C324.112 354.841 323.758 355.114 323.484 355.458C323.21 355.802 323.023 356.206 322.938 356.638C322.853 357.069 322.874 357.514 322.998 357.936L329.934 381.526Z" fill="#222222"/>
<path d="M414.381 397.975H414.238L337.739 395.757C336.238 395.715 334.789 395.198 333.6 394.282C332.412 393.366 331.545 392.096 331.124 390.657L321.624 358.351C321.436 357.714 321.404 357.041 321.531 356.389C321.657 355.737 321.938 355.125 322.35 354.603C322.763 354.082 323.294 353.667 323.9 353.392C324.505 353.118 325.168 352.993 325.833 353.027L399.583 354.643C401.115 354.671 402.603 355.159 403.852 356.044C405.102 356.928 406.056 358.169 406.589 359.603L418.619 391.639C418.905 392.338 419.014 393.095 418.938 393.845C418.861 394.596 418.601 395.316 418.18 395.942C417.759 396.568 417.191 397.081 416.524 397.437C415.858 397.792 415.114 397.978 414.359 397.978L414.381 397.975ZM325.649 354.428C325.222 354.425 324.8 354.523 324.417 354.713C324.035 354.902 323.702 355.179 323.445 355.519C323.189 355.86 323.016 356.256 322.94 356.676C322.864 357.096 322.887 357.527 323.008 357.936L332.508 390.239C332.844 391.39 333.537 392.406 334.488 393.139C335.439 393.872 336.599 394.285 337.8 394.318L414.299 396.555C414.833 396.577 415.364 396.462 415.84 396.22C416.317 395.978 416.723 395.617 417.019 395.173C417.322 394.736 417.51 394.229 417.565 393.701C417.621 393.172 417.542 392.637 417.336 392.147L405.293 360.088C404.859 358.919 404.081 357.907 403.062 357.186C402.042 356.465 400.829 356.068 399.58 356.047L325.81 354.431L325.649 354.428Z" fill="#222222"/>
<path d="M416.213 462.117L403.703 454.105C398.35 450.676 392.123 448.853 385.762 448.853H382.702C380.598 448.853 378.579 449.688 377.091 451.174C375.603 452.66 374.767 454.675 374.767 456.777V456.939C374.767 459.238 375.682 461.444 377.31 463.07C378.939 464.696 381.148 465.61 383.451 465.61H415.194C415.602 465.605 415.998 465.469 416.322 465.222C416.647 464.976 416.884 464.632 416.998 464.24C417.113 463.849 417.098 463.432 416.956 463.049C416.815 462.667 416.554 462.341 416.213 462.117Z" fill="white"/>
<path d="M415.191 466.33H383.448C380.957 466.326 378.569 465.337 376.808 463.578C375.047 461.819 374.056 459.435 374.052 456.948V456.786C374.054 454.495 374.966 452.298 376.589 450.678C378.211 449.058 380.411 448.146 382.705 448.144H385.765C392.262 448.14 398.623 450.001 404.09 453.506L416.6 461.522C417.075 461.827 417.438 462.277 417.636 462.806C417.833 463.334 417.854 463.912 417.695 464.453C417.536 464.994 417.206 465.469 416.754 465.808C416.302 466.146 415.752 466.329 415.187 466.33H415.191ZM382.709 449.563C380.791 449.566 378.953 450.328 377.597 451.682C376.242 453.036 375.479 454.872 375.478 456.786V456.948C375.48 459.059 376.321 461.082 377.816 462.575C379.311 464.068 381.337 464.907 383.451 464.91H415.194C415.451 464.907 415.7 464.822 415.904 464.667C416.108 464.512 416.257 464.295 416.329 464.049C416.4 463.803 416.39 463.54 416.3 463.3C416.21 463.06 416.044 462.855 415.829 462.716L403.319 454.704C398.082 451.345 391.987 449.56 385.762 449.563H382.709Z" fill="#222222"/>
<path d="M310.526 510.549H303.565C303.378 510.549 303.198 510.475 303.065 510.343C302.932 510.211 302.856 510.033 302.854 509.845L302.505 465.585L213.477 464.25C213.29 464.248 213.112 464.172 212.981 464.039C212.849 463.906 212.776 463.727 212.776 463.54V297.86C212.775 297.685 212.84 297.516 212.957 297.385C213.075 297.255 213.236 297.172 213.41 297.153L214.302 297.068C220.054 296.451 225.844 296.264 231.624 296.51C255.015 297.569 295.925 300.611 317.903 302.247C326.537 302.88 332.778 303.353 334.222 303.419C368.453 305.036 387.413 318.097 397.294 328.774C401.322 333.15 404.545 338.2 406.817 343.693L428.364 398.206C434.395 400.362 474.965 414.969 477.837 417.971C482.567 422.912 483.551 435.425 483.703 437.976C486.678 439.361 504.558 448.495 504.098 467.959C504.093 468.136 504.021 468.306 503.897 468.434C503.773 468.562 503.606 468.639 503.428 468.65C503.057 468.672 465.782 470.827 427.027 472.063C395.523 473.068 371.878 473.201 356.746 472.459C356.606 472.452 356.47 472.404 356.357 472.32C356.244 472.236 356.158 472.12 356.112 471.987C351.604 459.309 343.856 451.747 335.378 451.747C321.925 451.747 310.98 470.897 310.98 494.433C310.98 497.976 311.056 503.161 311.202 509.842C311.205 509.937 311.188 510.031 311.153 510.119C311.118 510.207 311.066 510.287 311 510.354C310.934 510.422 310.855 510.476 310.767 510.512C310.68 510.549 310.586 510.568 310.491 510.568L310.526 510.549ZM304.27 509.129H309.806C309.669 502.79 309.599 497.84 309.599 494.414C309.599 470.095 321.182 450.308 335.419 450.308C344.421 450.308 352.591 458.051 357.321 471.046C372.434 471.759 395.875 471.619 427.011 470.624C462.912 469.48 497.54 467.547 502.717 467.252C502.749 447.56 482.98 439.168 482.78 439.085C482.653 439.033 482.544 438.946 482.465 438.834C482.387 438.721 482.343 438.588 482.339 438.451C482.339 438.306 481.64 423.939 476.841 418.925C474.8 416.792 446.282 406.082 427.611 399.404C427.516 399.37 427.429 399.316 427.356 399.245C427.284 399.175 427.227 399.09 427.189 398.996L405.531 344.209C403.322 338.874 400.188 333.97 396.272 329.722C386.575 319.244 367.929 306.421 334.181 304.83C332.717 304.76 326.467 304.294 317.824 303.651C295.852 302.018 254.974 298.979 231.586 297.92C225.875 297.679 220.154 297.863 214.471 298.472L214.207 298.497V462.837L303.232 464.171C303.418 464.175 303.594 464.251 303.725 464.383C303.855 464.515 303.929 464.693 303.93 464.878L304.27 509.129Z" fill="#222222"/>
<path d="M426.98 426.661C426.791 426.661 426.61 426.587 426.477 426.453C426.344 426.32 426.269 426.14 426.269 425.951C426.269 425.763 426.344 425.582 426.477 425.449C426.61 425.316 426.791 425.241 426.98 425.241L469.273 424.531C469.462 424.531 469.643 424.606 469.776 424.739C469.91 424.873 469.984 425.053 469.984 425.241C469.984 425.43 469.91 425.61 469.776 425.743C469.643 425.877 469.462 425.951 469.273 425.951L426.98 426.661Z" fill="#222222"/>
<path d="M426.98 435.903C426.791 435.903 426.61 435.828 426.477 435.695C426.344 435.562 426.269 435.382 426.269 435.193C426.269 435.005 426.344 434.824 426.477 434.691C426.61 434.558 426.791 434.483 426.98 434.483L473.536 433.773C473.725 433.773 473.906 433.848 474.039 433.981C474.173 434.115 474.247 434.295 474.247 434.483C474.247 434.672 474.173 434.852 474.039 434.985C473.906 435.119 473.725 435.193 473.536 435.193L426.98 435.903Z" fill="#222222"/>
<path d="M436.214 445.145C436.025 445.145 435.844 445.07 435.711 444.937C435.578 444.804 435.503 444.624 435.503 444.435C435.503 444.247 435.578 444.066 435.711 443.933C435.844 443.8 436.025 443.725 436.214 443.725L469.27 443.015H469.286C469.467 443.027 469.636 443.108 469.76 443.24C469.884 443.372 469.953 443.546 469.953 443.727C469.953 443.908 469.884 444.082 469.76 444.214C469.636 444.346 469.467 444.426 469.286 444.438L436.226 445.145H436.214Z" fill="#222222"/>
<path d="M257.364 449.563H231.282C231.093 449.563 230.912 449.489 230.779 449.355C230.645 449.222 230.571 449.042 230.571 448.853V419.628C230.57 419.535 230.588 419.442 230.624 419.356C230.659 419.269 230.712 419.191 230.778 419.124C230.844 419.058 230.922 419.006 231.009 418.97C231.095 418.934 231.188 418.915 231.282 418.915H257.364C257.552 418.918 257.731 418.994 257.862 419.128C257.993 419.261 258.067 419.441 258.066 419.628V448.85C258.067 449.037 257.993 449.217 257.862 449.351C257.731 449.485 257.552 449.561 257.364 449.563ZM231.993 448.153H256.653V420.351H231.993V448.153Z" fill="#222222"/>
</g>
<defs>
<clipPath id="clip0_5_2510">
<rect width="584" height="580" fill="white"/>
</clipPath>
</defs>
</svg>
