<svg width="584" height="582" viewBox="0 0 584 582" fill="none" xmlns="http://www.w3.org/2000/svg">
<g clip-path="url(#clip0_76_868)">
<path d="M268.911 447.472L265.542 435.164L251.624 435.801C250.351 433.119 248.854 430.549 247.151 428.117L254.52 416.305L245.452 407.333L233.708 414.842C231.264 413.167 228.685 411.697 225.998 410.447L226.478 396.514L214.136 393.289L207.731 405.648C204.772 405.421 201.8 405.443 198.844 405.715L192.296 393.407L179.992 396.778L180.628 410.701C177.946 411.972 175.377 413.468 172.948 415.173L161.143 407.801L152.17 416.874L159.679 428.619C157.999 431.067 156.525 433.65 155.273 436.341L141.343 435.861L138.11 448.207L150.465 454.612C150.236 457.577 150.257 460.556 150.528 463.517L138.234 470.053L141.604 482.36L155.524 481.724C156.795 484.408 158.292 486.978 159.998 489.408L152.628 501.22L161.697 510.195L173.438 502.683C175.883 504.359 178.462 505.83 181.15 507.081L180.67 521.014L193.012 524.249L199.417 511.89C202.376 512.118 205.349 512.097 208.304 511.826L214.852 524.118L227.156 520.75L226.52 506.827C229.201 505.553 231.771 504.056 234.201 502.352L246.005 509.724L254.978 500.651L247.469 488.909C249.147 486.46 250.618 483.876 251.869 481.184L265.796 481.664L269.032 469.321L256.677 462.913C256.905 459.953 256.884 456.98 256.613 454.024L268.911 447.472ZM212.246 490.448C205.977 492.167 199.339 491.988 193.171 489.936C187.004 487.883 181.584 484.049 177.596 478.917C173.609 473.785 171.234 467.587 170.772 461.106C170.309 454.625 171.78 448.152 174.998 442.507C178.216 436.861 183.037 432.296 188.85 429.39C194.664 426.483 201.209 425.364 207.659 426.176C214.109 426.988 220.173 429.693 225.084 433.95C229.995 438.206 233.533 443.823 235.251 450.09C236.395 454.249 236.707 458.594 236.17 462.874C235.632 467.155 234.256 471.287 232.119 475.036C229.983 478.784 227.128 482.075 223.718 484.719C220.308 487.364 216.41 489.311 212.246 490.448Z" fill="white"/>
<path d="M193.012 524.942C192.952 524.942 192.892 524.935 192.834 524.919L180.492 521.685C180.337 521.645 180.2 521.553 180.105 521.424C180.01 521.296 179.961 521.139 179.967 520.979L180.431 507.51C178.002 506.355 175.663 505.021 173.431 503.519L162.082 510.776C161.947 510.863 161.786 510.901 161.626 510.884C161.467 510.868 161.318 510.797 161.204 510.684L152.135 501.712C152.021 501.6 151.949 501.452 151.93 501.293C151.912 501.134 151.948 500.973 152.034 500.838L159.158 489.424C157.63 487.206 156.27 484.877 155.091 482.456L141.635 483.066C141.476 483.074 141.318 483.026 141.189 482.932C141.06 482.838 140.967 482.702 140.926 482.548L137.556 470.24C137.513 470.086 137.524 469.922 137.587 469.775C137.65 469.628 137.762 469.507 137.903 469.432L149.794 463.1C149.572 460.414 149.551 457.715 149.733 455.025L137.792 448.833C137.649 448.761 137.536 448.641 137.471 448.496C137.407 448.35 137.394 448.186 137.435 448.032L140.668 435.686C140.709 435.531 140.801 435.395 140.93 435.3C141.058 435.205 141.215 435.156 141.374 435.161L154.84 435.625C155.996 433.197 157.33 430.859 158.833 428.629L151.572 417.259C151.487 417.123 151.449 416.963 151.466 416.804C151.483 416.645 151.553 416.496 151.664 416.381L160.637 407.311C160.749 407.196 160.897 407.124 161.057 407.105C161.216 407.087 161.377 407.123 161.512 407.209L172.922 414.333C175.143 412.803 177.475 411.442 179.9 410.262L179.289 396.806C179.281 396.646 179.328 396.488 179.423 396.359C179.517 396.229 179.653 396.136 179.808 396.094L192.112 392.723C192.266 392.682 192.43 392.694 192.576 392.758C192.723 392.821 192.844 392.932 192.92 393.072L199.249 404.964C201.934 404.741 204.632 404.722 207.321 404.906L213.5 392.968C213.573 392.825 213.693 392.711 213.839 392.646C213.985 392.581 214.15 392.567 214.305 392.608L226.647 395.846C226.802 395.886 226.938 395.977 227.033 396.105C227.129 396.233 227.178 396.389 227.172 396.549L226.708 410.017C229.137 411.174 231.476 412.509 233.708 414.012L245.07 406.764C245.205 406.678 245.365 406.64 245.523 406.657C245.682 406.674 245.831 406.744 245.945 406.856L255.016 415.831C255.13 415.943 255.203 416.091 255.221 416.25C255.24 416.409 255.203 416.57 255.118 416.705L247.994 428.12C249.523 430.34 250.881 432.672 252.057 435.097L265.51 434.487C265.67 434.478 265.828 434.525 265.958 434.62C266.088 434.714 266.181 434.85 266.223 435.005L269.592 447.313C269.635 447.467 269.624 447.631 269.561 447.778C269.498 447.925 269.386 448.046 269.245 448.121L257.355 454.45C257.577 457.136 257.597 459.835 257.415 462.524L269.357 468.717C269.499 468.79 269.612 468.91 269.676 469.056C269.741 469.203 269.754 469.367 269.713 469.521L266.48 481.864C266.446 482.022 266.356 482.163 266.226 482.259C266.096 482.356 265.935 482.402 265.774 482.389L252.318 481.915C251.162 484.343 249.827 486.681 248.325 488.912L255.586 500.265C255.671 500.4 255.708 500.56 255.692 500.719C255.675 500.877 255.605 501.026 255.493 501.14L246.521 510.214C246.408 510.327 246.26 510.399 246.101 510.417C245.942 510.436 245.782 510.4 245.646 510.315L234.236 503.191C232.012 504.721 229.676 506.081 227.248 507.262L227.859 520.721C227.867 520.881 227.819 521.039 227.725 521.168C227.631 521.298 227.495 521.391 227.341 521.434L215.037 524.802C214.883 524.844 214.719 524.832 214.572 524.769C214.425 524.706 214.304 524.596 214.228 524.455L207.9 512.561C205.214 512.782 202.516 512.803 199.828 512.621L193.639 524.566C193.579 524.68 193.488 524.775 193.378 524.841C193.267 524.907 193.141 524.942 193.012 524.942ZM181.395 520.464L192.646 523.415L198.79 511.556C198.855 511.434 198.954 511.333 199.075 511.266C199.196 511.199 199.333 511.168 199.471 511.177C202.391 511.402 205.324 511.381 208.24 511.114C208.379 511.101 208.518 511.13 208.64 511.196C208.762 511.262 208.862 511.363 208.928 511.486L215.208 523.291L226.424 520.219L225.82 506.861C225.813 506.723 225.847 506.585 225.919 506.467C225.99 506.348 226.095 506.253 226.221 506.194C228.866 504.936 231.401 503.459 233.8 501.779C233.912 501.699 234.046 501.654 234.185 501.65C234.323 501.646 234.459 501.683 234.576 501.757L245.903 508.83L254.084 500.561L246.877 489.293C246.801 489.178 246.76 489.042 246.76 488.904C246.76 488.765 246.801 488.63 246.877 488.514C248.531 486.101 249.982 483.555 251.217 480.904C251.272 480.776 251.365 480.668 251.483 480.595C251.602 480.522 251.74 480.488 251.879 480.496L265.243 480.954L268.192 469.702L256.337 463.555C256.213 463.491 256.112 463.393 256.044 463.272C255.977 463.151 255.947 463.012 255.958 462.874C256.182 459.954 256.16 457.02 255.894 454.103C255.882 453.965 255.91 453.826 255.976 453.704C256.042 453.582 256.142 453.482 256.263 453.416L268.068 447.135L264.998 435.911L251.634 436.519C251.495 436.527 251.357 436.493 251.238 436.422C251.119 436.35 251.024 436.244 250.966 436.118C249.722 433.472 248.259 430.935 246.591 428.533C246.511 428.42 246.467 428.285 246.463 428.147C246.459 428.008 246.496 427.872 246.568 427.754L253.638 416.422L245.366 408.243L234.099 415.449C233.983 415.525 233.848 415.566 233.709 415.566C233.571 415.566 233.435 415.525 233.319 415.449C230.907 413.795 228.361 412.344 225.708 411.111C225.583 411.053 225.477 410.958 225.405 410.84C225.332 410.722 225.296 410.585 225.301 410.447L225.763 397.089L214.512 394.141L208.368 405.997C208.305 406.121 208.207 406.224 208.085 406.291C207.964 406.359 207.825 406.388 207.687 406.376C204.767 406.152 201.834 406.174 198.918 406.439C198.78 406.451 198.641 406.422 198.519 406.357C198.397 406.291 198.297 406.192 198.23 406.07L191.949 394.262L180.727 397.309L181.335 410.666C181.341 410.804 181.306 410.941 181.234 411.06C181.163 411.179 181.059 411.274 180.934 411.334C178.288 412.589 175.753 414.065 173.355 415.745C173.242 415.825 173.107 415.87 172.968 415.874C172.83 415.878 172.693 415.841 172.575 415.767L161.248 408.694L153.071 416.963L160.278 428.234C160.354 428.349 160.394 428.484 160.394 428.622C160.394 428.76 160.354 428.895 160.278 429.01C158.613 431.426 157.152 433.976 155.909 436.633C155.857 436.764 155.764 436.874 155.644 436.947C155.524 437.021 155.384 437.053 155.244 437.04L141.88 436.579L138.931 447.835L150.786 453.979C150.909 454.042 151.011 454.141 151.079 454.262C151.146 454.383 151.176 454.521 151.165 454.66C150.94 457.58 150.961 460.514 151.229 463.431C151.241 463.569 151.212 463.708 151.146 463.83C151.08 463.953 150.979 464.053 150.856 464.118L139.055 470.402L142.125 481.622L155.489 481.015C155.628 481.007 155.766 481.041 155.885 481.112C156.004 481.184 156.099 481.289 156.157 481.416C157.414 484.062 158.89 486.598 160.57 488.998C160.65 489.11 160.694 489.244 160.698 489.382C160.702 489.52 160.666 489.656 160.593 489.774L153.519 501.105L161.792 509.285L173.059 502.078C173.175 502.003 173.31 501.963 173.449 501.963C173.587 501.963 173.722 502.003 173.839 502.078C176.251 503.732 178.797 505.184 181.449 506.419C181.575 506.477 181.68 506.571 181.753 506.689C181.825 506.806 181.861 506.943 181.857 507.081L181.395 520.464ZM203.522 492.334C195 492.337 186.795 489.103 180.568 483.288C174.341 477.472 170.557 469.509 169.983 461.01C169.408 452.511 172.086 444.112 177.474 437.512C182.862 430.912 190.557 426.605 199.002 425.462C207.447 424.32 216.011 426.427 222.961 431.358C229.91 436.289 234.725 443.674 236.432 452.02C238.139 460.366 236.609 469.048 232.153 476.308C227.697 483.569 220.647 488.867 212.431 491.128C209.528 491.925 206.532 492.33 203.522 492.334ZM203.624 426.606C198.674 426.607 193.792 427.749 189.355 429.944C184.919 432.138 181.049 435.325 178.046 439.257C175.043 443.19 172.987 447.761 172.039 452.617C171.091 457.472 171.275 462.481 172.579 467.254C174.167 473.022 177.336 478.232 181.728 482.297C186.12 486.361 191.561 489.119 197.437 490.26C203.313 491.4 209.39 490.877 214.985 488.751C220.58 486.624 225.469 482.978 229.102 478.223C232.735 473.468 234.967 467.794 235.547 461.839C236.127 455.885 235.032 449.886 232.384 444.521C229.737 439.155 225.643 434.635 220.564 431.469C215.485 428.304 209.622 426.62 203.636 426.606H203.624Z" fill="#FF1D1D"/>
<path d="M207.228 22.9811C207.146 22.9821 207.064 22.967 206.987 22.9366C206.812 22.8727 206.669 22.7423 206.59 22.5737C206.51 22.4051 206.501 22.212 206.564 22.0366L208.434 16.8971C208.502 16.7261 208.634 16.5881 208.802 16.5127C208.97 16.4373 209.16 16.4304 209.333 16.4934C209.506 16.5564 209.648 16.6843 209.728 16.85C209.807 17.0157 209.82 17.2061 209.761 17.3806L207.89 22.5168C207.841 22.6526 207.751 22.7699 207.632 22.853C207.514 22.936 207.373 22.9807 207.228 22.9811Z" fill="#FF1D1D"/>
<path d="M202.869 34.9484C202.787 34.9486 202.705 34.9346 202.628 34.9071C202.54 34.8755 202.461 34.827 202.392 34.7645C202.324 34.702 202.269 34.6266 202.23 34.5426C202.191 34.4587 202.169 34.3679 202.165 34.2755C202.161 34.183 202.176 34.0907 202.208 34.0038L204.078 28.8644C204.11 28.7776 204.159 28.6978 204.221 28.6297C204.284 28.5616 204.359 28.5065 204.443 28.4675C204.527 28.4285 204.618 28.4064 204.71 28.4025C204.803 28.3986 204.895 28.4129 204.982 28.4446C205.069 28.4764 205.149 28.5249 205.217 28.5875C205.285 28.6501 205.34 28.7254 205.379 28.8093C205.418 28.8932 205.44 28.9839 205.444 29.0763C205.448 29.1687 205.434 29.261 205.402 29.3478L203.531 34.4841C203.482 34.6204 203.393 34.7383 203.274 34.8214C203.156 34.9046 203.014 34.9489 202.869 34.9484Z" fill="#FF1D1D"/>
<path d="M202.567 25.1533C202.485 25.1535 202.403 25.1395 202.325 25.1119L197.187 23.2419C197.095 23.2137 197.011 23.1672 196.938 23.1053C196.865 23.0435 196.806 22.9675 196.763 22.8819C196.72 22.7964 196.696 22.7031 196.69 22.6077C196.685 22.5123 196.699 22.4168 196.731 22.327C196.764 22.2371 196.814 22.1548 196.879 22.0851C196.945 22.0153 197.024 21.9595 197.111 21.921C197.199 21.8826 197.293 21.8623 197.389 21.8614C197.484 21.8604 197.579 21.8789 197.667 21.9157L202.809 23.7857C202.964 23.8434 203.093 23.9535 203.175 24.0968C203.257 24.2401 203.286 24.4076 203.258 24.5701C203.229 24.7327 203.144 24.8801 203.018 24.9866C202.892 25.0931 202.732 25.1521 202.567 25.1533Z" fill="#FF1D1D"/>
<path d="M214.54 29.5071C214.458 29.5073 214.376 29.4933 214.299 29.4657L209.16 27.5957C208.984 27.532 208.841 27.4013 208.762 27.2322C208.683 27.0631 208.675 26.8695 208.738 26.6941C208.802 26.5186 208.933 26.3757 209.102 26.2967C209.271 26.2176 209.465 26.209 209.64 26.2727L214.773 28.1427C214.929 28.1988 215.06 28.3082 215.143 28.4517C215.227 28.5952 215.256 28.7635 215.227 28.9269C215.198 29.0902 215.113 29.238 214.985 29.3442C214.858 29.4504 214.697 29.5081 214.531 29.5071H214.54Z" fill="#FF1D1D"/>
<path d="M70.684 99.3342C69.6876 99.3317 68.7004 99.1441 67.7727 98.7808C66.753 98.3853 65.8231 97.7894 65.0377 97.0285C64.2524 96.2676 63.6277 95.357 63.2004 94.3506C62.3277 92.3369 62.2775 90.0619 63.0605 88.0117C63.8435 85.9615 65.3976 84.2987 67.3909 83.3785C68.3641 82.9386 69.4156 82.6979 70.4834 82.6706C71.5512 82.6433 72.6136 82.8299 73.6081 83.2195C74.6278 83.6151 75.5577 84.2109 76.343 84.9718C77.1284 85.7328 77.7531 86.6433 78.1804 87.6497C79.0542 89.6629 79.1053 91.9379 78.3228 93.9883C77.5403 96.0387 75.9863 97.7017 73.9931 98.6218C72.953 99.0909 71.8251 99.3338 70.684 99.3342ZM67.9572 84.6665C66.3025 85.4355 65.0135 86.82 64.3651 88.5249C63.7167 90.2299 63.76 92.1206 64.4859 93.7941C64.8405 94.628 65.3584 95.3826 66.0092 96.0135C66.6601 96.6443 67.4306 97.1387 68.2754 97.4674C69.0959 97.7883 69.9723 97.9421 70.8531 97.9197C71.7339 97.8973 72.6014 97.6992 73.4045 97.337C75.0592 96.568 76.3482 95.1835 76.9966 93.4786C77.645 91.7736 77.6017 89.8829 76.8758 88.2094C76.5228 87.3741 76.0054 86.6182 75.3545 85.9867C74.7035 85.3551 73.9322 84.8608 73.0863 84.533C72.2658 84.2118 71.3892 84.0582 70.5082 84.0811C69.6273 84.104 68.7599 84.3031 67.9572 84.6665Z" fill="#FF1D1D"/>
<path d="M161.636 44.3591C160.637 44.3573 159.647 44.1708 158.715 43.8089C157.696 43.4129 156.766 42.8168 155.981 42.056C155.196 41.2951 154.571 40.3848 154.143 39.3787C153.27 37.3651 153.219 35.0898 154.002 33.0394C154.785 30.9889 156.34 29.3261 158.334 28.4066C159.307 27.9662 160.358 27.7249 161.426 27.6971C162.494 27.6692 163.556 27.8553 164.551 28.2444C165.57 28.6404 166.5 29.2364 167.285 29.9973C168.07 30.7582 168.695 31.6685 169.123 32.6746C169.997 34.6881 170.049 36.9637 169.265 39.0144C168.482 41.0651 166.927 42.7278 164.933 43.6467C163.897 44.1144 162.773 44.3572 161.636 44.3591ZM161.636 29.0935C160.697 29.095 159.769 29.2955 158.913 29.6819C157.258 30.4509 155.969 31.8353 155.321 33.5403C154.672 35.2453 154.715 37.1359 155.441 38.8094C155.796 39.6438 156.314 40.3989 156.965 41.0302C157.615 41.6616 158.386 42.1565 159.231 42.4859C160.051 42.8071 160.928 42.9607 161.809 42.9378C162.69 42.9148 163.557 42.7158 164.36 42.3523C166.015 41.5834 167.304 40.1989 167.952 38.4939C168.6 36.7889 168.557 34.8983 167.831 33.2248C167.478 32.3899 166.96 31.6343 166.309 31.0028C165.658 30.3713 164.887 29.8767 164.042 29.5483C163.274 29.2525 162.459 29.1015 161.636 29.1031V29.0935Z" fill="#FF1D1D"/>
<path d="M116.273 67.534C116.135 67.5335 116 67.4926 115.885 67.4164C115.77 67.3401 115.68 67.2319 115.626 67.1051C115.572 66.9782 115.556 66.8383 115.581 66.7026C115.605 66.5669 115.669 66.4413 115.764 66.3414L118.36 63.635C118.424 63.5681 118.501 63.5145 118.585 63.4773C118.67 63.44 118.761 63.4197 118.854 63.4177C118.946 63.4156 119.038 63.4318 119.124 63.4652C119.211 63.4987 119.289 63.5488 119.356 63.6127C119.423 63.6766 119.477 63.753 119.514 63.8376C119.551 63.9222 119.572 64.0134 119.574 64.1058C119.576 64.1982 119.56 64.2902 119.526 64.3764C119.493 64.4626 119.442 64.5413 119.379 64.6081L116.773 67.3146C116.709 67.3832 116.631 67.438 116.545 67.4757C116.46 67.5135 116.367 67.5333 116.273 67.534Z" fill="#FF1D1D"/>
<path d="M107.195 77.0086C107.013 77.0081 106.837 76.9375 106.705 76.8115C106.639 76.7474 106.585 76.6709 106.548 76.5861C106.511 76.5014 106.491 76.4102 106.489 76.3177C106.487 76.2252 106.504 76.1333 106.538 76.0472C106.571 75.9611 106.622 75.8826 106.686 75.816L109.279 73.1096C109.409 72.9746 109.586 72.8964 109.773 72.8923C109.96 72.8881 110.14 72.9582 110.275 73.0873C110.41 73.2163 110.489 73.3937 110.493 73.5804C110.497 73.7671 110.427 73.9478 110.298 74.0827L107.704 76.7892C107.639 76.8583 107.56 76.9135 107.472 76.9512C107.385 76.9889 107.291 77.0085 107.195 77.0086Z" fill="#FF1D1D"/>
<path d="M109.741 67.6775C109.555 67.6784 109.377 67.6064 109.244 67.4771L106.613 64.8788C106.547 64.814 106.494 64.7369 106.458 64.6519C106.422 64.5668 106.403 64.4755 106.402 64.383C106.4 64.1963 106.473 64.0166 106.604 63.8833C106.734 63.7501 106.913 63.6742 107.1 63.6724C107.286 63.6706 107.466 63.743 107.599 63.8738L110.234 66.4658C110.334 66.5635 110.403 66.6888 110.431 66.8258C110.459 66.9627 110.446 67.1049 110.393 67.2343C110.34 67.3637 110.25 67.4744 110.134 67.5522C110.017 67.63 109.881 67.6714 109.741 67.6711V67.6775Z" fill="#FF1D1D"/>
<path d="M118.959 76.7477C118.773 76.7474 118.595 76.6743 118.462 76.5441L115.818 73.9522C115.696 73.8187 115.63 73.6436 115.633 73.4629C115.637 73.2822 115.709 73.1096 115.836 72.9808C115.963 72.852 116.135 72.7767 116.315 72.7704C116.496 72.7642 116.672 72.8274 116.808 72.9472L119.442 75.5392C119.508 75.6044 119.56 75.682 119.595 75.7674C119.631 75.8528 119.649 75.9444 119.649 76.0369C119.649 76.1294 119.631 76.2209 119.595 76.3063C119.56 76.3917 119.508 76.4693 119.442 76.5346C119.38 76.6003 119.305 76.6529 119.222 76.6895C119.139 76.726 119.049 76.7458 118.959 76.7477Z" fill="#FF1D1D"/>
<path d="M497.518 543.858L484.314 544.812L239.419 543.858C228.282 543.858 220.417 534.89 221.82 523.822L285.374 22.8984C286.777 11.8372 296.93 2.86229 308.054 2.86229L553.197 0C581.337 0 585.155 11.8245 583.742 22.8984L520.198 523.829C518.795 534.89 508.642 543.858 497.518 543.858Z" fill="#222222"/>
<path d="M481.988 544.822H223.888C212.752 544.822 204.887 535.809 206.29 524.69L269.843 21.2667C271.247 10.1356 281.4 1.13525 292.523 1.13525H550.623C561.759 1.13525 569.625 10.1483 568.221 21.2667L504.668 524.69C503.265 535.809 493.111 544.822 481.988 544.822Z" fill="white"/>
<path d="M484.549 530.736H225.059C224.375 530.748 223.697 530.612 223.07 530.338C222.444 530.063 221.884 529.657 221.429 529.146C220.974 528.623 220.638 528.008 220.443 527.344C220.248 526.679 220.199 525.98 220.299 525.295L280.98 44.6102C281.191 43.1744 281.902 41.8592 282.988 40.8962C284.074 39.9333 285.466 39.3846 286.917 39.3468H546.404C547.088 39.3359 547.767 39.4723 548.394 39.7467C549.021 40.0211 549.581 40.427 550.037 40.937C550.491 41.4605 550.826 42.0754 551.021 42.7399C551.216 43.4044 551.266 44.103 551.167 44.7883L490.483 525.473C490.273 526.908 489.563 528.223 488.477 529.186C487.391 530.149 486 530.698 484.549 530.736ZM220.999 525.39L221.699 525.479C221.625 525.966 221.657 526.463 221.792 526.937C221.928 527.411 222.164 527.85 222.485 528.224C222.809 528.583 223.207 528.868 223.651 529.059C224.095 529.251 224.576 529.344 225.059 529.334H484.549C485.659 529.303 486.722 528.882 487.552 528.145C488.382 527.408 488.925 526.402 489.086 525.304L549.767 44.6102C549.84 44.1232 549.808 43.6261 549.672 43.1525C549.537 42.679 549.301 42.2401 548.981 41.8656C548.656 41.5065 548.258 41.2215 547.813 41.03C547.369 40.8385 546.888 40.7449 546.404 40.7557H286.917C285.807 40.7859 284.744 41.2067 283.914 41.9438C283.084 42.6809 282.54 43.6871 282.38 44.7852L221.699 525.473L220.999 525.39Z" fill="#222222"/>
<path d="M418.342 27.446C417.294 27.4655 416.254 27.2589 415.293 26.8401C414.332 26.4213 413.473 25.8003 412.774 25.0195C412.078 24.2163 411.564 23.2727 411.267 22.253C410.969 21.2333 410.895 20.1614 411.049 19.1104C411.616 14.6134 415.742 10.9529 420.245 10.9529C421.292 10.9338 422.332 11.1407 423.292 11.5595C424.252 11.9782 425.111 12.599 425.81 13.3795C426.505 14.1828 427.019 15.1263 427.317 16.1459C427.616 17.1655 427.691 18.2373 427.537 19.2885C426.968 23.7855 422.844 27.446 418.342 27.446ZM420.251 12.3649C416.433 12.3649 412.933 15.4689 412.452 19.2885C412.325 20.1411 412.383 21.0111 412.623 21.8392C412.862 22.6673 413.277 23.4342 413.84 24.0876C414.407 24.717 415.103 25.2168 415.882 25.5527C416.66 25.8885 417.501 26.0527 418.348 26.034C422.167 26.034 425.667 22.93 426.144 19.1104C426.27 18.2576 426.211 17.3876 425.971 16.5595C425.731 15.7314 425.316 14.9647 424.753 14.3113C424.186 13.682 423.49 13.1824 422.711 12.8465C421.933 12.5107 421.092 12.3464 420.245 12.3649H420.251Z" fill="#222222"/>
<path d="M528.579 335.995H528.5C528.314 335.971 528.146 335.875 528.031 335.727C527.916 335.579 527.865 335.392 527.889 335.206L567.531 21.1808C568.186 15.9778 566.774 11.0992 563.551 7.44499C560.327 3.79079 555.777 1.84443 550.632 1.84443H292.523C281.763 1.84443 271.902 10.5967 270.543 21.3589L264.358 70.336C264.327 70.5151 264.228 70.6753 264.082 70.7833C263.936 70.8913 263.753 70.9387 263.573 70.9158C263.392 70.8928 263.228 70.8012 263.113 70.6601C262.999 70.5189 262.943 70.339 262.958 70.1579L269.143 21.1808C270.588 9.73165 281.075 0.435547 292.523 0.435547H550.623C556.178 0.435547 561.142 2.59499 564.597 6.51315C568.053 10.4313 569.628 15.7361 568.921 21.3589L529.276 335.381C529.255 335.551 529.172 335.707 529.044 335.82C528.916 335.934 528.75 335.996 528.579 335.995Z" fill="#222222"/>
<path d="M223.892 545.525C218.333 545.525 213.369 543.365 209.914 539.447C206.458 535.529 204.884 530.224 205.59 524.605L228.292 344.767C228.299 344.671 228.326 344.578 228.37 344.493C228.414 344.408 228.475 344.333 228.549 344.272C228.623 344.212 228.709 344.167 228.801 344.14C228.893 344.113 228.989 344.106 229.084 344.118C229.179 344.13 229.271 344.161 229.354 344.209C229.436 344.257 229.508 344.322 229.565 344.399C229.622 344.476 229.662 344.564 229.684 344.657C229.706 344.75 229.709 344.847 229.692 344.941L206.99 524.779C206.334 529.982 207.747 534.861 210.97 538.515C214.193 542.17 218.743 544.116 223.888 544.116L346.312 543.391C346.491 543.403 346.658 543.482 346.781 543.613C346.903 543.744 346.971 543.916 346.971 544.095C346.971 544.274 346.903 544.447 346.781 544.577C346.658 544.708 346.491 544.788 346.312 544.8L223.892 545.525Z" fill="#222222"/>
<path d="M261.112 430.81C260.962 430.814 260.815 430.77 260.692 430.684C260.569 430.598 260.477 430.475 260.429 430.333C260.381 430.19 260.38 430.037 260.425 429.894C260.471 429.751 260.561 429.626 260.683 429.538L314.977 387.774C315.051 387.713 315.135 387.668 315.226 387.64C315.318 387.613 315.413 387.604 315.508 387.615C315.603 387.625 315.694 387.655 315.777 387.701C315.86 387.748 315.932 387.811 315.99 387.887C316.048 387.962 316.09 388.049 316.114 388.141C316.138 388.233 316.143 388.329 316.128 388.423C316.114 388.517 316.081 388.607 316.03 388.688C315.98 388.769 315.914 388.839 315.837 388.894L261.545 430.667C261.421 430.762 261.269 430.813 261.112 430.81Z" fill="#222222"/>
<path d="M324.097 382.365C323.988 382.366 323.882 382.341 323.784 382.294C323.687 382.247 323.602 382.177 323.537 382.091C323.423 381.943 323.372 381.756 323.396 381.57C323.42 381.385 323.516 381.217 323.664 381.102L346.672 363.407C346.745 363.35 346.829 363.309 346.918 363.285C347.007 363.261 347.101 363.255 347.192 363.267C347.284 363.279 347.372 363.308 347.453 363.355C347.533 363.401 347.603 363.462 347.66 363.536C347.716 363.609 347.757 363.693 347.781 363.782C347.805 363.871 347.812 363.964 347.8 364.056C347.788 364.148 347.758 364.236 347.712 364.316C347.666 364.396 347.604 364.467 347.531 364.523L324.526 382.222C324.403 382.315 324.252 382.366 324.097 382.365Z" fill="#222222"/>
<path d="M249.833 467.457C249.684 467.459 249.537 467.414 249.415 467.328C249.293 467.242 249.202 467.12 249.154 466.979C249.105 466.837 249.103 466.684 249.148 466.542C249.192 466.399 249.281 466.274 249.4 466.185L275.809 445.866C275.958 445.761 276.142 445.718 276.323 445.745C276.503 445.773 276.665 445.869 276.776 446.014C276.887 446.158 276.938 446.34 276.918 446.521C276.898 446.702 276.808 446.869 276.668 446.985L250.259 467.301C250.138 467.399 249.988 467.453 249.833 467.457Z" fill="#222222"/>
<path d="M288.661 437.588C288.553 437.589 288.447 437.564 288.35 437.517C288.253 437.469 288.169 437.4 288.104 437.314C287.99 437.166 287.939 436.979 287.963 436.794C287.987 436.608 288.083 436.44 288.231 436.325L335.389 400.05C335.537 399.936 335.725 399.886 335.911 399.91C336.097 399.934 336.266 400.031 336.38 400.179C336.494 400.328 336.545 400.516 336.521 400.701C336.497 400.887 336.4 401.056 336.251 401.17L289.09 437.445C288.967 437.539 288.816 437.59 288.661 437.588Z" fill="#222222"/>
<path d="M304.121 464.646C303.972 464.648 303.826 464.602 303.705 464.516C303.583 464.429 303.492 464.307 303.444 464.166C303.397 464.025 303.395 463.872 303.439 463.73C303.484 463.587 303.572 463.463 303.692 463.374L342.927 433.193C343.075 433.078 343.263 433.028 343.449 433.052C343.635 433.076 343.803 433.173 343.918 433.321C344.032 433.47 344.083 433.658 344.058 433.843C344.034 434.029 343.937 434.198 343.789 434.312L304.551 464.493C304.428 464.591 304.277 464.644 304.121 464.646Z" fill="#222222"/>
<path d="M494.311 85.1054C509.148 85.1436 520.026 97.0475 518.56 111.645L499.093 305.537C497.626 320.132 484.365 331.975 469.528 331.934L144.388 331.072C129.551 331.034 118.672 319.127 120.139 304.529L139.609 110.637C141.072 96.0425 154.334 84.199 169.171 84.2403L494.311 85.1054Z" fill="white"/>
<path d="M469.598 332.643H469.525L318.528 332.246C318.341 332.246 318.161 332.171 318.029 332.039C317.896 331.906 317.822 331.727 317.822 331.54C317.822 331.352 317.896 331.173 318.029 331.04C318.161 330.908 318.341 330.834 318.528 330.834L469.521 331.231H469.595C484.05 331.231 496.958 319.69 498.384 305.47L517.85 111.579C518.534 104.773 516.498 98.3516 512.123 93.4952C507.668 88.5593 501.343 85.8306 494.305 85.8115L169.171 84.9528H169.098C154.643 84.9528 141.734 96.4974 140.309 110.713L125.516 258.036C125.512 258.132 125.489 258.227 125.447 258.313C125.406 258.4 125.347 258.478 125.274 258.541C125.201 258.604 125.117 258.652 125.025 258.681C124.933 258.71 124.836 258.72 124.74 258.711C124.644 258.701 124.552 258.672 124.467 258.625C124.383 258.579 124.309 258.515 124.251 258.439C124.192 258.362 124.149 258.275 124.126 258.182C124.102 258.088 124.098 257.991 124.113 257.896L138.905 110.577C140.404 95.6578 153.939 83.5439 169.098 83.5439H169.174L494.311 84.3995C501.744 84.4185 508.441 87.3126 513.166 92.5475C517.821 97.7028 519.985 104.512 519.26 111.715L499.793 305.607C498.295 320.529 484.756 332.64 469.598 332.643ZM286.802 332.16L149.374 331.8C149.186 331.8 149.007 331.726 148.874 331.594C148.742 331.461 148.667 331.282 148.667 331.094C148.667 330.907 148.742 330.727 148.874 330.595C149.007 330.463 149.186 330.388 149.374 330.388L286.802 330.754C286.981 330.766 287.149 330.845 287.271 330.976C287.393 331.107 287.461 331.279 287.461 331.458C287.461 331.638 287.393 331.81 287.271 331.941C287.149 332.071 286.981 332.151 286.802 332.163V332.16Z" fill="#222222"/>
<path d="M217.563 131.894H195.201C194.373 131.905 193.551 131.741 192.791 131.412C192.03 131.083 191.348 130.597 190.788 129.986C190.208 129.335 189.772 128.568 189.509 127.737C189.246 126.906 189.161 126.028 189.261 125.162C189.617 121.523 192.808 118.562 196.369 118.562H218.731C219.559 118.552 220.381 118.717 221.141 119.046C221.902 119.374 222.584 119.86 223.144 120.471C223.725 121.123 224.162 121.891 224.425 122.724C224.687 123.558 224.77 124.437 224.668 125.305C224.318 128.934 221.136 131.894 217.563 131.894ZM196.369 119.965C193.505 119.965 190.96 122.357 190.664 125.295C190.583 125.965 190.646 126.645 190.848 127.289C191.05 127.933 191.386 128.527 191.835 129.032C192.261 129.498 192.782 129.869 193.362 130.12C193.942 130.37 194.569 130.495 195.201 130.486H217.563C220.427 130.486 222.972 128.094 223.265 125.155C223.345 124.485 223.282 123.805 223.079 123.161C222.877 122.517 222.54 121.923 222.091 121.418C221.664 120.952 221.144 120.581 220.564 120.331C219.983 120.08 219.356 119.956 218.724 119.965H196.369Z" fill="#222222"/>
<path d="M282.768 281.65H173.578C172.749 281.661 171.927 281.497 171.167 281.168C170.406 280.839 169.724 280.353 169.164 279.742C168.584 279.091 168.148 278.325 167.885 277.495C167.621 276.664 167.537 275.786 167.637 274.921C168 271.282 171.182 268.309 174.745 268.309H283.939C284.767 268.298 285.589 268.462 286.35 268.791C287.11 269.12 287.793 269.606 288.352 270.217C288.931 270.869 289.366 271.637 289.626 272.47C289.887 273.303 289.968 274.181 289.863 275.048C289.523 278.686 286.332 281.65 282.768 281.65ZM174.745 269.717C171.882 269.717 169.336 272.109 169.04 275.048C168.96 275.718 169.023 276.397 169.224 277.041C169.426 277.685 169.761 278.279 170.208 278.785C170.635 279.251 171.156 279.621 171.737 279.872C172.318 280.122 172.945 280.247 173.578 280.238H282.768C285.632 280.238 288.177 277.85 288.473 274.911C288.556 274.241 288.496 273.562 288.297 272.917C288.098 272.272 287.764 271.677 287.318 271.171C286.892 270.705 286.371 270.334 285.791 270.083C285.21 269.833 284.584 269.708 283.952 269.717H174.745Z" fill="#222222"/>
<path d="M296.071 306.329H169.196C168.368 306.34 167.546 306.176 166.785 305.847C166.025 305.518 165.342 305.032 164.783 304.421C164.203 303.77 163.767 303.004 163.504 302.173C163.241 301.342 163.156 300.465 163.256 299.599C163.612 295.958 166.804 292.997 170.364 292.997H297.239C298.067 292.986 298.888 293.15 299.649 293.479C300.409 293.808 301.09 294.294 301.649 294.905C302.23 295.555 302.667 296.321 302.931 297.152C303.194 297.983 303.279 298.861 303.179 299.727C302.823 303.368 299.632 306.329 296.071 306.329ZM170.364 294.396C167.5 294.396 164.955 296.788 164.659 299.727C164.579 300.397 164.641 301.077 164.843 301.721C165.045 302.365 165.381 302.959 165.83 303.464C166.256 303.93 166.777 304.302 167.357 304.553C167.937 304.804 168.564 304.929 169.196 304.92H296.071C298.935 304.92 301.48 302.529 301.776 299.59C301.855 298.919 301.792 298.239 301.59 297.595C301.388 296.951 301.053 296.356 300.605 295.85C300.178 295.384 299.658 295.014 299.078 294.763C298.497 294.513 297.871 294.388 297.239 294.396H170.364Z" fill="#222222"/>
<path d="M348.116 131.894H252.496C251.668 131.905 250.846 131.741 250.085 131.412C249.325 131.083 248.643 130.597 248.083 129.986C247.503 129.335 247.067 128.568 246.804 127.737C246.541 126.906 246.456 126.028 246.556 125.162C246.912 121.523 250.103 118.563 253.667 118.563H349.284C350.112 118.552 350.934 118.716 351.695 119.045C352.455 119.374 353.138 119.86 353.697 120.471C354.278 121.122 354.714 121.888 354.977 122.72C355.24 123.551 355.325 124.429 355.224 125.295C354.868 128.934 351.68 131.894 348.116 131.894ZM253.667 119.965C250.803 119.965 248.258 122.357 247.962 125.295C247.882 125.966 247.945 126.646 248.148 127.29C248.35 127.934 248.687 128.528 249.136 129.032C249.563 129.499 250.083 129.869 250.663 130.12C251.244 130.37 251.87 130.495 252.503 130.486H348.122C350.986 130.486 353.532 128.094 353.827 125.155C353.907 124.485 353.844 123.806 353.643 123.162C353.441 122.518 353.106 121.924 352.66 121.418C352.233 120.952 351.712 120.581 351.131 120.331C350.55 120.08 349.923 119.956 349.29 119.965H253.667Z" fill="#222222"/>
<path d="M507.706 217.369L128.803 219.001C128.387 219.002 127.974 218.916 127.594 218.747C127.213 218.579 126.872 218.331 126.594 218.022C126.315 217.712 126.105 217.347 125.978 216.951C125.85 216.554 125.808 216.136 125.854 215.722L129.261 184.939C129.317 184.415 129.566 183.929 129.959 183.577C130.352 183.224 130.862 183.03 131.39 183.031L511.423 185.095C511.733 185.097 512.039 185.164 512.321 185.293C512.604 185.421 512.855 185.608 513.06 185.841C513.265 186.074 513.418 186.348 513.509 186.644C513.6 186.94 513.628 187.252 513.59 187.56L510.156 215.213C510.079 215.808 509.788 216.355 509.337 216.752C508.887 217.149 508.307 217.368 507.706 217.369Z" fill="#222222"/>
<path d="M385.175 187.887H428.161C430.799 187.887 432.721 190.078 432.457 192.779L430.866 209.075C430.602 211.775 428.247 213.966 425.609 213.966H382.623C379.988 213.966 378.063 211.775 378.327 209.075L379.918 192.779C380.186 190.078 382.537 187.887 385.175 187.887Z" fill="white"/>
<path d="M425.606 214.672H382.62C381.922 214.68 381.23 214.54 380.59 214.262C379.95 213.983 379.376 213.573 378.907 213.057C378.42 212.509 378.055 211.865 377.836 211.167C377.617 210.469 377.548 209.732 377.634 209.005L379.225 192.712C379.524 189.662 382.197 187.181 385.181 187.181H428.167C428.865 187.174 429.557 187.313 430.197 187.592C430.837 187.87 431.411 188.281 431.881 188.797C432.366 189.345 432.731 189.989 432.95 190.687C433.169 191.385 433.239 192.122 433.153 192.849L431.562 209.145C431.267 212.192 428.591 214.672 425.606 214.672ZM385.175 188.594C382.893 188.594 380.851 190.502 380.622 192.852L379.031 209.148C378.967 209.68 379.016 210.219 379.176 210.731C379.335 211.242 379.601 211.714 379.957 212.115C380.295 212.484 380.707 212.777 381.167 212.975C381.626 213.173 382.123 213.271 382.623 213.263H425.609C427.891 213.263 429.933 211.355 430.162 209.008L431.753 192.715C431.816 192.183 431.767 191.643 431.607 191.131C431.447 190.62 431.182 190.147 430.827 189.745C430.489 189.376 430.076 189.083 429.616 188.884C429.156 188.686 428.659 188.587 428.158 188.594H385.175Z" fill="#222222"/>
<path d="M39.2763 529.731L29.9313 560.45L16.275 556.519L26.2086 524.232L39.2763 529.731Z" fill="white"/>
<path d="M29.9314 561.156C29.8656 561.156 29.8003 561.146 29.7373 561.128L16.0809 557.194C15.8995 557.139 15.7466 557.016 15.6546 556.85C15.5658 556.684 15.5463 556.49 15.6005 556.309L25.5341 524.023C25.5624 523.928 25.6106 523.841 25.6753 523.766C25.74 523.692 25.8199 523.632 25.9095 523.59C25.9997 523.55 26.0972 523.529 26.1959 523.529C26.2946 523.529 26.3922 523.55 26.4823 523.59L39.5468 529.092C39.708 529.16 39.8384 529.284 39.9125 529.443C39.9866 529.601 39.9992 529.781 39.9477 529.948L30.6059 560.666C30.56 560.809 30.4699 560.933 30.3486 561.021C30.2274 561.109 30.0812 561.157 29.9314 561.156ZM17.1596 556.039L29.4605 559.582L38.4141 530.135L26.6414 525.184L17.1596 556.039Z" fill="#222222"/>
<path d="M31.1818 555.82L17.5604 551.504C17.089 551.353 16.5833 551.346 16.1078 551.484C15.6324 551.621 15.2087 551.897 14.8909 552.277C12.7527 554.821 8.1168 560.911 6.38271 567.523C6.15264 568.395 6.26809 569.322 6.70498 570.11C7.14187 570.899 7.86648 571.488 8.72771 571.756L28.0795 577.891C32.3318 579.238 36.7175 580.121 41.16 580.524C41.16 580.524 55.4622 582.032 55.6309 577.481C55.8695 570.942 46.235 569.638 44.9431 568.315C39.9922 563.249 34.809 558.52 32.9063 556.805C32.408 556.358 31.8202 556.022 31.1818 555.82Z" fill="white"/>
<path d="M46.2064 581.482C43.6991 581.482 41.5832 581.275 41.0995 581.224C36.6095 580.817 32.1768 579.924 27.8791 578.562L8.5273 572.431C7.4947 572.105 6.62668 571.395 6.10262 570.448C5.57855 569.501 5.4385 568.389 5.71139 567.342C7.50275 560.514 12.3582 554.214 14.3627 551.819C14.7699 551.332 15.3134 550.978 15.9236 550.802C16.5337 550.626 17.1824 550.637 17.7864 550.833L31.4077 555.152C32.142 555.383 32.8179 555.769 33.39 556.284C35.3755 558.075 40.53 562.781 45.4586 567.825C45.6877 568.061 46.7091 568.446 47.6095 568.78C50.9504 570.052 56.5441 572.167 56.3468 577.5C56.331 577.896 56.2309 578.283 56.0531 578.637C55.8753 578.991 55.624 579.303 55.3159 579.551C53.515 581.119 49.5186 581.482 46.2064 581.482ZM16.8127 552.105C16.552 552.105 16.2944 552.161 16.058 552.271C15.8216 552.381 15.6122 552.542 15.4446 552.741C13.5005 555.06 8.79457 561.163 7.07639 567.717C6.89487 568.414 6.98859 569.154 7.33812 569.783C7.68765 570.413 8.26615 570.883 8.95366 571.098L28.3182 577.23C32.5221 578.56 36.8576 579.432 41.2491 579.831C44.1382 580.149 52.115 580.49 54.4059 578.505C54.5671 578.381 54.6993 578.224 54.7932 578.043C54.8872 577.863 54.9407 577.665 54.95 577.462C55.1091 573.143 50.3014 571.317 47.1195 570.112C45.8468 569.626 44.9114 569.273 44.4627 568.815C39.5627 563.799 34.4336 559.118 32.4577 557.337C32.0363 556.955 31.5369 556.67 30.9941 556.5L17.3727 552.185C17.1915 552.129 17.0024 552.102 16.8127 552.105Z" fill="#222222"/>
<path d="M30.5931 569.31C30.4874 569.311 30.3828 569.288 30.2875 569.242C30.1921 569.196 30.1084 569.129 30.0427 569.046C29.9847 568.974 29.9416 568.892 29.9156 568.803C29.8897 568.714 29.8815 568.621 29.8916 568.529C29.9016 568.438 29.9297 568.349 29.9742 568.268C30.0187 568.187 30.0787 568.115 30.1509 568.057L38.1818 561.646C38.3288 561.542 38.51 561.498 38.6883 561.523C38.8667 561.548 39.0287 561.64 39.1412 561.781C39.2538 561.921 39.3084 562.1 39.2939 562.279C39.2794 562.458 39.1968 562.626 39.0631 562.746L31.045 569.17C30.9146 569.267 30.7553 569.316 30.5931 569.31Z" fill="#222222"/>
<path d="M34.8664 574.081C34.7201 574.082 34.5771 574.037 34.4574 573.953C34.3377 573.869 34.2472 573.75 34.1985 573.612C34.1498 573.474 34.1454 573.324 34.1858 573.184C34.2263 573.043 34.3096 572.919 34.4241 572.828L42.4423 566.403C42.5143 566.346 42.5971 566.303 42.6858 566.277C42.7746 566.251 42.8675 566.243 42.9594 566.253C43.0513 566.263 43.1403 566.291 43.2214 566.335C43.3024 566.38 43.3739 566.44 43.4318 566.512C43.4897 566.584 43.5328 566.666 43.5587 566.755C43.5845 566.844 43.5927 566.937 43.5827 567.029C43.5726 567.12 43.5446 567.209 43.5001 567.29C43.4557 567.371 43.3957 567.443 43.3236 567.501L35.3182 573.928C35.1894 574.029 35.03 574.083 34.8664 574.081Z" fill="#222222"/>
<path d="M116.607 537.431L115.955 559.356L100.514 559.35L101.595 536.458L116.607 537.431Z" fill="white"/>
<path d="M115.955 560.056H100.51C100.415 560.055 100.321 560.036 100.234 559.998C100.146 559.961 100.067 559.906 100.001 559.837C99.9357 559.768 99.8847 559.686 99.8513 559.597C99.8179 559.508 99.8029 559.413 99.8072 559.318L100.889 536.42C100.894 536.326 100.917 536.234 100.957 536.149C100.998 536.065 101.054 535.989 101.125 535.927C101.267 535.803 101.452 535.739 101.64 535.749L116.652 536.722C116.834 536.733 117.005 536.815 117.128 536.951C117.251 537.086 117.317 537.264 117.31 537.447L116.674 559.369C116.668 559.555 116.59 559.731 116.455 559.859C116.321 559.988 116.141 560.058 115.955 560.056ZM101.252 558.637H115.271L115.882 538.077L102.267 537.196L101.252 558.637Z" fill="#222222"/>
<path d="M115.35 559.025H101.013C100.514 559.026 100.027 559.175 99.6128 559.453C99.199 559.732 98.8778 560.128 98.6904 560.59C97.4177 563.707 94.8277 570.999 95.1713 577.913C95.2145 578.82 95.6045 579.675 96.2606 580.303C96.9167 580.93 97.7888 581.281 98.6968 581.285L140.77 581.304C141.226 581.302 141.677 581.2 142.089 581.004C142.501 580.807 142.864 580.522 143.152 580.169C143.441 579.815 143.647 579.402 143.757 578.96C143.867 578.517 143.877 578.055 143.786 577.608C143.325 575.318 141.724 572.303 137.104 569.594C129.637 565.205 120.241 560.819 117.291 559.461C116.683 559.177 116.021 559.029 115.35 559.025Z" fill="white"/>
<path d="M140.77 582H98.6999C97.6106 581.998 96.5639 581.577 95.7766 580.824C94.9893 580.072 94.522 579.045 94.4713 577.958C94.1149 570.821 96.8481 563.255 98.0413 560.332C98.2806 559.741 98.6914 559.234 99.2209 558.878C99.7505 558.521 100.375 558.331 101.013 558.332H115.35C116.126 558.332 116.892 558.499 117.597 558.822C120.349 560.094 129.917 564.546 137.47 568.999C142.434 571.915 144.022 575.22 144.47 577.481C144.578 578.028 144.563 578.592 144.427 579.133C144.291 579.674 144.037 580.179 143.683 580.61C143.33 581.042 142.886 581.39 142.382 581.63C141.878 581.871 141.328 581.997 140.77 582ZM100.997 559.738C100.639 559.738 100.289 559.846 99.9916 560.046C99.6946 560.247 99.4642 560.531 99.3299 560.864C98.1749 563.697 95.5117 571.041 95.8617 577.885C95.896 578.611 96.2079 579.296 96.7331 579.799C97.2583 580.302 97.9566 580.585 98.684 580.588H140.757C141.11 580.587 141.459 580.507 141.777 580.355C142.095 580.203 142.376 579.982 142.599 579.708C142.821 579.434 142.98 579.114 143.064 578.771C143.148 578.428 143.154 578.071 143.083 577.726C142.51 574.889 140.318 572.278 136.742 570.179C129.245 565.774 119.732 561.334 116.995 560.078C116.476 559.838 115.91 559.715 115.338 559.716H100.997V559.738Z" fill="#222222"/>
<path d="M118.647 572.262C118.509 572.263 118.374 572.223 118.259 572.147C118.105 572.046 117.997 571.89 117.957 571.71C117.917 571.531 117.949 571.343 118.045 571.187L123.773 562.53C123.824 562.453 123.89 562.387 123.967 562.335C124.043 562.284 124.13 562.248 124.22 562.229C124.311 562.211 124.404 562.211 124.495 562.228C124.586 562.246 124.672 562.282 124.749 562.333C124.827 562.384 124.893 562.45 124.944 562.527C124.996 562.603 125.032 562.69 125.05 562.78C125.069 562.871 125.069 562.964 125.051 563.055C125.033 563.146 124.998 563.232 124.947 563.309L119.219 571.963C119.155 572.055 119.069 572.13 118.97 572.182C118.87 572.234 118.759 572.262 118.647 572.262Z" fill="#222222"/>
<path d="M124.18 575.563C124.053 575.563 123.928 575.528 123.818 575.463C123.709 575.397 123.62 575.303 123.559 575.191C123.499 575.079 123.47 574.953 123.476 574.826C123.481 574.698 123.521 574.575 123.591 574.469L129.319 565.815C129.368 565.735 129.434 565.665 129.511 565.61C129.588 565.555 129.675 565.516 129.768 565.496C129.86 565.476 129.956 565.474 130.049 565.491C130.142 565.509 130.231 565.545 130.31 565.597C130.389 565.649 130.457 565.717 130.509 565.796C130.561 565.875 130.597 565.963 130.614 566.056C130.632 566.149 130.63 566.245 130.61 566.337C130.589 566.43 130.551 566.517 130.496 566.594L124.769 575.248C124.704 575.345 124.617 575.425 124.514 575.48C124.411 575.535 124.296 575.563 124.18 575.563Z" fill="#222222"/>
<path d="M51.8795 350.911C51.8795 350.911 44.8286 368.505 43.4604 386.531C42.0922 404.557 23.3577 513.426 17.7482 540.856C17.7482 540.856 30.3195 547.888 37.4754 546.734C37.4754 546.734 77.9481 466.163 84.5408 406.144C91.1336 346.125 89.2117 350.918 89.2117 350.918L51.8795 350.911Z" fill="#222222"/>
<path d="M64.2981 357.669C64.2981 357.669 62.0295 390.182 73.3122 413.169C84.5949 436.157 98.1304 525.502 97.2013 548.225C97.2013 548.225 111.491 552.003 118.268 549.354C118.268 549.354 138.794 420.551 112.652 357.23L64.2981 357.669Z" fill="#222222"/>
<path d="M80.1818 438.201C80.0175 438.201 79.8586 438.143 79.7325 438.038C79.6063 437.933 79.521 437.787 79.4913 437.626C79.4722 437.53 77.7031 428.167 73.4459 420.649C67.0313 409.318 64.6195 395.238 64.5972 395.098C64.5756 395.005 64.5733 394.907 64.5906 394.813C64.6079 394.718 64.6443 394.628 64.6977 394.548C64.7512 394.468 64.8204 394.399 64.9012 394.347C64.982 394.295 65.0726 394.259 65.1675 394.243C65.2625 394.227 65.3597 394.231 65.4532 394.254C65.5467 394.276 65.6346 394.318 65.7114 394.376C65.7882 394.434 65.8523 394.507 65.8999 394.591C65.9474 394.675 65.9772 394.767 65.9877 394.863C66.0099 395.003 68.3836 408.856 74.674 419.956C79.0458 427.684 80.8022 436.977 80.8722 437.368C80.8897 437.459 80.8889 437.552 80.87 437.643C80.8511 437.734 80.8144 437.82 80.762 437.896C80.7096 437.972 80.6426 438.037 80.5649 438.088C80.4871 438.138 80.4001 438.172 80.309 438.189C80.2672 438.197 80.2245 438.202 80.1818 438.201Z" fill="white"/>
<path d="M65.4341 278.416L58.7204 270.964C55.825 263.576 47.7623 257.181 40.9882 253.04C12.8991 235.866 16.8446 203.299 16.6791 190.107L5.9882 191.774C5.9882 191.774 -20.3254 260.189 44.4627 292.908L65.4341 278.416Z" fill="white"/>
<path d="M44.4627 293.595C44.3521 293.595 44.2432 293.569 44.1445 293.519C10.3823 276.476 1.62591 249.634 0.225911 230.116C-1.27272 209.011 5.26273 191.688 5.32954 191.516C5.3747 191.401 5.44928 191.3 5.54585 191.222C5.64242 191.144 5.75762 191.094 5.88 191.074L16.5709 189.417C16.6707 189.401 16.7728 189.407 16.87 189.435C16.9672 189.462 17.0574 189.511 17.1341 189.576C17.2113 189.641 17.2736 189.722 17.317 189.813C17.3604 189.904 17.3837 190.003 17.3854 190.104C17.3854 191.513 17.3854 193.1 17.3409 194.935C17.08 209.746 16.59 237.313 41.3572 252.445C46.6645 255.689 56.0318 262.345 59.3313 270.595L65.959 277.961C66.0267 278.035 66.0773 278.123 66.1076 278.218C66.1378 278.314 66.1468 278.415 66.134 278.514C66.1227 278.614 66.0902 278.71 66.0386 278.796C65.987 278.882 65.9176 278.957 65.8349 279.014L44.8636 293.471C44.7455 293.552 44.6058 293.595 44.4627 293.595ZM6.50682 192.41C5.57136 195.037 0.257729 210.983 1.63864 230.065C3.01955 249.147 11.5659 275.331 44.4086 292.082L64.3745 278.279L58.1986 271.432C58.1416 271.368 58.0964 271.295 58.065 271.215C54.9595 263.296 45.8022 256.802 40.6191 253.635C15.1645 238.083 15.6641 209.991 15.9314 194.897C15.9568 193.421 15.9823 192.108 15.9791 190.922L6.50682 192.41Z" fill="#222222"/>
<path d="M9.7332 193.081C9.08481 192.877 8.46148 192.601 7.87502 192.257C4.82366 190.495 0.875023 184.856 2.46593 181.18C4.73457 175.92 16.835 177.023 19.1005 181.695C21.8496 187.356 15.8582 194.992 9.7332 193.081Z" fill="white"/>
<path d="M11.6677 194.079C10.9409 194.083 10.2177 193.975 9.52315 193.761C8.82515 193.541 8.1539 193.243 7.52179 192.874C4.10134 190.893 0.114521 184.863 1.82316 180.903C2.84452 178.537 5.74315 177.071 9.57724 176.988C13.5322 176.918 18.2859 178.384 19.74 181.39C21.175 184.347 20.5259 188.091 18.0854 190.931C16.3259 192.963 14 194.079 11.6677 194.079ZM9.94315 192.41C12.8481 193.316 15.5018 191.774 17.0163 190.002C19.0909 187.595 19.6604 184.456 18.4736 182.004C17.4331 179.857 13.6341 178.302 9.60906 178.397C6.34133 178.467 3.91361 179.615 3.11816 181.46C1.7627 184.602 5.29452 189.951 8.22815 191.637C8.76922 191.957 9.34446 192.217 9.94315 192.41Z" fill="#222222"/>
<path d="M172.181 255.431C201.469 274.551 184.908 334.691 139.602 313.685L136.614 283.215C175.751 300.093 173.078 276.94 162.915 251.997L172.181 255.431Z" fill="white"/>
<path d="M157.446 318.796C151.798 318.796 145.73 317.301 139.309 314.324C139.198 314.273 139.102 314.193 139.031 314.092C138.96 313.992 138.916 313.874 138.905 313.752L135.914 283.281C135.903 283.159 135.923 283.036 135.973 282.924C136.024 282.812 136.103 282.715 136.202 282.643C136.301 282.571 136.417 282.526 136.539 282.512C136.661 282.499 136.785 282.517 136.898 282.566C151.68 288.926 161.398 289.982 165.817 285.666C170.59 280.998 169.394 269.765 162.266 252.273C162.214 252.146 162.2 252.007 162.226 251.873C162.252 251.739 162.316 251.615 162.412 251.516C162.507 251.418 162.629 251.35 162.762 251.32C162.896 251.29 163.035 251.299 163.164 251.348L172.429 254.782C172.478 254.801 172.525 254.825 172.569 254.852C188.908 265.519 191.024 288.646 182.751 303.559C178.898 310.505 173.183 315.326 166.224 317.498C163.382 318.376 160.421 318.813 157.446 318.796ZM140.264 313.214C158.019 321.296 173.419 317.441 181.51 302.862C189.464 288.526 187.482 266.317 171.859 256.064L164.163 253.202C171.089 270.668 171.949 281.624 166.8 286.665C161.993 291.372 152.38 290.605 137.432 284.318L140.264 313.214Z" fill="#222222"/>
<path d="M165.75 255.838C165.04 255.613 164.357 255.309 163.714 254.932C160.37 253.001 156.059 246.825 157.793 242.799C160.281 237.033 173.539 238.245 176.021 243.362C179.028 249.567 172.454 257.924 165.75 255.838Z" fill="white"/>
<path d="M167.869 256.865C167.079 256.865 166.294 256.745 165.54 256.509C164.781 256.273 164.05 255.953 163.361 255.555C159.635 253.405 155.289 246.844 157.147 242.535C158.254 239.965 161.407 238.378 165.582 238.286C169.871 238.165 175.07 239.803 176.654 243.057C178.239 246.31 177.507 250.343 174.85 253.428C172.935 255.651 170.399 256.865 167.869 256.865ZM165.96 239.692H165.601C161.993 239.771 159.31 241.04 158.429 243.088C156.934 246.561 160.819 252.464 164.054 254.331C164.657 254.683 165.297 254.966 165.964 255.174C169.177 256.179 172.111 254.458 173.784 252.515C176.072 249.859 176.702 246.393 175.375 243.68C174.268 241.365 170.262 239.676 165.973 239.676L165.96 239.692Z" fill="#222222"/>
<path d="M143.516 283.959C143.496 283.558 143.393 283.165 143.212 282.807C143.031 282.449 142.777 282.132 142.466 281.879C140.191 280.031 131.966 275.919 124.874 271.867C117.053 267.392 110.119 264.587 101.112 264.698L70.6141 263.045C62.1091 263.003 57.2218 261.413 50.155 257.228C41.8823 252.343 36.6641 245.438 34.5863 243.161C34.4983 243.065 34.3881 242.991 34.2652 242.946C34.1424 242.902 34.0105 242.888 33.881 242.905C33.7515 242.923 33.6282 242.971 33.5216 243.047C33.415 243.123 33.3284 243.223 33.2691 243.339L15.4827 277.343C15.4827 277.343 29.2314 289.89 47.3645 303.832C47.9404 304.274 48.7009 318.144 48.6372 318.869L42.9545 370.6C42.4836 374.191 122.987 379.976 122.751 376.229C122 364.144 117.765 354.11 119.55 316.099C119.563 315.778 119.645 315.463 119.79 315.177C119.936 314.89 120.142 314.638 120.394 314.439C120.646 314.239 120.938 314.097 121.251 314.021C121.563 313.945 121.888 313.938 122.204 314C126.067 314.75 133.837 316.226 141.693 317.565C142.114 317.635 142.546 317.61 142.956 317.492C143.367 317.374 143.746 317.165 144.065 316.882C144.385 316.598 144.637 316.247 144.802 315.853C144.968 315.46 145.044 315.034 145.024 314.607L143.516 283.959Z" fill="white"/>
<path d="M112.07 378.087C91.0699 378.087 47.1259 374.471 42.8559 371.615C42.28 371.23 42.2195 370.801 42.245 370.508L47.9213 318.793C48.004 317.689 47.2563 305.792 46.8077 304.294C28.9227 290.533 15.1454 277.989 15.0086 277.865C14.8907 277.76 14.8117 277.618 14.7846 277.462C14.7575 277.306 14.7837 277.146 14.8591 277.007L32.6422 242.999C32.7555 242.783 32.9191 242.598 33.1193 242.459C33.3195 242.319 33.5504 242.23 33.7924 242.199C34.0343 242.168 34.2803 242.195 34.5093 242.279C34.7383 242.363 34.9438 242.501 35.1081 242.681C35.4263 243.022 35.7986 243.464 36.2472 243.989C38.7927 246.969 43.5654 252.512 50.5145 256.621C57.8518 260.965 62.5481 262.301 70.6172 262.345L101.163 264.002C110.406 263.856 117.469 266.82 125.236 271.263C127.833 272.748 130.537 274.218 133.153 275.636C137.607 278.047 141.425 280.13 142.921 281.342C143.309 281.657 143.627 282.05 143.853 282.496C144.08 282.942 144.21 283.431 144.235 283.93L145.73 314.579C145.756 315.111 145.663 315.642 145.456 316.133C145.25 316.624 144.936 317.062 144.537 317.416C144.139 317.77 143.666 318.03 143.154 318.176C142.642 318.323 142.103 318.354 141.578 318.265C133.694 316.926 125.971 315.457 122.07 314.7C121.857 314.658 121.637 314.662 121.425 314.713C121.214 314.764 121.016 314.861 120.845 314.996C120.672 315.133 120.529 315.306 120.428 315.503C120.327 315.7 120.27 315.916 120.26 316.137C118.962 343.755 120.868 356.69 122.258 366.135C122.793 369.755 123.254 372.878 123.458 376.192C123.465 376.406 123.408 376.617 123.295 376.799C123.182 376.981 123.017 377.125 122.821 377.212C121.743 377.823 117.746 378.087 112.07 378.087ZM43.6609 370.473C45.3218 371.669 59.3122 373.787 82.6986 375.457C106.031 377.12 120.155 376.999 122.016 376.042C121.809 372.862 121.361 369.837 120.845 366.336C119.445 356.833 117.527 343.819 118.831 316.064C118.853 315.644 118.964 315.233 119.158 314.86C119.352 314.486 119.623 314.158 119.954 313.899C120.284 313.638 120.667 313.452 121.075 313.353C121.484 313.254 121.909 313.245 122.322 313.326C126.216 314.08 133.926 315.552 141.794 316.885C142.112 316.938 142.437 316.919 142.746 316.83C143.055 316.741 143.34 316.585 143.581 316.371C143.821 316.157 144.011 315.893 144.135 315.597C144.26 315.3 144.317 314.98 144.302 314.659L142.813 284.003C142.798 283.701 142.72 283.405 142.584 283.135C142.447 282.865 142.255 282.627 142.02 282.436C140.633 281.31 136.85 279.255 132.475 276.876C129.853 275.455 127.142 273.982 124.52 272.487C117.097 268.242 110.336 265.408 101.611 265.408H101.109L70.5631 263.754C62.3381 263.719 57.279 262.282 49.7827 257.842C42.6427 253.615 37.7777 247.958 35.1654 244.917C34.7263 244.405 34.354 243.963 34.0518 243.645C34.0411 243.633 34.0277 243.624 34.0127 243.619C33.9978 243.613 33.9817 243.611 33.9659 243.613C33.9476 243.615 33.9301 243.622 33.9151 243.632C33.9001 243.643 33.888 243.657 33.88 243.674L16.3609 277.188C18.76 279.351 31.5986 290.822 47.794 303.267C48.8663 304.094 49.3372 318.806 49.3245 318.939L43.6609 370.473Z" fill="#222222"/>
<path d="M78.2918 241.616L75.8163 266.069C75.7343 266.777 75.7994 267.494 76.0075 268.176C76.2157 268.857 76.5625 269.488 77.0261 270.03C77.4897 270.571 78.0601 271.011 78.7017 271.322C79.3433 271.632 80.0422 271.807 80.7545 271.835L88.0536 272.118C88.7533 272.146 89.4513 272.031 90.1053 271.781C90.7593 271.531 91.3557 271.151 91.8582 270.663C92.3607 270.176 92.7589 269.591 93.0287 268.945C93.2985 268.3 93.4343 267.606 93.4277 266.906L93.2495 243.559L78.2918 241.616Z" fill="white"/>
<path d="M88.2636 272.827C88.184 272.827 88.1045 272.827 88.0249 272.827L80.729 272.554C79.9192 272.523 79.1246 272.325 78.395 271.972C77.6654 271.62 77.0167 271.12 76.4896 270.505C75.9625 269.889 75.5684 269.172 75.332 268.397C75.0957 267.622 75.0223 266.807 75.1163 266.002L77.5886 241.562C77.5972 241.467 77.6248 241.376 77.6697 241.292C77.7145 241.208 77.7757 241.135 77.8497 241.075C77.9236 241.016 78.0087 240.972 78.1 240.947C78.1913 240.921 78.2868 240.914 78.3808 240.926L93.3354 242.866C93.5044 242.887 93.6598 242.969 93.7728 243.097C93.8857 243.224 93.9485 243.389 93.9495 243.559L94.1277 266.909C94.1339 267.684 93.9868 268.452 93.6947 269.17C93.4027 269.888 92.9714 270.541 92.4258 271.092C91.8802 271.643 91.2309 272.08 90.5155 272.379C89.8001 272.678 89.0326 272.833 88.2572 272.834L88.2636 272.827ZM78.909 242.408L76.5099 266.139C76.4346 266.752 76.4875 267.374 76.6653 267.965C76.8431 268.556 77.142 269.104 77.543 269.573C77.9439 270.043 78.4381 270.424 78.9943 270.692C79.5504 270.961 80.1564 271.11 80.7736 271.132L88.0727 271.415C88.6769 271.438 89.2794 271.338 89.8439 271.122C90.4085 270.905 90.9232 270.577 91.3571 270.156C91.791 269.735 92.135 269.23 92.3684 268.673C92.6018 268.115 92.7197 267.516 92.7149 266.912L92.5399 244.179L78.909 242.408Z" fill="#222222"/>
<path d="M90.0613 211.514C84.1972 212.309 83.3986 218.924 76.3795 219.7C73.169 220.053 71.5558 218.864 68.7113 220.228C66.8277 221.132 64.0849 223.307 63.8018 226.191C63.4454 229.862 67.4704 230.644 71.5813 237.723C74.4704 242.688 74.6422 245.992 76.9395 246.371C79.2367 246.749 80.3027 243.527 82.8704 243.734C86.1922 244.001 86.6249 249.548 90.1313 251.202C92.3395 252.245 96.969 252.028 103.495 247.14C104.009 246.756 104.371 246.204 104.52 245.58C104.669 244.956 104.594 244.299 104.309 243.725C103.552 242.208 102.591 240.296 101.516 238.547C96.3963 230.211 92.7817 228.803 93.4945 226.246C94.589 222.331 101.767 223.065 102.334 219.91C102.932 216.638 96.0908 210.703 90.0613 211.514Z" fill="#222222"/>
<path d="M81.9986 227.457C81.9986 227.457 87.15 238.27 89.1259 240.983C91.1018 243.696 99.944 238.2 99.944 238.2L100.16 236.251L101.22 235.564C101.381 235.458 101.517 235.317 101.618 235.152C101.719 234.987 101.782 234.802 101.802 234.61C101.822 234.418 101.798 234.224 101.732 234.042C101.667 233.86 101.561 233.696 101.424 233.56C99.2918 231.445 94.7672 226.646 92.5686 221.977C92.5718 221.987 86.5931 220.457 81.9986 227.457Z" fill="white"/>
<path d="M91 242.43C89.9691 242.43 89.0909 242.138 88.5595 241.4C86.5645 238.674 81.5595 228.205 81.3622 227.759C81.3093 227.651 81.2859 227.53 81.2943 227.41C81.3026 227.289 81.3425 227.173 81.41 227.072C86.2241 219.735 92.4827 221.227 92.7468 221.297C92.8497 221.319 92.9463 221.364 93.0295 221.428C93.1127 221.493 93.1803 221.575 93.2272 221.669C95.41 226.309 100.049 231.172 101.939 233.048C102.151 233.258 102.314 233.513 102.414 233.794C102.515 234.075 102.551 234.375 102.521 234.672C102.49 234.968 102.394 235.255 102.238 235.509C102.082 235.764 101.871 235.98 101.621 236.143L100.841 236.648L100.66 238.267C100.65 238.373 100.616 238.474 100.561 238.565C100.506 238.655 100.431 238.732 100.342 238.789C99.1263 239.539 94.2581 242.43 91 242.43ZM82.8068 227.518C83.72 229.426 87.9804 238.223 89.6954 240.557C90.7518 241.998 95.9254 239.797 99.2854 237.768L99.4636 236.178C99.4755 236.074 99.5103 235.975 99.5653 235.886C99.6203 235.798 99.6942 235.722 99.7818 235.666L100.838 234.979C100.912 234.931 100.974 234.867 101.02 234.792C101.066 234.717 101.094 234.632 101.103 234.544C101.112 234.457 101.101 234.368 101.071 234.286C101.041 234.203 100.993 234.128 100.93 234.066C98.5695 231.725 94.3345 227.171 92.0913 222.617C90.8918 222.426 86.485 222.191 82.8068 227.518Z" fill="#222222"/>
<path d="M83.86 236.254C83.86 236.254 79.7936 231.276 77.9195 233.604C76.0454 235.932 80.659 241.301 83.86 236.254Z" fill="white"/>
<path d="M463.155 580.607L463.247 441.999L365.718 415.825L365.626 553.988L463.155 580.607Z" fill="white"/>
<path d="M461.732 580.871C461.541 580.871 461.351 580.845 461.166 580.795L365.441 554.668C365.292 554.628 365.16 554.539 365.066 554.416C364.973 554.293 364.922 554.142 364.922 553.988L365.012 416.655C365.012 416.449 365.06 416.246 365.152 416.062C365.244 415.878 365.376 415.717 365.54 415.592C365.703 415.467 365.893 415.381 366.095 415.341C366.297 415.301 366.505 415.307 366.704 415.36L463.431 441.318C463.581 441.358 463.714 441.447 463.808 441.57C463.903 441.693 463.954 441.844 463.953 441.999L463.864 578.753C463.863 579.317 463.638 579.858 463.239 580.257C462.84 580.656 462.3 580.881 461.736 580.884L461.732 580.871ZM366.332 553.45L461.538 579.434C461.645 579.463 461.757 579.467 461.866 579.446C461.975 579.425 462.077 579.379 462.165 579.312C462.253 579.245 462.325 579.159 462.374 579.059C462.423 578.96 462.448 578.851 462.448 578.74L462.541 442.539L366.421 416.744L366.332 553.45Z" fill="#222222"/>
<path d="M550.16 416.112L450.119 433.489L350.163 416.091L451.255 398.506L550.16 416.112Z" fill="white"/>
<path d="M450.14 580.74V433.343L550.573 416.05V563.045L450.14 580.74Z" fill="white"/>
<path d="M450.137 581.387C449.966 581.386 449.802 581.318 449.681 581.197C449.56 581.076 449.491 580.912 449.49 580.74V433.342C449.49 433.19 449.544 433.043 449.642 432.927C449.74 432.811 449.876 432.733 450.026 432.708L550.459 415.415C550.552 415.4 550.647 415.404 550.738 415.429C550.829 415.454 550.913 415.498 550.985 415.559C551.057 415.619 551.115 415.694 551.155 415.779C551.194 415.864 551.214 415.956 551.214 416.05V563.044C551.214 563.196 551.161 563.343 551.063 563.459C550.966 563.575 550.83 563.653 550.681 563.679L450.251 581.387H450.137ZM450.781 433.887V579.974L549.923 562.503V416.817L450.781 433.887Z" fill="#222222"/>
<path d="M468.219 542.373C468.048 542.372 467.885 542.303 467.764 542.182C467.644 542.061 467.576 541.898 467.575 541.727V471.262C467.575 471.11 467.629 470.962 467.727 470.845C467.825 470.729 467.961 470.65 468.111 470.624L533.026 459.338C533.119 459.321 533.214 459.325 533.305 459.349C533.396 459.373 533.48 459.417 533.552 459.478C533.625 459.539 533.682 459.614 533.722 459.7C533.761 459.785 533.781 459.879 533.781 459.973V530.183C533.78 530.334 533.727 530.481 533.63 530.597C533.532 530.713 533.397 530.791 533.248 530.818L468.333 542.367C468.295 542.374 468.257 542.376 468.219 542.373ZM468.865 471.803V540.957L532.491 529.636V460.739L468.865 471.803Z" fill="#222222"/>
<path d="M494.504 529.247H494.375C493.189 529.213 492.021 528.944 490.94 528.455C489.859 527.966 488.885 527.266 488.077 526.398C486.345 524.565 485.387 522.135 485.403 519.614V518.116C485.394 517.372 485.679 516.656 486.198 516.123C486.716 515.59 487.424 515.284 488.168 515.272C488.541 515.271 488.91 515.347 489.253 515.495C489.596 515.643 489.905 515.86 490.16 516.132C490.666 516.666 490.946 517.374 490.941 518.11V519.672C490.932 520.705 491.322 521.701 492.029 522.454C492.353 522.802 492.744 523.081 493.179 523.271C493.615 523.462 494.084 523.561 494.56 523.563H494.63C495.09 523.549 495.543 523.444 495.962 523.253C496.381 523.062 496.757 522.789 497.07 522.451C497.777 521.699 498.167 520.702 498.158 519.669V475.788C498.157 475.387 498.239 474.991 498.401 474.625C498.562 474.259 498.798 473.93 499.094 473.661C499.378 473.405 499.713 473.211 500.077 473.091C500.441 472.972 500.825 472.93 501.206 472.968C501.902 473.058 502.54 473.401 503 473.931C503.46 474.461 503.71 475.142 503.702 475.843V519.602C503.716 522.123 502.758 524.552 501.028 526.386C500.209 527.26 499.225 527.962 498.132 528.451C497.039 528.939 495.859 529.205 494.662 529.232L494.557 528.589V529.232L494.504 529.247ZM488.168 516.571C487.767 516.58 487.386 516.747 487.108 517.036C486.831 517.325 486.679 517.712 486.687 518.113V519.611C486.67 521.801 487.5 523.913 489.004 525.505C489.702 526.253 490.541 526.854 491.473 527.274C492.405 527.694 493.412 527.924 494.434 527.951L494.492 528.601V527.954H494.621C495.652 527.933 496.669 527.705 497.611 527.285C498.553 526.865 499.401 526.261 500.106 525.508C501.609 523.915 502.44 521.804 502.426 519.614V475.855C502.437 475.472 502.307 475.099 502.061 474.806C501.815 474.513 501.471 474.32 501.092 474.263C500.89 474.244 500.686 474.266 500.493 474.33C500.3 474.393 500.123 474.496 499.972 474.632C499.81 474.781 499.681 474.962 499.593 475.163C499.505 475.365 499.461 475.582 499.463 475.802L499.448 519.684C499.458 521.048 498.94 522.363 498.003 523.355C497.563 523.833 497.029 524.214 496.434 524.474C495.839 524.735 495.197 524.87 494.548 524.87C493.899 524.87 493.256 524.735 492.662 524.474C492.067 524.214 491.533 523.833 491.093 523.355C490.158 522.364 489.641 521.05 489.651 519.687V518.125C489.653 517.72 489.5 517.331 489.224 517.036C489.089 516.89 488.926 516.774 488.744 516.694C488.562 516.614 488.366 516.572 488.168 516.571Z" fill="#222222"/>
<path d="M521.365 496.956C521.679 496.902 521.979 496.784 522.245 496.609C522.51 496.433 522.737 496.204 522.909 495.937C523.082 495.669 523.197 495.368 523.248 495.054C523.298 494.739 523.283 494.418 523.203 494.11C520.184 482.63 510.018 479.073 499.176 480.945C488.747 482.741 480.86 490.816 478.227 501.002C478.128 501.374 478.124 501.765 478.215 502.139C478.306 502.514 478.489 502.859 478.748 503.144C479.007 503.429 479.333 503.644 479.697 503.77C480.061 503.897 480.451 503.929 480.831 503.866L521.365 496.956Z" fill="white"/>
<path d="M480.441 504.539C480.037 504.539 479.637 504.455 479.266 504.292C478.896 504.128 478.564 503.89 478.291 503.591C477.954 503.226 477.715 502.781 477.595 502.299C477.475 501.817 477.478 501.313 477.604 500.832C480.368 490.131 488.794 482.074 499.068 480.304C511.749 478.119 521.008 483.23 523.829 493.946C523.932 494.341 523.952 494.753 523.887 495.156C523.822 495.559 523.675 495.944 523.453 496.287C523.232 496.63 522.941 496.924 522.601 497.149C522.26 497.373 521.876 497.525 521.474 497.594L480.939 504.495C480.775 504.524 480.608 504.539 480.441 504.539ZM504.565 481.103C502.799 481.111 501.038 481.268 499.299 481.574C489.522 483.259 481.503 490.935 478.865 501.157C478.793 501.429 478.791 501.714 478.858 501.987C478.926 502.26 479.061 502.512 479.251 502.719C479.435 502.922 479.668 503.075 479.927 503.163C480.187 503.252 480.464 503.273 480.734 503.225L521.269 496.321C521.494 496.282 521.709 496.196 521.9 496.07C522.091 495.944 522.254 495.779 522.378 495.587C522.502 495.394 522.585 495.178 522.622 494.952C522.659 494.726 522.648 494.495 522.591 494.273C520.347 485.804 513.774 481.103 504.565 481.103Z" fill="#222222"/>
<path d="M450.14 580.74V433.342L350.576 416.03V563.132L450.14 580.74Z" fill="white"/>
<path d="M450.137 581.387H450.023L350.462 563.776C350.312 563.75 350.177 563.672 350.08 563.555C349.982 563.439 349.929 563.293 349.929 563.141V416.03C349.929 415.936 349.949 415.842 349.988 415.757C350.028 415.671 350.085 415.595 350.157 415.534C350.229 415.474 350.314 415.429 350.405 415.405C350.496 415.38 350.591 415.376 350.684 415.392L450.245 432.708C450.395 432.733 450.531 432.811 450.629 432.927C450.727 433.043 450.781 433.19 450.781 433.342V580.74C450.781 580.825 450.765 580.909 450.732 580.988C450.7 581.066 450.653 581.137 450.593 581.197C450.533 581.257 450.462 581.305 450.384 581.338C450.306 581.37 450.222 581.387 450.137 581.387ZM351.219 562.591L449.49 579.971V433.887L351.219 416.796V562.591Z" fill="#222222"/>
<path d="M423.641 532.204C423.605 532.207 423.569 532.207 423.533 532.204L374.406 523.887C374.256 523.863 374.119 523.785 374.021 523.669C373.922 523.553 373.868 523.405 373.868 523.253V512.411C373.869 512.317 373.89 512.225 373.93 512.14C373.97 512.055 374.028 511.98 374.099 511.92C374.171 511.86 374.255 511.816 374.345 511.791C374.436 511.766 374.53 511.761 374.623 511.776L423.753 520.33C423.902 520.356 424.037 520.434 424.134 520.55C424.232 520.667 424.285 520.813 424.285 520.965V531.567C424.285 531.661 424.265 531.754 424.226 531.839C424.186 531.925 424.129 532 424.057 532.061C423.939 532.155 423.792 532.205 423.641 532.204ZM375.158 522.697L422.995 530.794V521.497L375.158 513.172V522.697Z" fill="#222222"/>
<path d="M416.035 514.023C415.999 514.026 415.963 514.026 415.927 514.023L406.115 512.346C405.965 512.321 405.828 512.243 405.73 512.126C405.632 512.009 405.579 511.861 405.58 511.709V486.573L400.934 485.766C400.82 485.746 400.712 485.696 400.624 485.621C400.536 485.545 400.469 485.448 400.432 485.337C400.395 485.227 400.388 485.109 400.413 484.996C400.437 484.882 400.492 484.777 400.571 484.692L410.644 473.748C410.71 473.679 410.791 473.625 410.88 473.589C410.97 473.554 411.065 473.538 411.161 473.543C411.257 473.55 411.351 473.578 411.435 473.625C411.519 473.672 411.591 473.737 411.647 473.816L421.787 488.296C421.86 488.401 421.901 488.526 421.904 488.654C421.907 488.782 421.873 488.908 421.804 489.016C421.736 489.125 421.637 489.211 421.52 489.264C421.403 489.316 421.272 489.331 421.146 489.309L416.667 488.516V513.382C416.668 513.476 416.648 513.568 416.608 513.653C416.569 513.738 416.511 513.813 416.439 513.873C416.325 513.968 416.183 514.021 416.035 514.023ZM406.87 511.176L415.389 512.618V487.752C415.389 487.658 415.41 487.565 415.45 487.48C415.49 487.394 415.548 487.319 415.62 487.258C415.692 487.197 415.776 487.153 415.867 487.128C415.958 487.104 416.053 487.099 416.146 487.115L419.847 487.773L411.071 475.226L402.333 484.71L406.346 485.409C406.496 485.435 406.632 485.512 406.73 485.629C406.828 485.745 406.882 485.892 406.882 486.044L406.87 511.176Z" fill="#222222"/>
<path d="M391.874 509.98C391.838 509.983 391.802 509.983 391.766 509.98L381.954 508.318C381.803 508.293 381.667 508.216 381.568 508.099C381.47 507.983 381.416 507.836 381.416 507.683V482.524L376.773 481.717C376.659 481.698 376.552 481.648 376.464 481.573C376.376 481.497 376.31 481.4 376.273 481.29C376.236 481.18 376.228 481.062 376.252 480.948C376.276 480.835 376.329 480.729 376.407 480.643L386.491 469.699C386.557 469.629 386.638 469.574 386.727 469.538C386.817 469.503 386.913 469.487 387.009 469.492C387.105 469.498 387.199 469.526 387.283 469.574C387.367 469.622 387.439 469.687 387.495 469.767L397.637 484.247C397.71 484.352 397.75 484.476 397.753 484.604C397.755 484.731 397.72 484.856 397.652 484.964C397.583 485.072 397.485 485.156 397.368 485.208C397.251 485.26 397.122 485.276 396.996 485.254L392.506 484.464V509.33C392.506 509.424 392.485 509.517 392.446 509.602C392.406 509.688 392.349 509.763 392.278 509.825C392.165 509.921 392.022 509.976 391.874 509.98ZM382.706 507.13L391.227 508.57V483.703C391.228 483.609 391.248 483.516 391.288 483.431C391.328 483.345 391.386 483.27 391.459 483.209C391.531 483.148 391.615 483.104 391.706 483.08C391.797 483.055 391.892 483.052 391.985 483.069L395.686 483.724L386.91 471.177L378.171 480.655L382.185 481.351C382.335 481.378 382.47 481.456 382.568 481.573C382.665 481.69 382.718 481.837 382.717 481.989L382.706 507.13Z" fill="#222222"/>
<path d="M431.534 542.373C431.497 542.378 431.46 542.378 431.423 542.373L366.505 530.824C366.356 530.797 366.221 530.718 366.124 530.602C366.027 530.486 365.973 530.34 365.972 530.189V459.981C365.972 459.887 365.993 459.794 366.033 459.709C366.073 459.623 366.131 459.548 366.203 459.487C366.276 459.427 366.361 459.384 366.451 459.36C366.542 459.335 366.637 459.331 366.73 459.347L431.645 470.633C431.795 470.659 431.931 470.738 432.029 470.854C432.127 470.971 432.181 471.118 432.181 471.271V541.736C432.18 541.907 432.112 542.071 431.99 542.192C431.869 542.313 431.705 542.381 431.534 542.382V542.373ZM367.265 529.636L430.891 540.957V471.803L367.265 460.739V529.636Z" fill="#222222"/>
<path d="M583.262 410.919L548.306 415.722L451.734 398.834L486.164 393.989L583.262 410.919Z" fill="white"/>
<path d="M452.334 398.316L351.714 416.188L311.632 413.461L411.331 395.426L452.334 398.316Z" fill="white"/>
<path d="M548.92 416.234C548.883 416.239 548.846 416.239 548.809 416.234L475.38 403.43C475.297 403.415 475.217 403.385 475.146 403.34C475.074 403.294 475.012 403.236 474.964 403.166C474.915 403.097 474.88 403.019 474.862 402.937C474.843 402.854 474.841 402.769 474.855 402.685C474.87 402.602 474.9 402.522 474.946 402.451C474.991 402.379 475.05 402.317 475.119 402.269C475.188 402.22 475.266 402.185 475.349 402.167C475.431 402.148 475.517 402.146 475.6 402.16L548.94 414.947L579.21 410.688L486.248 394.478L479.848 395.379C479.683 395.392 479.52 395.342 479.391 395.239C479.263 395.136 479.178 394.987 479.156 394.824C479.133 394.661 479.173 394.495 479.269 394.36C479.364 394.226 479.507 394.133 479.669 394.101L486.169 393.188C486.236 393.176 486.305 393.176 486.371 393.188L583.469 410.117C583.62 410.145 583.756 410.225 583.853 410.343C583.95 410.462 584.002 410.611 584 410.764C583.997 410.917 583.941 411.064 583.84 411.179C583.739 411.295 583.6 411.37 583.449 411.393L549.017 416.226L548.92 416.234Z" fill="#222222"/>
<path d="M450.119 433.489L427.599 457.808L322.325 439.337L350.611 416.179L450.119 433.489Z" fill="white"/>
<path d="M427.611 458.454C427.574 458.457 427.537 458.457 427.5 458.454L322.225 439.983C322.104 439.96 321.992 439.904 321.902 439.82C321.812 439.736 321.748 439.628 321.717 439.508C321.687 439.389 321.691 439.264 321.729 439.147C321.767 439.03 321.838 438.926 321.933 438.848L350.216 415.687C350.288 415.629 350.372 415.587 350.462 415.564C350.552 415.541 350.645 415.537 350.737 415.552L450.245 432.859C450.36 432.879 450.467 432.93 450.555 433.006C450.643 433.081 450.71 433.179 450.747 433.29C450.784 433.4 450.791 433.518 450.766 433.632C450.742 433.746 450.687 433.851 450.608 433.936L428.082 458.255C428.021 458.319 427.948 458.369 427.867 458.403C427.786 458.438 427.699 458.455 427.611 458.454ZM323.834 438.944L427.377 457.111L448.853 433.918L350.804 416.866L323.834 438.944Z" fill="#222222"/>
<path d="M550.245 416.135L577.747 440.492L473.903 458.969L450.274 433.773L550.245 416.135Z" fill="white"/>
<path d="M473.903 459.613C473.815 459.613 473.728 459.595 473.647 459.56C473.566 459.525 473.493 459.475 473.432 459.411L449.803 434.214C449.724 434.129 449.67 434.024 449.645 433.911C449.62 433.797 449.627 433.679 449.664 433.569C449.701 433.459 449.766 433.361 449.854 433.285C449.942 433.209 450.049 433.158 450.163 433.138L550.131 415.515C550.227 415.497 550.325 415.502 550.419 415.528C550.513 415.555 550.6 415.602 550.672 415.667L578.171 440.024C578.262 440.105 578.328 440.209 578.362 440.326C578.396 440.442 578.397 440.566 578.364 440.682C578.332 440.8 578.267 440.905 578.177 440.986C578.087 441.068 577.975 441.122 577.855 441.142L474.002 459.619L473.903 459.613ZM451.561 434.203L474.134 458.273L576.319 440.092L550.049 416.826L451.561 434.203Z" fill="#222222"/>
<path d="M351.714 416.834H351.67L311.591 414.108C311.436 414.095 311.291 414.026 311.182 413.914C311.074 413.802 311.01 413.655 311.001 413.499C310.992 413.344 311.04 413.19 311.136 413.067C311.232 412.944 311.368 412.86 311.521 412.829L411.229 394.791C411.282 394.784 411.336 394.784 411.39 394.791L424.32 395.704C424.483 395.726 424.631 395.809 424.735 395.937C424.838 396.064 424.89 396.226 424.878 396.39C424.867 396.554 424.793 396.707 424.673 396.819C424.552 396.931 424.394 396.992 424.229 396.991L411.381 396.084L316.889 413.18L351.702 415.547L426.497 402.263C426.663 402.239 426.831 402.281 426.967 402.379C427.103 402.477 427.196 402.625 427.225 402.79C427.254 402.955 427.218 403.125 427.124 403.264C427.03 403.404 426.886 403.501 426.722 403.535L351.848 416.831C351.804 416.839 351.758 416.84 351.714 416.834Z" fill="#222222"/>
<path d="M450.775 339C434.132 339 420.643 352.457 420.643 369.05C420.643 373.198 422.527 378.996 425.353 385.368C432.473 401.423 445.576 421.085 449.584 426.959C449.717 427.153 449.895 427.312 450.103 427.422C450.311 427.532 450.542 427.589 450.778 427.589C451.013 427.589 451.244 427.532 451.452 427.422C451.66 427.312 451.839 427.153 451.971 426.959C457.565 418.768 480.912 383.663 480.912 369.035C480.91 352.454 467.417 339 450.775 339Z" fill="#FF1D1D"/>
<path d="M460.099 378.302C465.248 373.153 465.248 364.804 460.099 359.655C454.95 354.506 446.602 354.506 441.453 359.655C436.304 364.804 436.304 373.153 441.453 378.302C446.602 383.451 454.95 383.451 460.099 378.302Z" fill="white"/>
<path d="M99.0928 170.972C110.665 159.405 110.665 140.652 99.0928 129.085C87.5207 117.518 68.7586 117.518 57.1864 129.085C45.6143 140.652 45.6143 159.405 57.1864 170.972C68.7586 182.538 87.5207 182.538 99.0928 170.972Z" fill="white"/>
<path d="M78.139 180.35C72.1385 180.35 66.2727 178.571 61.2835 175.239C56.2943 171.907 52.4057 167.171 50.1095 161.63C47.8134 156.088 47.2127 149.991 48.3836 144.108C49.5545 138.226 52.4443 132.823 56.6875 128.582C60.9308 124.341 66.3369 121.453 72.2222 120.283C78.1075 119.114 84.2077 119.715 89.7513 122.01C95.2949 124.306 100.033 128.193 103.366 133.181C106.699 138.168 108.478 144.031 108.478 150.029C108.468 158.068 105.268 165.775 99.5803 171.459C93.8928 177.143 86.1819 180.341 78.139 180.35ZM78.139 121.113C72.4173 121.113 66.8238 122.808 62.066 125.985C57.3083 129.162 53.5999 133.678 51.4098 138.961C49.2197 144.245 48.6464 150.059 49.7623 155.668C50.8781 161.277 53.6331 166.43 57.6788 170.474C61.7245 174.518 66.8791 177.273 72.4909 178.389C78.1027 179.504 83.9195 178.932 89.2058 176.744C94.4921 174.555 99.0104 170.849 102.189 166.094C105.368 161.339 107.065 155.748 107.065 150.029C107.058 142.363 104.009 135.012 98.5855 129.591C93.1624 124.17 85.8089 121.121 78.139 121.113Z" fill="#222222"/>
<path d="M78.3045 164.926C78.1613 165.013 77.9977 165.061 77.8302 165.065C77.6626 165.068 77.497 165.028 77.3499 164.948C74.7376 163.491 62.6245 156.196 63.0986 146.651C63.5981 136.567 74.5531 138.316 77.2545 143.277C77.3033 143.37 77.378 143.447 77.4694 143.498C77.5609 143.549 77.6652 143.573 77.7699 143.566C77.875 143.562 77.9766 143.527 78.0629 143.467C78.1491 143.407 78.2163 143.323 78.2567 143.226C79.5804 140.046 83.8663 137.731 87.9008 139.244C92.7022 141.048 97.5926 152.974 78.3045 164.926Z" fill="#FF1D1D"/>
</g>
<defs>
<clipPath id="clip0_76_868">
<rect width="584" height="582" fill="white"/>
</clipPath>
</defs>
</svg>
