<svg width="320" height="310" viewBox="0 0 320 310" fill="none" xmlns="http://www.w3.org/2000/svg">
<rect y="16" width="320" height="294" rx="8" fill="#FF1D1D"/>
<path d="M78.1639 111.882L51.324 116.544L24.507 111.876L51.6286 107.159L78.1639 111.882Z" fill="white"/>
<path d="M51.3296 156.05V116.505L78.2746 111.866V151.303L51.3296 156.05Z" fill="white"/>
<path d="M51.3288 156.224C51.2829 156.223 51.2389 156.205 51.2064 156.173C51.1739 156.14 51.1556 156.096 51.1554 156.05V116.505C51.1554 116.464 51.1698 116.425 51.1961 116.394C51.2224 116.362 51.2588 116.341 51.299 116.335L78.244 111.695C78.269 111.691 78.2945 111.692 78.3189 111.699C78.3433 111.706 78.366 111.718 78.3853 111.734C78.4046 111.75 78.4201 111.77 78.4307 111.793C78.4413 111.816 78.4467 111.84 78.4465 111.866V151.302C78.4466 151.343 78.4323 151.383 78.4062 151.414C78.38 151.445 78.3437 151.466 78.3037 151.473L51.3595 156.224H51.3288ZM51.5015 116.651V155.844L78.1004 151.157V112.071L51.5015 116.651Z" fill="#222222"/>
<path d="M56.18 145.756C56.1342 145.756 56.0904 145.737 56.0581 145.705C56.0258 145.673 56.0075 145.629 56.0073 145.583V126.678C56.0073 126.637 56.0217 126.597 56.0479 126.566C56.0742 126.535 56.1107 126.514 56.151 126.507L73.567 123.479C73.5918 123.474 73.6174 123.475 73.6418 123.482C73.6662 123.488 73.6889 123.5 73.7082 123.516C73.7276 123.533 73.7431 123.553 73.7537 123.576C73.7643 123.599 73.7697 123.624 73.7695 123.649V142.486C73.7694 142.526 73.755 142.566 73.7289 142.597C73.7028 142.628 73.6666 142.649 73.6266 142.656L56.2106 145.755C56.2005 145.756 56.1902 145.757 56.18 145.756ZM56.3535 126.823V145.376L73.4234 142.339V123.855L56.3535 126.823Z" fill="#222222"/>
<path d="M63.232 142.235H63.1975C62.8792 142.226 62.5659 142.153 62.2758 142.022C61.9857 141.891 61.7246 141.703 61.5077 141.47C61.0429 140.979 60.786 140.326 60.7903 139.65V139.248C60.7878 139.049 60.8645 138.856 61.0035 138.713C61.1425 138.57 61.3326 138.488 61.532 138.485C61.6322 138.485 61.7313 138.505 61.8233 138.545C61.9152 138.585 61.998 138.643 62.0665 138.716C62.2024 138.859 62.2775 139.049 62.2761 139.247V139.666C62.2737 139.943 62.3783 140.21 62.568 140.412C62.6548 140.506 62.7598 140.58 62.8766 140.631C62.9934 140.683 63.1194 140.709 63.2469 140.71H63.2658C63.3892 140.706 63.5107 140.678 63.6231 140.626C63.7355 140.575 63.8366 140.502 63.9204 140.411C64.1102 140.209 64.2148 139.942 64.2123 139.665V127.892C64.212 127.785 64.2342 127.678 64.2774 127.58C64.3207 127.482 64.3841 127.394 64.4635 127.321C64.5398 127.253 64.6296 127.201 64.7272 127.169C64.8248 127.137 64.9279 127.125 65.0301 127.135C65.2168 127.16 65.3881 127.252 65.5115 127.394C65.6348 127.536 65.7018 127.719 65.6996 127.907V139.647C65.7034 140.323 65.4465 140.975 64.9823 141.467C64.7627 141.701 64.4986 141.89 64.2053 142.021C63.912 142.152 63.5956 142.223 63.2744 142.231L63.2462 142.058V142.231L63.232 142.235ZM61.532 138.834C61.4245 138.836 61.3224 138.881 61.2479 138.958C61.1734 139.036 61.1328 139.14 61.1349 139.247V139.649C61.1302 140.237 61.3529 140.804 61.7565 141.231C61.9436 141.431 62.1688 141.593 62.4189 141.705C62.669 141.818 62.939 141.88 63.2132 141.887L63.2289 142.061V141.888H63.2634C63.5401 141.882 63.8128 141.821 64.0656 141.708C64.3183 141.596 64.5459 141.434 64.735 141.232C65.1382 140.804 65.3611 140.238 65.3574 139.65V127.91C65.3603 127.807 65.3254 127.707 65.2595 127.629C65.1936 127.55 65.1011 127.498 64.9995 127.483C64.9453 127.478 64.8906 127.484 64.8388 127.501C64.7871 127.518 64.7394 127.546 64.6989 127.582C64.6555 127.622 64.6209 127.67 64.5973 127.725C64.5738 127.779 64.5619 127.837 64.5624 127.896L64.5585 139.669C64.561 140.035 64.4221 140.388 64.1707 140.654C64.0527 140.782 63.9094 140.884 63.7498 140.954C63.5903 141.024 63.418 141.06 63.2438 141.06C63.0696 141.06 62.8973 141.024 62.7378 140.954C62.5782 140.884 62.4349 140.782 62.3169 140.654C62.0659 140.388 61.9273 140.035 61.93 139.67V139.251C61.9306 139.142 61.8896 139.038 61.8154 138.959C61.7792 138.919 61.7354 138.888 61.6867 138.867C61.6379 138.845 61.5853 138.834 61.532 138.834Z" fill="#222222"/>
<path d="M70.4386 133.572C70.5229 133.557 70.6032 133.525 70.6745 133.478C70.7458 133.431 70.8065 133.37 70.8529 133.298C70.8992 133.226 70.9301 133.146 70.9437 133.061C70.9572 132.977 70.9531 132.891 70.9315 132.808C70.1215 129.728 67.3942 128.774 64.4855 129.276C61.6874 129.758 59.5715 131.924 58.8651 134.657C58.8385 134.757 58.8373 134.862 58.8617 134.962C58.8862 135.063 58.9354 135.155 59.0049 135.232C59.0744 135.308 59.1619 135.366 59.2595 135.4C59.3572 135.434 59.4617 135.442 59.5636 135.425L70.4386 133.572Z" fill="white"/>
<path d="M59.4592 135.606C59.3506 135.606 59.2433 135.583 59.1439 135.539C59.0446 135.496 58.9555 135.432 58.8823 135.351C58.7919 135.253 58.7277 135.134 58.6954 135.005C58.6632 134.876 58.664 134.74 58.6979 134.611C59.4396 131.74 61.7 129.579 64.4564 129.104C67.8588 128.518 70.3428 129.889 71.0994 132.764C71.1271 132.87 71.1325 132.98 71.1151 133.088C71.0978 133.197 71.0581 133.3 70.9987 133.392C70.9393 133.484 70.8614 133.563 70.77 133.623C70.6786 133.683 70.5756 133.724 70.4676 133.742L59.5926 135.594C59.5486 135.602 59.5039 135.606 59.4592 135.606ZM65.9311 129.318C65.4575 129.32 64.9849 129.363 64.5184 129.445C61.8954 129.897 59.7441 131.956 59.0362 134.698C59.017 134.771 59.0164 134.848 59.0345 134.921C59.0526 134.994 59.0888 135.062 59.1398 135.118C59.1892 135.172 59.2516 135.213 59.3212 135.237C59.3908 135.26 59.4653 135.266 59.5377 135.253L70.4127 133.401C70.4732 133.391 70.5309 133.368 70.5821 133.334C70.6334 133.3 70.677 133.256 70.7103 133.204C70.7437 133.152 70.7659 133.094 70.7758 133.034C70.7856 132.973 70.7828 132.911 70.7675 132.852C70.1655 130.58 68.4019 129.318 65.9311 129.318Z" fill="#222222"/>
<path d="M51.3296 156.05V116.505L24.6177 111.86V151.326L51.3296 156.05Z" fill="white"/>
<path d="M51.3288 156.224H51.2982L24.5871 151.499C24.547 151.492 24.5107 151.471 24.4846 151.44C24.4585 151.408 24.4442 151.369 24.4442 151.328V111.86C24.4441 111.835 24.4495 111.81 24.46 111.787C24.4706 111.764 24.4861 111.744 24.5054 111.727C24.5248 111.711 24.5474 111.699 24.5718 111.693C24.5962 111.686 24.6218 111.685 24.6467 111.689L51.3578 116.335C51.398 116.342 51.4345 116.362 51.4608 116.394C51.4871 116.425 51.5015 116.464 51.5015 116.505V156.05C51.5016 156.073 51.4972 156.095 51.4885 156.116C51.4799 156.138 51.4672 156.157 51.4512 156.173C51.4351 156.189 51.4161 156.202 51.3951 156.21C51.3741 156.219 51.3515 156.224 51.3288 156.224ZM24.7903 151.181L51.1553 155.844V116.651L24.7903 112.066V151.181Z" fill="#222222"/>
<path d="M44.2204 143.028C44.2108 143.029 44.201 143.029 44.1914 143.028L31.0112 140.797C30.9709 140.79 30.9342 140.77 30.9078 140.738C30.8813 140.707 30.8668 140.668 30.8668 140.627V137.718C30.8671 137.693 30.8727 137.668 30.8834 137.645C30.8942 137.623 30.9097 137.602 30.9289 137.586C30.9481 137.57 30.9706 137.558 30.9949 137.552C31.0191 137.545 31.0445 137.544 31.0693 137.548L44.2502 139.843C44.2903 139.85 44.3266 139.871 44.3527 139.902C44.3789 139.933 44.3932 139.972 44.3931 140.013V142.857C44.3932 142.883 44.3878 142.907 44.3772 142.93C44.3666 142.953 44.3512 142.974 44.3319 142.99C44.3002 143.015 44.2609 143.029 44.2204 143.028ZM31.2129 140.478L44.047 142.65V140.156L31.2129 137.922V140.478Z" fill="#222222"/>
<path d="M42.1797 138.15C42.17 138.151 42.1603 138.151 42.1507 138.15L39.5182 137.701C39.4779 137.694 39.4413 137.673 39.415 137.641C39.3887 137.61 39.3744 137.57 39.3746 137.53V130.786L38.1283 130.569C38.0975 130.564 38.0688 130.551 38.0451 130.531C38.0213 130.51 38.0036 130.484 37.9936 130.454C37.9836 130.425 37.9818 130.393 37.9884 130.363C37.995 130.332 38.0097 130.304 38.0309 130.281L40.7332 127.345C40.751 127.327 40.7727 127.312 40.7967 127.303C40.8206 127.293 40.8464 127.289 40.8721 127.29C40.8979 127.292 40.9229 127.3 40.9454 127.312C40.968 127.325 40.9874 127.342 41.0024 127.363L43.7227 131.248C43.7425 131.276 43.7534 131.31 43.7543 131.344C43.7551 131.379 43.7458 131.412 43.7274 131.441C43.7093 131.471 43.6827 131.494 43.6512 131.508C43.6197 131.522 43.5848 131.526 43.5509 131.52L42.3492 131.307V137.979C42.3494 138.004 42.344 138.029 42.3334 138.051C42.3228 138.074 42.3073 138.094 42.288 138.11C42.2576 138.136 42.2193 138.15 42.1797 138.15ZM39.7207 137.387L42.0062 137.774V131.102C42.0063 131.077 42.0119 131.052 42.0227 131.029C42.0334 131.006 42.0489 130.986 42.0683 130.97C42.0876 130.953 42.1103 130.942 42.1347 130.935C42.1591 130.928 42.1846 130.927 42.2095 130.931L43.2024 131.108L40.8478 127.742L38.5034 130.286L39.5802 130.474C39.6204 130.481 39.6569 130.501 39.6832 130.533C39.7095 130.564 39.7239 130.603 39.7239 130.644L39.7207 137.387Z" fill="#222222"/>
<path d="M35.6975 137.066C35.6879 137.067 35.6782 137.067 35.6685 137.066L33.0361 136.62C32.9957 136.613 32.9591 136.593 32.9326 136.561C32.9062 136.53 32.8917 136.491 32.8917 136.45V129.7L31.6461 129.483C31.6154 129.478 31.5868 129.465 31.5632 129.445C31.5395 129.424 31.5218 129.398 31.5119 129.369C31.5019 129.339 31.5 129.308 31.5064 129.277C31.5127 129.247 31.5271 129.218 31.548 129.195L34.2534 126.259C34.2711 126.24 34.2927 126.226 34.3167 126.216C34.3407 126.206 34.3665 126.202 34.3923 126.203C34.4182 126.205 34.4433 126.213 34.4658 126.225C34.4884 126.238 34.5078 126.256 34.5226 126.277L37.2437 130.162C37.2632 130.19 37.274 130.224 37.2747 130.258C37.2754 130.292 37.266 130.326 37.2476 130.354C37.2293 130.383 37.2028 130.406 37.1715 130.42C37.1402 130.434 37.1055 130.438 37.0718 130.432L35.8671 130.22V136.892C35.867 136.917 35.8615 136.942 35.851 136.965C35.8404 136.987 35.825 137.008 35.8058 137.024C35.7756 137.05 35.7374 137.065 35.6975 137.066ZM33.2378 136.301L35.5241 136.688V130.016C35.5241 129.991 35.5297 129.966 35.5404 129.943C35.5511 129.92 35.5667 129.9 35.5861 129.884C35.6054 129.867 35.6281 129.855 35.6525 129.849C35.6769 129.842 35.7025 129.841 35.7274 129.846L36.7202 130.022L34.3656 126.655L32.0212 129.198L33.0981 129.385C33.1383 129.392 33.1747 129.413 33.2008 129.445C33.227 129.476 33.2412 129.515 33.2409 129.556L33.2378 136.301Z" fill="#222222"/>
<path d="M46.3379 145.757C46.328 145.758 46.318 145.758 46.3081 145.757L28.8913 142.658C28.8513 142.651 28.8152 142.63 28.7892 142.599C28.7631 142.567 28.7487 142.528 28.7484 142.488V123.652C28.7485 123.627 28.754 123.602 28.7647 123.579C28.7754 123.556 28.791 123.535 28.8104 123.519C28.8299 123.503 28.8526 123.491 28.877 123.485C28.9013 123.478 28.9268 123.477 28.9517 123.481L46.3677 126.509C46.408 126.517 46.4445 126.538 46.4708 126.569C46.497 126.6 46.5114 126.64 46.5114 126.681V145.585C46.5111 145.631 46.4928 145.675 46.4603 145.708C46.4278 145.74 46.3838 145.759 46.3379 145.759V145.757ZM29.0953 142.339L46.1652 145.377V126.823L29.0953 123.855V142.339Z" fill="#222222"/>
<path d="M87.0447 110.489L77.6664 111.777L51.7574 107.246L60.9945 105.947L87.0447 110.489Z" fill="white"/>
<path d="M51.9183 107.108L24.923 111.903L14.1697 111.171L40.9177 106.333L51.9183 107.108Z" fill="white"/>
<path d="M77.8312 111.915C77.8213 111.916 77.8113 111.916 77.8014 111.915L58.1014 108.48C58.0791 108.476 58.0577 108.468 58.0385 108.455C58.0193 108.443 58.0027 108.427 57.9896 108.409C57.9765 108.39 57.9672 108.369 57.9622 108.347C57.9572 108.325 57.9567 108.302 57.9605 108.28C57.9644 108.258 57.9726 108.236 57.9848 108.217C57.9969 108.198 58.0127 108.181 58.0312 108.168C58.0498 108.155 58.0707 108.146 58.0929 108.141C58.115 108.136 58.1379 108.135 58.1603 108.139L77.8367 111.57L85.9576 110.427L61.0172 106.078L59.2999 106.32C59.2558 106.323 59.212 106.31 59.1775 106.282C59.143 106.254 59.1204 106.215 59.1143 106.171C59.1081 106.127 59.119 106.082 59.1446 106.046C59.1702 106.01 59.2086 105.985 59.252 105.977L60.996 105.732C61.0139 105.729 61.0322 105.729 61.0501 105.732L87.1004 110.274C87.1408 110.281 87.1773 110.303 87.2034 110.334C87.2295 110.366 87.2434 110.406 87.2427 110.447C87.2421 110.488 87.2269 110.528 87.1998 110.559C87.1727 110.59 87.1355 110.61 87.0949 110.616L77.8571 111.913L77.8312 111.915Z" fill="#222222"/>
<path d="M51.3241 116.544L45.2823 123.068L17.0383 118.113L24.6271 111.9L51.3241 116.544Z" fill="white"/>
<path d="M45.2854 123.242C45.2755 123.243 45.2655 123.243 45.2556 123.242L17.0117 118.286C16.9792 118.28 16.9491 118.265 16.925 118.243C16.9008 118.22 16.8836 118.191 16.8754 118.159C16.8671 118.127 16.8682 118.093 16.8784 118.062C16.8887 118.031 16.9077 118.003 16.9332 117.982L24.5212 111.768C24.5406 111.753 24.5631 111.741 24.5872 111.735C24.6113 111.729 24.6364 111.728 24.6609 111.732L51.3579 116.375C51.3886 116.381 51.4174 116.394 51.441 116.415C51.4647 116.435 51.4825 116.461 51.4924 116.491C51.5024 116.52 51.5042 116.552 51.4976 116.583C51.4911 116.613 51.4764 116.641 51.4552 116.664L45.4118 123.189C45.3955 123.206 45.3759 123.219 45.3542 123.228C45.3324 123.238 45.309 123.242 45.2854 123.242ZM17.4433 118.008L45.2227 122.882L50.9843 116.659L24.679 112.084L17.4433 118.008Z" fill="#222222"/>
<path d="M78.1867 111.888L85.5652 118.423L57.705 123.38L51.3657 116.62L78.1867 111.888Z" fill="white"/>
<path d="M57.7051 123.553C57.6814 123.553 57.6581 123.548 57.6364 123.539C57.6147 123.53 57.595 123.516 57.5787 123.499L51.2394 116.739C51.2182 116.716 51.2035 116.688 51.1969 116.658C51.1903 116.627 51.1921 116.595 51.2019 116.566C51.2118 116.536 51.2295 116.51 51.2531 116.49C51.2766 116.469 51.3053 116.456 51.3359 116.45L78.1562 111.722C78.1819 111.717 78.2083 111.719 78.2335 111.726C78.2587 111.733 78.2819 111.745 78.3014 111.763L85.679 118.298C85.7034 118.319 85.7211 118.347 85.7303 118.378C85.7394 118.41 85.7396 118.443 85.7308 118.474C85.7222 118.506 85.7047 118.534 85.6805 118.556C85.6563 118.578 85.6264 118.592 85.5943 118.597L57.7317 123.555L57.7051 123.553ZM51.7111 116.736L57.7671 123.194L85.1822 118.316L78.1342 112.074L51.7111 116.736Z" fill="#222222"/>
<path d="M24.923 112.076H24.9112L14.1587 111.345C14.117 111.341 14.078 111.323 14.0489 111.293C14.0198 111.262 14.0026 111.223 14.0003 111.181C13.998 111.14 14.0108 111.098 14.0365 111.065C14.0621 111.032 14.0988 111.01 14.1398 111.002L40.8902 106.162C40.9045 106.16 40.919 106.16 40.9334 106.162L44.4024 106.407C44.4461 106.413 44.4859 106.435 44.5137 106.469C44.5415 106.504 44.5553 106.547 44.5522 106.591C44.5491 106.635 44.5294 106.676 44.497 106.706C44.4647 106.736 44.4222 106.753 44.3781 106.752L40.931 106.509L15.58 111.096L24.9199 111.731L44.9864 108.167C45.0309 108.16 45.0762 108.171 45.1127 108.198C45.1492 108.224 45.1739 108.264 45.1818 108.308C45.1896 108.352 45.1799 108.398 45.1548 108.435C45.1296 108.473 45.0909 108.499 45.0468 108.508L24.9591 112.075C24.9472 112.077 24.935 112.078 24.923 112.076Z" fill="#222222"/>
<path d="M51.5 91.1938C47.0349 91.1938 43.4159 94.8042 43.4159 99.2559C43.4159 100.369 43.9213 101.924 44.6795 103.634C46.5899 107.941 50.1053 113.216 51.1805 114.792C51.2161 114.844 51.2639 114.887 51.3197 114.916C51.3755 114.946 51.4376 114.961 51.5007 114.961C51.5638 114.961 51.626 114.946 51.6818 114.916C51.7376 114.887 51.7854 114.844 51.821 114.792C53.3216 112.595 59.5856 103.176 59.5856 99.252C59.5848 94.8034 55.965 91.1938 51.5 91.1938Z" fill="#222222"/>
<path d="M54.0016 101.738C55.383 100.357 55.383 98.117 54.0016 96.7355C52.6201 95.3541 50.3804 95.3541 48.999 96.7355C47.6176 98.1169 47.6176 100.357 48.999 101.738C50.3804 103.12 52.6201 103.12 54.0016 101.738Z" fill="white"/>
<path d="M245.337 79.1299L240.981 32.9809C240.952 32.6322 240.793 32.3071 240.536 32.0701C240.278 31.833 239.941 31.7014 239.591 31.7012L222.406 31.3886C192.614 30.8474 162.831 31.3727 133.057 32.9645C130.767 32.9964 128.533 33.6797 126.616 34.9345C124.699 36.1893 123.18 37.9638 122.234 40.0505L105.53 76.9306L101.378 81.9032C99.786 83.8082 98.6454 86.0489 98.042 88.4573L95.6087 98.1467C94.9542 100.755 94.6233 103.434 94.6233 106.123V139.199L205.435 137.398V141.029H218.49C218.262 139.828 218.074 138.542 217.927 137.189L231.942 136.961C231.794 138.392 231.598 139.756 231.357 141.023H238.281C239.411 141.033 240.519 140.709 241.465 140.091C242.411 139.473 243.154 138.589 243.599 137.55L243.619 137.456C245.199 133.694 246.007 129.653 245.995 125.573V93.7426C246.003 88.8631 245.802 83.9874 245.337 79.1299Z" fill="white"/>
<path d="M116.342 163.459C122.417 163.459 127.342 153.777 127.342 141.835C127.342 129.892 122.417 120.211 116.342 120.211C110.267 120.211 105.342 129.892 105.342 141.835C105.342 153.777 110.267 163.459 116.342 163.459Z" fill="#222222"/>
<path d="M116.342 120.173H104.839C98.7642 120.173 93.8391 129.873 93.8391 141.817C93.8391 153.7 98.7185 163.358 104.753 163.45L116.271 163.72H116.34C122.416 163.72 127.341 153.89 127.341 141.947C127.341 130.003 122.417 120.173 116.342 120.173Z" fill="white"/>
<path d="M116.342 164.325H116.267L104.75 164.003C98.5156 163.91 93.4406 154.001 93.4406 141.917C93.4406 137.54 94.0987 133.324 95.3419 129.721C95.3555 129.667 95.3803 129.616 95.4146 129.572C95.4489 129.528 95.4919 129.492 95.541 129.466C95.5901 129.439 95.6442 129.423 95.6998 129.419C95.7554 129.414 95.8113 129.421 95.8639 129.44C95.9166 129.458 95.9649 129.487 96.0057 129.525C96.0466 129.563 96.0791 129.609 96.1011 129.66C96.1232 129.712 96.1344 129.767 96.134 129.823C96.1336 129.878 96.1216 129.934 96.0987 129.984C94.8775 133.504 94.2413 137.63 94.2413 141.917C94.2413 153.564 98.9599 163.111 104.761 163.197L116.278 163.519H116.335C120.54 163.519 124.357 158.442 126.059 150.586C126.067 150.532 126.087 150.479 126.116 150.433C126.146 150.386 126.184 150.346 126.23 150.314C126.275 150.283 126.327 150.262 126.381 150.251C126.435 150.24 126.491 150.241 126.545 150.253C126.598 150.264 126.649 150.287 126.694 150.319C126.739 150.352 126.777 150.393 126.805 150.44C126.833 150.487 126.852 150.54 126.859 150.595C126.866 150.649 126.862 150.705 126.847 150.758C125.07 159 120.944 164.325 116.342 164.325Z" fill="#222222"/>
<path d="M261.745 141.325H230.472V146.668H261.745V141.325Z" fill="white"/>
<path d="M261.745 147.073H230.472C230.419 147.073 230.367 147.063 230.318 147.042C230.269 147.022 230.224 146.992 230.187 146.955C230.149 146.917 230.119 146.873 230.099 146.824C230.079 146.775 230.068 146.722 230.068 146.669V141.32C230.068 141.267 230.079 141.214 230.099 141.165C230.119 141.116 230.149 141.071 230.187 141.034C230.224 140.996 230.269 140.967 230.318 140.946C230.367 140.926 230.419 140.916 230.472 140.916H261.745C261.799 140.914 261.853 140.924 261.903 140.944C261.953 140.964 261.998 140.993 262.036 141.031C262.075 141.068 262.105 141.113 262.126 141.163C262.146 141.213 262.157 141.266 262.157 141.32V146.662C262.158 146.716 262.148 146.77 262.128 146.821C262.108 146.871 262.077 146.917 262.039 146.955C262.001 146.994 261.955 147.024 261.904 147.044C261.854 147.064 261.8 147.074 261.745 147.073ZM230.876 146.265H261.341V141.729H230.876V146.265Z" fill="#222222"/>
<path d="M289.389 94.0737H198.486V142.04H289.389V94.0737Z" fill="white"/>
<path d="M289.397 142.444H198.486C198.379 142.444 198.277 142.401 198.201 142.326C198.126 142.251 198.083 142.148 198.082 142.042V94.0736C198.082 94.0206 198.093 93.9682 198.113 93.9193C198.133 93.8703 198.163 93.8259 198.201 93.7885C198.238 93.7512 198.283 93.7216 198.332 93.7015C198.381 93.6814 198.433 93.6712 198.486 93.6714H289.397C289.45 93.6712 289.502 93.6814 289.551 93.7015C289.6 93.7216 289.645 93.7512 289.682 93.7885C289.72 93.8259 289.75 93.8703 289.77 93.9193C289.79 93.9682 289.801 94.0206 289.801 94.0736V142.051C289.798 142.156 289.754 142.256 289.678 142.329C289.603 142.403 289.502 142.444 289.397 142.444ZM198.901 141.638H289V94.4703H198.889L198.901 141.638Z" fill="#222222"/>
<path d="M294.033 121.44H237.169V0.404785L294.033 3.6937V121.44Z" fill="white"/>
<path d="M294.033 121.842H237.176C237.069 121.842 236.967 121.799 236.891 121.724C236.815 121.648 236.772 121.545 236.772 121.438V0.404557C236.772 0.349322 236.784 0.294658 236.806 0.244003C236.828 0.193349 236.86 0.147799 236.9 0.110219C236.939 0.0728226 236.985 0.0437826 237.035 0.0249101C237.086 0.00603761 237.139 -0.00226252 237.193 0.000527444L294.05 3.29127C294.152 3.29688 294.249 3.34172 294.32 3.41655C294.391 3.49138 294.43 3.59049 294.43 3.69347V24.6079C294.434 24.6632 294.426 24.7186 294.407 24.7707C294.389 24.8228 294.36 24.8706 294.322 24.911C294.284 24.9515 294.238 24.9837 294.188 25.0057C294.137 25.0278 294.082 25.0391 294.027 25.0391C293.971 25.0391 293.917 25.0278 293.866 25.0057C293.815 24.9837 293.769 24.9515 293.732 24.911C293.694 24.8706 293.665 24.8228 293.646 24.7707C293.628 24.7186 293.62 24.6632 293.624 24.6079V4.07373L237.573 0.830525V121.036H293.631V70.7514C293.627 70.6962 293.635 70.6408 293.653 70.5887C293.672 70.5365 293.701 70.4888 293.739 70.4483C293.777 70.4079 293.822 70.3757 293.873 70.3536C293.924 70.3316 293.979 70.3202 294.034 70.3202C294.089 70.3202 294.144 70.3316 294.195 70.3536C294.246 70.3757 294.291 70.4079 294.329 70.4483C294.367 70.4888 294.396 70.5365 294.415 70.5887C294.433 70.6408 294.441 70.6962 294.437 70.7514V121.438C294.437 121.491 294.427 121.544 294.406 121.593C294.386 121.642 294.356 121.686 294.319 121.724C294.281 121.761 294.237 121.791 294.188 121.811C294.139 121.831 294.086 121.842 294.033 121.842Z" fill="#222222"/>
<path d="M236.983 0.404785H131.207V120.246H236.983V0.404785Z" fill="white"/>
<path d="M236.982 120.648H131.207C131.154 120.648 131.102 120.638 131.053 120.618C131.004 120.598 130.96 120.568 130.922 120.531C130.885 120.493 130.855 120.449 130.835 120.4C130.815 120.351 130.805 120.299 130.805 120.246V114.262C130.812 114.16 130.857 114.064 130.932 113.994C131.007 113.924 131.106 113.885 131.208 113.885C131.311 113.885 131.409 113.924 131.484 113.994C131.559 114.064 131.604 114.16 131.611 114.262V119.847H236.58V0.806719H131.611V28.7359C131.615 28.7912 131.607 28.8466 131.589 28.8987C131.57 28.9508 131.541 28.9986 131.503 29.039C131.465 29.0795 131.42 29.1117 131.369 29.1337C131.318 29.1558 131.263 29.1671 131.208 29.1671C131.153 29.1671 131.098 29.1558 131.047 29.1337C130.996 29.1117 130.951 29.0795 130.913 29.039C130.875 28.9986 130.846 28.9508 130.828 28.8987C130.809 28.8466 130.801 28.7912 130.805 28.7359V0.404518C130.805 0.351546 130.815 0.299049 130.835 0.250041C130.855 0.201032 130.885 0.156478 130.922 0.118936C130.96 0.0813943 131.004 0.0516047 131.053 0.031278C131.102 0.0109513 131.154 0.000487734 131.207 0.000488281L236.982 0.000488281C237.09 0.000488281 237.192 0.0430556 237.268 0.118826C237.344 0.194596 237.387 0.297363 237.387 0.404518V120.246C237.387 120.299 237.376 120.351 237.356 120.4C237.335 120.449 237.306 120.494 237.268 120.531C237.231 120.568 237.186 120.598 237.137 120.618C237.088 120.638 237.035 120.648 236.982 120.648Z" fill="#222222"/>
<path d="M97.2944 68.8116L98.7789 89.8687H94.4278C93.5021 89.8687 92.5854 89.6863 91.7302 89.3319C90.875 88.9774 90.098 88.4579 89.4437 87.8031C88.7894 87.1483 88.2705 86.3709 87.9167 85.5154C87.563 84.6599 87.3812 83.7431 87.382 82.8174L87.3911 70.2029C87.3913 69.7577 87.4796 69.3169 87.6507 68.9059C87.8219 68.4949 88.0726 68.1218 88.3884 67.808C88.7042 67.4942 89.079 67.2459 89.4911 67.0774C89.9032 66.909 90.3445 66.8236 90.7897 66.8262L94.9305 66.8482C95.4909 66.8516 96.0327 67.0491 96.4637 67.4071C96.8947 67.7651 97.1883 68.2615 97.2944 68.8116Z" fill="#222222"/>
<path d="M109.783 78.0843L92.1919 77.1555L92.2705 73.2798H109.783V78.0843Z" fill="#222222"/>
<path d="M225.074 64.2139C223.086 71.9435 220.606 82.207 219.328 88.8945C219.288 89.0969 219.302 89.306 219.366 89.5018C219.431 89.6977 219.545 89.8736 219.697 90.013C219.849 90.1523 220.034 90.2504 220.235 90.2978C220.435 90.3452 220.645 90.3405 220.843 90.2839C222.676 89.7545 224.451 89.0422 226.141 88.1577C226.364 88.0403 226.55 87.8621 226.676 87.6437C226.801 87.4252 226.863 87.1756 226.852 86.9237L225.938 64.3072C225.944 64.2504 225.939 64.193 225.923 64.1382C225.907 64.0834 225.88 64.0323 225.845 63.9878C225.809 63.9433 225.765 63.9063 225.715 63.8789C225.664 63.8516 225.609 63.8343 225.553 63.8282C225.496 63.8221 225.438 63.8272 225.384 63.8433C225.329 63.8593 225.278 63.886 225.233 63.9219C225.189 63.9577 225.152 64.0019 225.124 64.052C225.097 64.1021 225.08 64.1572 225.074 64.2139Z" fill="#222222"/>
<path d="M247.493 87.8412H243.327C242.657 87.8429 242.006 87.6214 241.476 87.2119C240.947 86.8024 240.568 86.2281 240.401 85.5797L238.769 79.2597C237.985 76.2076 238.127 72.9912 239.177 70.02L239.752 68.3875C240.114 67.3625 240.785 66.4749 241.672 65.8472C242.56 65.2195 243.62 64.8825 244.707 64.8828H246.866C247.88 64.883 248.859 65.2554 249.617 65.9294C250.375 66.6033 250.859 67.532 250.977 68.5392L252.579 82.1245C252.663 82.8424 252.595 83.57 252.378 84.2595C252.161 84.949 251.8 85.5847 251.32 86.1248C250.839 86.6648 250.25 87.097 249.59 87.3929C248.931 87.6887 248.216 87.8415 247.493 87.8412Z" fill="#222222"/>
<path d="M241.293 76.7023L224.476 76.6L224.942 71.8394L241.761 71.9417L241.293 76.7023Z" fill="#222222"/>
<path d="M242.401 87.1979L225.529 88.0279V83.2436L242.401 82.4136V87.1979Z" fill="#222222"/>
<path d="M245.337 79.1299L240.981 32.9809C240.952 32.6322 240.793 32.3071 240.536 32.0701C240.278 31.833 239.941 31.7014 239.591 31.7012L222.406 31.3886C192.614 30.8474 162.831 31.3727 133.057 32.9645C130.767 32.9964 128.533 33.6797 126.616 34.9345C124.699 36.1893 123.18 37.9638 122.234 40.0505L105.53 76.9305L101.378 81.9032C99.786 83.8082 98.6454 86.0488 98.042 88.4573L95.6087 98.1467C94.9542 100.755 94.6233 103.434 94.6233 106.123V120.43C94.6229 125.431 96.5924 130.23 100.105 133.789C103.618 137.348 108.391 139.379 113.391 139.444L238.281 141.034C239.411 141.044 240.519 140.72 241.465 140.102C242.411 139.484 243.154 138.6 243.599 137.561L243.619 137.467C245.199 133.705 246.007 129.664 245.995 125.584V93.7426C246.003 88.8631 245.802 83.9874 245.337 79.1299Z" fill="white"/>
<path d="M197.572 144.806C197.572 134.672 194.814 126.457 191.411 126.457C191.008 126.463 190.613 126.573 190.265 126.778H184.963C184.365 126.798 183.792 127.022 183.34 127.415C182.889 127.023 182.317 126.798 181.72 126.778H175.279C171.877 126.778 169.118 134.833 169.118 144.967C169.118 155.055 171.861 163.159 175.232 163.236L191.373 163.178C191.386 163.176 191.399 163.176 191.411 163.178C194.814 163.178 197.572 155.117 197.572 144.982V144.815V144.806Z" fill="white"/>
<path d="M175.226 163.639C171.57 163.555 168.718 155.354 168.718 144.966C168.718 134.546 171.603 126.374 175.283 126.374H181.704C182.295 126.383 182.87 126.575 183.349 126.922C183.821 126.577 184.388 126.386 184.972 126.374H190.163C190.545 126.169 190.972 126.059 191.406 126.054C195.086 126.054 197.971 134.281 197.971 144.805V144.853L197.569 144.891L197.971 144.928V144.975C197.971 155.352 195.115 163.491 191.461 163.574C191.43 163.581 191.399 163.585 191.367 163.585L175.226 163.639ZM175.318 127.182C172.508 127.182 169.53 134.328 169.53 144.966C169.53 155.57 172.488 162.771 175.25 162.833L191.338 162.775C191.367 162.768 191.396 162.764 191.426 162.764C194.207 162.764 197.185 155.614 197.185 144.972V144.805C197.185 134.07 194.207 126.86 191.426 126.86C191.092 126.866 190.765 126.959 190.477 127.129C190.417 127.163 190.349 127.182 190.28 127.182H184.996C184.479 127.196 183.984 127.39 183.594 127.73C183.523 127.787 183.434 127.818 183.343 127.818C183.251 127.818 183.163 127.787 183.091 127.73C182.711 127.396 182.229 127.203 181.724 127.182H175.318Z" fill="#222222"/>
<path d="M168.948 118.492H120.022C118.619 118.492 117.235 118.168 115.978 117.545C114.721 116.923 113.624 116.018 112.774 114.902L110.945 112.505C110.332 111.701 109.959 110.74 109.868 109.732C109.778 108.725 109.975 107.713 110.435 106.812L115.108 97.6712C116.035 95.8556 117.445 94.3313 119.183 93.2667C120.922 92.2021 122.92 91.6385 124.959 91.6382H164.59C166.654 91.6388 168.678 92.217 170.431 93.3073C172.184 94.3977 173.597 95.9568 174.51 97.8083L178.74 106.372C179.164 107.228 179.351 108.182 179.282 109.135C179.213 110.088 178.891 111.005 178.349 111.792L176.451 114.549C175.614 115.765 174.493 116.759 173.186 117.446C171.879 118.133 170.425 118.492 168.948 118.492Z" fill="white"/>
<path d="M168.948 118.895H120.022C118.558 118.891 117.114 118.55 115.802 117.9C114.49 117.25 113.344 116.308 112.454 115.145L110.626 112.75C109.969 111.884 109.57 110.85 109.473 109.768C109.376 108.685 109.585 107.597 110.077 106.628L114.748 97.4868C115.705 95.6026 117.166 94.0211 118.969 92.9182C120.772 91.8153 122.845 91.2343 124.958 91.2398H164.59C166.731 91.2312 168.831 91.8259 170.649 92.9556C172.468 94.0853 173.931 95.7045 174.872 97.6275L179.102 106.189C179.556 107.11 179.757 108.136 179.683 109.16C179.609 110.185 179.263 111.171 178.682 112.017L176.78 114.778C175.906 116.047 174.736 117.085 173.372 117.802C172.008 118.519 170.49 118.894 168.948 118.895ZM124.962 92.0534C122.998 92.0482 121.07 92.5883 119.395 93.6134C117.719 94.6385 116.36 96.1084 115.47 97.8597L110.799 107.001C110.376 107.834 110.195 108.77 110.279 109.701C110.362 110.632 110.705 111.521 111.269 112.266L113.097 114.663C113.913 115.726 114.961 116.589 116.163 117.184C117.364 117.779 118.686 118.09 120.026 118.094H168.948C170.36 118.094 171.75 117.751 172.999 117.095C174.248 116.438 175.32 115.488 176.12 114.326L178.016 111.571C178.517 110.844 178.816 109.996 178.88 109.115C178.944 108.234 178.772 107.352 178.382 106.56L174.148 97.9913C173.272 96.2045 171.912 94.7001 170.221 93.65C168.531 92.5999 166.58 92.0467 164.59 92.0534H124.962Z" fill="#222222"/>
<path d="M213.743 133.021C213.989 115.471 218.902 101.492 224.926 101.492C231.109 101.492 236.12 116.189 236.12 134.4C236.126 138.149 235.903 141.895 235.452 145.617L213.743 133.021Z" fill="white"/>
<path d="M245.337 79.1303L240.981 32.9814C240.952 32.6327 240.793 32.3076 240.536 32.0706C240.278 31.8335 239.941 31.7018 239.591 31.7017C237.03 31.7015 234.536 32.5164 232.468 34.0282C230.401 35.5401 228.868 37.6706 228.092 40.1113L218.037 71.6823C216.673 75.9633 213.809 79.6082 209.973 81.9476L209.01 82.5747C207.909 83.2539 207.003 84.2058 206.379 85.338C205.755 86.4702 205.434 87.7445 205.446 89.0373V141.029C205.446 141.029 213.28 134.384 213.962 130.672C216.538 116.637 220.882 109.087 224.931 109.087C228.981 109.087 232.271 118.723 232.271 130.66C232.287 134.137 231.981 137.608 231.357 141.029H238.281C239.411 141.039 240.519 140.715 241.465 140.097C242.412 139.479 243.154 138.595 243.599 137.556L243.619 137.462C245.199 133.7 246.007 129.659 245.996 125.579V93.7431C246.003 88.8636 245.802 83.9878 245.337 79.1303Z" fill="white"/>
<path d="M205.439 141.431C205.381 141.431 205.324 141.419 205.271 141.394C205.201 141.362 205.142 141.311 205.1 141.246C205.059 141.181 205.037 141.106 205.037 141.029V89.0423C205.021 87.68 205.359 86.337 206.017 85.1441C206.675 83.9512 207.631 82.9493 208.792 82.236L209.746 81.6144C213.504 79.3229 216.309 75.7527 217.646 71.5593L227.701 39.9884C228.498 37.4636 230.081 35.2593 232.219 33.6967C234.356 32.1341 236.936 31.2947 239.584 31.3008C240.033 31.3 240.466 31.4676 240.798 31.7706C241.129 32.0735 241.335 32.4898 241.374 32.937L245.736 79.0878C246.177 83.7351 246.4 88.6639 246.4 93.7371V125.579C246.412 129.7 245.596 133.781 244.001 137.581L243.988 137.639C243.983 137.662 243.976 137.685 243.966 137.707C243.491 138.819 242.697 139.766 241.685 140.429C240.672 141.091 239.487 141.44 238.277 141.431H231.361C231.302 141.431 231.243 141.418 231.189 141.392C231.135 141.367 231.088 141.33 231.05 141.285C231.012 141.239 230.985 141.185 230.97 141.128C230.955 141.07 230.953 141.01 230.964 140.952C231.581 137.556 231.882 134.11 231.864 130.659C231.864 119.184 228.688 109.489 224.928 109.489C220.873 109.489 216.721 117.833 214.352 130.745C213.651 134.555 206.031 141.06 205.701 141.336C205.627 141.397 205.535 141.431 205.439 141.431ZM231.845 140.625H238.284C239.33 140.634 240.355 140.336 241.233 139.768C242.11 139.199 242.802 138.385 243.22 137.427L243.233 137.369C243.239 137.346 243.246 137.323 243.255 137.301C244.818 133.591 245.617 129.604 245.604 125.579V93.7426C245.604 88.695 245.381 83.7918 244.944 79.1683L240.584 33.0193C240.565 32.7707 240.452 32.5385 240.269 32.369C240.087 32.1996 239.846 32.1054 239.597 32.1052C237.121 32.0995 234.707 32.8844 232.708 34.3457C230.708 35.807 229.228 37.8684 228.482 40.2297L218.427 71.8007C217.032 76.1736 214.107 79.8968 210.189 82.2872L209.236 82.9087C208.189 83.5499 207.325 84.4524 206.731 85.5276C206.138 86.6029 205.833 87.814 205.849 89.0423V140.138C207.735 138.453 213.03 133.507 213.564 130.599C216.044 117.081 220.401 108.683 224.933 108.683C229.275 108.683 232.677 118.335 232.677 130.659C232.69 133.999 232.412 137.333 231.845 140.625Z" fill="#222222"/>
<path d="M190.078 90.1742C196.499 88.9822 208.843 86.5672 212.944 84.8725C213.022 84.8405 213.107 84.8292 213.19 84.8398C213.274 84.8504 213.353 84.8825 213.421 84.9329C213.489 84.9834 213.542 85.0505 213.576 85.1277C213.61 85.2048 213.623 85.2895 213.615 85.3734L212.377 97.5309C212.234 98.917 211.626 100.214 210.652 101.21C209.677 102.206 208.394 102.843 207.011 103.015L190.446 105.085C189.59 105.193 188.721 105.066 187.932 104.718C187.143 104.37 186.464 103.813 185.967 103.109L182.23 97.8234C181.99 97.4837 181.868 97.0747 181.882 96.659C181.897 96.2432 182.047 95.8437 182.311 95.5217L183.51 94.0591C185.17 92.0272 187.498 90.6506 190.078 90.1742Z" fill="white"/>
<path d="M189.852 105.54C189.027 105.539 188.215 105.34 187.483 104.959C186.752 104.579 186.122 104.029 185.647 103.355L181.899 98.0718C181.609 97.6593 181.462 97.1635 181.48 96.6597C181.497 96.1559 181.678 95.6715 181.996 95.2801L183.195 93.8176C184.916 91.7101 187.327 90.2805 190.002 89.7828C196.79 88.5176 208.774 86.1611 212.796 84.5066C212.938 84.4479 213.093 84.4272 213.246 84.4464C213.399 84.4656 213.544 84.5241 213.667 84.6162C213.791 84.7083 213.888 84.8309 213.95 84.9719C214.012 85.1129 214.036 85.2675 214.021 85.4207L212.785 97.5781C212.639 99.0583 211.993 100.445 210.954 101.508C209.914 102.572 208.543 103.249 207.066 103.428L190.492 105.5C190.28 105.526 190.066 105.54 189.852 105.54ZM213.132 85.247C213.121 85.2443 213.109 85.2443 213.097 85.247C209.011 86.929 196.967 89.3001 190.152 90.5652C187.665 91.0267 185.422 92.3554 183.823 94.3148L182.631 95.7975C182.424 96.0518 182.305 96.3667 182.294 96.6944C182.282 97.0222 182.378 97.3446 182.567 97.6129L186.303 102.898C186.759 103.543 187.381 104.052 188.103 104.371C188.825 104.689 189.621 104.805 190.404 104.706L206.969 102.637C208.264 102.479 209.467 101.885 210.379 100.952C211.291 100.018 211.857 98.8018 211.984 97.5032L213.22 85.3457C213.222 85.3311 213.221 85.3161 213.215 85.3025C213.209 85.2889 213.199 85.2772 213.187 85.269C213.172 85.2541 213.153 85.2456 213.132 85.2452V85.247Z" fill="#222222"/>
<path d="M95.479 98.7426C95.2545 99.6404 95.3844 100.59 95.8415 101.395C96.2987 102.2 97.0481 102.797 97.9342 103.064L104.402 105.01C104.884 105.137 105.394 105.102 105.854 104.91C106.314 104.719 106.698 104.381 106.947 103.949L110.786 97.2709C111.092 96.739 111.264 96.1409 111.287 95.5279C111.311 94.9149 111.185 94.3054 110.922 93.7516L110.88 93.6639C110.542 92.9523 110.058 92.3199 109.46 91.808C108.861 91.2961 108.161 90.9162 107.406 90.693C104.475 89.8447 101.663 88.6304 99.0366 87.0787C98.9733 87.0397 98.9017 87.0161 98.8277 87.0099C98.7536 87.0038 98.6791 87.0151 98.6102 87.043C98.5413 87.071 98.4799 87.1148 98.4311 87.1708C98.3823 87.2269 98.3473 87.2937 98.3291 87.3657L95.479 98.7426Z" fill="white"/>
<path d="M104.98 105.487C104.75 105.488 104.522 105.458 104.3 105.399L97.819 103.451C96.8326 103.155 95.9982 102.49 95.4895 101.595C94.9807 100.7 94.8368 99.6429 95.0877 98.6442L97.9324 87.2674C97.966 87.134 98.0306 87.0103 98.1208 86.9065C98.2111 86.8026 98.3245 86.7214 98.4519 86.6695C98.5793 86.6175 98.7171 86.5962 98.8543 86.6074C98.9914 86.6185 99.124 86.6617 99.2414 86.7336C101.837 88.271 104.616 89.4737 107.514 90.3131C108.325 90.553 109.076 90.9607 109.719 91.5096C110.362 92.0586 110.883 92.7366 111.247 93.4997L111.287 93.5838C111.579 94.197 111.717 94.8717 111.691 95.5501C111.665 96.2286 111.475 96.8906 111.137 97.4796L107.298 104.158C107.062 104.563 106.724 104.9 106.317 105.133C105.91 105.366 105.449 105.488 104.98 105.487ZM98.7843 87.4118C98.7747 87.4097 98.7647 87.4097 98.7551 87.4118C98.7452 87.4158 98.7365 87.4219 98.7295 87.4299C98.7225 87.4378 98.7175 87.4473 98.7148 87.4575L95.8702 98.8398C95.6689 99.6375 95.7834 100.482 96.1898 101.197C96.5961 101.913 97.263 102.443 98.0512 102.679L104.519 104.624C104.914 104.726 105.331 104.696 105.706 104.538C106.082 104.38 106.395 104.103 106.598 103.75L110.437 97.072C110.711 96.5967 110.865 96.062 110.886 95.5139C110.908 94.9658 110.796 94.4208 110.56 93.9257L110.518 93.8416C110.204 93.1805 109.754 92.593 109.198 92.1177C108.641 91.6423 107.991 91.2897 107.289 91.0828C104.325 90.2258 101.481 88.9972 98.8245 87.4264C98.8129 87.4176 98.7989 87.4125 98.7843 87.4118Z" fill="#222222"/>
<path d="M231.136 43.3028C228.981 50.5772 222.686 72.3417 219.56 88.7351C219.522 88.9372 219.537 89.1456 219.602 89.3405C219.668 89.5354 219.782 89.7103 219.935 89.8483C220.087 89.9864 220.272 90.0831 220.473 90.1292C220.673 90.1753 220.882 90.1693 221.079 90.1117C226.015 88.6894 239.034 83.3474 238.666 66.5921C238.367 52.8807 238.231 45.844 238.176 42.6666C238.171 42.3785 238.108 42.0944 237.99 41.8314C237.872 41.5684 237.702 41.332 237.491 41.1364C237.279 40.9409 237.03 40.7901 236.759 40.6934C236.487 40.5966 236.199 40.5557 235.911 40.5733L234.465 40.6611C233.706 40.7059 232.979 40.9836 232.383 41.4563C231.788 41.929 231.352 42.5737 231.136 43.3028Z" fill="white"/>
<path d="M220.737 90.5635C220.502 90.5628 220.27 90.5105 220.058 90.4104C219.845 90.3102 219.657 90.1646 219.506 89.9838C219.356 89.803 219.247 89.5915 219.188 89.3641C219.128 89.1367 219.119 88.899 219.161 88.6677C222.33 72.0732 228.833 49.6688 230.75 43.197C230.992 42.3905 231.475 41.6775 232.135 41.1544C232.795 40.6313 233.599 40.3233 234.44 40.2719L235.886 40.1842C236.226 40.1639 236.567 40.2125 236.888 40.3271C237.21 40.4416 237.505 40.6197 237.755 40.8508C238.006 41.0818 238.208 41.3611 238.348 41.6719C238.489 41.9826 238.565 42.3186 238.573 42.6595C238.626 45.6303 238.756 52.6908 239.065 66.585C239.431 83.4044 226.684 88.9145 221.185 90.4996C221.04 90.5411 220.889 90.5626 220.737 90.5635ZM236.041 40.9739H235.933L234.487 41.0617C233.812 41.104 233.165 41.3524 232.635 41.7735C232.106 42.1945 231.718 42.7679 231.524 43.4164C229.608 49.879 223.114 72.2506 219.955 88.8085C219.928 88.941 219.936 89.0782 219.979 89.2065C220.022 89.3348 220.097 89.4496 220.198 89.5398C220.299 89.6338 220.423 89.7001 220.558 89.7321C220.692 89.7641 220.833 89.7608 220.966 89.7226C226.284 88.1887 238.617 82.8669 238.261 66.5997C237.957 52.7054 237.824 45.6431 237.771 42.6723C237.762 42.219 237.576 41.7872 237.253 41.4693C236.929 41.1515 236.494 40.973 236.041 40.9721V40.9739Z" fill="#222222"/>
<path d="M278.29 126.979H260.948C257.546 126.979 254.787 134.933 254.787 145.067C254.787 155.155 257.52 163.21 260.901 163.287L278.252 163.199C278.263 163.19 278.276 163.183 278.29 163.179C281.694 163.179 284.453 155.214 284.453 145.08C284.453 134.946 281.694 126.979 278.29 126.979Z" fill="white"/>
<path d="M260.895 163.689C257.239 163.607 254.387 155.428 254.387 145.067C254.387 134.707 257.272 126.577 260.952 126.577H278.294C281.976 126.577 284.859 134.703 284.859 145.078C284.859 155.362 282.027 163.435 278.393 163.58C278.349 163.595 278.304 163.603 278.258 163.603L260.895 163.689ZM260.978 127.383C258.168 127.383 255.19 134.49 255.19 145.067C255.19 155.645 258.148 162.821 260.91 162.883L278.155 162.797C278.199 162.783 278.245 162.775 278.291 162.775C281.071 162.775 284.049 155.664 284.049 145.078C284.049 134.493 281.071 127.383 278.291 127.383H260.978Z" fill="#222222"/>
<path d="M278.29 157.309C280.61 157.309 282.49 151.711 282.49 144.806C282.49 137.901 280.61 132.303 278.29 132.303C275.971 132.303 274.091 137.901 274.091 144.806C274.091 151.711 275.971 157.309 278.29 157.309Z" fill="white"/>
<path d="M278.291 157.713C275.409 157.713 273.689 151.152 273.689 144.806C273.689 138.46 275.409 131.901 278.291 131.901C281.172 131.901 282.892 138.462 282.892 144.806C282.892 151.15 281.17 157.713 278.291 157.713ZM278.291 132.707C276.495 132.707 274.495 137.676 274.495 144.806C274.495 151.936 276.495 156.907 278.291 156.907C280.086 156.907 282.084 151.938 282.084 144.806C282.084 137.674 280.086 132.707 278.291 132.707Z" fill="#222222"/>
<path d="M238.284 141.431L113.39 139.84C102.821 139.707 94.2249 130.999 94.2249 120.431V106.123C94.225 103.401 94.5596 100.689 95.2212 98.0481L97.6509 88.3587C98.2726 85.8924 99.441 83.5974 101.07 81.6438L105.187 76.7186L121.869 39.8989C122.851 37.7468 124.423 35.9167 126.402 34.6207C128.381 33.3246 130.687 32.6154 133.052 32.5752C162.669 30.992 192.742 30.4618 222.416 31.0011L239.601 31.3119C240.048 31.3125 240.48 31.4808 240.81 31.7837C241.14 32.0865 241.344 32.502 241.383 32.9481L245.745 79.0989C246.186 83.7462 246.409 88.675 246.409 93.7482V125.579C246.421 129.7 245.605 133.781 244.01 137.581L243.997 137.639C243.992 137.662 243.985 137.685 243.975 137.707C243.5 138.82 242.705 139.767 241.693 140.429C240.68 141.092 239.494 141.44 238.284 141.431ZM199.876 31.5971C177.598 31.5971 155.219 32.1931 133.079 33.3759C130.865 33.4107 128.705 34.072 126.851 35.2834C124.997 36.4947 123.524 38.2066 122.602 40.2207L105.898 77.097C105.883 77.1298 105.864 77.1605 105.841 77.1885L101.688 82.1556C100.137 84.0176 99.0247 86.2045 98.4333 88.5543L96.0037 98.2437C95.3581 100.82 95.0314 103.466 95.0311 106.121V120.429C95.0311 130.559 103.271 138.904 113.401 139.032L238.288 140.623C239.334 140.633 240.359 140.335 241.237 139.766C242.114 139.198 242.805 138.384 243.224 137.425L243.237 137.367C243.242 137.344 243.25 137.321 243.259 137.299C244.821 133.589 245.62 129.603 245.608 125.577V93.7427C245.608 88.6951 245.385 83.7919 244.948 79.1684L240.584 33.0194C240.565 32.7708 240.452 32.5386 240.269 32.3691C240.086 32.1997 239.846 32.1055 239.597 32.1053L222.412 31.7927C214.92 31.6623 207.408 31.5971 199.876 31.5971Z" fill="#222222"/>
<path d="M247.321 131.542C247.849 129.517 248.198 127.45 248.363 125.363L248.728 120.718C248.754 120.396 248.713 120.072 248.607 119.767C248.501 119.462 248.334 119.182 248.114 118.944C247.895 118.707 247.63 118.518 247.334 118.388C247.038 118.258 246.719 118.191 246.396 118.191L226.664 118.052C228.337 121.502 229.836 123.136 232.575 132.581L245.893 132.643C246.22 132.645 246.538 132.538 246.797 132.339C247.055 132.139 247.24 131.859 247.321 131.542Z" fill="white"/>
<path d="M245.897 133.047L232.579 132.985C232.491 132.984 232.407 132.955 232.337 132.902C232.268 132.85 232.217 132.776 232.193 132.692C230.05 125.301 228.69 122.756 227.374 120.293C227.026 119.643 226.668 118.97 226.308 118.228C226.278 118.166 226.264 118.097 226.267 118.029C226.271 117.96 226.292 117.894 226.329 117.836C226.365 117.777 226.416 117.73 226.477 117.697C226.537 117.664 226.605 117.647 226.673 117.648L246.405 117.787C246.784 117.787 247.158 117.866 247.505 118.018C247.852 118.17 248.163 118.392 248.42 118.671C248.676 118.949 248.872 119.278 248.996 119.636C249.119 119.993 249.167 120.373 249.136 120.75L248.771 125.394C248.602 127.504 248.248 129.596 247.714 131.645C247.609 132.047 247.374 132.402 247.045 132.656C246.716 132.91 246.312 133.047 245.897 133.047ZM232.877 132.178L245.895 132.241C246.132 132.24 246.362 132.162 246.549 132.017C246.736 131.872 246.87 131.669 246.93 131.44C247.452 129.437 247.796 127.393 247.959 125.33L248.325 120.686C248.346 120.42 248.311 120.152 248.224 119.899C248.136 119.647 247.998 119.415 247.816 119.218C247.635 119.022 247.415 118.865 247.17 118.757C246.926 118.65 246.661 118.594 246.394 118.593L227.317 118.467C227.569 118.964 227.82 119.432 228.079 119.92C229.397 122.379 230.759 124.928 232.877 132.178Z" fill="#222222"/>
<path d="M234.202 143.954C234.202 132.012 229.277 122.33 223.202 122.33C223.121 122.33 223.043 122.33 222.964 122.343H211.699C205.624 122.343 200.698 132.018 200.698 143.961C200.698 155.844 205.578 165.492 211.613 165.581L223.202 165.594C229.277 165.594 234.202 155.905 234.202 143.969V143.954Z" fill="white"/>
<path d="M223.202 166L211.607 165.986C205.369 165.892 200.294 156.013 200.294 143.963C200.294 131.813 205.41 121.941 211.699 121.941H223.022C223.083 121.941 223.141 121.941 223.205 121.941C229.492 121.941 234.608 131.822 234.608 143.967V143.978C234.604 156.115 229.489 166 223.202 166ZM211.699 122.745C205.848 122.745 201.095 132.263 201.095 143.961C201.095 155.574 205.814 165.092 211.613 165.168L223.196 165.183C229.046 165.183 233.8 155.662 233.8 143.96V143.945C233.8 132.245 229.046 122.725 223.196 122.725C223.154 122.725 223.112 122.725 223.072 122.725H222.975L211.699 122.745Z" fill="#222222"/>
<path d="M233.471 152.124C233.445 152.126 233.419 152.126 233.394 152.124C233.342 152.114 233.292 152.094 233.248 152.064C233.204 152.035 233.166 151.997 233.136 151.953C233.107 151.909 233.086 151.86 233.076 151.808C233.065 151.756 233.065 151.702 233.076 151.65C233.566 149.117 233.811 146.542 233.807 143.961C233.807 132.261 229.054 122.741 223.204 122.741C223.057 122.741 222.911 122.741 222.767 122.76C222.663 122.764 222.561 122.727 222.483 122.659C222.405 122.59 222.357 122.493 222.348 122.39C222.34 122.286 222.371 122.183 222.437 122.102C222.502 122.021 222.596 121.969 222.699 121.955C222.867 121.941 223.035 121.935 223.204 121.935C229.491 121.935 234.606 131.816 234.606 143.961C234.614 146.593 234.369 149.219 233.875 151.804C233.855 151.896 233.804 151.978 233.73 152.037C233.657 152.095 233.565 152.126 233.471 152.124Z" fill="#222222"/>
<path d="M223.202 158.687C227.341 158.687 230.697 152.091 230.697 143.954C230.697 135.817 227.341 129.221 223.202 129.221C219.062 129.221 215.706 135.817 215.706 143.954C215.706 152.091 219.062 158.687 223.202 158.687Z" fill="white"/>
<path d="M223.202 159.091C218.847 159.091 215.302 152.301 215.302 143.954C215.302 135.606 218.847 128.816 223.202 128.816C227.556 128.816 231.099 135.608 231.099 143.954C231.099 152.299 227.556 159.091 223.202 159.091ZM223.202 129.624C219.291 129.624 216.11 136.052 216.11 143.954C216.11 151.855 219.291 158.285 223.202 158.285C227.112 158.285 230.293 151.857 230.293 143.954C230.293 136.051 227.112 129.619 223.202 129.619V129.624Z" fill="#222222"/>
<path d="M202.086 76.8374H113.432C113.003 76.8373 112.58 76.7299 112.203 76.5249C111.826 76.3199 111.507 76.0238 111.273 75.6637C111.04 75.3035 110.9 74.8907 110.867 74.4628C110.834 74.0349 110.909 73.6056 111.084 73.2139L124.311 43.6941C125.384 41.301 127.35 39.6173 130.321 39.5624L135.363 39.2845C163.968 37.7147 192.603 37.3881 221.269 38.3046C221.585 38.3147 221.894 38.3977 222.172 38.547C222.45 38.6963 222.69 38.9079 222.873 39.1653C223.056 39.4227 223.177 39.7188 223.226 40.0307C223.275 40.3425 223.252 40.6615 223.158 40.9628L214.854 67.4606C214.002 70.1793 212.303 72.555 210.007 74.2415C207.71 75.9281 204.935 76.8375 202.086 76.8374Z" fill="white"/>
<path d="M202.086 77.2415H113.432C112.935 77.2417 112.447 77.1175 112.01 76.8804C111.574 76.6433 111.204 76.3007 110.934 75.8839C110.664 75.4671 110.503 74.9894 110.465 74.4943C110.427 73.9992 110.514 73.5025 110.717 73.0495L123.946 43.5315C125.183 40.7673 127.447 39.2152 130.315 39.1622L135.343 38.8843C163.844 37.312 192.761 36.9811 221.291 37.9007C221.669 37.9131 222.039 38.0126 222.372 38.1915C222.705 38.3703 222.992 38.6237 223.211 38.9318C223.43 39.2399 223.574 39.5944 223.634 39.9676C223.693 40.3409 223.665 40.7228 223.553 41.0836L215.238 67.5795C214.369 70.3855 212.622 72.8385 210.254 74.5777C207.887 76.3169 205.024 77.2506 202.086 77.2415ZM189.656 38.2097C171.532 38.2097 153.372 38.7069 135.377 39.6996L130.344 39.9684C127.076 40.0287 125.463 42.1202 124.677 43.8624L111.452 73.3785C111.304 73.7089 111.241 74.0711 111.269 74.432C111.297 74.7929 111.414 75.1411 111.611 75.4449C111.808 75.7488 112.078 75.9985 112.396 76.1715C112.714 76.3445 113.07 76.4351 113.432 76.4353H202.086C204.852 76.4437 207.547 75.5647 209.776 73.9276C212.006 72.2905 213.651 69.9815 214.47 67.34L222.774 40.8441C222.85 40.6019 222.869 40.3454 222.829 40.0947C222.79 39.844 222.693 39.6059 222.546 39.3989C222.399 39.192 222.206 39.0218 221.982 38.9018C221.759 38.7817 221.51 38.715 221.257 38.7069C210.763 38.3693 200.229 38.2036 189.656 38.2097Z" fill="#222222"/>
<path d="M215.925 45.0654C215.925 45.0654 175.828 44.676 154.27 45.7053L152.575 45.7309C150.595 45.7621 148.707 46.5709 147.318 47.9825C145.929 49.3942 145.151 51.2955 145.153 53.2758V58.3052C145.152 61.5945 146.434 64.7545 148.727 67.1134L148.798 67.1883C149.753 68.1718 150.896 68.9535 152.159 69.4874C153.421 70.0212 154.778 70.2963 156.149 70.2962H158.252L161.16 59.6927C161.367 58.9387 161.816 58.2735 162.438 57.7996C163.06 57.3256 163.821 57.069 164.603 57.0693H174.184C174.653 57.0691 175.117 57.1612 175.55 57.3404C175.984 57.5196 176.377 57.7825 176.709 58.1139C177.04 58.4453 177.303 58.8388 177.483 59.2718C177.662 59.7049 177.755 60.1691 177.755 60.6379V70.2889H197.622L200.53 59.6854C200.737 58.9314 201.186 58.2662 201.808 57.7923C202.43 57.3183 203.191 57.0617 203.973 57.062H213.551C213.58 57.0615 213.61 57.0658 213.638 57.0748L217.35 46.8022C217.655 45.9612 216.946 45.0947 215.925 45.0654Z" fill="white"/>
<path d="M197.622 70.7003H177.755C177.648 70.7003 177.545 70.6577 177.469 70.5819C177.393 70.5061 177.351 70.4034 177.351 70.2962V60.6452C177.35 59.8057 177.016 59.0009 176.422 58.4073C175.829 57.8137 175.024 57.4798 174.184 57.4788H164.606C163.913 57.4805 163.239 57.709 162.688 58.1296C162.137 58.5502 161.738 59.1396 161.553 59.8079L158.645 70.4114C158.621 70.4966 158.57 70.5716 158.5 70.6251C158.43 70.6786 158.344 70.7076 158.255 70.7076H156.153C154.729 70.7042 153.319 70.4168 152.007 69.8621C150.696 69.3074 149.507 68.4966 148.513 67.4772L148.44 67.4022C146.069 64.9712 144.745 61.7081 144.752 58.3125V53.2758C144.763 51.1952 145.586 49.2011 147.046 47.7186C148.506 46.2361 150.488 45.3825 152.568 45.3396L154.262 45.3122C175.574 44.2903 215.529 44.665 215.929 44.6687C216.243 44.6715 216.552 44.7484 216.83 44.8933C217.108 45.0382 217.348 45.2469 217.531 45.5023C217.675 45.7114 217.767 45.9521 217.798 46.204C217.83 46.456 217.801 46.7119 217.713 46.9503L214.02 57.2229C213.986 57.3201 213.916 57.4005 213.824 57.4471C213.732 57.4938 213.626 57.5032 213.527 57.4733H203.975C203.281 57.4744 202.607 57.7027 202.056 58.1234C201.504 58.544 201.106 59.1338 200.921 59.8024L198.013 70.4059C197.988 70.4907 197.937 70.5653 197.866 70.6184C197.796 70.6714 197.71 70.7002 197.622 70.7003ZM178.155 69.894H197.314L200.143 59.5995C200.374 58.7588 200.875 58.0174 201.569 57.4889C202.262 56.9605 203.11 56.6744 203.982 56.6744H213.362L216.969 46.6724C217.013 46.5534 217.026 46.4258 217.01 46.3003C216.993 46.1748 216.946 46.0553 216.872 45.9521C216.762 45.803 216.618 45.6818 216.452 45.5983C216.287 45.5149 216.104 45.4713 215.918 45.4713C215.326 45.4713 175.537 45.0965 154.288 46.1148L152.581 46.1422C150.712 46.1808 148.932 46.9477 147.62 48.2796C146.308 49.6114 145.569 51.4028 145.558 53.2721V58.3015C145.553 61.4875 146.795 64.549 149.019 66.83L149.092 66.9049C150.012 67.8469 151.11 68.5962 152.322 69.1088C153.534 69.6214 154.837 69.8871 156.153 69.8904H157.95L160.776 59.5995C161.008 58.7588 161.509 58.0174 162.202 57.4889C162.896 56.9605 163.744 56.6744 164.615 56.6744H174.184C175.238 56.6754 176.247 57.0942 176.992 57.839C177.737 58.5838 178.156 59.5937 178.157 60.647L178.155 69.894Z" fill="#222222"/>
<path d="M206.051 147.338H104.327C103.092 147.338 101.87 147.088 100.734 146.603C99.5984 146.117 98.5725 145.407 97.7184 144.515L96.9159 143.678C94.8654 141.537 93.4956 138.836 92.9798 135.917L90.9011 124.166C90.7946 123.561 90.8099 122.941 90.9461 122.342C91.0824 121.744 91.3368 121.178 91.6946 120.679L94.5868 116.657L108.428 118.582C110.17 118.824 111.819 119.518 113.211 120.593L113.872 121.107C114.837 121.853 116.022 122.258 117.242 122.259H172.122C173.402 122.259 174.642 121.813 175.629 120.997L175.939 120.741C177.579 119.386 179.606 118.585 181.729 118.453L222.904 115.908L215.94 136.899C215.012 139.698 213.593 142.309 211.75 144.61C211.75 144.61 209.572 147.338 206.051 147.338Z" fill="white"/>
<path d="M146.928 147.742H104.331C103.041 147.739 101.765 147.477 100.578 146.97C99.3919 146.463 98.3198 145.723 97.4259 144.793L96.6251 143.956C94.5168 141.758 93.1097 138.984 92.583 135.985L90.5044 124.235C90.3903 123.577 90.4079 122.903 90.556 122.253C90.7041 121.602 90.9799 120.987 91.3673 120.443L94.2576 116.421C94.3006 116.361 94.359 116.314 94.4267 116.285C94.4943 116.256 94.5686 116.247 94.6415 116.257L108.485 118.184C110.296 118.436 112.011 119.157 113.457 120.277L114.119 120.789C115.014 121.48 116.111 121.855 117.242 121.856H172.122C173.307 121.855 174.456 121.442 175.371 120.688L175.681 120.432C177.389 119.019 179.502 118.186 181.714 118.056L218.827 115.756C218.933 115.751 219.037 115.788 219.117 115.859C219.197 115.929 219.246 116.028 219.255 116.134C219.261 116.241 219.225 116.345 219.154 116.425C219.084 116.505 218.984 116.554 218.878 116.56L181.755 118.851C179.716 118.973 177.768 119.742 176.195 121.045L175.884 121.301C174.826 122.176 173.495 122.655 172.122 122.655H117.242C115.933 122.653 114.661 122.217 113.625 121.418L112.964 120.906C111.628 119.872 110.046 119.205 108.373 118.972L94.7713 117.079L92.0291 120.919C91.7022 121.373 91.4692 121.889 91.3436 122.435C91.218 122.98 91.2025 123.546 91.2978 124.098L93.3746 135.851C93.8767 138.694 95.2131 141.323 97.2138 143.403L98.0091 144.244C98.8272 145.095 99.8082 145.772 100.894 146.236C101.979 146.699 103.147 146.939 104.327 146.941H146.924C146.977 146.941 147.03 146.951 147.079 146.972C147.128 146.992 147.172 147.022 147.21 147.059C147.247 147.097 147.277 147.141 147.297 147.19C147.318 147.239 147.328 147.292 147.328 147.345C147.328 147.398 147.318 147.451 147.297 147.5C147.277 147.549 147.247 147.593 147.21 147.631C147.172 147.668 147.128 147.698 147.079 147.718C147.03 147.739 146.977 147.749 146.924 147.749L146.928 147.742Z" fill="#222222"/>
<path d="M206.051 147.742H179.629C179.521 147.742 179.419 147.7 179.343 147.624C179.267 147.548 179.225 147.445 179.225 147.338C179.225 147.231 179.267 147.128 179.343 147.053C179.419 146.977 179.521 146.934 179.629 146.934H206.051C207.067 146.931 208.068 146.694 208.977 146.239C209.074 146.192 209.185 146.186 209.287 146.221C209.389 146.256 209.472 146.331 209.52 146.428C209.567 146.525 209.573 146.636 209.538 146.738C209.503 146.84 209.428 146.924 209.331 146.971C208.312 147.476 207.189 147.74 206.051 147.742Z" fill="#222222"/>
<path d="M173.342 147.742H146.919C146.812 147.742 146.709 147.7 146.633 147.624C146.558 147.548 146.515 147.445 146.515 147.338C146.515 147.231 146.558 147.128 146.633 147.052C146.709 146.977 146.812 146.934 146.919 146.934H173.342V147.742Z" fill="#222222"/>
<path d="M182.604 147.742H156.181C156.074 147.742 155.971 147.7 155.895 147.624C155.819 147.548 155.777 147.445 155.777 147.338C155.777 147.231 155.819 147.128 155.895 147.052C155.971 146.977 156.074 146.934 156.181 146.934H182.604V147.742Z" fill="#222222"/>
<path d="M145.531 140.14H129.416C128.247 140.139 127.095 139.863 126.053 139.335C125.01 138.807 124.106 138.041 123.414 137.1L121.291 134.206C121.105 133.952 120.992 133.651 120.966 133.337C120.94 133.023 121.002 132.708 121.144 132.427C121.287 132.146 121.504 131.91 121.773 131.745C122.042 131.58 122.351 131.493 122.666 131.493H156.327C156.429 131.5 156.525 131.546 156.595 131.62C156.665 131.695 156.703 131.794 156.703 131.896C156.703 131.999 156.665 132.097 156.595 132.172C156.525 132.247 156.429 132.293 156.327 132.299H122.666C122.499 132.298 122.335 132.343 122.193 132.429C122.05 132.515 121.934 132.64 121.859 132.788C121.783 132.937 121.75 133.103 121.763 133.269C121.776 133.436 121.836 133.595 121.935 133.729L124.059 136.623C124.677 137.462 125.483 138.145 126.412 138.616C127.341 139.087 128.368 139.333 129.41 139.334H145.526C145.628 139.341 145.724 139.387 145.794 139.461C145.864 139.536 145.903 139.635 145.903 139.737C145.903 139.84 145.864 139.938 145.794 140.013C145.724 140.088 145.628 140.134 145.526 140.14H145.531Z" fill="#222222"/>
<path d="M144.863 140.14H160.979C162.147 140.139 163.299 139.863 164.342 139.335C165.384 138.807 166.288 138.041 166.981 137.1L169.103 134.206C169.29 133.952 169.402 133.651 169.428 133.337C169.454 133.023 169.393 132.708 169.25 132.427C169.108 132.146 168.89 131.91 168.621 131.745C168.353 131.58 168.044 131.493 167.728 131.493H134.068C133.966 131.5 133.87 131.546 133.8 131.62C133.73 131.695 133.691 131.794 133.691 131.896C133.691 131.999 133.73 132.097 133.8 132.172C133.87 132.247 133.966 132.293 134.068 132.299H167.728C167.895 132.298 168.059 132.343 168.202 132.429C168.344 132.515 168.46 132.64 168.536 132.788C168.612 132.937 168.645 133.103 168.631 133.269C168.618 133.436 168.558 133.595 168.46 133.729L166.335 136.623C165.718 137.462 164.912 138.145 163.982 138.616C163.053 139.087 162.026 139.333 160.984 139.334H144.869C144.767 139.341 144.671 139.387 144.601 139.461C144.531 139.536 144.492 139.635 144.492 139.737C144.492 139.84 144.531 139.938 144.601 140.013C144.671 140.088 144.767 140.134 144.869 140.14H144.863Z" fill="#222222"/>
<path d="M286.568 67.0275C297.55 67.0275 306.452 58.1254 306.452 47.1441C306.452 36.1628 297.55 27.2607 286.568 27.2607C275.587 27.2607 266.685 36.1628 266.685 47.1441C266.685 58.1254 275.587 67.0275 286.568 67.0275Z" fill="white"/>
<path d="M286.569 67.43C282.555 67.43 278.632 66.2399 275.294 64.0101C271.957 61.7802 269.356 58.6109 267.82 54.9029C266.284 51.1948 265.883 47.1146 266.666 43.1782C267.449 39.2418 269.381 35.6259 272.219 32.7879C275.057 29.9499 278.673 28.0172 282.61 27.2342C286.546 26.4512 290.626 26.853 294.334 28.389C298.042 29.9249 301.212 32.5259 303.441 35.863C305.671 39.2002 306.861 43.1236 306.861 47.1371C306.857 52.5178 304.718 57.6769 300.913 61.4816C297.108 65.2863 291.949 67.4257 286.569 67.43ZM286.569 27.6651C282.716 27.6651 278.95 28.8075 275.746 30.948C272.543 33.0884 270.046 36.1306 268.572 39.69C267.098 43.2494 266.712 47.1661 267.463 50.9447C268.215 54.7233 270.07 58.1942 272.795 60.9184C275.519 63.6427 278.99 65.4979 282.768 66.2495C286.547 67.0011 290.464 66.6154 294.023 65.141C297.582 63.6667 300.625 61.17 302.765 57.9666C304.905 54.7632 306.048 50.9971 306.048 47.1444C306.042 41.98 303.988 37.0287 300.336 33.3769C296.684 29.7251 291.733 27.6709 286.569 27.6651Z" fill="#222222"/>
<path d="M286.568 34.3887C284.27 34.3858 282.065 35.2957 280.438 36.9184C278.811 38.541 277.895 40.7435 277.892 43.0415C277.892 44.2353 278.44 45.9063 279.248 47.7399C281.298 52.3634 285.071 58.0253 286.225 59.7164C286.263 59.7722 286.314 59.8178 286.374 59.8494C286.434 59.8809 286.501 59.8974 286.568 59.8974C286.636 59.8974 286.703 59.8809 286.763 59.8494C286.823 59.8178 286.874 59.7722 286.912 59.7164C288.523 57.3562 295.247 47.2482 295.247 43.0415C295.245 41.9035 295.019 40.777 294.582 39.7263C294.145 38.6756 293.506 37.7212 292.7 36.9177C291.894 36.1142 290.938 35.4773 289.886 35.0434C288.834 34.6095 287.706 34.387 286.568 34.3887Z" fill="#222222"/>
<path d="M289.254 45.707C290.737 44.2241 290.737 41.8199 289.254 40.337C287.771 38.8541 285.367 38.8541 283.884 40.337C282.401 41.8199 282.401 44.2241 283.884 45.707C285.367 47.1898 287.771 47.1898 289.254 45.707Z" fill="white"/>
<path d="M227.865 156.273C227.865 157.582 226.006 159.825 223.725 159.488C221.101 159.101 220.847 155.284 220.509 154.735C220.392 154.549 220.239 154.388 220.059 154.262C219.879 154.136 219.675 154.048 219.459 154.004L215.525 153.079C215.525 153.079 216.344 150.885 217.554 150.571C218.615 150.305 221.114 151.218 221.353 150.993C224.045 148.485 227.876 152.713 227.865 156.273Z" fill="white"/>
<path d="M22.44 191.824V196.36H29.88V199H19.68V182.2H29.76V184.84H22.44V189.208H29.16V191.824H22.44ZM37.6682 199.312C35.8602 199.312 34.3482 198.704 33.1322 197.488C31.9322 196.256 31.3322 194.76 31.3322 193C31.3322 191.208 31.9322 189.712 33.1322 188.512C34.3482 187.296 35.8602 186.688 37.6682 186.688C38.8362 186.688 39.9002 186.968 40.8602 187.528C41.8202 188.088 42.5402 188.84 43.0202 189.784L40.7882 191.08C40.5162 190.504 40.1002 190.056 39.5402 189.736C38.9962 189.4 38.3642 189.232 37.6442 189.232C36.5882 189.232 35.7002 189.592 34.9802 190.312C34.2762 191.048 33.9242 191.944 33.9242 193C33.9242 194.056 34.2762 194.952 34.9802 195.688C35.7002 196.408 36.5882 196.768 37.6442 196.768C38.3482 196.768 38.9802 196.608 39.5402 196.288C40.1162 195.952 40.5482 195.496 40.8362 194.92L43.0682 196.192C42.5562 197.152 41.8122 197.912 40.8362 198.472C39.8762 199.032 38.8202 199.312 37.6682 199.312ZM45.7136 187H54.9056V199H52.3136V189.496H48.3056V193.96C48.3056 195.832 47.8976 197.176 47.0816 197.992C46.2656 198.808 45.0736 199.144 43.5056 199V196.576C44.2416 196.704 44.7936 196.552 45.1616 196.12C45.5296 195.672 45.7136 194.912 45.7136 193.84V187ZM60.4701 194.608L66.6141 187H68.6061V199H66.0621V191.368L59.9181 199H57.9261V187H60.4701V194.608ZM82.6296 195.736L85.7016 187H88.4616L83.8536 199.384C83.2936 200.904 82.5096 202.04 81.5016 202.792C80.4936 203.544 79.3256 203.88 77.9976 203.8V201.376C79.5336 201.472 80.5976 200.704 81.1896 199.072L81.2616 198.904L76.2216 187H78.9816L82.6296 195.736ZM104.386 192.832C105.57 193.392 106.162 194.312 106.162 195.592C106.162 196.616 105.81 197.44 105.106 198.064C104.418 198.688 103.458 199 102.226 199H96.0823V187H101.746C102.962 187 103.914 187.304 104.602 187.912C105.29 188.52 105.634 189.32 105.634 190.312C105.634 191.448 105.218 192.288 104.386 192.832ZM101.554 189.208H98.5543V191.872H101.554C102.61 191.872 103.138 191.424 103.138 190.528C103.138 189.648 102.61 189.208 101.554 189.208ZM98.5543 196.744H101.986C103.074 196.744 103.618 196.272 103.618 195.328C103.618 194.912 103.474 194.592 103.186 194.368C102.898 194.128 102.498 194.008 101.986 194.008H98.5543V196.744ZM117.774 188.704V187H120.366V199H117.774V197.272C116.798 198.632 115.398 199.312 113.574 199.312C111.926 199.312 110.518 198.704 109.35 197.488C108.182 196.272 107.598 194.776 107.598 193C107.598 191.224 108.182 189.728 109.35 188.512C110.518 187.296 111.926 186.688 113.574 186.688C115.398 186.688 116.798 187.36 117.774 188.704ZM111.27 195.76C111.99 196.48 112.894 196.84 113.982 196.84C115.07 196.84 115.974 196.48 116.694 195.76C117.414 195.024 117.774 194.104 117.774 193C117.774 191.896 117.414 190.984 116.694 190.264C115.974 189.528 115.07 189.16 113.982 189.16C112.894 189.16 111.99 189.528 111.27 190.264C110.55 190.984 110.19 191.896 110.19 193C110.19 194.088 110.55 195.008 111.27 195.76ZM129.051 199.312C127.243 199.312 125.731 198.704 124.515 197.488C123.315 196.256 122.715 194.76 122.715 193C122.715 191.208 123.315 189.712 124.515 188.512C125.731 187.296 127.243 186.688 129.051 186.688C130.219 186.688 131.283 186.968 132.243 187.528C133.203 188.088 133.923 188.84 134.403 189.784L132.171 191.08C131.899 190.504 131.483 190.056 130.923 189.736C130.379 189.4 129.747 189.232 129.027 189.232C127.971 189.232 127.083 189.592 126.363 190.312C125.659 191.048 125.307 191.944 125.307 193C125.307 194.056 125.659 194.952 126.363 195.688C127.083 196.408 127.971 196.768 129.027 196.768C129.731 196.768 130.363 196.608 130.923 196.288C131.499 195.952 131.931 195.496 132.219 194.92L134.451 196.192C133.939 197.152 133.195 197.912 132.219 198.472C131.259 199.032 130.203 199.312 129.051 199.312ZM152.547 197.488C151.331 198.704 149.835 199.312 148.059 199.312C146.283 199.312 144.787 198.704 143.571 197.488C142.339 196.256 141.723 194.76 141.723 193C141.723 191.24 142.339 189.744 143.571 188.512C144.787 187.296 146.283 186.688 148.059 186.688C149.835 186.688 151.331 187.296 152.547 188.512C153.779 189.744 154.395 191.24 154.395 193C154.395 194.76 153.779 196.256 152.547 197.488ZM144.315 193C144.315 194.088 144.675 194.992 145.395 195.712C146.115 196.432 147.003 196.792 148.059 196.792C149.115 196.792 150.003 196.432 150.723 195.712C151.443 194.992 151.803 194.088 151.803 193C151.803 191.912 151.443 191.008 150.723 190.288C150.003 189.568 149.115 189.208 148.059 189.208C147.003 189.208 146.115 189.568 145.395 190.288C144.675 191.008 144.315 191.912 144.315 193ZM162.403 199.312C160.595 199.312 159.083 198.704 157.867 197.488C156.667 196.256 156.067 194.76 156.067 193C156.067 191.208 156.667 189.712 157.867 188.512C159.083 187.296 160.595 186.688 162.403 186.688C163.571 186.688 164.635 186.968 165.595 187.528C166.555 188.088 167.275 188.84 167.755 189.784L165.523 191.08C165.251 190.504 164.835 190.056 164.275 189.736C163.731 189.4 163.099 189.232 162.379 189.232C161.323 189.232 160.435 189.592 159.715 190.312C159.011 191.048 158.659 191.944 158.659 193C158.659 194.056 159.011 194.952 159.715 195.688C160.435 196.408 161.323 196.768 162.379 196.768C163.083 196.768 163.715 196.608 164.275 196.288C164.851 195.952 165.283 195.496 165.571 194.92L167.803 196.192C167.291 197.152 166.547 197.912 165.571 198.472C164.611 199.032 163.555 199.312 162.403 199.312ZM168.287 187H178.727V189.496H174.815V199H172.223V189.496H168.287V187ZM189.516 188.704V187H192.108V199H189.516V197.272C188.54 198.632 187.14 199.312 185.316 199.312C183.668 199.312 182.26 198.704 181.092 197.488C179.924 196.272 179.34 194.776 179.34 193C179.34 191.224 179.924 189.728 181.092 188.512C182.26 187.296 183.668 186.688 185.316 186.688C187.14 186.688 188.54 187.36 189.516 188.704ZM183.012 195.76C183.732 196.48 184.636 196.84 185.724 196.84C186.812 196.84 187.716 196.48 188.436 195.76C189.156 195.024 189.516 194.104 189.516 193C189.516 191.896 189.156 190.984 188.436 190.264C187.716 189.528 186.812 189.16 185.724 189.16C184.636 189.16 183.732 189.528 183.012 190.264C182.292 190.984 181.932 191.896 181.932 193C181.932 194.088 182.292 195.008 183.012 195.76ZM196.065 187H205.257V199H202.665V189.496H198.657V193.96C198.657 195.832 198.249 197.176 197.433 197.992C196.617 198.808 195.425 199.144 193.857 199V196.576C194.593 196.704 195.145 196.552 195.513 196.12C195.881 195.672 196.065 194.912 196.065 193.84V187ZM210.822 194.608L216.966 187H218.958V199H216.414V191.368L210.27 199H208.278V187H210.822V194.608ZM227.629 199.312C225.821 199.312 224.309 198.704 223.093 197.488C221.893 196.256 221.293 194.76 221.293 193C221.293 191.208 221.893 189.712 223.093 188.512C224.309 187.296 225.821 186.688 227.629 186.688C228.797 186.688 229.861 186.968 230.821 187.528C231.781 188.088 232.501 188.84 232.981 189.784L230.749 191.08C230.477 190.504 230.061 190.056 229.501 189.736C228.957 189.4 228.325 189.232 227.605 189.232C226.549 189.232 225.661 189.592 224.941 190.312C224.237 191.048 223.885 191.944 223.885 193C223.885 194.056 224.237 194.952 224.941 195.688C225.661 196.408 226.549 196.768 227.605 196.768C228.309 196.768 228.941 196.608 229.501 196.288C230.077 195.952 230.509 195.496 230.797 194.92L233.029 196.192C232.517 197.152 231.773 197.912 230.797 198.472C229.837 199.032 228.781 199.312 227.629 199.312ZM237.565 191.08H240.205C241.501 191.08 242.549 191.448 243.349 192.184C244.165 192.904 244.573 193.856 244.573 195.04C244.573 196.208 244.165 197.16 243.349 197.896C242.549 198.632 241.501 199 240.205 199H234.973V187H237.565V191.08ZM237.565 196.672H240.229C240.741 196.672 241.165 196.52 241.501 196.216C241.853 195.912 242.029 195.52 242.029 195.04C242.029 194.56 241.861 194.168 241.525 193.864C241.189 193.56 240.757 193.408 240.229 193.408H237.565V196.672ZM27.816 221.832C29 222.392 29.592 223.312 29.592 224.592C29.592 225.616 29.24 226.44 28.536 227.064C27.848 227.688 26.888 228 25.656 228H19.512V216H25.176C26.392 216 27.344 216.304 28.032 216.912C28.72 217.52 29.064 218.32 29.064 219.312C29.064 220.448 28.648 221.288 27.816 221.832ZM24.984 218.208H21.984V220.872H24.984C26.04 220.872 26.568 220.424 26.568 219.528C26.568 218.648 26.04 218.208 24.984 218.208ZM21.984 225.744H25.416C26.504 225.744 27.048 225.272 27.048 224.328C27.048 223.912 26.904 223.592 26.616 223.368C26.328 223.128 25.928 223.008 25.416 223.008H21.984V225.744ZM41.8515 226.488C40.6355 227.704 39.1395 228.312 37.3635 228.312C35.5875 228.312 34.0915 227.704 32.8755 226.488C31.6435 225.256 31.0275 223.76 31.0275 222C31.0275 220.24 31.6435 218.744 32.8755 217.512C34.0915 216.296 35.5875 215.688 37.3635 215.688C39.1395 215.688 40.6355 216.296 41.8515 217.512C43.0835 218.744 43.6995 220.24 43.6995 222C43.6995 223.76 43.0835 225.256 41.8515 226.488ZM33.6195 222C33.6195 223.088 33.9795 223.992 34.6995 224.712C35.4195 225.432 36.3075 225.792 37.3635 225.792C38.4195 225.792 39.3075 225.432 40.0275 224.712C40.7475 223.992 41.1075 223.088 41.1075 222C41.1075 220.912 40.7475 220.008 40.0275 219.288C39.3075 218.568 38.4195 218.208 37.3635 218.208C36.3075 218.208 35.4195 218.568 34.6995 219.288C33.9795 220.008 33.6195 220.912 33.6195 222ZM46.0433 216H56.7233V228H54.1313V218.448H48.6353V228H46.0433V216ZM66.5228 215.688C68.1548 215.688 69.5628 216.304 70.7468 217.536C71.9148 218.752 72.4988 220.24 72.4988 222C72.4988 223.776 71.9148 225.272 70.7468 226.488C69.5788 227.704 68.1708 228.312 66.5228 228.312C64.7148 228.312 63.3148 227.64 62.3228 226.296V232.8H59.7308V216H62.3228V217.728C63.2988 216.368 64.6988 215.688 66.5228 215.688ZM63.4028 224.76C64.1228 225.48 65.0268 225.84 66.1148 225.84C67.2028 225.84 68.1068 225.48 68.8268 224.76C69.5468 224.024 69.9068 223.104 69.9068 222C69.9068 220.896 69.5468 219.984 68.8268 219.264C68.1068 218.528 67.2028 218.16 66.1148 218.16C65.0268 218.16 64.1228 218.528 63.4028 219.264C62.6828 219.984 62.3228 220.896 62.3228 222C62.3228 223.088 62.6828 224.008 63.4028 224.76ZM84.9999 226.488C83.7839 227.704 82.2879 228.312 80.5119 228.312C78.7359 228.312 77.2399 227.704 76.0239 226.488C74.7919 225.256 74.1759 223.76 74.1759 222C74.1759 220.24 74.7919 218.744 76.0239 217.512C77.2399 216.296 78.7359 215.688 80.5119 215.688C82.2879 215.688 83.7839 216.296 84.9999 217.512C86.2319 218.744 86.8479 220.24 86.8479 222C86.8479 223.76 86.2319 225.256 84.9999 226.488ZM76.7679 222C76.7679 223.088 77.1279 223.992 77.8479 224.712C78.5679 225.432 79.4559 225.792 80.5119 225.792C81.5679 225.792 82.4559 225.432 83.1759 224.712C83.8959 223.992 84.2559 223.088 84.2559 222C84.2559 220.912 83.8959 220.008 83.1759 219.288C82.4559 218.568 81.5679 218.208 80.5119 218.208C79.4559 218.208 78.5679 218.568 77.8479 219.288C77.1279 220.008 76.7679 220.912 76.7679 222ZM94.8557 228.312C93.0477 228.312 91.5357 227.704 90.3197 226.488C89.1197 225.256 88.5197 223.76 88.5197 222C88.5197 220.208 89.1197 218.712 90.3197 217.512C91.5357 216.296 93.0477 215.688 94.8557 215.688C96.0237 215.688 97.0877 215.968 98.0477 216.528C99.0077 217.088 99.7277 217.84 100.208 218.784L97.9757 220.08C97.7037 219.504 97.2877 219.056 96.7277 218.736C96.1837 218.4 95.5517 218.232 94.8317 218.232C93.7757 218.232 92.8877 218.592 92.1677 219.312C91.4637 220.048 91.1117 220.944 91.1117 222C91.1117 223.056 91.4637 223.952 92.1677 224.688C92.8877 225.408 93.7757 225.768 94.8317 225.768C95.5357 225.768 96.1677 225.608 96.7277 225.288C97.3037 224.952 97.7357 224.496 98.0237 223.92L100.256 225.192C99.7437 226.152 98.9997 226.912 98.0237 227.472C97.0637 228.032 96.0077 228.312 94.8557 228.312ZM104.792 220.08H107.432C108.728 220.08 109.776 220.448 110.576 221.184C111.392 221.904 111.8 222.856 111.8 224.04C111.8 225.208 111.392 226.16 110.576 226.896C109.776 227.632 108.728 228 107.432 228H102.2V216H104.792V220.08ZM113.24 228V216H115.832V228H113.24ZM104.792 225.672H107.456C107.968 225.672 108.392 225.52 108.728 225.216C109.08 224.912 109.256 224.52 109.256 224.04C109.256 223.56 109.088 223.168 108.752 222.864C108.416 222.56 107.984 222.408 107.456 222.408H104.792V225.672ZM119.56 225.12H122.44L120.76 231.36H118.6L119.56 225.12ZM139.28 220.776V216H141.872V228H139.28V223.224H133.784V228H131.192V216H133.784V220.776H139.28ZM154.383 217.704V216H156.975V228H154.383V226.272C153.407 227.632 152.007 228.312 150.183 228.312C148.535 228.312 147.127 227.704 145.959 226.488C144.791 225.272 144.207 223.776 144.207 222C144.207 220.224 144.791 218.728 145.959 217.512C147.127 216.296 148.535 215.688 150.183 215.688C152.007 215.688 153.407 216.36 154.383 217.704ZM147.879 224.76C148.599 225.48 149.503 225.84 150.591 225.84C151.679 225.84 152.583 225.48 153.303 224.76C154.023 224.024 154.383 223.104 154.383 222C154.383 220.896 154.023 219.984 153.303 219.264C152.583 218.528 151.679 218.16 150.591 218.16C149.503 218.16 148.599 218.528 147.879 219.264C147.159 219.984 146.799 220.896 146.799 222C146.799 223.088 147.159 224.008 147.879 224.76ZM159.996 216H170.676V228H168.084V218.448H162.588V228H159.996V216ZM176.228 223.608L182.372 216H184.364V228H181.82V220.368L175.676 228H173.684V216H176.228V223.608ZM201.579 225.552V216H204.171V228H187.371V216H189.963V225.552H194.475V216H197.067V225.552H201.579ZM209.72 223.608L215.864 216H217.856V228H215.312V220.368L209.168 228H207.176V216H209.72V223.608ZM219.592 216H230.032V218.496H226.12V228H223.528V218.496H219.592V216ZM242.909 223.104H233.357C233.549 224 233.981 224.696 234.653 225.192C235.341 225.688 236.189 225.936 237.197 225.936C238.557 225.936 239.589 225.44 240.293 224.448L242.429 225.696C241.261 227.44 239.509 228.312 237.173 228.312C235.237 228.312 233.661 227.72 232.445 226.536C231.245 225.336 230.645 223.824 230.645 222C230.645 220.224 231.237 218.728 232.421 217.512C233.589 216.296 235.109 215.688 236.981 215.688C238.725 215.688 240.165 216.304 241.301 217.536C242.437 218.768 243.005 220.264 243.005 222.024C243.005 222.344 242.973 222.704 242.909 223.104ZM233.333 220.992H240.389C240.213 220.048 239.813 219.32 239.189 218.808C238.581 218.296 237.837 218.04 236.957 218.04C235.997 218.04 235.197 218.304 234.557 218.832C233.917 219.36 233.509 220.08 233.333 220.992ZM259.373 220.776V216H261.965V228H259.373V223.224H253.877V228H251.285V216H253.877V220.776H259.373ZM274.477 217.704V216H277.069V228H274.477V226.272C273.501 227.632 272.101 228.312 270.277 228.312C268.629 228.312 267.221 227.704 266.053 226.488C264.885 225.272 264.301 223.776 264.301 222C264.301 220.224 264.885 218.728 266.053 217.512C267.221 216.296 268.629 215.688 270.277 215.688C272.101 215.688 273.501 216.36 274.477 217.704ZM267.973 224.76C268.693 225.48 269.597 225.84 270.685 225.84C271.773 225.84 272.677 225.48 273.397 224.76C274.117 224.024 274.477 223.104 274.477 222C274.477 220.896 274.117 219.984 273.397 219.264C272.677 218.528 271.773 218.16 270.685 218.16C269.597 218.16 268.693 218.528 267.973 219.264C267.253 219.984 266.893 220.896 266.893 222C266.893 223.088 267.253 224.008 267.973 224.76ZM289.69 216H292.33V228H289.81V220.104L286.354 225.6H286.042L282.61 220.128V228H280.09V216H282.73L286.21 221.544L289.69 216Z" fill="white"/>
<rect x="18" y="244" width="284" height="48" rx="4" fill="white"/>
<path d="M128.557 273.208C126.871 273.208 125.474 272.653 124.365 271.544C123.255 270.413 122.701 269.032 122.701 267.4C122.701 265.757 123.255 264.381 124.365 263.272C125.463 262.152 126.861 261.592 128.557 261.592C129.57 261.592 130.503 261.832 131.357 262.312C132.221 262.792 132.893 263.443 133.373 264.264L131.773 265.192C131.474 264.637 131.037 264.2 130.461 263.88C129.895 263.549 129.261 263.384 128.557 263.384C127.373 263.384 126.402 263.763 125.645 264.52C124.909 265.267 124.541 266.227 124.541 267.4C124.541 268.573 124.909 269.533 125.645 270.28C126.402 271.037 127.373 271.416 128.557 271.416C129.261 271.416 129.901 271.256 130.477 270.936C131.053 270.605 131.485 270.163 131.773 269.608L133.373 270.52C132.914 271.331 132.247 271.987 131.373 272.488C130.53 272.968 129.591 273.208 128.557 273.208ZM140.403 268.888C141.193 269.261 141.587 269.875 141.587 270.728C141.587 271.411 141.353 271.96 140.883 272.376C140.425 272.792 139.785 273 138.963 273H134.867V265H138.643C139.454 265 140.089 265.203 140.547 265.608C141.006 266.013 141.235 266.547 141.235 267.208C141.235 267.965 140.958 268.525 140.403 268.888ZM138.515 266.472H136.515V268.248H138.515C139.219 268.248 139.571 267.949 139.571 267.352C139.571 266.765 139.219 266.472 138.515 266.472ZM136.515 271.496H138.803C139.529 271.496 139.891 271.181 139.891 270.552C139.891 270.275 139.795 270.061 139.603 269.912C139.411 269.752 139.145 269.672 138.803 269.672H136.515V271.496ZM145.304 265H148.872V273H147.176V270.312H146.216L144.184 273H142.152L144.312 270.152C143.757 269.971 143.309 269.651 142.968 269.192C142.637 268.733 142.472 268.221 142.472 267.656C142.472 266.92 142.733 266.296 143.256 265.784C143.779 265.261 144.461 265 145.304 265ZM145.4 268.824H147.176V266.568H145.4C145.037 266.568 144.739 266.675 144.504 266.888C144.28 267.091 144.168 267.363 144.168 267.704C144.168 268.045 144.28 268.317 144.504 268.52C144.739 268.723 145.037 268.824 145.4 268.824ZM155.379 268.904C156.232 269.288 156.659 269.923 156.659 270.808C156.659 271.501 156.376 272.077 155.811 272.536C155.246 272.984 154.478 273.208 153.507 273.208C151.896 273.208 150.808 272.568 150.243 271.288L151.651 270.456C151.939 271.256 152.563 271.656 153.523 271.656C153.971 271.656 154.323 271.565 154.579 271.384C154.835 271.192 154.963 270.941 154.963 270.632C154.963 270.355 154.862 270.136 154.659 269.976C154.456 269.805 154.174 269.72 153.811 269.72H152.675V268.2H153.523C153.875 268.2 154.147 268.12 154.339 267.96C154.542 267.789 154.643 267.56 154.643 267.272C154.643 266.995 154.531 266.771 154.307 266.6C154.083 266.419 153.784 266.328 153.411 266.328C152.611 266.328 152.056 266.68 151.747 267.384L150.339 266.584C150.926 265.389 151.939 264.792 153.379 264.792C154.275 264.792 154.984 265.021 155.507 265.48C156.04 265.928 156.307 266.477 156.307 267.128C156.307 267.928 155.998 268.52 155.379 268.904ZM164.407 266.136V265H166.135V273H164.407V271.848C163.756 272.755 162.823 273.208 161.607 273.208C160.508 273.208 159.569 272.803 158.791 271.992C158.012 271.181 157.623 270.184 157.623 269C157.623 267.816 158.012 266.819 158.791 266.008C159.569 265.197 160.508 264.792 161.607 264.792C162.823 264.792 163.756 265.24 164.407 266.136ZM160.071 270.84C160.551 271.32 161.153 271.56 161.879 271.56C162.604 271.56 163.207 271.32 163.687 270.84C164.167 270.349 164.407 269.736 164.407 269C164.407 268.264 164.167 267.656 163.687 267.176C163.207 266.685 162.604 266.44 161.879 266.44C161.153 266.44 160.551 266.685 160.071 267.176C159.591 267.656 159.351 268.264 159.351 269C159.351 269.725 159.591 270.339 160.071 270.84ZM167.301 265H174.261V266.664H171.653V273H169.925V266.664H167.301V265ZM177.158 267.72H178.918C179.782 267.72 180.481 267.965 181.014 268.456C181.558 268.936 181.83 269.571 181.83 270.36C181.83 271.139 181.558 271.773 181.014 272.264C180.481 272.755 179.782 273 178.918 273H175.43V265H177.158V267.72ZM177.158 271.448H178.934C179.275 271.448 179.558 271.347 179.782 271.144C180.017 270.941 180.134 270.68 180.134 270.36C180.134 270.04 180.022 269.779 179.798 269.576C179.574 269.373 179.286 269.272 178.934 269.272H177.158V271.448ZM186.925 273.208C185.719 273.208 184.711 272.803 183.901 271.992C183.101 271.171 182.701 270.173 182.701 269C182.701 267.805 183.101 266.808 183.901 266.008C184.711 265.197 185.719 264.792 186.925 264.792C187.703 264.792 188.413 264.979 189.053 265.352C189.693 265.725 190.173 266.227 190.493 266.856L189.005 267.72C188.823 267.336 188.546 267.037 188.173 266.824C187.81 266.6 187.389 266.488 186.909 266.488C186.205 266.488 185.613 266.728 185.133 267.208C184.663 267.699 184.429 268.296 184.429 269C184.429 269.704 184.663 270.301 185.133 270.792C185.613 271.272 186.205 271.512 186.909 271.512C187.378 271.512 187.799 271.405 188.173 271.192C188.557 270.968 188.845 270.664 189.037 270.28L190.525 271.128C190.183 271.768 189.687 272.275 189.037 272.648C188.397 273.021 187.693 273.208 186.925 273.208ZM194.288 265H197.856V273H196.16V270.312H195.2L193.168 273H191.136L193.296 270.152C192.742 269.971 192.294 269.651 191.952 269.192C191.622 268.733 191.456 268.221 191.456 267.656C191.456 266.92 191.718 266.296 192.24 265.784C192.763 265.261 193.446 265 194.288 265ZM194.384 268.824H196.16V266.568H194.384C194.022 266.568 193.723 266.675 193.488 266.888C193.264 267.091 193.152 267.363 193.152 267.704C193.152 268.045 193.264 268.317 193.488 268.52C193.723 268.723 194.022 268.824 194.384 268.824Z" fill="#222222"/>
</svg>
