<svg width="584" height="127" viewBox="0 0 584 127" fill="none" xmlns="http://www.w3.org/2000/svg">
<rect y="7" width="584" height="120" rx="8" fill="#F9F9F9"/>
<path d="M546.153 38.1761L496.625 46.7791L447.139 38.166L497.187 29.4602L546.153 38.1761Z" fill="white"/>
<path d="M496.636 119.68V46.7067L546.358 38.1457V110.919L496.636 119.68Z" fill="white"/>
<path d="M496.634 120C496.549 120 496.468 119.966 496.408 119.906C496.348 119.846 496.314 119.765 496.314 119.68V46.7066C496.314 46.6314 496.341 46.5586 496.389 46.501C496.438 46.4435 496.505 46.405 496.579 46.3924L546.301 37.8314C546.347 37.8236 546.394 37.8259 546.439 37.8382C546.484 37.8504 546.526 37.8723 546.562 37.9024C546.597 37.9321 546.626 37.9693 546.645 38.0114C546.665 38.0534 546.675 38.0993 546.675 38.1457V110.919C546.675 110.994 546.648 111.067 546.6 111.124C546.552 111.182 546.485 111.22 546.411 111.233L496.691 120H496.634ZM496.953 46.976V119.3L546.036 110.651V38.5251L496.953 46.976Z" fill="#222222"/>
<path d="M505.586 100.685C505.501 100.685 505.42 100.651 505.361 100.591C505.301 100.531 505.267 100.45 505.267 100.365V65.4797C505.267 65.4043 505.294 65.3313 505.342 65.2735C505.391 65.2157 505.458 65.1769 505.532 65.164L537.67 59.5764C537.716 59.5681 537.763 59.57 537.808 59.582C537.853 59.594 537.895 59.6157 537.931 59.6458C537.967 59.6758 537.995 59.7133 538.015 59.7556C538.034 59.7979 538.044 59.844 538.044 59.8907V94.6502C538.044 94.7251 538.017 94.7977 537.969 94.8551C537.921 94.9125 537.854 94.9512 537.78 94.9645L505.642 100.682C505.624 100.686 505.605 100.686 505.586 100.685ZM505.906 65.7477V99.9843L537.405 94.3793V60.2701L505.906 65.7477Z" fill="#222222"/>
<path d="M518.599 94.1867H518.535C517.948 94.17 517.37 94.0367 516.835 93.7945C516.299 93.5523 515.817 93.2061 515.417 92.776C514.56 91.8689 514.085 90.6657 514.093 89.4174V88.6758C514.089 88.3078 514.23 87.953 514.487 87.6891C514.743 87.4252 515.094 87.2738 515.462 87.2681C515.647 87.2676 515.83 87.3052 515.999 87.3784C516.169 87.4517 516.322 87.559 516.448 87.6939C516.699 87.958 516.838 88.3089 516.835 88.673V89.4464C516.831 89.9577 517.024 90.451 517.374 90.8237C517.534 90.9961 517.728 91.1338 517.943 91.2282C518.159 91.3227 518.391 91.3718 518.627 91.3726H518.661C518.889 91.3657 519.113 91.3135 519.321 91.219C519.528 91.1245 519.715 90.9897 519.869 90.8223C520.22 90.4497 520.413 89.9563 520.408 89.4449V67.7202C520.407 67.5221 520.448 67.326 520.528 67.1446C520.608 66.9633 520.725 66.8007 520.871 66.6673C521.012 66.5404 521.178 66.4444 521.358 66.3853C521.538 66.3262 521.729 66.3053 521.917 66.324C522.262 66.369 522.578 66.5388 522.805 66.8012C523.033 67.0636 523.157 67.4003 523.153 67.7477V89.4116C523.159 90.6597 522.685 91.8625 521.829 92.7702C521.424 93.2029 520.936 93.5504 520.395 93.7924C519.854 94.0344 519.27 94.166 518.677 94.1794L518.625 93.8608V94.1794L518.599 94.1867ZM515.462 87.9111C515.264 87.9153 515.075 87.9981 514.938 88.1412C514.8 88.2843 514.725 88.476 514.729 88.6744V89.4159C514.72 90.5003 515.131 91.5461 515.876 92.3343C516.222 92.7043 516.637 93.002 517.099 93.2099C517.56 93.4177 518.058 93.5317 518.564 93.5451L518.593 93.8666V93.5465H518.657C519.168 93.536 519.671 93.4235 520.137 93.2156C520.604 93.0076 521.024 92.7085 521.373 92.3357C522.116 91.5468 522.528 90.5017 522.521 89.4174V67.7535C522.526 67.5642 522.462 67.3794 522.34 67.2343C522.219 67.0891 522.048 66.9935 521.861 66.9656C521.761 66.9559 521.66 66.9671 521.564 66.9985C521.469 67.0299 521.381 67.0809 521.306 67.1481C521.226 67.2217 521.162 67.3113 521.118 67.4111C521.075 67.5108 521.053 67.6186 521.054 67.7274L521.047 89.4521C521.051 90.1276 520.795 90.7788 520.331 91.2698C520.113 91.5062 519.849 91.6948 519.555 91.8239C519.26 91.9529 518.942 92.0195 518.621 92.0195C518.299 92.0195 517.981 91.9529 517.687 91.8239C517.393 91.6948 517.128 91.5062 516.91 91.2698C516.447 90.779 516.191 90.1284 516.196 89.4536V88.6802C516.197 88.4801 516.122 88.2873 515.985 88.1414C515.918 88.0692 515.837 88.0114 515.747 87.9718C515.657 87.9322 515.56 87.9115 515.462 87.9111Z" fill="#222222"/>
<path d="M531.898 78.2002C532.053 78.1736 532.201 78.115 532.333 78.0281C532.465 77.9412 532.577 77.828 532.662 77.6955C532.748 77.563 532.805 77.4142 532.83 77.2585C532.855 77.1028 532.847 76.9436 532.807 76.791C531.313 71.1078 526.28 69.3467 520.912 70.2736C515.749 71.1629 511.844 75.1602 510.541 80.2032C510.492 80.3874 510.49 80.581 510.535 80.7663C510.58 80.9515 510.671 81.1225 510.799 81.2636C510.927 81.4046 511.089 81.5113 511.269 81.5738C511.449 81.6362 511.642 81.6525 511.83 81.6211L531.898 78.2002Z" fill="white"/>
<path d="M511.637 81.9543C511.437 81.9545 511.238 81.9128 511.055 81.832C510.872 81.7512 510.707 81.633 510.572 81.4851C510.406 81.3043 510.287 81.0844 510.228 80.8457C510.168 80.607 510.17 80.3572 510.232 80.1193C511.601 74.8214 515.772 70.8327 520.858 69.9565C527.137 68.8746 531.721 71.4048 533.117 76.71C533.168 76.9056 533.178 77.1096 533.146 77.3092C533.114 77.5088 533.041 77.6995 532.931 77.8694C532.821 78.0392 532.678 78.1844 532.509 78.2957C532.34 78.407 532.15 78.482 531.951 78.516L511.883 81.9326C511.802 81.947 511.719 81.9543 511.637 81.9543ZM523.58 70.3519C522.706 70.3557 521.834 70.4338 520.973 70.5851C516.133 71.4193 512.163 75.2197 510.856 80.2801C510.821 80.4147 510.82 80.556 510.853 80.6912C510.887 80.8263 510.953 80.9509 511.047 81.0535C511.139 81.1539 511.254 81.2296 511.382 81.2734C511.511 81.3172 511.648 81.3278 511.782 81.304L531.85 77.886C531.961 77.8666 532.068 77.8243 532.162 77.7617C532.257 77.6991 532.337 77.6176 532.399 77.5224C532.46 77.4272 532.501 77.3202 532.52 77.2083C532.538 77.0964 532.533 76.982 532.504 76.8722C531.393 72.6793 528.139 70.3519 523.58 70.3519Z" fill="#222222"/>
<path d="M496.635 119.68V46.7067L447.343 38.1356V110.963L496.635 119.68Z" fill="white"/>
<path d="M496.634 120H496.577L447.287 111.281C447.213 111.268 447.146 111.23 447.098 111.172C447.05 111.115 447.023 111.042 447.023 110.967V38.1356C447.023 38.0889 447.033 38.0427 447.053 38.0004C447.072 37.958 447.101 37.9204 447.136 37.8903C447.172 37.8602 447.214 37.8383 447.259 37.8261C447.304 37.8139 447.351 37.8118 447.397 37.8198L496.688 46.3924C496.762 46.405 496.829 46.4435 496.878 46.5011C496.926 46.5586 496.953 46.6314 496.953 46.7067V119.68C496.953 119.722 496.945 119.763 496.929 119.802C496.913 119.841 496.889 119.876 496.86 119.906C496.83 119.936 496.795 119.96 496.756 119.976C496.717 119.992 496.676 120 496.634 120ZM447.662 110.695L496.314 119.299V46.9761L447.662 38.515V110.695Z" fill="#222222"/>
<path d="M483.516 95.651C483.498 95.6525 483.48 95.6525 483.463 95.651L459.141 91.5334C459.067 91.5211 458.999 91.4827 458.95 91.4252C458.901 91.3676 458.875 91.2946 458.875 91.2192V85.8517C458.875 85.8053 458.885 85.7596 458.905 85.7176C458.925 85.6757 458.954 85.6385 458.989 85.6086C459.025 85.5788 459.066 85.557 459.111 85.5447C459.156 85.5324 459.202 85.5299 459.248 85.5374L483.571 89.7723C483.645 89.7853 483.712 89.8239 483.76 89.8814C483.808 89.9389 483.835 90.0115 483.835 90.0866V95.3353C483.835 95.3818 483.825 95.4279 483.805 95.4702C483.786 95.5125 483.757 95.55 483.722 95.58C483.663 95.6264 483.591 95.6515 483.516 95.651ZM459.513 90.944L483.196 94.9529V90.3502L459.513 86.2283V90.944Z" fill="#222222"/>
<path d="M479.751 86.6497C479.733 86.6511 479.715 86.6511 479.697 86.6497L474.84 85.8198C474.765 85.8071 474.698 85.7684 474.649 85.7106C474.601 85.6527 474.574 85.5796 474.574 85.5041V73.0602L472.275 72.6604C472.218 72.6508 472.165 72.626 472.121 72.5886C472.077 72.5513 472.044 72.5028 472.026 72.4483C472.008 72.3938 472.004 72.3353 472.016 72.2791C472.029 72.2228 472.056 72.1709 472.095 72.1289L477.082 66.7108C477.114 66.6764 477.154 66.6495 477.199 66.632C477.243 66.6145 477.29 66.6068 477.338 66.6094C477.385 66.6127 477.432 66.6265 477.473 66.6498C477.515 66.6731 477.551 66.7053 477.578 66.7441L482.598 73.9132C482.635 73.9651 482.655 74.0267 482.656 74.0901C482.658 74.1534 482.641 74.2159 482.607 74.2695C482.573 74.3235 482.524 74.3662 482.466 74.3921C482.408 74.4179 482.344 74.4256 482.281 74.4143L480.064 74.0218V86.3325C480.064 86.3789 480.054 86.4247 480.034 86.4668C480.015 86.5089 479.986 86.5461 479.951 86.5758C479.894 86.6226 479.824 86.6487 479.751 86.6497ZM475.213 85.2405L479.431 85.9545V73.6438C479.431 73.5972 479.441 73.5511 479.461 73.5089C479.481 73.4666 479.509 73.4292 479.545 73.3991C479.581 73.3691 479.623 73.3472 479.668 73.3349C479.713 73.3227 479.76 73.3203 479.806 73.3281L481.638 73.654L477.293 67.4421L472.967 72.1376L474.954 72.4837C475.028 72.4964 475.095 72.5349 475.144 72.5924C475.192 72.6499 475.219 72.7228 475.219 72.798L475.213 85.2405Z" fill="#222222"/>
<path d="M467.79 84.6481C467.772 84.6496 467.754 84.6496 467.736 84.6481L462.878 83.8255C462.804 83.8131 462.736 83.7748 462.688 83.7172C462.639 83.6597 462.612 83.5867 462.612 83.5112V71.0557L460.313 70.656C460.257 70.6464 460.204 70.6217 460.16 70.5844C460.117 70.5472 460.084 70.4989 460.066 70.4445C460.047 70.3901 460.044 70.3317 460.056 70.2754C460.067 70.2192 460.094 70.167 460.132 70.1244L465.125 64.7063C465.157 64.6716 465.197 64.6444 465.242 64.6267C465.286 64.6089 465.333 64.601 465.381 64.6035C465.429 64.6068 465.475 64.6207 465.517 64.6443C465.558 64.6678 465.594 64.7004 465.622 64.7396L470.643 71.9088C470.679 71.9606 470.699 72.0219 470.7 72.085C470.701 72.1481 470.684 72.2102 470.65 72.2635C470.616 72.3167 470.567 72.3587 470.51 72.3843C470.452 72.4098 470.388 72.4177 470.326 72.407L468.102 72.0159V84.3266C468.102 84.3731 468.092 84.4191 468.073 84.4613C468.053 84.5036 468.025 84.5411 467.99 84.5714C467.934 84.6192 467.863 84.6464 467.79 84.6481ZM463.251 83.2375L467.47 83.95V71.6394C467.47 71.5927 467.48 71.5466 467.5 71.5043C467.519 71.4621 467.548 71.4246 467.584 71.3946C467.62 71.3645 467.661 71.3426 467.707 71.3306C467.752 71.3186 467.799 71.3167 467.845 71.3251L469.677 71.6495L465.332 65.4377L461.006 70.1302L462.993 70.4749C463.067 70.4879 463.134 70.5268 463.182 70.5846C463.231 70.6424 463.257 70.7154 463.256 70.7907L463.251 83.2375Z" fill="#222222"/>
<path d="M487.424 100.685C487.406 100.688 487.388 100.688 487.369 100.685L455.23 94.9674C455.156 94.9539 455.09 94.9151 455.041 94.8577C454.993 94.8003 454.967 94.728 454.966 94.6531V59.895C454.966 59.8483 454.977 59.8022 454.996 59.76C455.016 59.7177 455.045 59.6802 455.081 59.6503C455.117 59.6206 455.159 59.5991 455.204 59.5871C455.248 59.5751 455.296 59.5729 455.341 59.5807L487.479 65.1683C487.554 65.1813 487.621 65.2201 487.67 65.2778C487.718 65.3356 487.745 65.4086 487.745 65.484V100.37C487.744 100.454 487.71 100.536 487.65 100.595C487.59 100.655 487.509 100.689 487.424 100.69V100.685ZM455.606 94.3793L487.106 99.9843V65.7476L455.606 60.2701V94.3793Z" fill="#222222"/>
<path d="M562.541 35.6054L545.235 37.9835L497.425 29.6224L514.47 27.224L562.541 35.6054Z" fill="white"/>
<path d="M497.722 29.366L447.907 38.2138L428.063 36.8639L477.422 27.9351L497.722 29.366Z" fill="white"/>
<path d="M545.539 38.2369C545.52 38.2391 545.502 38.2391 545.484 38.2369L509.131 31.8977C509.09 31.8905 509.05 31.8753 509.015 31.853C508.979 31.8306 508.949 31.8014 508.925 31.7672C508.9 31.733 508.883 31.6943 508.874 31.6535C508.865 31.6126 508.864 31.5703 508.871 31.5291C508.878 31.4878 508.893 31.4483 508.916 31.4129C508.938 31.3775 508.967 31.3469 509.001 31.3228C509.036 31.2986 509.074 31.2814 509.115 31.2722C509.156 31.263 509.198 31.262 509.239 31.2691L545.549 37.5997L560.534 35.4909L514.511 27.4658L511.342 27.9119C511.261 27.9184 511.18 27.8936 511.117 27.8425C511.053 27.7914 511.011 27.718 511 27.6371C510.989 27.5562 511.009 27.4741 511.056 27.4076C511.103 27.341 511.174 27.295 511.254 27.279L514.472 26.8271C514.505 26.8213 514.539 26.8213 514.572 26.8271L562.643 35.2085C562.718 35.2221 562.785 35.2617 562.833 35.3203C562.881 35.3789 562.907 35.4527 562.906 35.5285C562.905 35.6043 562.876 35.6773 562.827 35.7343C562.777 35.7913 562.708 35.8288 562.633 35.84L545.586 38.2326L545.539 38.2369Z" fill="#222222"/>
<path d="M496.626 46.7791L485.476 58.8189L433.357 49.6743L447.361 38.2094L496.626 46.7791Z" fill="white"/>
<path d="M485.482 59.139C485.463 59.1405 485.445 59.1405 485.427 59.139L433.308 49.9943C433.248 49.9832 433.192 49.9552 433.148 49.9136C433.103 49.872 433.071 49.8185 433.056 49.7595C433.041 49.7005 433.043 49.6383 433.062 49.5804C433.081 49.5224 433.116 49.4711 433.163 49.4324L447.165 37.9661C447.201 37.9374 447.242 37.9166 447.287 37.9051C447.331 37.8936 447.378 37.8917 447.423 37.8995L496.687 46.4677C496.744 46.4776 496.797 46.5026 496.841 46.5401C496.884 46.5776 496.917 46.6262 496.935 46.6808C496.954 46.7353 496.957 46.7938 496.945 46.8501C496.933 46.9064 496.906 46.9584 496.867 47.0006L485.715 59.0405C485.685 59.072 485.649 59.097 485.608 59.114C485.568 59.1309 485.525 59.1394 485.482 59.139ZM434.104 49.4802L485.366 58.4742L495.998 46.992L447.456 38.5497L434.104 49.4802Z" fill="#222222"/>
<path d="M546.195 38.1877L559.811 50.2464L508.4 59.3939L496.702 46.9196L546.195 38.1877Z" fill="white"/>
<path d="M508.4 59.7125C508.357 59.7124 508.313 59.7034 508.273 59.6863C508.233 59.6691 508.197 59.6441 508.167 59.6126L496.469 47.1383C496.43 47.0961 496.403 47.0443 496.391 46.9881C496.378 46.9319 496.382 46.8734 496.4 46.8189C496.418 46.7644 496.451 46.7157 496.494 46.6781C496.538 46.6406 496.59 46.6154 496.647 46.6053L546.139 37.8806C546.186 37.8719 546.235 37.8741 546.282 37.8872C546.328 37.9002 546.371 37.9238 546.407 37.956L560.021 50.0146C560.066 50.0545 560.099 50.1062 560.115 50.1638C560.132 50.2214 560.133 50.2827 560.116 50.3405C560.1 50.3984 560.068 50.4506 560.024 50.4909C559.979 50.5312 559.924 50.5579 559.864 50.5679L508.449 59.7154L508.4 59.7125ZM497.339 47.1325L508.515 59.0492L559.104 50.0479L546.098 38.5295L497.339 47.1325Z" fill="#222222"/>
<path d="M447.907 38.5338H447.885L428.043 37.184C427.966 37.1774 427.895 37.1433 427.841 37.0879C427.787 37.0326 427.755 36.9597 427.751 36.8826C427.747 36.8056 427.77 36.7297 427.818 36.6687C427.865 36.6078 427.933 36.566 428.009 36.5511L477.371 27.6208C477.398 27.6171 477.425 27.6171 477.451 27.6208L483.853 28.0727C483.933 28.0836 484.007 28.1248 484.058 28.1878C484.109 28.2509 484.135 28.3312 484.129 28.4123C484.123 28.4935 484.087 28.5694 484.027 28.6247C483.967 28.6799 483.889 28.7104 483.808 28.7099L477.447 28.2609L430.666 36.7249L447.901 37.8966L484.93 31.3198C485.012 31.308 485.096 31.3286 485.163 31.3773C485.231 31.4261 485.276 31.499 485.291 31.5808C485.305 31.6626 485.287 31.7469 485.241 31.8157C485.194 31.8846 485.123 31.9327 485.042 31.9498L447.974 38.5324C447.951 38.5361 447.929 38.5366 447.907 38.5338Z" fill="#222222"/>
<path d="M496.95 0C488.71 0 482.032 6.66224 482.032 14.8771C482.032 16.9308 482.965 19.8013 484.364 22.9558C487.889 30.9041 494.376 40.6382 496.36 43.5464C496.426 43.6426 496.514 43.7213 496.617 43.7757C496.72 43.8301 496.835 43.8585 496.951 43.8585C497.068 43.8585 497.182 43.8301 497.285 43.7757C497.388 43.7213 497.477 43.6426 497.542 43.5464C500.311 39.4912 511.87 22.1114 511.87 14.8698C511.869 6.66079 505.189 0 496.95 0Z" fill="#222222"/>
<path d="M501.566 19.4573C504.115 16.9082 504.115 12.7752 501.566 10.226C499.017 7.67684 494.884 7.67683 492.334 10.226C489.785 12.7752 489.785 16.9082 492.334 19.4574C494.884 22.0065 499.017 22.0065 501.566 19.4573Z" fill="white"/>
<path d="M36.625 49.525V54.25H44.375V57H33.75V39.5H44.25V42.25H36.625V46.8H43.625V49.525H36.625ZM52.4877 57.325C50.6044 57.325 49.0294 56.6917 47.7627 55.425C46.5127 54.1417 45.8877 52.5833 45.8877 50.75C45.8877 48.8833 46.5127 47.325 47.7627 46.075C49.0294 44.8083 50.6044 44.175 52.4877 44.175C53.7044 44.175 54.8127 44.4667 55.8127 45.05C56.8127 45.6333 57.5627 46.4167 58.0627 47.4L55.7377 48.75C55.4544 48.15 55.021 47.6833 54.4377 47.35C53.871 47 53.2127 46.825 52.4627 46.825C51.3627 46.825 50.4377 47.2 49.6877 47.95C48.9544 48.7167 48.5877 49.65 48.5877 50.75C48.5877 51.85 48.9544 52.7833 49.6877 53.55C50.4377 54.3 51.3627 54.675 52.4627 54.675C53.196 54.675 53.8544 54.5083 54.4377 54.175C55.0377 53.825 55.4877 53.35 55.7877 52.75L58.1127 54.075C57.5794 55.075 56.8044 55.8667 55.7877 56.45C54.7877 57.0333 53.6877 57.325 52.4877 57.325ZM60.8684 44.5H70.4434V57H67.7434V47.1H63.5684V51.75C63.5684 53.7 63.1434 55.1 62.2934 55.95C61.4434 56.8 60.2017 57.15 58.5684 57V54.475C59.335 54.6083 59.91 54.45 60.2934 54C60.6767 53.5333 60.8684 52.7417 60.8684 51.625V44.5ZM76.2396 52.425L82.6396 44.5H84.7146V57H82.0646V49.05L75.6646 57H73.5896V44.5H76.2396V52.425ZM99.3225 53.6L102.522 44.5H105.397L100.597 57.4C100.014 58.9833 99.1975 60.1667 98.1475 60.95C97.0975 61.7333 95.8808 62.0833 94.4975 62V59.475C96.0975 59.575 97.2058 58.775 97.8225 57.075L97.8975 56.9L92.6475 44.5H95.5225L99.3225 53.6ZM121.986 50.575C123.219 51.1583 123.836 52.1167 123.836 53.45C123.836 54.5167 123.469 55.375 122.736 56.025C122.019 56.675 121.019 57 119.736 57H113.336V44.5H119.236C120.502 44.5 121.494 44.8167 122.211 45.45C122.927 46.0833 123.286 46.9167 123.286 47.95C123.286 49.1333 122.852 50.0083 121.986 50.575ZM119.036 46.8H115.911V49.575H119.036C120.136 49.575 120.686 49.1083 120.686 48.175C120.686 47.2583 120.136 46.8 119.036 46.8ZM115.911 54.65H119.486C120.619 54.65 121.186 54.1583 121.186 53.175C121.186 52.7417 121.036 52.4083 120.736 52.175C120.436 51.925 120.019 51.8 119.486 51.8H115.911V54.65ZM135.931 46.275V44.5H138.631V57H135.931V55.2C134.914 56.6167 133.456 57.325 131.556 57.325C129.839 57.325 128.373 56.6917 127.156 55.425C125.939 54.1583 125.331 52.6 125.331 50.75C125.331 48.9 125.939 47.3417 127.156 46.075C128.373 44.8083 129.839 44.175 131.556 44.175C133.456 44.175 134.914 44.875 135.931 46.275ZM129.156 53.625C129.906 54.375 130.848 54.75 131.981 54.75C133.114 54.75 134.056 54.375 134.806 53.625C135.556 52.8583 135.931 51.9 135.931 50.75C135.931 49.6 135.556 48.65 134.806 47.9C134.056 47.1333 133.114 46.75 131.981 46.75C130.848 46.75 129.906 47.1333 129.156 47.9C128.406 48.65 128.031 49.6 128.031 50.75C128.031 51.8833 128.406 52.8417 129.156 53.625ZM147.678 57.325C145.795 57.325 144.22 56.6917 142.953 55.425C141.703 54.1417 141.078 52.5833 141.078 50.75C141.078 48.8833 141.703 47.325 142.953 46.075C144.22 44.8083 145.795 44.175 147.678 44.175C148.895 44.175 150.003 44.4667 151.003 45.05C152.003 45.6333 152.753 46.4167 153.253 47.4L150.928 48.75C150.645 48.15 150.211 47.6833 149.628 47.35C149.061 47 148.403 46.825 147.653 46.825C146.553 46.825 145.628 47.2 144.878 47.95C144.145 48.7167 143.778 49.65 143.778 50.75C143.778 51.85 144.145 52.7833 144.878 53.55C145.628 54.3 146.553 54.675 147.653 54.675C148.386 54.675 149.045 54.5083 149.628 54.175C150.228 53.825 150.678 53.35 150.978 52.75L153.303 54.075C152.77 55.075 151.995 55.8667 150.978 56.45C149.978 57.0333 148.878 57.325 147.678 57.325ZM172.153 55.425C170.886 56.6917 169.328 57.325 167.478 57.325C165.628 57.325 164.07 56.6917 162.803 55.425C161.52 54.1417 160.878 52.5833 160.878 50.75C160.878 48.9167 161.52 47.3583 162.803 46.075C164.07 44.8083 165.628 44.175 167.478 44.175C169.328 44.175 170.886 44.8083 172.153 46.075C173.436 47.3583 174.078 48.9167 174.078 50.75C174.078 52.5833 173.436 54.1417 172.153 55.425ZM163.578 50.75C163.578 51.8833 163.953 52.825 164.703 53.575C165.453 54.325 166.378 54.7 167.478 54.7C168.578 54.7 169.503 54.325 170.253 53.575C171.003 52.825 171.378 51.8833 171.378 50.75C171.378 49.6167 171.003 48.675 170.253 47.925C169.503 47.175 168.578 46.8 167.478 46.8C166.378 46.8 165.453 47.175 164.703 47.925C163.953 48.675 163.578 49.6167 163.578 50.75ZM182.419 57.325C180.536 57.325 178.961 56.6917 177.694 55.425C176.444 54.1417 175.819 52.5833 175.819 50.75C175.819 48.8833 176.444 47.325 177.694 46.075C178.961 44.8083 180.536 44.175 182.419 44.175C183.636 44.175 184.744 44.4667 185.744 45.05C186.744 45.6333 187.494 46.4167 187.994 47.4L185.669 48.75C185.386 48.15 184.953 47.6833 184.369 47.35C183.803 47 183.144 46.825 182.394 46.825C181.294 46.825 180.369 47.2 179.619 47.95C178.886 48.7167 178.519 49.65 178.519 50.75C178.519 51.85 178.886 52.7833 179.619 53.55C180.369 54.3 181.294 54.675 182.394 54.675C183.128 54.675 183.786 54.5083 184.369 54.175C184.969 53.825 185.419 53.35 185.719 52.75L188.044 54.075C187.511 55.075 186.736 55.8667 185.719 56.45C184.719 57.0333 183.619 57.325 182.419 57.325ZM188.549 44.5H199.424V47.1H195.349V57H192.649V47.1H188.549V44.5ZM210.663 46.275V44.5H213.363V57H210.663V55.2C209.646 56.6167 208.188 57.325 206.288 57.325C204.571 57.325 203.104 56.6917 201.888 55.425C200.671 54.1583 200.063 52.6 200.063 50.75C200.063 48.9 200.671 47.3417 201.888 46.075C203.104 44.8083 204.571 44.175 206.288 44.175C208.188 44.175 209.646 44.875 210.663 46.275ZM203.888 53.625C204.638 54.375 205.579 54.75 206.713 54.75C207.846 54.75 208.788 54.375 209.538 53.625C210.288 52.8583 210.663 51.9 210.663 50.75C210.663 49.6 210.288 48.65 209.538 47.9C208.788 47.1333 207.846 46.75 206.713 46.75C205.579 46.75 204.638 47.1333 203.888 47.9C203.138 48.65 202.763 49.6 202.763 50.75C202.763 51.8833 203.138 52.8417 203.888 53.625ZM217.485 44.5H227.06V57H224.36V47.1H220.185V51.75C220.185 53.7 219.76 55.1 218.91 55.95C218.06 56.8 216.818 57.15 215.185 57V54.475C215.951 54.6083 216.526 54.45 216.91 54C217.293 53.5333 217.485 52.7417 217.485 51.625V44.5ZM232.856 52.425L239.256 44.5H241.331V57H238.681V49.05L232.281 57H230.206V44.5H232.856V52.425ZM250.364 57.325C248.48 57.325 246.905 56.6917 245.639 55.425C244.389 54.1417 243.764 52.5833 243.764 50.75C243.764 48.8833 244.389 47.325 245.639 46.075C246.905 44.8083 248.48 44.175 250.364 44.175C251.58 44.175 252.689 44.4667 253.689 45.05C254.689 45.6333 255.439 46.4167 255.939 47.4L253.614 48.75C253.33 48.15 252.897 47.6833 252.314 47.35C251.747 47 251.089 46.825 250.339 46.825C249.239 46.825 248.314 47.2 247.564 47.95C246.83 48.7167 246.464 49.65 246.464 50.75C246.464 51.85 246.83 52.7833 247.564 53.55C248.314 54.3 249.239 54.675 250.339 54.675C251.072 54.675 251.73 54.5083 252.314 54.175C252.914 53.825 253.364 53.35 253.664 52.75L255.989 54.075C255.455 55.075 254.68 55.8667 253.664 56.45C252.664 57.0333 251.564 57.325 250.364 57.325ZM260.713 48.75H263.463C264.813 48.75 265.905 49.1333 266.738 49.9C267.588 50.65 268.013 51.6417 268.013 52.875C268.013 54.0917 267.588 55.0833 266.738 55.85C265.905 56.6167 264.813 57 263.463 57H258.013V44.5H260.713V48.75ZM260.713 54.575H263.488C264.022 54.575 264.463 54.4167 264.813 54.1C265.18 53.7833 265.363 53.375 265.363 52.875C265.363 52.375 265.188 51.9667 264.838 51.65C264.488 51.3333 264.038 51.175 263.488 51.175H260.713V54.575ZM285.121 50.575C286.354 51.1583 286.971 52.1167 286.971 53.45C286.971 54.5167 286.604 55.375 285.871 56.025C285.154 56.675 284.154 57 282.871 57H276.471V44.5H282.371C283.637 44.5 284.629 44.8167 285.346 45.45C286.062 46.0833 286.421 46.9167 286.421 47.95C286.421 49.1333 285.987 50.0083 285.121 50.575ZM282.171 46.8H279.046V49.575H282.171C283.271 49.575 283.821 49.1083 283.821 48.175C283.821 47.2583 283.271 46.8 282.171 46.8ZM279.046 54.65H282.621C283.754 54.65 284.321 54.1583 284.321 53.175C284.321 52.7417 284.171 52.4083 283.871 52.175C283.571 51.925 283.154 51.8 282.621 51.8H279.046V54.65ZM299.741 55.425C298.474 56.6917 296.916 57.325 295.066 57.325C293.216 57.325 291.657 56.6917 290.391 55.425C289.107 54.1417 288.466 52.5833 288.466 50.75C288.466 48.9167 289.107 47.3583 290.391 46.075C291.657 44.8083 293.216 44.175 295.066 44.175C296.916 44.175 298.474 44.8083 299.741 46.075C301.024 47.3583 301.666 48.9167 301.666 50.75C301.666 52.5833 301.024 54.1417 299.741 55.425ZM291.166 50.75C291.166 51.8833 291.541 52.825 292.291 53.575C293.041 54.325 293.966 54.7 295.066 54.7C296.166 54.7 297.091 54.325 297.841 53.575C298.591 52.825 298.966 51.8833 298.966 50.75C298.966 49.6167 298.591 48.675 297.841 47.925C297.091 47.175 296.166 46.8 295.066 46.8C293.966 46.8 293.041 47.175 292.291 47.925C291.541 48.675 291.166 49.6167 291.166 50.75ZM304.107 44.5H315.232V57H312.532V47.05H306.807V57H304.107V44.5ZM325.44 44.175C327.14 44.175 328.607 44.8167 329.84 46.1C331.057 47.3667 331.665 48.9167 331.665 50.75C331.665 52.6 331.057 54.1583 329.84 55.425C328.623 56.6917 327.157 57.325 325.44 57.325C323.557 57.325 322.098 56.625 321.065 55.225V62H318.365V44.5H321.065V46.3C322.082 44.8833 323.54 44.175 325.44 44.175ZM322.19 53.625C322.94 54.375 323.882 54.75 325.015 54.75C326.148 54.75 327.09 54.375 327.84 53.625C328.59 52.8583 328.965 51.9 328.965 50.75C328.965 49.6 328.59 48.65 327.84 47.9C327.09 47.1333 326.148 46.75 325.015 46.75C323.882 46.75 322.94 47.1333 322.19 47.9C321.44 48.65 321.065 49.6 321.065 50.75C321.065 51.8833 321.44 52.8417 322.19 53.625ZM344.687 55.425C343.42 56.6917 341.862 57.325 340.012 57.325C338.162 57.325 336.604 56.6917 335.337 55.425C334.054 54.1417 333.412 52.5833 333.412 50.75C333.412 48.9167 334.054 47.3583 335.337 46.075C336.604 44.8083 338.162 44.175 340.012 44.175C341.862 44.175 343.42 44.8083 344.687 46.075C345.97 47.3583 346.612 48.9167 346.612 50.75C346.612 52.5833 345.97 54.1417 344.687 55.425ZM336.112 50.75C336.112 51.8833 336.487 52.825 337.237 53.575C337.987 54.325 338.912 54.7 340.012 54.7C341.112 54.7 342.037 54.325 342.787 53.575C343.537 52.825 343.912 51.8833 343.912 50.75C343.912 49.6167 343.537 48.675 342.787 47.925C342.037 47.175 341.112 46.8 340.012 46.8C338.912 46.8 337.987 47.175 337.237 47.925C336.487 48.675 336.112 49.6167 336.112 50.75ZM354.954 57.325C353.07 57.325 351.495 56.6917 350.229 55.425C348.979 54.1417 348.354 52.5833 348.354 50.75C348.354 48.8833 348.979 47.325 350.229 46.075C351.495 44.8083 353.07 44.175 354.954 44.175C356.17 44.175 357.279 44.4667 358.279 45.05C359.279 45.6333 360.029 46.4167 360.529 47.4L358.204 48.75C357.92 48.15 357.487 47.6833 356.904 47.35C356.337 47 355.679 46.825 354.929 46.825C353.829 46.825 352.904 47.2 352.154 47.95C351.42 48.7167 351.054 49.65 351.054 50.75C351.054 51.85 351.42 52.7833 352.154 53.55C352.904 54.3 353.829 54.675 354.929 54.675C355.662 54.675 356.32 54.5083 356.904 54.175C357.504 53.825 357.954 53.35 358.254 52.75L360.579 54.075C360.045 55.075 359.27 55.8667 358.254 56.45C357.254 57.0333 356.154 57.325 354.954 57.325ZM365.303 48.75H368.053C369.403 48.75 370.495 49.1333 371.328 49.9C372.178 50.65 372.603 51.6417 372.603 52.875C372.603 54.0917 372.178 55.0833 371.328 55.85C370.495 56.6167 369.403 57 368.053 57H362.603V44.5H365.303V48.75ZM374.103 57V44.5H376.803V57H374.103ZM365.303 54.575H368.078C368.612 54.575 369.053 54.4167 369.403 54.1C369.77 53.7833 369.953 53.375 369.953 52.875C369.953 52.375 369.778 51.9667 369.428 51.65C369.078 51.3333 368.628 51.175 368.078 51.175H365.303V54.575ZM380.687 54H383.687L381.937 60.5H379.687L380.687 54ZM42 79.475V74.5H44.7V87H42V82.025H36.275V87H33.575V74.5H36.275V79.475H42ZM57.7328 76.275V74.5H60.4328V87H57.7328V85.2C56.7161 86.6167 55.2578 87.325 53.3578 87.325C51.6411 87.325 50.1745 86.6917 48.9578 85.425C47.7411 84.1583 47.1328 82.6 47.1328 80.75C47.1328 78.9 47.7411 77.3417 48.9578 76.075C50.1745 74.8083 51.6411 74.175 53.3578 74.175C55.2578 74.175 56.7161 74.875 57.7328 76.275ZM50.9578 83.625C51.7078 84.375 52.6495 84.75 53.7828 84.75C54.9161 84.75 55.8578 84.375 56.6078 83.625C57.3578 82.8583 57.7328 81.9 57.7328 80.75C57.7328 79.6 57.3578 78.65 56.6078 77.9C55.8578 77.1333 54.9161 76.75 53.7828 76.75C52.6495 76.75 51.7078 77.1333 50.9578 77.9C50.2078 78.65 49.8328 79.6 49.8328 80.75C49.8328 81.8833 50.2078 82.8417 50.9578 83.625ZM63.5799 74.5H74.7049V87H72.0049V77.05H66.2799V87H63.5799V74.5ZM80.4877 82.425L86.8877 74.5H88.9627V87H86.3127V79.05L79.9127 87H77.8377V74.5H80.4877V82.425ZM106.896 84.45V74.5H109.596V87H92.0955V74.5H94.7955V84.45H99.4955V74.5H102.196V84.45H106.896ZM115.375 82.425L121.775 74.5H123.85V87H121.2V79.05L114.8 87H112.725V74.5H115.375V82.425ZM125.658 74.5H136.533V77.1H132.458V87H129.758V77.1H125.658V74.5ZM149.947 81.9H139.997C140.197 82.8333 140.647 83.5583 141.347 84.075C142.064 84.5917 142.947 84.85 143.997 84.85C145.414 84.85 146.489 84.3333 147.222 83.3L149.447 84.6C148.23 86.4167 146.405 87.325 143.972 87.325C141.955 87.325 140.314 86.7083 139.047 85.475C137.797 84.225 137.172 82.65 137.172 80.75C137.172 78.9 137.789 77.3417 139.022 76.075C140.239 74.8083 141.822 74.175 143.772 74.175C145.589 74.175 147.089 74.8167 148.272 76.1C149.455 77.3833 150.047 78.9417 150.047 80.775C150.047 81.1083 150.014 81.4833 149.947 81.9ZM139.972 79.7H147.322C147.139 78.7167 146.722 77.9583 146.072 77.425C145.439 76.8917 144.664 76.625 143.747 76.625C142.747 76.625 141.914 76.9 141.247 77.45C140.58 78 140.155 78.75 139.972 79.7ZM167.098 79.475V74.5H169.798V87H167.098V82.025H161.373V87H158.673V74.5H161.373V79.475H167.098ZM182.83 76.275V74.5H185.53V87H182.83V85.2C181.814 86.6167 180.355 87.325 178.455 87.325C176.739 87.325 175.272 86.6917 174.055 85.425C172.839 84.1583 172.23 82.6 172.23 80.75C172.23 78.9 172.839 77.3417 174.055 76.075C175.272 74.8083 176.739 74.175 178.455 74.175C180.355 74.175 181.814 74.875 182.83 76.275ZM176.055 83.625C176.805 84.375 177.747 84.75 178.88 84.75C180.014 84.75 180.955 84.375 181.705 83.625C182.455 82.8583 182.83 81.9 182.83 80.75C182.83 79.6 182.455 78.65 181.705 77.9C180.955 77.1333 180.014 76.75 178.88 76.75C177.747 76.75 176.805 77.1333 176.055 77.9C175.305 78.65 174.93 79.6 174.93 80.75C174.93 81.8833 175.305 82.8417 176.055 83.625ZM198.678 74.5H201.428V87H198.803V78.775L195.203 84.5H194.878L191.303 78.8V87H188.678V74.5H191.428L195.053 80.275L198.678 74.5Z" fill="#222222"/>
</svg>
