<svg width="892" height="245" viewBox="0 0 892 245" fill="none" xmlns="http://www.w3.org/2000/svg">
<rect y="8.99902" width="892" height="236" rx="8" fill="#FF1D1D"/>
<path d="M532.061 157.038L494.389 163.582L456.748 157.03L494.816 150.408L532.061 157.038Z" fill="white"/>
<path d="M494.396 219.033V163.527L532.217 157.015V212.369L494.396 219.033Z" fill="white"/>
<path d="M494.395 219.276C494.331 219.276 494.269 219.25 494.223 219.205C494.178 219.159 494.152 219.097 494.152 219.033V163.527C494.152 163.47 494.172 163.414 494.209 163.37C494.246 163.327 494.297 163.297 494.353 163.288L532.174 156.776C532.209 156.77 532.245 156.772 532.279 156.781C532.313 156.79 532.345 156.807 532.372 156.83C532.399 156.852 532.421 156.881 532.436 156.913C532.451 156.945 532.458 156.98 532.458 157.015V212.369C532.458 212.426 532.438 212.481 532.401 212.525C532.365 212.569 532.314 212.598 532.258 212.608L494.438 219.276H494.395ZM494.638 163.732V218.744L531.972 212.165V157.304L494.638 163.732Z" fill="#222222"/>
<path d="M501.205 204.585C501.14 204.584 501.079 204.559 501.033 204.513C500.988 204.467 500.962 204.406 500.962 204.342V177.806C500.962 177.749 500.982 177.693 501.019 177.65C501.056 177.606 501.107 177.576 501.164 177.566L525.609 173.316C525.644 173.31 525.68 173.311 525.714 173.32C525.748 173.329 525.78 173.346 525.807 173.369C525.835 173.392 525.856 173.42 525.871 173.452C525.886 173.485 525.894 173.52 525.893 173.555V199.995C525.893 200.052 525.873 200.107 525.836 200.15C525.8 200.194 525.749 200.224 525.693 200.234L501.247 204.583C501.233 204.585 501.219 204.586 501.205 204.585ZM501.448 178.01V204.052L525.408 199.789V173.844L501.448 178.01Z" fill="#222222"/>
<path d="M511.103 199.642H511.054C510.608 199.629 510.168 199.528 509.761 199.343C509.353 199.159 508.987 198.896 508.683 198.569C508.03 197.879 507.669 196.964 507.676 196.014V195.45C507.672 195.17 507.78 194.9 507.975 194.699C508.17 194.499 508.437 194.384 508.717 194.379C508.857 194.379 508.996 194.407 509.125 194.463C509.255 194.519 509.371 194.601 509.467 194.703C509.658 194.904 509.763 195.171 509.761 195.448V196.036C509.758 196.425 509.905 196.8 510.171 197.084C510.293 197.215 510.44 197.32 510.604 197.391C510.768 197.463 510.945 197.501 511.124 197.501H511.15C511.323 197.496 511.494 197.456 511.652 197.384C511.809 197.313 511.951 197.21 512.069 197.083C512.335 196.799 512.482 196.424 512.479 196.035V179.51C512.478 179.36 512.509 179.211 512.57 179.073C512.631 178.935 512.72 178.811 512.831 178.71C512.938 178.613 513.064 178.54 513.201 178.495C513.338 178.45 513.483 178.434 513.627 178.448C513.889 178.483 514.129 178.612 514.302 178.811C514.475 179.011 514.569 179.267 514.566 179.531V196.01C514.572 196.959 514.211 197.874 513.559 198.564C513.251 198.893 512.881 199.158 512.469 199.342C512.057 199.526 511.613 199.626 511.162 199.636L511.123 199.394V199.636L511.103 199.642ZM508.717 194.868C508.566 194.872 508.422 194.934 508.318 195.043C508.213 195.152 508.156 195.298 508.159 195.449V196.013C508.153 196.838 508.465 197.633 509.032 198.233C509.294 198.514 509.61 198.741 509.961 198.899C510.313 199.057 510.692 199.144 511.076 199.154L511.098 199.398V199.155H511.147C511.535 199.147 511.918 199.061 512.273 198.903C512.627 198.745 512.947 198.517 513.212 198.234C513.778 197.634 514.091 196.839 514.086 196.014V179.536C514.09 179.392 514.041 179.251 513.949 179.141C513.856 179.03 513.726 178.958 513.584 178.936C513.508 178.929 513.431 178.938 513.358 178.961C513.285 178.985 513.219 179.024 513.162 179.075C513.101 179.131 513.052 179.199 513.019 179.275C512.986 179.351 512.969 179.433 512.97 179.516L512.965 196.041C512.968 196.554 512.773 197.05 512.42 197.423C512.255 197.603 512.054 197.746 511.83 197.845C511.606 197.943 511.364 197.993 511.119 197.993C510.875 197.993 510.633 197.943 510.409 197.845C510.185 197.746 509.984 197.603 509.818 197.423C509.466 197.05 509.271 196.555 509.275 196.042V195.453C509.276 195.301 509.219 195.154 509.114 195.044C509.064 194.989 509.002 194.945 508.934 194.915C508.865 194.884 508.791 194.869 508.717 194.868Z" fill="#222222"/>
<path d="M521.218 187.482C521.336 187.462 521.449 187.417 521.549 187.351C521.649 187.285 521.734 187.199 521.799 187.098C521.865 186.997 521.908 186.884 521.927 186.766C521.946 186.647 521.94 186.526 521.91 186.41C520.773 182.087 516.945 180.748 512.862 181.453C508.935 182.129 505.965 185.17 504.973 189.006C504.936 189.146 504.934 189.293 504.969 189.434C505.003 189.575 505.072 189.705 505.169 189.812C505.267 189.919 505.39 190.001 505.527 190.048C505.664 190.096 505.811 190.108 505.954 190.084L521.218 187.482Z" fill="white"/>
<path d="M505.807 190.337C505.655 190.338 505.504 190.306 505.365 190.244C505.225 190.183 505.1 190.093 504.997 189.981C504.871 189.843 504.78 189.676 504.735 189.494C504.69 189.313 504.691 189.123 504.739 188.942C505.78 184.912 508.952 181.878 512.821 181.211C517.597 180.389 521.084 182.313 522.146 186.348C522.184 186.497 522.192 186.652 522.168 186.804C522.143 186.956 522.088 187.101 522.004 187.23C521.921 187.359 521.811 187.47 521.683 187.555C521.555 187.639 521.41 187.696 521.259 187.722L505.994 190.321C505.933 190.332 505.87 190.337 505.807 190.337ZM514.891 181.512C514.226 181.515 513.563 181.574 512.908 181.69C509.227 182.324 506.207 185.215 505.213 189.064C505.186 189.166 505.186 189.274 505.211 189.377C505.236 189.479 505.287 189.574 505.359 189.652C505.428 189.729 505.516 189.786 505.613 189.82C505.711 189.853 505.816 189.861 505.917 189.843L521.182 187.243C521.267 187.228 521.348 187.196 521.419 187.148C521.491 187.101 521.553 187.039 521.599 186.966C521.646 186.894 521.677 186.813 521.691 186.727C521.705 186.642 521.701 186.555 521.68 186.472C520.835 183.283 518.359 181.512 514.891 181.512Z" fill="#222222"/>
<path d="M494.396 219.033V163.527L456.903 157.007V212.402L494.396 219.033Z" fill="white"/>
<path d="M494.395 219.276H494.352L456.86 212.644C456.804 212.635 456.753 212.605 456.716 212.561C456.68 212.518 456.66 212.462 456.66 212.405V157.007C456.659 156.972 456.667 156.937 456.682 156.904C456.697 156.872 456.718 156.844 456.746 156.821C456.773 156.798 456.805 156.781 456.839 156.772C456.873 156.763 456.909 156.761 456.944 156.767L494.436 163.288C494.492 163.297 494.544 163.327 494.581 163.37C494.617 163.414 494.638 163.469 494.638 163.527V219.033C494.638 219.065 494.632 219.096 494.619 219.126C494.607 219.155 494.59 219.182 494.567 219.205C494.545 219.228 494.518 219.246 494.488 219.258C494.459 219.27 494.427 219.276 494.395 219.276ZM457.145 212.198L494.152 218.743V163.732L457.145 157.296V212.198Z" fill="#222222"/>
<path d="M484.418 200.756C484.404 200.757 484.391 200.757 484.377 200.756L465.877 197.624C465.821 197.614 465.769 197.585 465.732 197.541C465.695 197.497 465.674 197.442 465.674 197.385V193.302C465.675 193.267 465.683 193.232 465.698 193.2C465.713 193.168 465.735 193.14 465.762 193.117C465.789 193.094 465.82 193.078 465.854 193.068C465.888 193.059 465.924 193.057 465.959 193.063L484.46 196.284C484.516 196.294 484.567 196.323 484.603 196.367C484.64 196.411 484.66 196.466 484.66 196.523V200.515C484.66 200.551 484.653 200.586 484.638 200.618C484.623 200.65 484.601 200.679 484.574 200.702C484.53 200.737 484.475 200.756 484.418 200.756ZM466.16 197.175L484.174 200.225V196.724L466.16 193.588V197.175Z" fill="#222222"/>
<path d="M481.553 193.909C481.54 193.91 481.526 193.91 481.513 193.909L477.818 193.278C477.761 193.268 477.71 193.239 477.673 193.195C477.636 193.151 477.616 193.095 477.616 193.038V183.572L475.867 183.268C475.824 183.261 475.783 183.242 475.75 183.214C475.717 183.185 475.692 183.148 475.678 183.107C475.664 183.065 475.661 183.021 475.67 182.978C475.68 182.935 475.7 182.896 475.73 182.864L479.523 178.743C479.548 178.717 479.579 178.696 479.612 178.683C479.646 178.67 479.682 178.664 479.718 178.666C479.754 178.668 479.789 178.679 479.821 178.696C479.853 178.714 479.88 178.739 479.901 178.768L483.719 184.221C483.747 184.261 483.762 184.308 483.764 184.356C483.765 184.404 483.752 184.451 483.726 184.492C483.7 184.533 483.663 184.566 483.619 184.585C483.575 184.605 483.526 184.611 483.478 184.602L481.791 184.304V193.668C481.792 193.703 481.784 193.738 481.769 193.77C481.754 193.802 481.733 193.83 481.706 193.853C481.663 193.888 481.609 193.908 481.553 193.909ZM478.102 192.837L481.31 193.38V184.016C481.31 183.981 481.318 183.946 481.333 183.914C481.348 183.882 481.37 183.853 481.397 183.83C481.424 183.807 481.456 183.791 481.49 183.781C481.525 183.772 481.56 183.77 481.595 183.776L482.989 184.024L479.684 179.299L476.393 182.871L477.905 183.134C477.961 183.144 478.012 183.173 478.049 183.217C478.086 183.26 478.106 183.316 478.106 183.373L478.102 192.837Z" fill="#222222"/>
<path d="M472.455 192.386C472.441 192.388 472.428 192.388 472.414 192.386L468.719 191.761C468.663 191.751 468.611 191.722 468.574 191.678C468.537 191.635 468.517 191.579 468.517 191.522V182.048L466.768 181.744C466.725 181.736 466.685 181.717 466.652 181.689C466.619 181.661 466.594 181.624 466.58 181.583C466.566 181.541 466.563 181.497 466.572 181.454C466.581 181.411 466.601 181.372 466.631 181.339L470.428 177.218C470.453 177.192 470.483 177.171 470.517 177.157C470.55 177.144 470.587 177.138 470.623 177.14C470.659 177.142 470.694 177.153 470.726 177.171C470.758 177.189 470.785 177.213 470.806 177.243L474.625 182.696C474.653 182.736 474.668 182.782 474.669 182.83C474.67 182.878 474.657 182.926 474.631 182.966C474.605 183.007 474.568 183.039 474.524 183.058C474.48 183.078 474.431 183.084 474.384 183.075L472.693 182.778V192.142C472.693 192.177 472.685 192.212 472.67 192.244C472.655 192.276 472.634 192.305 472.607 192.328C472.565 192.364 472.511 192.385 472.455 192.386ZM469.002 191.313L472.212 191.855V182.492C472.212 182.456 472.219 182.421 472.234 182.389C472.249 182.357 472.271 182.328 472.299 182.305C472.326 182.282 472.357 182.266 472.392 182.257C472.426 182.247 472.462 182.246 472.497 182.252L473.89 182.499L470.585 177.774L467.295 181.344L468.806 181.606C468.863 181.616 468.914 181.645 468.951 181.689C468.987 181.733 469.007 181.789 469.007 181.846L469.002 191.313Z" fill="#222222"/>
<path d="M487.39 204.585C487.376 204.586 487.362 204.586 487.348 204.585L462.902 200.236C462.846 200.225 462.795 200.196 462.758 200.152C462.722 200.108 462.701 200.053 462.701 199.996V173.558C462.701 173.523 462.709 173.488 462.724 173.455C462.739 173.423 462.761 173.395 462.788 173.372C462.815 173.35 462.847 173.333 462.882 173.324C462.916 173.315 462.952 173.313 462.986 173.319L487.432 177.569C487.488 177.579 487.54 177.609 487.576 177.653C487.613 177.697 487.634 177.752 487.633 177.809V204.345C487.633 204.409 487.607 204.471 487.562 204.516C487.516 204.562 487.454 204.588 487.39 204.588V204.585ZM463.188 199.788L487.148 204.052V178.01L463.188 173.844V199.788Z" fill="#222222"/>
<path d="M544.527 155.083L531.363 156.892L494.997 150.532L507.962 148.708L544.527 155.083Z" fill="white"/>
<path d="M495.223 150.337L457.332 157.067L442.238 156.04L479.782 149.249L495.223 150.337Z" fill="white"/>
<path d="M531.594 157.084C531.58 157.086 531.566 157.086 531.553 157.084L503.901 152.262C503.87 152.257 503.84 152.246 503.813 152.228C503.786 152.211 503.763 152.189 503.744 152.163C503.726 152.137 503.713 152.108 503.706 152.077C503.699 152.046 503.698 152.014 503.704 151.982C503.709 151.951 503.721 151.921 503.738 151.894C503.755 151.867 503.777 151.844 503.803 151.825C503.829 151.807 503.858 151.794 503.889 151.787C503.92 151.78 503.953 151.779 503.984 151.784L531.602 156.6L543.001 154.996L507.994 148.891L505.584 149.231C505.522 149.236 505.46 149.217 505.412 149.178C505.363 149.139 505.332 149.083 505.323 149.022C505.314 148.96 505.33 148.898 505.366 148.847C505.402 148.797 505.455 148.762 505.516 148.749L507.964 148.406C507.989 148.401 508.015 148.401 508.04 148.406L544.605 154.781C544.662 154.791 544.713 154.821 544.749 154.866C544.786 154.91 544.805 154.967 544.805 155.024C544.804 155.082 544.782 155.137 544.744 155.181C544.706 155.224 544.654 155.253 544.597 155.261L531.631 157.081L531.594 157.084Z" fill="#222222"/>
<path d="M494.389 163.582L485.908 172.74L446.265 165.784L456.916 157.063L494.389 163.582Z" fill="white"/>
<path d="M485.913 172.983C485.899 172.984 485.885 172.984 485.871 172.983L446.227 166.028C446.182 166.019 446.139 165.998 446.106 165.966C446.072 165.935 446.047 165.894 446.036 165.849C446.024 165.804 446.026 165.757 446.04 165.713C446.055 165.669 446.081 165.63 446.117 165.6L456.768 156.878C456.795 156.857 456.827 156.841 456.86 156.832C456.894 156.823 456.929 156.822 456.964 156.828L494.436 163.345C494.479 163.353 494.52 163.372 494.553 163.4C494.586 163.429 494.611 163.466 494.625 163.507C494.639 163.549 494.641 163.593 494.632 163.636C494.623 163.679 494.602 163.718 494.573 163.75L486.09 172.908C486.067 172.932 486.04 172.951 486.009 172.964C485.979 172.977 485.946 172.984 485.913 172.983ZM446.833 165.636L485.825 172.478L493.912 163.744L456.989 157.322L446.833 165.636Z" fill="#222222"/>
<path d="M532.093 157.047L542.45 166.219L503.345 173.177L494.447 163.689L532.093 157.047Z" fill="white"/>
<path d="M503.345 173.419C503.312 173.419 503.279 173.413 503.249 173.399C503.218 173.386 503.191 173.367 503.168 173.343L494.27 163.855C494.24 163.823 494.219 163.783 494.21 163.741C494.201 163.698 494.203 163.654 494.217 163.612C494.231 163.571 494.256 163.534 494.289 163.505C494.322 163.476 494.362 163.457 494.405 163.45L532.05 156.813C532.087 156.807 532.124 156.808 532.159 156.818C532.194 156.828 532.227 156.846 532.254 156.871L542.61 166.043C542.644 166.073 542.669 166.113 542.682 166.156C542.694 166.2 542.695 166.247 542.682 166.291C542.67 166.335 542.646 166.375 542.612 166.405C542.578 166.436 542.536 166.456 542.491 166.464L503.382 173.422L503.345 173.419ZM494.932 163.851L503.432 172.915L541.912 166.068L532.02 157.307L494.932 163.851Z" fill="#222222"/>
<path d="M457.332 157.31H457.315L442.223 156.284C442.164 156.279 442.11 156.253 442.069 156.21C442.028 156.168 442.004 156.113 442 156.054C441.997 155.996 442.015 155.938 442.051 155.892C442.087 155.845 442.139 155.813 442.196 155.802L479.743 149.009C479.764 149.007 479.784 149.007 479.804 149.009L484.673 149.353C484.735 149.361 484.79 149.393 484.83 149.441C484.869 149.489 484.888 149.55 484.884 149.611C484.879 149.673 484.851 149.731 484.806 149.773C484.761 149.815 484.701 149.838 484.639 149.838L479.801 149.496L444.218 155.934L457.327 156.826L485.493 151.823C485.555 151.814 485.619 151.83 485.67 151.867C485.721 151.904 485.756 151.959 485.767 152.022C485.778 152.084 485.765 152.148 485.729 152.2C485.694 152.253 485.64 152.289 485.578 152.302L457.382 157.309C457.366 157.312 457.349 157.312 457.332 157.31Z" fill="#222222"/>
<path d="M494.635 128C488.368 128 483.289 133.068 483.289 139.316C483.289 140.878 483.998 143.062 485.062 145.461C487.744 151.507 492.678 158.911 494.187 161.123C494.237 161.196 494.304 161.256 494.382 161.297C494.461 161.339 494.548 161.36 494.637 161.36C494.725 161.36 494.812 161.339 494.891 161.297C494.969 161.256 495.036 161.196 495.086 161.123C497.192 158.038 505.985 144.819 505.985 139.311C505.983 133.066 500.903 128 494.635 128Z" fill="#222222"/>
<path d="M498.147 142.8C500.086 140.861 500.086 137.717 498.147 135.778C496.208 133.839 493.064 133.839 491.125 135.778C489.186 137.717 489.186 140.861 491.125 142.8C493.064 144.739 496.208 144.739 498.147 142.8Z" fill="white"/>
<path d="M766.708 111.067L760.593 46.2919C760.553 45.8025 760.33 45.3462 759.969 45.0135C759.607 44.6807 759.134 44.4959 758.643 44.4957L734.522 44.0569C692.705 43.2973 650.902 44.0346 609.111 46.2688C605.895 46.3136 602.76 47.2727 600.069 49.034C597.379 50.7953 595.246 53.286 593.919 56.2149L570.473 107.98L564.646 114.96C562.411 117.634 560.81 120.779 559.963 124.159L556.547 137.76C555.629 141.421 555.164 145.181 555.164 148.955V195.381L710.701 192.853V197.949H729.026C728.705 196.263 728.441 194.459 728.235 192.561L747.907 192.24C747.699 194.249 747.424 196.163 747.086 197.942H756.803C758.39 197.956 759.945 197.501 761.273 196.633C762.602 195.765 763.643 194.524 764.268 193.066L764.296 192.935C766.514 187.655 767.649 181.983 767.632 176.256V131.578C767.642 124.729 767.36 117.885 766.708 111.067Z" fill="white"/>
<path d="M585.649 229.432C594.176 229.432 601.089 215.843 601.089 199.081C601.089 182.318 594.176 168.729 585.649 168.729C577.122 168.729 570.209 182.318 570.209 199.081C570.209 215.843 577.122 229.432 585.649 229.432Z" fill="#222222"/>
<path d="M585.649 168.675H569.503C560.976 168.675 554.063 182.291 554.063 199.055C554.063 215.734 560.912 229.291 569.383 229.419L585.549 229.799H585.647C594.174 229.799 601.087 216.001 601.087 199.237C601.087 182.473 594.176 168.675 585.649 168.675Z" fill="white"/>
<path d="M585.649 230.648H585.544L569.378 230.197C560.627 230.066 553.504 216.158 553.504 199.196C553.504 193.053 554.428 187.136 556.173 182.078C556.192 182.002 556.227 181.931 556.275 181.869C556.323 181.807 556.383 181.756 556.452 181.719C556.521 181.682 556.597 181.66 556.675 181.653C556.753 181.647 556.831 181.657 556.905 181.683C556.979 181.709 557.047 181.749 557.104 181.803C557.162 181.856 557.207 181.921 557.238 181.993C557.269 182.065 557.285 182.142 557.284 182.22C557.284 182.299 557.267 182.376 557.235 182.447C555.521 187.387 554.628 193.179 554.628 199.196C554.628 215.545 561.251 228.945 569.393 229.065L585.559 229.517H585.639C591.541 229.517 596.899 222.391 599.288 211.364C599.299 211.288 599.327 211.214 599.368 211.149C599.409 211.083 599.463 211.027 599.527 210.983C599.591 210.939 599.663 210.909 599.739 210.894C599.815 210.879 599.893 210.88 599.969 210.896C600.045 210.913 600.116 210.945 600.179 210.99C600.242 211.035 600.295 211.093 600.335 211.159C600.375 211.226 600.4 211.299 600.411 211.376C600.421 211.453 600.415 211.531 600.394 211.606C597.9 223.173 592.108 230.648 585.649 230.648Z" fill="#222222"/>
<path d="M789.739 198.365H745.844V205.866H789.739V198.365Z" fill="white"/>
<path d="M789.739 206.433H745.844C745.769 206.433 745.696 206.418 745.627 206.39C745.558 206.361 745.496 206.319 745.443 206.267C745.39 206.214 745.348 206.151 745.32 206.083C745.291 206.014 745.277 205.94 745.277 205.866V198.357C745.277 198.283 745.291 198.209 745.32 198.14C745.348 198.071 745.39 198.009 745.443 197.956C745.496 197.904 745.558 197.862 745.627 197.833C745.696 197.805 745.769 197.79 745.844 197.79H789.739C789.814 197.788 789.889 197.802 789.96 197.83C790.03 197.857 790.094 197.899 790.147 197.952C790.201 198.005 790.244 198.068 790.273 198.137C790.302 198.207 790.317 198.282 790.316 198.357V205.855C790.318 205.932 790.304 206.008 790.276 206.078C790.248 206.149 790.205 206.214 790.151 206.268C790.097 206.321 790.033 206.364 789.962 206.392C789.891 206.421 789.815 206.434 789.739 206.433ZM746.411 205.299H789.172V198.932H746.411V205.299Z" fill="#222222"/>
<path d="M828.541 132.042H700.948V199.368H828.541V132.042Z" fill="white"/>
<path d="M828.551 199.935H700.948C700.798 199.935 700.654 199.876 700.548 199.77C700.441 199.664 700.381 199.52 700.381 199.37V132.042C700.381 131.967 700.395 131.894 700.424 131.825C700.452 131.757 700.494 131.694 700.547 131.642C700.6 131.589 700.662 131.548 700.731 131.52C700.8 131.491 700.873 131.477 700.948 131.477H828.551C828.625 131.477 828.699 131.491 828.768 131.52C828.836 131.548 828.899 131.589 828.952 131.642C829.004 131.694 829.046 131.757 829.075 131.825C829.103 131.894 829.118 131.967 829.118 132.042V199.383C829.114 199.531 829.052 199.671 828.946 199.774C828.84 199.877 828.699 199.935 828.551 199.935ZM701.53 198.803H827.994V132.599H701.512L701.53 198.803Z" fill="#222222"/>
<path d="M835.058 170.454H755.243V0.566895L835.058 5.18326V170.454Z" fill="white"/>
<path d="M835.058 171.018H755.253C755.103 171.018 754.959 170.958 754.852 170.852C754.746 170.746 754.686 170.601 754.686 170.451V0.566866C754.686 0.489337 754.702 0.41261 754.733 0.34151C754.764 0.27041 754.809 0.206476 754.866 0.153728C754.92 0.101238 754.985 0.0604773 755.055 0.0339876C755.126 0.00749791 755.201 -0.00415227 755.277 -0.000236234L835.081 4.61869C835.226 4.62658 835.362 4.68952 835.461 4.79455C835.56 4.89957 835.615 5.03869 835.615 5.18323V34.5391C835.62 34.6166 835.61 34.6944 835.584 34.7675C835.557 34.8407 835.517 34.9078 835.464 34.9645C835.411 35.0212 835.346 35.0665 835.275 35.0974C835.204 35.1283 835.127 35.1443 835.049 35.1443C834.972 35.1443 834.895 35.1283 834.824 35.0974C834.752 35.0665 834.688 35.0212 834.635 34.9645C834.582 34.9078 834.541 34.8407 834.515 34.7675C834.489 34.6944 834.478 34.6166 834.484 34.5391V5.71697L755.81 1.16476V169.887H834.494V99.3067C834.489 99.2292 834.499 99.1515 834.525 99.0783C834.551 99.0051 834.592 98.9381 834.645 98.8813C834.698 98.8246 834.763 98.7793 834.834 98.7484C834.905 98.7175 834.982 98.7015 835.06 98.7015C835.137 98.7015 835.214 98.7175 835.285 98.7484C835.357 98.7793 835.421 98.8246 835.474 98.8813C835.527 98.9381 835.568 99.0051 835.594 99.0783C835.62 99.1515 835.631 99.2292 835.625 99.3067V170.451C835.625 170.526 835.611 170.599 835.582 170.668C835.554 170.737 835.512 170.799 835.459 170.852C835.407 170.905 835.344 170.946 835.275 170.975C835.207 171.003 835.133 171.018 835.058 171.018Z" fill="#222222"/>
<path d="M754.982 0.566895H606.514V168.778H754.982V0.566895Z" fill="white"/>
<path d="M754.982 169.343H606.514C606.44 169.343 606.366 169.328 606.297 169.3C606.229 169.272 606.166 169.23 606.114 169.178C606.061 169.125 606.02 169.063 605.992 168.994C605.963 168.926 605.949 168.852 605.949 168.778V160.379C605.959 160.236 606.023 160.101 606.128 160.003C606.233 159.905 606.371 159.85 606.515 159.85C606.659 159.85 606.797 159.905 606.902 160.003C607.007 160.101 607.071 160.236 607.081 160.379V168.219H754.417V1.13139H607.081V40.3333C607.086 40.4108 607.075 40.4885 607.049 40.5617C607.023 40.6349 606.982 40.7019 606.929 40.7587C606.876 40.8154 606.812 40.8607 606.741 40.8916C606.67 40.9225 606.593 40.9385 606.515 40.9385C606.437 40.9385 606.361 40.9225 606.289 40.8916C606.218 40.8607 606.154 40.8154 606.101 40.7587C606.048 40.7019 606.007 40.6349 605.981 40.5617C605.955 40.4885 605.944 40.4108 605.949 40.3333V0.566858C605.949 0.492506 605.963 0.41882 605.992 0.350031C606.02 0.281242 606.061 0.218705 606.114 0.166011C606.166 0.113317 606.229 0.0715036 606.297 0.0429727C606.366 0.0144418 606.439 -0.000244909 606.514 -0.000244141L754.982 -0.000244141C755.132 -0.000244141 755.276 0.0595039 755.383 0.165856C755.489 0.272208 755.549 0.416453 755.549 0.566858V168.778C755.549 168.852 755.534 168.926 755.505 168.995C755.477 169.063 755.435 169.126 755.382 169.178C755.33 169.231 755.267 169.272 755.198 169.3C755.13 169.329 755.056 169.343 754.982 169.343Z" fill="#222222"/>
<path d="M558.913 96.5842L560.997 126.14H554.89C553.59 126.14 552.304 125.884 551.103 125.387C549.903 124.889 548.812 124.16 547.894 123.241C546.975 122.322 546.247 121.231 545.751 120.03C545.254 118.829 544.999 117.542 545 116.243L545.013 98.537C545.013 97.9121 545.137 97.2934 545.377 96.7165C545.617 96.1396 545.969 95.6159 546.413 95.1754C546.856 94.735 547.382 94.3865 547.96 94.15C548.539 93.9136 549.158 93.7937 549.783 93.7974L555.595 93.8282C556.382 93.833 557.142 94.1102 557.747 94.6128C558.352 95.1153 558.764 95.812 558.913 96.5842Z" fill="#222222"/>
<path d="M576.442 109.599L551.751 108.296L551.862 102.856H576.442V109.599Z" fill="#222222"/>
<path d="M738.266 90.1304C735.477 100.98 731.995 115.386 730.201 124.772C730.146 125.057 730.165 125.35 730.256 125.625C730.346 125.9 730.506 126.147 730.719 126.342C730.933 126.538 731.193 126.676 731.474 126.742C731.756 126.809 732.05 126.802 732.328 126.723C734.901 125.98 737.392 124.98 739.765 123.738C740.078 123.574 740.338 123.323 740.515 123.017C740.691 122.71 740.777 122.36 740.763 122.006L739.48 90.2613C739.488 90.1816 739.481 90.101 739.459 90.0241C739.436 89.9471 739.399 89.8754 739.348 89.813C739.298 89.7506 739.236 89.6986 739.166 89.6602C739.095 89.6218 739.018 89.5976 738.938 89.589C738.859 89.5804 738.778 89.5876 738.701 89.6101C738.624 89.6327 738.553 89.6702 738.49 89.7205C738.428 89.7707 738.376 89.8328 738.337 89.9031C738.299 89.9735 738.275 90.0507 738.266 90.1304Z" fill="#222222"/>
<path d="M769.734 123.294H763.886C762.946 123.297 762.032 122.986 761.289 122.411C760.545 121.836 760.015 121.03 759.78 120.12L757.489 111.249C756.388 106.965 756.587 102.451 758.061 98.2802L758.869 95.9887C759.377 94.55 760.318 93.3043 761.564 92.4232C762.809 91.5421 764.298 91.0692 765.823 91.0696H768.854C770.277 91.0699 771.651 91.5926 772.715 92.5385C773.779 93.4845 774.458 94.788 774.625 96.2017L776.873 115.27C776.991 116.278 776.895 117.299 776.59 118.267C776.286 119.235 775.779 120.127 775.105 120.885C774.431 121.643 773.603 122.25 772.678 122.665C771.752 123.08 770.749 123.295 769.734 123.294Z" fill="#222222"/>
<path d="M761.032 107.659L737.427 107.516L738.081 100.833L761.689 100.977L761.032 107.659Z" fill="#222222"/>
<path d="M762.587 122.391L738.905 123.556V116.841L762.587 115.676V122.391Z" fill="#222222"/>
<path d="M766.708 111.067L760.593 46.2919C760.553 45.8025 760.33 45.3462 759.969 45.0135C759.607 44.6807 759.134 44.4959 758.643 44.4957L734.522 44.0569C692.705 43.2973 650.902 44.0346 609.111 46.2688C605.895 46.3136 602.76 47.2727 600.069 49.034C597.379 50.7953 595.246 53.286 593.919 56.2149L570.473 107.98L564.646 114.96C562.411 117.634 560.81 120.779 559.963 124.159L556.547 137.76C555.629 141.421 555.164 145.181 555.164 148.955V169.037C555.163 176.056 557.928 182.792 562.859 187.788C567.789 192.783 574.489 195.634 581.507 195.725L756.803 197.957C758.39 197.971 759.945 197.516 761.273 196.648C762.602 195.781 763.643 194.54 764.268 193.081L764.296 192.951C766.514 187.67 767.649 181.998 767.632 176.271V131.578C767.642 124.729 767.36 117.885 766.708 111.067Z" fill="white"/>
<path d="M699.665 203.251C699.665 189.027 695.793 177.495 691.017 177.495C690.451 177.503 689.896 177.659 689.408 177.947H681.967C681.127 177.974 680.322 178.289 679.688 178.84C679.055 178.29 678.252 177.974 677.414 177.947H668.374C663.599 177.947 659.726 189.253 659.726 203.477C659.726 217.636 663.576 229.012 668.307 229.119L690.963 229.037C690.981 229.035 690.999 229.035 691.017 229.037C695.793 229.037 699.665 217.723 699.665 203.497V203.264V203.251Z" fill="white"/>
<path d="M668.3 229.686C663.168 229.568 659.164 218.057 659.164 203.476C659.164 188.85 663.214 177.379 668.379 177.379H677.391C678.222 177.392 679.028 177.661 679.701 178.149C680.363 177.665 681.159 177.396 681.979 177.379H689.264C689.802 177.092 690.4 176.938 691.009 176.93C696.175 176.93 700.224 188.477 700.224 203.25V203.317L699.66 203.371L700.224 203.422V203.489C700.224 218.054 696.216 229.478 691.086 229.594C691.044 229.604 691 229.609 690.955 229.609L668.3 229.686ZM668.428 178.513C664.484 178.513 660.304 188.544 660.304 203.476C660.304 218.359 664.456 228.467 668.333 228.554L690.914 228.472C690.955 228.463 690.996 228.458 691.038 228.457C694.941 228.457 699.121 218.421 699.121 203.484V203.25C699.121 188.182 694.941 178.062 691.038 178.062C690.569 178.07 690.11 178.2 689.706 178.439C689.622 178.488 689.526 178.513 689.429 178.513H682.013C681.287 178.534 680.591 178.806 680.045 179.283C679.944 179.363 679.82 179.406 679.692 179.406C679.564 179.406 679.439 179.363 679.339 179.283C678.806 178.815 678.128 178.543 677.419 178.513H668.428Z" fill="#222222"/>
<path d="M659.488 166.317H590.815C588.845 166.317 586.903 165.862 585.138 164.988C583.373 164.114 581.834 162.844 580.64 161.278L578.074 157.913C577.213 156.785 576.689 155.435 576.562 154.021C576.436 152.607 576.712 151.186 577.358 149.923L583.917 137.092C585.218 134.544 587.197 132.404 589.637 130.91C592.077 129.416 594.882 128.625 597.743 128.624H653.37C656.268 128.625 659.108 129.437 661.568 130.967C664.029 132.498 666.012 134.686 667.294 137.285L673.232 149.304C673.826 150.506 674.089 151.845 673.993 153.183C673.896 154.521 673.444 155.808 672.683 156.913L670.019 160.782C668.843 162.489 667.271 163.884 665.436 164.849C663.602 165.813 661.56 166.317 659.488 166.317Z" fill="white"/>
<path d="M659.488 166.882H590.815C588.759 166.876 586.732 166.398 584.891 165.486C583.049 164.573 581.441 163.25 580.191 161.619L577.625 158.257C576.704 157.041 576.143 155.59 576.007 154.071C575.871 152.551 576.165 151.024 576.855 149.663L583.411 136.833C584.755 134.188 586.806 131.968 589.336 130.42C591.866 128.872 594.777 128.057 597.743 128.065H653.37C656.375 128.053 659.323 128.887 661.875 130.473C664.427 132.059 666.481 134.331 667.802 137.03L673.74 149.047C674.377 150.34 674.659 151.78 674.555 153.218C674.451 154.656 673.966 156.04 673.149 157.228L670.481 161.103C669.253 162.884 667.611 164.341 665.697 165.347C663.782 166.354 661.651 166.88 659.488 166.882ZM597.748 129.206C594.991 129.199 592.285 129.957 589.933 131.396C587.581 132.835 585.674 134.898 584.425 137.356L577.869 150.187C577.275 151.356 577.021 152.67 577.138 153.976C577.254 155.283 577.736 156.531 578.528 157.577L581.094 160.941C582.239 162.434 583.711 163.645 585.397 164.48C587.083 165.315 588.938 165.752 590.82 165.758H659.488C661.469 165.757 663.42 165.276 665.173 164.355C666.927 163.433 668.43 162.1 669.554 160.469L672.215 156.602C672.919 155.581 673.338 154.391 673.428 153.155C673.518 151.918 673.277 150.68 672.729 149.568L666.786 137.541C665.557 135.033 663.647 132.921 661.275 131.448C658.902 129.974 656.163 129.197 653.37 129.206H597.748Z" fill="#222222"/>
<path d="M722.362 186.71C722.708 162.075 729.603 142.455 738.058 142.455C746.737 142.455 753.77 163.084 753.77 188.644C753.78 193.907 753.467 199.165 752.834 204.39L722.362 186.71Z" fill="white"/>
<path d="M766.708 111.067L760.594 46.2916C760.553 45.8022 760.33 45.3459 759.969 45.0131C759.608 44.6804 759.134 44.4956 758.643 44.4954C755.048 44.4952 751.547 45.6389 748.645 47.761C745.743 49.8831 743.592 52.8734 742.503 56.2993L728.389 100.613C726.474 106.622 722.455 111.738 717.07 115.021L715.718 115.901C714.174 116.855 712.902 118.191 712.026 119.78C711.15 121.369 710.699 123.158 710.717 124.972V197.949C710.717 197.949 721.712 188.621 722.67 183.412C726.285 163.712 732.382 153.115 738.066 153.115C743.75 153.115 748.369 166.64 748.369 183.394C748.391 188.275 747.961 193.147 747.086 197.949H756.803C758.39 197.963 759.945 197.508 761.273 196.64C762.602 195.773 763.644 194.532 764.268 193.073L764.296 192.943C766.514 187.662 767.649 181.99 767.632 176.263V131.578C767.643 124.729 767.36 117.885 766.708 111.067Z" fill="white"/>
<path d="M710.706 198.514C710.625 198.515 710.544 198.497 710.47 198.462C710.372 198.417 710.289 198.345 710.231 198.254C710.173 198.163 710.142 198.057 710.142 197.949V124.98C710.12 123.068 710.594 121.183 711.518 119.509C712.442 117.835 713.783 116.428 715.413 115.427L716.752 114.554C722.027 111.338 725.964 106.327 727.84 100.441L741.954 56.1276C743.073 52.5838 745.294 49.4899 748.294 47.2965C751.295 45.1032 754.917 43.925 758.633 43.9336C759.263 43.9325 759.871 44.1678 760.336 44.593C760.801 45.0182 761.09 45.6025 761.145 46.2303L767.268 111.008C767.886 117.531 768.199 124.449 768.199 131.57V176.263C768.217 182.048 767.072 187.776 764.833 193.11L764.815 193.192C764.807 193.224 764.797 193.256 764.784 193.287C764.116 194.848 763.002 196.177 761.581 197.107C760.16 198.037 758.496 198.527 756.798 198.514H747.091C747.007 198.514 746.925 198.495 746.85 198.46C746.774 198.424 746.708 198.373 746.654 198.308C746.601 198.244 746.563 198.169 746.542 198.088C746.521 198.008 746.519 197.923 746.534 197.841C747.399 193.075 747.822 188.239 747.796 183.394C747.796 167.287 743.339 153.679 738.061 153.679C732.369 153.679 726.542 165.391 723.216 183.515C722.233 188.863 711.538 197.993 711.073 198.38C710.97 198.466 710.841 198.513 710.706 198.514ZM747.771 197.382H756.809C758.276 197.395 759.715 196.977 760.947 196.179C762.179 195.381 763.149 194.239 763.737 192.894L763.755 192.812C763.762 192.78 763.773 192.748 763.786 192.717C765.979 187.51 767.1 181.914 767.083 176.263V131.578C767.083 124.493 766.77 117.611 766.157 111.121L760.037 46.3457C760.01 45.9968 759.852 45.6708 759.595 45.433C759.338 45.1952 759.001 45.0629 758.651 45.0627C755.175 45.0547 751.787 46.1564 748.981 48.2075C746.175 50.2586 744.097 53.152 743.049 56.4663L728.936 100.78C726.978 106.918 722.873 112.144 717.373 115.499L716.036 116.371C714.566 117.271 713.354 118.538 712.521 120.047C711.687 121.556 711.26 123.256 711.281 124.98V196.7C713.929 194.334 721.361 187.392 722.11 183.31C725.592 164.336 731.707 152.548 738.069 152.548C744.163 152.548 748.938 166.097 748.938 183.394C748.956 188.082 748.566 192.762 747.771 197.382Z" fill="#222222"/>
<path d="M689.146 126.569C698.158 124.896 715.485 121.506 721.24 119.127C721.35 119.082 721.469 119.066 721.586 119.081C721.704 119.096 721.815 119.141 721.91 119.212C722.005 119.283 722.08 119.377 722.128 119.485C722.175 119.594 722.194 119.713 722.182 119.83L720.445 136.895C720.245 138.84 719.391 140.661 718.023 142.059C716.655 143.457 714.854 144.35 712.913 144.593L689.662 147.498C688.461 147.649 687.242 147.471 686.134 146.982C685.027 146.494 684.073 145.713 683.375 144.724L678.13 137.305C677.793 136.829 677.621 136.254 677.642 135.671C677.662 135.087 677.873 134.527 678.243 134.075L679.926 132.022C682.257 129.17 685.524 127.237 689.146 126.569Z" fill="white"/>
<path d="M688.828 148.137C687.671 148.135 686.531 147.856 685.504 147.322C684.477 146.788 683.593 146.016 682.926 145.07L677.666 137.654C677.259 137.075 677.052 136.379 677.077 135.672C677.101 134.965 677.356 134.285 677.802 133.736L679.485 131.683C681.9 128.725 685.285 126.718 689.039 126.02C698.566 124.244 715.387 120.936 721.032 118.614C721.232 118.532 721.45 118.503 721.664 118.53C721.879 118.557 722.083 118.639 722.256 118.768C722.429 118.897 722.566 119.069 722.653 119.267C722.74 119.465 722.774 119.682 722.752 119.897L721.017 136.961C720.813 139.039 719.906 140.985 718.447 142.478C716.987 143.971 715.063 144.921 712.99 145.173L689.726 148.08C689.428 148.118 689.128 148.137 688.828 148.137ZM721.505 119.653C721.489 119.649 721.472 119.649 721.456 119.653C715.721 122.014 698.815 125.342 689.249 127.118C685.758 127.766 682.61 129.631 680.365 132.381L678.692 134.462C678.402 134.819 678.236 135.261 678.219 135.721C678.203 136.181 678.338 136.634 678.602 137.01L683.847 144.429C684.486 145.334 685.36 146.049 686.373 146.496C687.387 146.943 688.504 147.105 689.603 146.967L712.854 144.062C714.672 143.841 716.361 143.007 717.64 141.696C718.92 140.386 719.715 138.679 719.893 136.856L721.628 119.792C721.631 119.771 721.629 119.75 721.621 119.731C721.612 119.712 721.599 119.696 721.582 119.684C721.561 119.663 721.534 119.651 721.505 119.651V119.653Z" fill="#222222"/>
<path d="M556.365 138.596C556.05 139.856 556.232 141.189 556.874 142.319C557.516 143.448 558.568 144.287 559.811 144.662L568.89 147.392C569.566 147.571 570.283 147.522 570.928 147.253C571.574 146.984 572.113 146.51 572.462 145.904L577.851 136.53C578.28 135.783 578.521 134.944 578.554 134.083C578.587 133.223 578.411 132.368 578.041 131.59L577.982 131.467C577.508 130.468 576.829 129.581 575.989 128.862C575.149 128.144 574.166 127.61 573.106 127.297C568.993 126.107 565.046 124.402 561.359 122.224C561.27 122.169 561.169 122.136 561.065 122.128C560.961 122.119 560.857 122.135 560.76 122.174C560.663 122.213 560.577 122.275 560.509 122.353C560.44 122.432 560.391 122.526 560.366 122.627L556.365 138.596Z" fill="white"/>
<path d="M569.701 148.062C569.379 148.063 569.058 148.021 568.746 147.939L559.65 145.203C558.265 144.789 557.094 143.856 556.38 142.599C555.666 141.343 555.464 139.859 555.816 138.457L559.809 122.489C559.856 122.301 559.947 122.128 560.073 121.982C560.2 121.836 560.359 121.722 560.538 121.649C560.717 121.576 560.91 121.547 561.103 121.562C561.295 121.578 561.481 121.638 561.646 121.739C565.289 123.897 569.191 125.585 573.258 126.764C574.396 127.1 575.45 127.672 576.353 128.443C577.256 129.214 577.986 130.165 578.497 131.236L578.554 131.354C578.963 132.215 579.157 133.162 579.121 134.114C579.084 135.067 578.817 135.996 578.343 136.823L572.955 146.196C572.624 146.765 572.149 147.237 571.577 147.565C571.006 147.892 570.359 148.064 569.701 148.062ZM561.005 122.691C560.991 122.688 560.977 122.688 560.963 122.691C560.95 122.697 560.937 122.706 560.928 122.717C560.918 122.728 560.911 122.741 560.907 122.755L556.914 138.732C556.632 139.851 556.792 141.037 557.363 142.041C557.933 143.045 558.869 143.79 559.976 144.121L569.054 146.851C569.608 146.994 570.193 146.951 570.72 146.73C571.247 146.508 571.687 146.12 571.972 145.624L577.361 136.25C577.745 135.583 577.961 134.833 577.991 134.063C578.021 133.294 577.864 132.529 577.533 131.834L577.474 131.716C577.033 130.788 576.402 129.964 575.621 129.296C574.84 128.629 573.927 128.134 572.942 127.844C568.781 126.641 564.789 124.917 561.061 122.712C561.045 122.699 561.025 122.692 561.005 122.691Z" fill="#222222"/>
<path d="M746.775 60.7796C743.75 70.99 734.915 101.539 730.527 124.549C730.474 124.833 730.494 125.125 730.586 125.399C730.678 125.672 730.839 125.918 731.053 126.112C731.267 126.305 731.526 126.441 731.808 126.506C732.089 126.571 732.382 126.562 732.659 126.481C739.588 124.485 757.861 116.987 757.345 93.4688C756.924 74.2232 756.734 64.3464 756.657 59.8866C756.65 59.4822 756.561 59.0834 756.396 58.7143C756.23 58.3452 755.992 58.0134 755.695 57.7389C755.398 57.4644 755.048 57.2528 754.667 57.117C754.286 56.9811 753.882 56.9238 753.478 56.9484L751.448 57.0716C750.383 57.1346 749.362 57.5244 748.526 58.1878C747.69 58.8513 747.079 59.7563 746.775 60.7796Z" fill="white"/>
<path d="M732.179 127.115C731.85 127.114 731.524 127.041 731.225 126.9C730.927 126.76 730.663 126.555 730.452 126.302C730.241 126.048 730.088 125.751 730.005 125.432C729.921 125.112 729.908 124.779 729.968 124.454C734.415 101.162 743.542 69.7148 746.234 60.6309C746.573 59.4988 747.251 58.4981 748.178 57.7639C749.104 57.0297 750.233 56.5973 751.412 56.5252L753.442 56.402C753.92 56.3736 754.399 56.4418 754.849 56.6026C755.3 56.7634 755.714 57.0134 756.066 57.3377C756.418 57.662 756.702 58.054 756.899 58.4902C757.096 58.9264 757.203 59.3979 757.214 59.8765C757.288 64.0464 757.471 73.9565 757.904 93.4587C758.418 117.067 740.527 124.801 732.808 127.025C732.604 127.084 732.392 127.114 732.179 127.115ZM753.66 57.5106H753.509L751.479 57.6337C750.531 57.6931 749.624 58.0418 748.88 58.6328C748.136 59.2238 747.591 60.0287 747.319 60.9388C744.63 70.0099 735.515 101.411 731.081 124.652C731.044 124.838 731.055 125.03 731.115 125.21C731.175 125.391 731.281 125.552 731.422 125.678C731.565 125.81 731.739 125.903 731.928 125.948C732.116 125.993 732.314 125.989 732.5 125.935C739.965 123.782 757.276 116.312 756.775 93.4792C756.349 73.9771 756.162 64.0643 756.088 59.8945C756.075 59.2582 755.815 58.652 755.361 58.2059C754.907 57.7598 754.296 57.5092 753.66 57.508V57.5106Z" fill="#222222"/>
<path d="M812.962 178.229H788.62C783.845 178.229 779.972 189.394 779.972 203.617C779.972 217.777 783.809 229.083 788.553 229.191L812.908 229.068C812.924 229.055 812.942 229.045 812.962 229.04C817.74 229.04 821.612 217.859 821.612 203.635C821.612 189.412 817.74 178.229 812.962 178.229Z" fill="white"/>
<path d="M788.546 229.756C783.414 229.64 779.411 218.16 779.411 203.618C779.411 189.076 783.46 177.665 788.625 177.665H812.967C818.135 177.665 822.182 189.071 822.182 203.633C822.182 218.067 818.207 229.399 813.106 229.602C813.045 229.623 812.98 229.635 812.916 229.635L788.546 229.756ZM788.661 178.796C784.717 178.796 780.537 188.771 780.537 203.618C780.537 218.465 784.689 228.537 788.566 228.624L812.772 228.504C812.833 228.483 812.897 228.473 812.962 228.473C816.865 228.473 821.045 218.491 821.045 203.633C821.045 188.776 816.865 178.796 812.962 178.796H788.661Z" fill="#222222"/>
<path d="M812.962 220.8C816.217 220.8 818.856 212.943 818.856 203.251C818.856 193.558 816.217 185.701 812.962 185.701C809.707 185.701 807.068 193.558 807.068 203.251C807.068 212.943 809.707 220.8 812.962 220.8Z" fill="white"/>
<path d="M812.962 221.367C808.918 221.367 806.503 212.158 806.503 203.251C806.503 194.344 808.918 185.137 812.962 185.137C817.006 185.137 819.421 194.347 819.421 203.251C819.421 212.155 817.004 221.367 812.962 221.367ZM812.962 186.269C810.442 186.269 807.635 193.243 807.635 203.251C807.635 213.259 810.442 220.236 812.962 220.236C815.482 220.236 818.287 213.261 818.287 203.251C818.287 193.241 815.482 186.269 812.962 186.269Z" fill="#222222"/>
<path d="M756.809 198.514L581.505 196.281C566.67 196.094 554.605 183.872 554.605 169.037V148.955C554.605 145.134 555.075 141.327 556.003 137.621L559.414 124.021C560.286 120.559 561.926 117.338 564.212 114.595L569.991 107.682L593.406 56.0018C594.785 52.981 596.991 50.4124 599.769 48.5932C602.547 46.774 605.783 45.7786 609.103 45.7221C650.673 43.4999 692.885 42.7558 734.535 43.5127L758.656 43.949C759.285 43.9498 759.89 44.1861 760.353 44.6111C760.816 45.0362 761.104 45.6194 761.158 46.2456L767.281 111.024C767.899 117.546 768.212 124.465 768.212 131.585V176.263C768.23 182.048 767.085 187.776 764.846 193.11L764.828 193.192C764.82 193.224 764.81 193.256 764.797 193.287C764.129 194.848 763.014 196.178 761.593 197.108C760.172 198.038 758.507 198.527 756.809 198.514ZM702.898 44.3493C671.628 44.3493 640.217 45.1858 609.141 46.8461C606.033 46.8948 603.002 47.8231 600.399 49.5234C597.797 51.2237 595.729 53.6265 594.435 56.4534L570.989 108.214C570.968 108.26 570.941 108.303 570.91 108.342L565.079 115.314C562.903 117.928 561.342 120.997 560.512 124.295L557.102 137.895C556.195 141.511 555.737 145.225 555.736 148.953V169.035C555.736 183.253 567.302 194.967 581.52 195.147L756.814 197.38C758.281 197.393 759.721 196.975 760.953 196.177C762.184 195.379 763.154 194.236 763.742 192.891L763.76 192.809C763.768 192.777 763.778 192.745 763.791 192.714C765.984 187.507 767.106 181.911 767.088 176.261V131.578C767.088 124.493 766.775 117.611 766.162 111.121L760.037 46.3457C760.01 45.9967 759.852 45.6708 759.595 45.4329C759.338 45.1951 759.001 45.0629 758.651 45.0626L734.53 44.6238C724.014 44.4408 713.47 44.3493 702.898 44.3493Z" fill="#222222"/>
<path d="M769.493 184.634C770.234 181.791 770.724 178.889 770.955 175.96L771.468 169.44C771.504 168.988 771.446 168.534 771.298 168.105C771.149 167.677 770.914 167.284 770.607 166.951C770.299 166.618 769.926 166.352 769.511 166.17C769.096 165.988 768.647 165.894 768.194 165.894L740.499 165.699C742.846 170.541 744.951 172.835 748.795 186.091L767.488 186.179C767.947 186.182 768.394 186.032 768.757 185.752C769.12 185.472 769.379 185.078 769.493 184.634Z" fill="white"/>
<path d="M767.494 186.745L748.8 186.658C748.678 186.657 748.559 186.616 748.461 186.542C748.364 186.468 748.293 186.365 748.258 186.248C745.251 175.873 743.342 172.301 741.494 168.844C741.007 167.931 740.504 166.987 739.998 165.945C739.956 165.858 739.936 165.762 739.941 165.666C739.946 165.57 739.976 165.476 740.028 165.395C740.079 165.313 740.15 165.246 740.235 165.2C740.32 165.154 740.415 165.13 740.511 165.131L768.207 165.326C768.739 165.327 769.264 165.437 769.751 165.651C770.237 165.864 770.674 166.176 771.035 166.567C771.395 166.958 771.67 167.419 771.843 167.921C772.016 168.424 772.084 168.956 772.041 169.486L771.528 176.004C771.291 178.966 770.794 181.902 770.044 184.777C769.897 185.341 769.567 185.841 769.105 186.197C768.644 186.553 768.077 186.746 767.494 186.745ZM749.218 185.527L767.491 185.614C767.824 185.614 768.146 185.503 768.409 185.3C768.672 185.096 768.86 184.812 768.944 184.49C769.676 181.679 770.159 178.809 770.388 175.914L770.901 169.396C770.931 169.022 770.883 168.646 770.76 168.291C770.637 167.937 770.442 167.611 770.188 167.336C769.934 167.06 769.625 166.839 769.281 166.688C768.938 166.537 768.567 166.459 768.192 166.458L741.415 166.281C741.769 166.979 742.12 167.636 742.485 168.321C744.335 171.772 746.247 175.349 749.218 185.527Z" fill="#222222"/>
<path d="M751.079 202.055C751.079 185.293 744.166 171.703 735.639 171.703C735.526 171.703 735.415 171.703 735.305 171.721H719.493C710.966 171.721 704.053 185.301 704.053 202.065C704.053 218.745 710.902 232.286 719.372 232.411L735.639 232.429C744.166 232.429 751.079 218.829 751.079 202.075V202.055Z" fill="white"/>
<path d="M735.638 232.999L719.364 232.978C710.609 232.847 703.486 218.98 703.486 202.067C703.486 185.013 710.665 171.156 719.493 171.156H735.387C735.472 171.156 735.554 171.156 735.644 171.156C744.468 171.156 751.648 185.026 751.648 202.073V202.088C751.643 219.124 744.463 232.999 735.638 232.999ZM719.493 172.286C711.281 172.286 704.61 185.645 704.61 202.065C704.61 218.365 711.233 231.723 719.372 231.831L735.631 231.852C743.842 231.852 750.514 218.488 750.514 202.062V202.042C750.514 185.619 743.842 172.257 735.631 172.257C735.572 172.257 735.513 172.257 735.456 172.257H735.32L719.493 172.286Z" fill="#222222"/>
<path d="M750.052 213.522C750.016 213.525 749.98 213.525 749.944 213.522C749.871 213.508 749.802 213.48 749.74 213.439C749.678 213.398 749.624 213.345 749.583 213.283C749.541 213.221 749.513 213.152 749.498 213.079C749.483 213.006 749.483 212.931 749.498 212.858C750.186 209.302 750.529 205.687 750.524 202.065C750.524 185.642 743.852 172.281 735.641 172.281C735.436 172.281 735.23 172.281 735.028 172.306C734.882 172.312 734.739 172.261 734.63 172.164C734.521 172.068 734.453 171.933 734.441 171.787C734.428 171.642 734.473 171.497 734.564 171.383C734.656 171.27 734.788 171.196 734.933 171.177C735.169 171.157 735.405 171.149 735.641 171.149C744.466 171.149 751.646 185.019 751.646 202.065C751.657 205.759 751.313 209.445 750.619 213.073C750.592 213.203 750.52 213.318 750.417 213.4C750.313 213.482 750.184 213.525 750.052 213.522Z" fill="#222222"/>
<path d="M735.638 222.735C741.449 222.735 746.159 213.476 746.159 202.055C746.159 190.633 741.449 181.375 735.638 181.375C729.828 181.375 725.118 190.633 725.118 202.055C725.118 213.476 729.828 222.735 735.638 222.735Z" fill="white"/>
<path d="M735.639 223.302C729.526 223.302 724.551 213.771 724.551 202.055C724.551 190.338 729.526 180.808 735.639 180.808C741.751 180.808 746.724 190.341 746.724 202.055C746.724 213.769 741.751 223.302 735.639 223.302ZM735.639 181.942C730.15 181.942 725.685 190.964 725.685 202.055C725.685 213.145 730.15 222.17 735.639 222.17C741.127 222.17 745.592 213.148 745.592 202.055C745.592 190.962 741.127 181.934 735.639 181.934V181.942Z" fill="#222222"/>
<path d="M706 107.849H581.564C580.961 107.849 580.369 107.698 579.84 107.411C579.31 107.123 578.862 106.707 578.534 106.202C578.207 105.696 578.011 105.117 577.964 104.516C577.918 103.916 578.023 103.313 578.269 102.763L596.835 61.3288C598.341 57.9699 601.099 55.6065 605.269 55.5295L612.346 55.1395C652.497 52.9361 692.69 52.4776 732.926 53.7641C733.369 53.7783 733.803 53.8947 734.193 54.1042C734.584 54.3138 734.92 54.6108 735.177 54.9721C735.434 55.3333 735.603 55.749 735.673 56.1867C735.742 56.6244 735.709 57.0722 735.577 57.4951L723.922 94.6878C722.725 98.5039 720.341 101.838 717.118 104.206C713.895 106.573 710 107.849 706 107.849Z" fill="white"/>
<path d="M706 108.416H581.564C580.867 108.416 580.181 108.242 579.569 107.909C578.956 107.577 578.437 107.096 578.058 106.511C577.679 105.926 577.453 105.255 577.4 104.56C577.346 103.865 577.468 103.168 577.753 102.532L596.321 61.1004C598.059 57.2205 601.235 55.0419 605.262 54.9675L612.318 54.5774C652.323 52.3706 692.911 51.9062 732.957 53.1969C733.487 53.2143 734.006 53.354 734.473 53.605C734.941 53.8561 735.344 54.2117 735.651 54.6441C735.958 55.0766 736.162 55.5742 736.245 56.0981C736.328 56.622 736.289 57.158 736.131 57.6644L724.461 94.8545C723.24 98.7931 720.788 102.236 717.465 104.677C714.142 107.118 710.124 108.429 706 108.416ZM688.554 53.6306C663.114 53.6306 637.625 54.3285 612.367 55.7219L605.303 56.0991C600.714 56.1838 598.451 59.1194 597.348 61.5649L578.785 102.994C578.577 103.458 578.489 103.966 578.528 104.473C578.567 104.979 578.732 105.468 579.008 105.895C579.285 106.321 579.663 106.672 580.109 106.914C580.556 107.157 581.056 107.284 581.564 107.285H706C709.882 107.296 713.666 106.063 716.795 103.765C719.923 101.467 722.233 98.226 723.383 94.5183L735.038 57.3283C735.145 56.9884 735.171 56.6284 735.116 56.2765C735.06 55.9246 734.924 55.5903 734.718 55.2998C734.511 55.0093 734.241 54.7705 733.927 54.602C733.613 54.4335 733.264 54.3399 732.908 54.3285C718.179 53.8547 703.394 53.622 688.554 53.6306Z" fill="#222222"/>
<path d="M725.426 63.2533C725.426 63.2533 669.144 62.7067 638.885 64.1514L636.506 64.1873C633.727 64.2311 631.076 65.3663 629.127 67.3478C627.178 69.3292 626.086 71.9979 626.088 74.7775V81.8368C626.087 86.4538 627.887 90.8891 631.104 94.2001L631.205 94.3053C632.545 95.6857 634.149 96.783 635.921 97.5323C637.694 98.2816 639.598 98.6677 641.523 98.6676H644.474L648.556 83.7844C648.847 82.726 649.477 81.7924 650.35 81.1271C651.223 80.4618 652.291 80.1017 653.388 80.1021H666.837C667.495 80.1018 668.147 80.2311 668.755 80.4826C669.363 80.7342 669.915 81.1031 670.381 81.5683C670.846 82.0334 671.215 82.5857 671.467 83.1936C671.719 83.8015 671.849 84.4531 671.849 85.1111V98.6573H699.734L703.817 83.7741C704.107 82.7157 704.738 81.7821 705.611 81.1168C706.484 80.4516 707.551 80.0914 708.649 80.0918H722.092C722.134 80.0911 722.176 80.0972 722.215 80.1098L727.424 65.691C727.853 64.5106 726.857 63.2943 725.426 63.2533Z" fill="white"/>
<path d="M699.734 99.2348H671.849C671.698 99.2348 671.554 99.175 671.448 99.0687C671.341 98.9623 671.281 98.8181 671.281 98.6677V85.1214C671.28 83.943 670.811 82.8134 669.978 81.9802C669.145 81.147 668.015 80.6783 666.837 80.6769H653.393C652.42 80.6793 651.474 81.0001 650.701 81.5904C649.927 82.1807 649.367 83.0081 649.108 83.9461L645.025 98.8293C644.992 98.9488 644.921 99.0542 644.822 99.1293C644.723 99.2044 644.603 99.245 644.479 99.245H641.528C639.529 99.2403 637.551 98.8368 635.709 98.0583C633.868 97.2797 632.2 96.1417 630.804 94.7108L630.702 94.6056C627.374 91.1934 625.516 86.6132 625.526 81.8471V74.7775C625.541 71.8571 626.697 69.0582 628.746 66.9774C630.795 64.8966 633.576 63.6984 636.496 63.6382L638.874 63.5997C668.787 62.1653 724.869 62.6913 725.431 62.6965C725.871 62.7004 726.304 62.8084 726.695 63.0118C727.086 63.2152 727.423 63.5081 727.679 63.8666C727.881 64.1601 728.01 64.4979 728.054 64.8515C728.099 65.2052 728.058 65.5644 727.935 65.8989L722.752 80.3177C722.704 80.4542 722.605 80.567 722.476 80.6325C722.347 80.698 722.197 80.7111 722.059 80.6692H708.651C707.678 80.6707 706.731 80.9912 705.958 81.5816C705.184 82.1721 704.624 82.9999 704.366 83.9384L700.283 98.8216C700.249 98.9407 700.177 99.0453 700.077 99.1198C699.978 99.1943 699.858 99.2346 699.734 99.2348ZM672.41 98.1031H699.303L703.273 83.6536C703.597 82.4736 704.301 81.4329 705.274 80.6912C706.247 79.9495 707.438 79.5478 708.661 79.5479H721.828L726.891 65.5089C726.952 65.3419 726.971 65.1627 726.947 64.9866C726.924 64.8105 726.858 64.6428 726.755 64.4979C726.6 64.2886 726.398 64.1185 726.165 64.0014C725.933 63.8842 725.676 63.8231 725.415 63.823C724.584 63.823 668.736 63.2969 638.91 64.7262L636.514 64.7647C633.89 64.8189 631.392 65.8953 629.551 67.7647C627.71 69.6341 626.672 72.1486 626.657 74.7724V81.8317C626.649 86.3036 628.393 90.6008 631.515 93.8024L631.618 93.9076C632.908 95.2298 634.449 96.2814 636.151 97.0009C637.852 97.7205 639.68 98.0934 641.528 98.098H644.05L648.017 83.6536C648.342 82.4736 649.045 81.4329 650.019 80.6912C650.992 79.9495 652.182 79.5478 653.406 79.5479H666.837C668.315 79.5492 669.733 80.1371 670.778 81.1826C671.824 82.228 672.412 83.6455 672.413 85.1239L672.41 98.1031Z" fill="#222222"/>
<path d="M711.566 206.805H568.785C567.051 206.805 565.336 206.454 563.741 205.773C562.147 205.092 560.707 204.095 559.508 202.843L558.382 201.668C555.504 198.663 553.581 194.872 552.857 190.775L549.94 174.28C549.79 173.431 549.812 172.561 550.003 171.721C550.194 170.881 550.551 170.087 551.053 169.386L555.113 163.741L574.541 166.443C576.986 166.783 579.3 167.756 581.253 169.266L582.182 169.987C583.536 171.034 585.2 171.603 586.912 171.603H663.942C665.739 171.603 667.479 170.977 668.864 169.833L669.3 169.474C671.602 167.571 674.447 166.447 677.427 166.261L735.22 162.689L725.446 192.153C724.143 196.081 722.152 199.746 719.565 202.976C719.565 202.976 716.508 206.805 711.566 206.805Z" fill="white"/>
<path d="M628.579 207.372H568.79C566.979 207.368 565.188 207 563.523 206.289C561.857 205.578 560.353 204.538 559.098 203.233L557.974 202.058C555.015 198.974 553.04 195.079 552.3 190.869L549.383 174.377C549.223 173.454 549.247 172.509 549.455 171.595C549.663 170.681 550.05 169.818 550.594 169.055L554.651 163.41C554.711 163.326 554.793 163.26 554.888 163.219C554.983 163.179 555.087 163.165 555.19 163.179L574.62 165.884C577.163 166.237 579.569 167.25 581.6 168.822L582.529 169.54C583.784 170.51 585.325 171.037 586.911 171.039H663.942C665.606 171.037 667.218 170.457 668.502 169.399L668.938 169.04C671.335 167.056 674.301 165.887 677.407 165.704L729.498 162.476C729.647 162.469 729.793 162.521 729.905 162.62C730.017 162.719 730.086 162.858 730.098 163.007C730.107 163.156 730.057 163.303 729.958 163.415C729.859 163.528 729.719 163.596 729.57 163.605L677.463 166.82C674.601 166.992 671.868 168.071 669.66 169.9L669.223 170.259C667.737 171.487 665.87 172.159 663.942 172.16H586.911C585.074 172.156 583.29 171.546 581.836 170.423L580.907 169.705C579.032 168.253 576.811 167.318 574.463 166.99L555.372 164.334L551.523 169.722C551.064 170.361 550.737 171.084 550.561 171.85C550.384 172.617 550.363 173.41 550.496 174.185L553.411 190.682C554.116 194.672 555.992 198.362 558.8 201.283L559.916 202.463C561.065 203.657 562.442 204.608 563.965 205.258C565.489 205.908 567.128 206.245 568.785 206.248H628.574C628.649 206.248 628.722 206.263 628.791 206.291C628.86 206.32 628.923 206.361 628.975 206.414C629.028 206.467 629.07 206.529 629.098 206.598C629.127 206.667 629.141 206.741 629.141 206.815C629.141 206.89 629.127 206.963 629.098 207.032C629.07 207.101 629.028 207.163 628.975 207.216C628.923 207.269 628.86 207.31 628.791 207.339C628.722 207.367 628.649 207.382 628.574 207.382L628.579 207.372Z" fill="#222222"/>
<path d="M711.566 207.372H674.479C674.328 207.372 674.184 207.312 674.078 207.206C673.971 207.099 673.912 206.955 673.912 206.805C673.912 206.654 673.971 206.51 674.078 206.404C674.184 206.297 674.328 206.238 674.479 206.238H711.566C712.992 206.234 714.397 205.9 715.672 205.262C715.808 205.196 715.965 205.187 716.108 205.237C716.251 205.286 716.368 205.391 716.434 205.527C716.5 205.663 716.509 205.82 716.46 205.963C716.41 206.106 716.306 206.223 716.17 206.289C714.738 206.998 713.163 207.368 711.566 207.372Z" fill="#222222"/>
<path d="M665.655 207.372H628.567C628.417 207.372 628.272 207.312 628.166 207.206C628.06 207.1 628 206.955 628 206.805C628 206.654 628.06 206.51 628.166 206.404C628.272 206.298 628.417 206.238 628.567 206.238H665.655V207.372Z" fill="#222222"/>
<path d="M678.655 207.372H641.567C641.417 207.372 641.272 207.312 641.166 207.206C641.06 207.1 641 206.955 641 206.805C641 206.654 641.06 206.51 641.166 206.404C641.272 206.298 641.417 206.238 641.567 206.238H678.655V207.372Z" fill="#222222"/>
<path d="M626.619 196.702H603.999C602.359 196.7 600.742 196.312 599.279 195.571C597.816 194.83 596.547 193.756 595.575 192.435L592.595 188.373C592.333 188.016 592.175 187.594 592.139 187.153C592.103 186.712 592.189 186.27 592.389 185.875C592.589 185.48 592.895 185.149 593.272 184.918C593.649 184.686 594.083 184.564 594.525 184.564H641.772C641.915 184.574 642.05 184.638 642.148 184.743C642.246 184.848 642.301 184.986 642.301 185.13C642.301 185.274 642.246 185.413 642.148 185.518C642.05 185.623 641.915 185.686 641.772 185.696H594.525C594.291 185.694 594.061 185.757 593.861 185.878C593.661 185.999 593.498 186.174 593.392 186.382C593.285 186.591 593.239 186.824 593.258 187.058C593.277 187.291 593.36 187.514 593.499 187.703L596.48 191.765C597.347 192.943 598.478 193.901 599.783 194.562C601.087 195.223 602.529 195.568 603.991 195.57H626.611C626.755 195.58 626.889 195.644 626.987 195.749C627.086 195.854 627.14 195.992 627.14 196.136C627.14 196.28 627.086 196.418 626.987 196.523C626.889 196.628 626.755 196.692 626.611 196.702H626.619Z" fill="#222222"/>
<path d="M625.682 196.702H648.302C649.942 196.7 651.559 196.312 653.022 195.571C654.485 194.83 655.754 193.756 656.726 192.435L659.705 188.373C659.967 188.016 660.125 187.594 660.162 187.153C660.198 186.712 660.112 186.27 659.912 185.875C659.712 185.48 659.406 185.149 659.029 184.918C658.652 184.686 658.218 184.564 657.776 184.564H610.529C610.386 184.574 610.251 184.638 610.153 184.743C610.055 184.848 610 184.986 610 185.13C610 185.274 610.055 185.413 610.153 185.518C610.251 185.623 610.386 185.686 610.529 185.696H657.776C658.01 185.694 658.239 185.757 658.44 185.878C658.64 185.999 658.802 186.174 658.909 186.382C659.015 186.591 659.062 186.824 659.043 187.058C659.024 187.291 658.941 187.514 658.802 187.703L655.82 191.765C654.953 192.943 653.822 193.901 652.518 194.562C651.213 195.223 649.772 195.568 648.309 195.57H625.689C625.546 195.58 625.411 195.644 625.313 195.749C625.215 195.854 625.16 195.992 625.16 196.136C625.16 196.28 625.215 196.418 625.313 196.523C625.411 196.628 625.546 196.692 625.689 196.702H625.682Z" fill="#222222"/>
<path d="M824.581 94.0796C839.995 94.0796 852.49 81.5845 852.49 66.171C852.49 50.7576 839.995 38.2625 824.581 38.2625C809.168 38.2625 796.672 50.7576 796.672 66.171C796.672 81.5845 809.168 94.0796 824.581 94.0796Z" fill="white"/>
<path d="M824.581 94.6443C818.948 94.6443 813.441 92.9738 808.757 89.844C804.073 86.7142 800.422 82.2657 798.266 77.061C796.11 71.8564 795.546 66.1293 796.645 60.6041C797.744 55.0788 800.457 50.0036 804.44 46.0201C808.424 42.0366 813.499 39.3238 819.024 38.2248C824.55 37.1258 830.277 37.6898 835.481 39.8457C840.686 42.0015 845.134 45.6523 848.264 50.3364C851.394 55.0204 853.065 60.5274 853.065 66.1609C853.058 73.7133 850.056 80.9546 844.715 86.2949C839.375 91.6353 832.134 94.6382 824.581 94.6443ZM824.581 38.8297C819.174 38.8297 813.887 40.4332 809.391 43.4375C804.895 46.4419 801.39 50.712 799.321 55.708C797.252 60.704 796.71 66.2015 797.765 71.5052C798.82 76.8089 801.424 81.6807 805.248 85.5045C809.072 89.3283 813.943 91.9323 819.247 92.9873C824.551 94.0423 830.048 93.5008 835.044 91.4314C840.04 89.362 844.31 85.8576 847.315 81.3613C850.319 76.865 851.923 71.5788 851.923 66.1712C851.915 58.9222 849.031 51.9726 843.906 46.8468C838.78 41.721 831.83 38.8378 824.581 38.8297Z" fill="#222222"/>
<path d="M824.581 48.2676C821.356 48.2635 818.261 49.5407 815.977 51.8183C813.693 54.0959 812.407 57.1874 812.403 60.4128C812.403 62.0884 813.172 64.4338 814.307 67.0076C817.183 73.4972 822.48 81.4443 824.099 83.8179C824.153 83.8963 824.225 83.9603 824.309 84.0046C824.393 84.0489 824.486 84.072 824.581 84.072C824.676 84.072 824.77 84.0489 824.854 84.0046C824.938 83.9603 825.01 83.8963 825.064 83.8179C827.324 80.5051 836.762 66.3173 836.762 60.4128C836.76 58.8155 836.443 57.2343 835.83 55.7595C835.216 54.2847 834.318 52.9452 833.187 51.8174C832.056 50.6896 830.714 49.7957 829.237 49.1866C827.761 48.5775 826.178 48.2652 824.581 48.2676Z" fill="#222222"/>
<path d="M828.35 64.1537C830.431 62.0723 830.431 58.6977 828.35 56.6163C826.269 54.5349 822.894 54.5349 820.813 56.6163C818.731 58.6977 818.731 62.0723 820.813 64.1537C822.894 66.2351 826.269 66.2351 828.35 64.1537Z" fill="white"/>
<path d="M742.185 219.345C742.185 221.183 739.575 224.331 736.372 223.859C732.69 223.315 732.333 217.957 731.859 217.187C731.695 216.926 731.481 216.7 731.227 216.523C730.974 216.347 730.688 216.223 730.386 216.161L724.864 214.862C724.864 214.862 726.013 211.783 727.712 211.342C729.2 210.97 732.708 212.25 733.044 211.935C736.821 208.414 742.2 214.349 742.185 219.345Z" fill="white"/>
<path d="M37.684 73.907V78.303H45.944V81.999H33.82V62.399H45.804V66.095H37.684V70.267H45.104V73.907H37.684ZM54.8629 82.391C52.7535 82.391 50.9895 81.6817 49.5709 80.263C48.1709 78.8444 47.4709 77.0897 47.4709 74.999C47.4709 72.9084 48.1709 71.1537 49.5709 69.735C50.9895 68.3164 52.7535 67.607 54.8629 67.607C56.2255 67.607 57.4669 67.9337 58.5869 68.587C59.7069 69.2404 60.5562 70.1177 61.1349 71.219L58.0269 73.039C57.7469 72.4604 57.3175 72.003 56.7389 71.667C56.1789 71.331 55.5442 71.163 54.8349 71.163C53.7522 71.163 52.8562 71.527 52.1469 72.255C51.4375 72.9644 51.0829 73.879 51.0829 74.999C51.0829 76.0817 51.4375 76.9964 52.1469 77.743C52.8562 78.4524 53.7522 78.807 54.8349 78.807C55.5629 78.807 56.2069 78.6484 56.7669 78.331C57.3455 77.995 57.7749 77.5377 58.0549 76.959L61.1909 78.751C60.5749 79.871 59.6975 80.7577 58.5589 81.411C57.4389 82.0644 56.2069 82.391 54.8629 82.391ZM63.8338 67.999H74.9218V81.999H71.3098V71.471H67.4458V76.147C67.4458 80.459 65.4765 82.4097 61.5378 81.999V78.611C62.2845 78.7977 62.8538 78.667 63.2458 78.219C63.6378 77.771 63.8338 77.015 63.8338 75.951V67.999ZM81.723 75.951L88.303 67.999H90.991V81.999H87.463V74.047L80.883 81.999H78.195V67.999H81.723V75.951ZM107.32 77.407L110.428 67.999H114.292L109.196 81.999C107.778 85.9377 105.314 87.8044 101.804 87.599V84.239C102.756 84.2577 103.503 84.0804 104.044 83.707C104.604 83.3337 105.052 82.7084 105.388 81.831L99.7324 67.999H103.568L107.32 77.407ZM133.091 74.831C134.398 75.4657 135.051 76.5297 135.051 78.023C135.051 79.2177 134.641 80.179 133.819 80.907C132.998 81.635 131.85 81.999 130.375 81.999H123.011V67.999H129.815C131.271 67.999 132.41 68.363 133.231 69.091C134.053 69.8004 134.463 70.7524 134.463 71.947C134.463 73.179 134.006 74.1404 133.091 74.831ZM129.479 70.967H126.399V73.487H129.479C130.506 73.487 131.019 73.067 131.019 72.227C131.019 71.387 130.506 70.967 129.479 70.967ZM126.399 78.947H129.955C131.001 78.947 131.523 78.499 131.523 77.603C131.523 77.211 131.383 76.903 131.103 76.679C130.823 76.455 130.441 76.343 129.955 76.343H126.399V78.947ZM147.952 69.651V67.999H151.564V81.999H147.952V80.347C146.869 81.7097 145.348 82.391 143.388 82.391C141.521 82.391 139.916 81.6817 138.572 80.263C137.247 78.8257 136.584 77.071 136.584 74.999C136.584 72.9457 137.247 71.2004 138.572 69.763C139.916 68.3257 141.521 67.607 143.388 67.607C145.348 67.607 146.869 68.2884 147.952 69.651ZM141.288 77.855C142.016 78.583 142.94 78.947 144.06 78.947C145.18 78.947 146.104 78.583 146.832 77.855C147.579 77.1084 147.952 76.1564 147.952 74.999C147.952 73.8417 147.579 72.899 146.832 72.171C146.104 71.4244 145.18 71.051 144.06 71.051C142.94 71.051 142.016 71.4244 141.288 72.171C140.56 72.899 140.196 73.8417 140.196 74.999C140.196 76.1564 140.56 77.1084 141.288 77.855ZM161.504 82.391C159.394 82.391 157.63 81.6817 156.212 80.263C154.812 78.8444 154.111 77.0897 154.111 74.999C154.111 72.9084 154.812 71.1537 156.212 69.735C157.63 68.3164 159.394 67.607 161.504 67.607C162.866 67.607 164.108 67.9337 165.228 68.587C166.348 69.2404 167.197 70.1177 167.776 71.219L164.668 73.039C164.388 72.4604 163.958 72.003 163.38 71.667C162.82 71.331 162.185 71.163 161.476 71.163C160.393 71.163 159.497 71.527 158.788 72.255C158.078 72.9644 157.724 73.879 157.724 74.999C157.724 76.0817 158.078 76.9964 158.788 77.743C159.497 78.4524 160.393 78.807 161.476 78.807C162.204 78.807 162.848 78.6484 163.408 78.331C163.986 77.995 164.416 77.5377 164.696 76.959L167.832 78.751C167.216 79.871 166.338 80.7577 165.2 81.411C164.08 82.0644 162.848 82.391 161.504 82.391ZM188.779 80.263C187.361 81.6817 185.606 82.391 183.515 82.391C181.425 82.391 179.67 81.6817 178.251 80.263C176.833 78.8444 176.123 77.0897 176.123 74.999C176.123 72.927 176.833 71.1817 178.251 69.763C179.689 68.3257 181.443 67.607 183.515 67.607C185.587 67.607 187.342 68.3257 188.779 69.763C190.217 71.2004 190.935 72.9457 190.935 74.999C190.935 77.071 190.217 78.8257 188.779 80.263ZM180.799 77.771C181.527 78.499 182.433 78.863 183.515 78.863C184.598 78.863 185.503 78.499 186.231 77.771C186.959 77.043 187.323 76.119 187.323 74.999C187.323 73.879 186.959 72.955 186.231 72.227C185.503 71.499 184.598 71.135 183.515 71.135C182.433 71.135 181.527 71.499 180.799 72.227C180.09 72.9737 179.735 73.8977 179.735 74.999C179.735 76.1004 180.09 77.0244 180.799 77.771ZM200.14 82.391C198.031 82.391 196.267 81.6817 194.848 80.263C193.448 78.8444 192.748 77.0897 192.748 74.999C192.748 72.9084 193.448 71.1537 194.848 69.735C196.267 68.3164 198.031 67.607 200.14 67.607C201.503 67.607 202.744 67.9337 203.864 68.587C204.984 69.2404 205.834 70.1177 206.412 71.219L203.304 73.039C203.024 72.4604 202.595 72.003 202.016 71.667C201.456 71.331 200.822 71.163 200.112 71.163C199.03 71.163 198.134 71.527 197.424 72.255C196.715 72.9644 196.36 73.879 196.36 74.999C196.36 76.0817 196.715 76.9964 197.424 77.743C198.134 78.4524 199.03 78.807 200.112 78.807C200.84 78.807 201.484 78.6484 202.044 78.331C202.623 77.995 203.052 77.5377 203.332 76.959L206.468 78.751C205.852 79.871 204.975 80.7577 203.836 81.411C202.716 82.0644 201.484 82.391 200.14 82.391ZM206.925 67.999H219.329V71.471H214.961V81.999H211.349V71.471H206.925V67.999ZM231.351 69.651V67.999H234.963V81.999H231.351V80.347C230.268 81.7097 228.747 82.391 226.787 82.391C224.92 82.391 223.315 81.6817 221.971 80.263C220.645 78.8257 219.983 77.071 219.983 74.999C219.983 72.9457 220.645 71.2004 221.971 69.763C223.315 68.3257 224.92 67.607 226.787 67.607C228.747 67.607 230.268 68.2884 231.351 69.651ZM224.687 77.855C225.415 78.583 226.339 78.947 227.459 78.947C228.579 78.947 229.503 78.583 230.231 77.855C230.977 77.1084 231.351 76.1564 231.351 74.999C231.351 73.8417 230.977 72.899 230.231 72.171C229.503 71.4244 228.579 71.051 227.459 71.051C226.339 71.051 225.415 71.4244 224.687 72.171C223.959 72.899 223.595 73.8417 223.595 74.999C223.595 76.1564 223.959 77.1084 224.687 77.855ZM239.162 67.999H250.25V81.999H246.638V71.471H242.774V76.147C242.774 80.459 240.805 82.4097 236.866 81.999V78.611C237.613 78.7977 238.182 78.667 238.574 78.219C238.966 77.771 239.162 77.015 239.162 75.951V67.999ZM257.051 75.951L263.631 67.999H266.319V81.999H262.791V74.047L256.211 81.999H253.523V67.999H257.051V75.951ZM276.293 82.391C274.183 82.391 272.419 81.6817 271.001 80.263C269.601 78.8444 268.901 77.0897 268.901 74.999C268.901 72.9084 269.601 71.1537 271.001 69.735C272.419 68.3164 274.183 67.607 276.293 67.607C277.655 67.607 278.897 67.9337 280.017 68.587C281.137 69.2404 281.986 70.1177 282.565 71.219L279.457 73.039C279.177 72.4604 278.747 72.003 278.169 71.667C277.609 71.331 276.974 71.163 276.265 71.163C275.182 71.163 274.286 71.527 273.577 72.255C272.867 72.9644 272.513 73.879 272.513 74.999C272.513 76.0817 272.867 76.9964 273.577 77.743C274.286 78.4524 275.182 78.807 276.265 78.807C276.993 78.807 277.637 78.6484 278.197 78.331C278.775 77.995 279.205 77.5377 279.485 76.959L282.621 78.751C282.005 79.871 281.127 80.7577 279.989 81.411C278.869 82.0644 277.637 82.391 276.293 82.391ZM288.252 72.479H290.968C292.555 72.479 293.834 72.9177 294.804 73.795C295.775 74.6537 296.26 75.8017 296.26 77.239C296.26 78.6764 295.775 79.8337 294.804 80.711C293.834 81.5697 292.555 81.999 290.968 81.999H284.64V67.999H288.252V72.479ZM288.252 78.807H290.996C291.5 78.807 291.911 78.667 292.228 78.387C292.564 78.0884 292.732 77.7057 292.732 77.239C292.732 76.7724 292.564 76.3897 292.228 76.091C291.911 75.7924 291.5 75.643 290.996 75.643H288.252V78.807ZM43.732 108.831C45.0387 109.466 45.692 110.53 45.692 112.023C45.692 113.218 45.2813 114.179 44.46 114.907C43.6387 115.635 42.4907 115.999 41.016 115.999H33.652V101.999H40.456C41.912 101.999 43.0507 102.363 43.872 103.091C44.6933 103.8 45.104 104.752 45.104 105.947C45.104 107.179 44.6467 108.14 43.732 108.831ZM40.12 104.967H37.04V107.487H40.12C41.1467 107.487 41.66 107.067 41.66 106.227C41.66 105.387 41.1467 104.967 40.12 104.967ZM37.04 112.947H40.596C41.6413 112.947 42.164 112.499 42.164 111.603C42.164 111.211 42.024 110.903 41.744 110.679C41.464 110.455 41.0813 110.343 40.596 110.343H37.04V112.947ZM59.8808 114.263C58.4621 115.682 56.7074 116.391 54.6168 116.391C52.5261 116.391 50.7714 115.682 49.3528 114.263C47.9341 112.844 47.2248 111.09 47.2248 108.999C47.2248 106.927 47.9341 105.182 49.3528 103.763C50.7901 102.326 52.5448 101.607 54.6168 101.607C56.6888 101.607 58.4434 102.326 59.8808 103.763C61.3181 105.2 62.0368 106.946 62.0368 108.999C62.0368 111.071 61.3181 112.826 59.8808 114.263ZM51.9008 111.771C52.6288 112.499 53.5341 112.863 54.6168 112.863C55.6994 112.863 56.6048 112.499 57.3328 111.771C58.0608 111.043 58.4248 110.119 58.4248 108.999C58.4248 107.879 58.0608 106.955 57.3328 106.227C56.6048 105.499 55.6994 105.135 54.6168 105.135C53.5341 105.135 52.6288 105.499 51.9008 106.227C51.1914 106.974 50.8368 107.898 50.8368 108.999C50.8368 110.1 51.1914 111.024 51.9008 111.771ZM64.5778 101.999H77.3738V115.999H73.7618V105.387H68.1898V115.999H64.5778V101.999ZM88.8313 101.607C90.7166 101.607 92.3219 102.326 93.6473 103.763C94.9913 105.2 95.6633 106.946 95.6633 108.999C95.6633 111.09 94.9913 112.844 93.6473 114.263C92.3406 115.682 90.7353 116.391 88.8313 116.391C86.8713 116.391 85.3593 115.71 84.2953 114.347V121.599H80.6833V101.999H84.2953V103.651C85.3593 102.288 86.8713 101.607 88.8313 101.607ZM85.3873 111.855C86.1153 112.583 87.0393 112.947 88.1593 112.947C89.2793 112.947 90.2033 112.583 90.9313 111.855C91.6779 111.108 92.0513 110.156 92.0513 108.999C92.0513 107.842 91.6779 106.899 90.9313 106.171C90.2033 105.424 89.2793 105.051 88.1593 105.051C87.0393 105.051 86.1153 105.424 85.3873 106.171C84.6593 106.899 84.2953 107.842 84.2953 108.999C84.2953 110.156 84.6593 111.108 85.3873 111.855ZM110.139 114.263C108.72 115.682 106.965 116.391 104.875 116.391C102.784 116.391 101.029 115.682 99.6106 114.263C98.1919 112.844 97.4826 111.09 97.4826 108.999C97.4826 106.927 98.1919 105.182 99.6106 103.763C101.048 102.326 102.803 101.607 104.875 101.607C106.947 101.607 108.701 102.326 110.139 103.763C111.576 105.2 112.295 106.946 112.295 108.999C112.295 111.071 111.576 112.826 110.139 114.263ZM102.159 111.771C102.887 112.499 103.792 112.863 104.875 112.863C105.957 112.863 106.863 112.499 107.591 111.771C108.319 111.043 108.683 110.119 108.683 108.999C108.683 107.879 108.319 106.955 107.591 106.227C106.863 105.499 105.957 105.135 104.875 105.135C103.792 105.135 102.887 105.499 102.159 106.227C101.449 106.974 101.095 107.898 101.095 108.999C101.095 110.1 101.449 111.024 102.159 111.771ZM121.5 116.391C119.39 116.391 117.626 115.682 116.208 114.263C114.808 112.844 114.108 111.09 114.108 108.999C114.108 106.908 114.808 105.154 116.208 103.735C117.626 102.316 119.39 101.607 121.5 101.607C122.862 101.607 124.104 101.934 125.224 102.587C126.344 103.24 127.193 104.118 127.772 105.219L124.664 107.039C124.384 106.46 123.954 106.003 123.376 105.667C122.816 105.331 122.181 105.163 121.472 105.163C120.389 105.163 119.493 105.527 118.784 106.255C118.074 106.964 117.72 107.879 117.72 108.999C117.72 110.082 118.074 110.996 118.784 111.743C119.493 112.452 120.389 112.807 121.472 112.807C122.2 112.807 122.844 112.648 123.404 112.331C123.982 111.995 124.412 111.538 124.692 110.959L127.828 112.751C127.212 113.871 126.334 114.758 125.196 115.411C124.076 116.064 122.844 116.391 121.5 116.391ZM133.459 106.479H136.175C137.762 106.479 139.041 106.918 140.011 107.795C140.982 108.654 141.467 109.802 141.467 111.239C141.467 112.676 140.982 113.834 140.011 114.711C139.041 115.57 137.762 115.999 136.175 115.999H129.847V101.999H133.459V106.479ZM143.007 115.999V101.999H146.619V115.999H143.007ZM133.459 112.807H136.203C136.707 112.807 137.118 112.667 137.435 112.387C137.771 112.088 137.939 111.706 137.939 111.239C137.939 110.772 137.771 110.39 137.435 110.091C137.118 109.792 136.707 109.643 136.203 109.643H133.459V112.807ZM150.758 112.135H154.678L152.578 119.919H149.638L150.758 112.135ZM173.895 107.291V101.999H177.507V115.999H173.895V110.679H168.323V115.999H164.711V101.999H168.323V107.291H173.895ZM191.456 103.651V101.999H195.068V115.999H191.456V114.347C190.373 115.71 188.852 116.391 186.892 116.391C185.025 116.391 183.42 115.682 182.076 114.263C180.751 112.826 180.088 111.071 180.088 108.999C180.088 106.946 180.751 105.2 182.076 103.763C183.42 102.326 185.025 101.607 186.892 101.607C188.852 101.607 190.373 102.288 191.456 103.651ZM184.792 111.855C185.52 112.583 186.444 112.947 187.564 112.947C188.684 112.947 189.608 112.583 190.336 111.855C191.083 111.108 191.456 110.156 191.456 108.999C191.456 107.842 191.083 106.899 190.336 106.171C189.608 105.424 188.684 105.051 187.564 105.051C186.444 105.051 185.52 105.424 184.792 106.171C184.064 106.899 183.7 107.842 183.7 108.999C183.7 110.156 184.064 111.108 184.792 111.855ZM198.343 101.999H211.139V115.999H207.527V105.387H201.955V115.999H198.343V101.999ZM217.977 109.951L224.557 101.999H227.245V115.999H223.717V108.047L217.137 115.999H214.449V101.999H217.977V109.951ZM246.962 112.611V101.999H250.574V115.999H230.554V101.999H234.166V112.611H238.758V101.999H242.37V112.611H246.962ZM257.407 109.951L263.987 101.999H266.675V115.999H263.147V108.047L256.567 115.999H253.879V101.999H257.407V109.951ZM268.612 101.999H281.016V105.471H276.648V115.999H273.036V105.471H268.612V101.999ZM296.006 110.483H285.45C285.917 112.238 287.233 113.115 289.398 113.115C290.779 113.115 291.825 112.648 292.534 111.715L295.446 113.395C294.065 115.392 292.03 116.391 289.342 116.391C287.027 116.391 285.17 115.691 283.77 114.291C282.37 112.891 281.67 111.127 281.67 108.999C281.67 106.908 282.361 105.154 283.742 103.735C285.105 102.316 286.878 101.607 289.062 101.607C291.134 101.607 292.823 102.316 294.13 103.735C295.474 105.154 296.146 106.908 296.146 108.999C296.146 109.391 296.099 109.886 296.006 110.483ZM285.394 107.683H292.534C292.329 106.768 291.909 106.068 291.274 105.583C290.658 105.098 289.921 104.855 289.062 104.855C288.091 104.855 287.289 105.107 286.654 105.611C286.019 106.096 285.599 106.787 285.394 107.683ZM314.852 107.291V101.999H318.464V115.999H314.852V110.679H309.28V115.999H305.668V101.999H309.28V107.291H314.852ZM332.413 103.651V101.999H336.025V115.999H332.413V114.347C331.33 115.71 329.809 116.391 327.849 116.391C325.982 116.391 324.377 115.682 323.033 114.263C321.708 112.826 321.045 111.071 321.045 108.999C321.045 106.946 321.708 105.2 323.033 103.763C324.377 102.326 325.982 101.607 327.849 101.607C329.809 101.607 331.33 102.288 332.413 103.651ZM325.749 111.855C326.477 112.583 327.401 112.947 328.521 112.947C329.641 112.947 330.565 112.583 331.293 111.855C332.04 111.108 332.413 110.156 332.413 108.999C332.413 107.842 332.04 106.899 331.293 106.171C330.565 105.424 329.641 105.051 328.521 105.051C327.401 105.051 326.477 105.424 325.749 106.171C325.021 106.899 324.657 107.842 324.657 108.999C324.657 110.156 325.021 111.108 325.749 111.855ZM350.304 101.999H353.86V115.999H350.36V107.823L346.804 113.423H346.356L342.772 107.767V115.999H339.3V101.999H342.856L346.58 107.879L350.304 101.999Z" fill="white"/>
<rect x="32" y="148.999" width="276" height="48" rx="4" fill="white"/>
<path d="M138.557 178.207C136.871 178.207 135.474 177.652 134.365 176.543C133.255 175.412 132.701 174.031 132.701 172.399C132.701 170.756 133.255 169.38 134.365 168.271C135.463 167.151 136.861 166.591 138.557 166.591C139.57 166.591 140.503 166.831 141.357 167.311C142.221 167.791 142.893 168.442 143.373 169.263L141.773 170.191C141.474 169.636 141.037 169.199 140.461 168.879C139.895 168.548 139.261 168.383 138.557 168.383C137.373 168.383 136.402 168.762 135.645 169.519C134.909 170.266 134.541 171.226 134.541 172.399C134.541 173.572 134.909 174.532 135.645 175.279C136.402 176.036 137.373 176.415 138.557 176.415C139.261 176.415 139.901 176.255 140.477 175.935C141.053 175.604 141.485 175.162 141.773 174.607L143.373 175.519C142.914 176.33 142.247 176.986 141.373 177.487C140.53 177.967 139.591 178.207 138.557 178.207ZM150.403 173.887C151.193 174.26 151.587 174.874 151.587 175.727C151.587 176.41 151.353 176.959 150.883 177.375C150.425 177.791 149.785 177.999 148.963 177.999H144.867V169.999H148.643C149.454 169.999 150.089 170.202 150.547 170.607C151.006 171.012 151.235 171.546 151.235 172.207C151.235 172.964 150.958 173.524 150.403 173.887ZM148.515 171.471H146.515V173.247H148.515C149.219 173.247 149.571 172.948 149.571 172.351C149.571 171.764 149.219 171.471 148.515 171.471ZM146.515 176.495H148.803C149.529 176.495 149.891 176.18 149.891 175.551C149.891 175.274 149.795 175.06 149.603 174.911C149.411 174.751 149.145 174.671 148.803 174.671H146.515V176.495ZM155.304 169.999H158.872V177.999H157.176V175.311H156.216L154.184 177.999H152.152L154.312 175.151C153.757 174.97 153.309 174.65 152.968 174.191C152.637 173.732 152.472 173.22 152.472 172.655C152.472 171.919 152.733 171.295 153.256 170.783C153.779 170.26 154.461 169.999 155.304 169.999ZM155.4 173.823H157.176V171.567H155.4C155.037 171.567 154.739 171.674 154.504 171.887C154.28 172.09 154.168 172.362 154.168 172.703C154.168 173.044 154.28 173.316 154.504 173.519C154.739 173.722 155.037 173.823 155.4 173.823ZM165.379 173.903C166.232 174.287 166.659 174.922 166.659 175.807C166.659 176.5 166.376 177.076 165.811 177.535C165.246 177.983 164.478 178.207 163.507 178.207C161.896 178.207 160.808 177.567 160.243 176.287L161.651 175.455C161.939 176.255 162.563 176.655 163.523 176.655C163.971 176.655 164.323 176.564 164.579 176.383C164.835 176.191 164.963 175.94 164.963 175.631C164.963 175.354 164.862 175.135 164.659 174.975C164.456 174.804 164.174 174.719 163.811 174.719H162.675V173.199H163.523C163.875 173.199 164.147 173.119 164.339 172.959C164.542 172.788 164.643 172.559 164.643 172.271C164.643 171.994 164.531 171.77 164.307 171.599C164.083 171.418 163.784 171.327 163.411 171.327C162.611 171.327 162.056 171.679 161.747 172.383L160.339 171.583C160.926 170.388 161.939 169.791 163.379 169.791C164.275 169.791 164.984 170.02 165.507 170.479C166.04 170.927 166.307 171.476 166.307 172.127C166.307 172.927 165.998 173.519 165.379 173.903ZM174.407 171.135V169.999H176.135V177.999H174.407V176.847C173.756 177.754 172.823 178.207 171.607 178.207C170.508 178.207 169.569 177.802 168.791 176.991C168.012 176.18 167.623 175.183 167.623 173.999C167.623 172.815 168.012 171.818 168.791 171.007C169.569 170.196 170.508 169.791 171.607 169.791C172.823 169.791 173.756 170.239 174.407 171.135ZM170.071 175.839C170.551 176.319 171.153 176.559 171.879 176.559C172.604 176.559 173.207 176.319 173.687 175.839C174.167 175.348 174.407 174.735 174.407 173.999C174.407 173.263 174.167 172.655 173.687 172.175C173.207 171.684 172.604 171.439 171.879 171.439C171.153 171.439 170.551 171.684 170.071 172.175C169.591 172.655 169.351 173.263 169.351 173.999C169.351 174.724 169.591 175.338 170.071 175.839ZM177.301 169.999H184.261V171.663H181.653V177.999H179.925V171.663H177.301V169.999ZM187.158 172.719H188.918C189.782 172.719 190.481 172.964 191.014 173.455C191.558 173.935 191.83 174.57 191.83 175.359C191.83 176.138 191.558 176.772 191.014 177.263C190.481 177.754 189.782 177.999 188.918 177.999H185.43V169.999H187.158V172.719ZM187.158 176.447H188.934C189.275 176.447 189.558 176.346 189.782 176.143C190.017 175.94 190.134 175.679 190.134 175.359C190.134 175.039 190.022 174.778 189.798 174.575C189.574 174.372 189.286 174.271 188.934 174.271H187.158V176.447ZM196.925 178.207C195.719 178.207 194.711 177.802 193.901 176.991C193.101 176.17 192.701 175.172 192.701 173.999C192.701 172.804 193.101 171.807 193.901 171.007C194.711 170.196 195.719 169.791 196.925 169.791C197.703 169.791 198.413 169.978 199.053 170.351C199.693 170.724 200.173 171.226 200.493 171.855L199.005 172.719C198.823 172.335 198.546 172.036 198.173 171.823C197.81 171.599 197.389 171.487 196.909 171.487C196.205 171.487 195.613 171.727 195.133 172.207C194.663 172.698 194.429 173.295 194.429 173.999C194.429 174.703 194.663 175.3 195.133 175.791C195.613 176.271 196.205 176.511 196.909 176.511C197.378 176.511 197.799 176.404 198.173 176.191C198.557 175.967 198.845 175.663 199.037 175.279L200.525 176.127C200.183 176.767 199.687 177.274 199.037 177.647C198.397 178.02 197.693 178.207 196.925 178.207ZM204.288 169.999H207.856V177.999H206.16V175.311H205.2L203.168 177.999H201.136L203.296 175.151C202.742 174.97 202.294 174.65 201.952 174.191C201.622 173.732 201.456 173.22 201.456 172.655C201.456 171.919 201.718 171.295 202.24 170.783C202.763 170.26 203.446 169.999 204.288 169.999ZM204.384 173.823H206.16V171.567H204.384C204.022 171.567 203.723 171.674 203.488 171.887C203.264 172.09 203.152 172.362 203.152 172.703C203.152 173.044 203.264 173.316 203.488 173.519C203.723 173.722 204.022 173.823 204.384 173.823Z" fill="#222222"/>
</svg>
