<svg width="360" height="590" viewBox="0 0 360 590" fill="none" xmlns="http://www.w3.org/2000/svg">
<g opacity="0.1">
<path d="M-66.5101 588.666C18.6314 588.666 87.6521 519.645 87.6521 434.504C87.6521 349.363 18.6314 280.342 -66.5101 280.342C-151.651 280.342 -220.672 349.363 -220.672 434.504C-220.672 519.645 -151.651 588.666 -66.5101 588.666Z" fill="#F9F9F9"/>
<path d="M-32.4991 564.698C-34.3299 564.786 -36.15 564.372 -37.7629 563.502C-45.8918 558.424 -50.4617 530.603 -50.7728 505.756C-50.8087 502.873 -50.6411 500.618 -50.4916 498.62C-50.2045 494.666 -50.025 492.28 -51.6879 488.804C-52.5133 487.064 -56.0544 487.058 -60.1578 487.052C-66.235 487.052 -73.8077 487.022 -79.1133 481.597C-89.0666 471.428 -87.2542 461.66 -79.7653 444.888C-71.3911 426.196 -51.2871 429.336 -40.4725 431.005C-33.4442 432.099 -33.0195 435.688 -32.6487 438.859C-32.3795 441.15 -32.1283 443.309 -29.8015 445.373C-24.4181 450.158 -9.46426 448.902 -7.10753 448.674C-2.66923 445.684 -1.7241 443.841 -1.67625 442.788C-1.67625 441.323 -3.47071 440.001 -5.26517 438.721C-5.61808 438.47 -5.97099 438.219 -6.30595 437.967C-8.14827 436.586 -10.4931 436.029 -12.9455 435.437C-15.2963 434.869 -17.7307 434.289 -19.908 432.949C-22.5398 431.34 -24.2686 428.271 -25.6563 425.807C-26.193 424.754 -26.8257 423.753 -27.5464 422.816C-27.9245 423.789 -28.2304 424.789 -28.4616 425.807C-29.2033 428.672 -29.963 431.627 -32.1582 431.974C-32.5362 432.045 -32.9255 432.028 -33.2958 431.924C-33.6662 431.821 -34.0076 431.633 -34.2936 431.376C-35.8847 429.94 -35.8069 426.698 -35.5437 421.524L-35.46 419.783C-35.4241 418.964 -35.5737 418.617 -35.6634 418.539C-36.0881 418.18 -38.056 418.617 -39.5274 418.94C-41.6223 419.468 -43.7683 419.767 -45.9277 419.831H-45.9994C-49.1577 419.831 -51.981 421.751 -54.7385 423.606C-57.1311 425.245 -59.4519 426.794 -61.8565 426.896C-62.8571 426.949 -63.8517 426.711 -64.72 426.211C-65.5883 425.711 -66.2932 424.97 -66.7494 424.078C-68.2867 421.249 -67.8799 417.199 -65.7684 414.227C-63.3758 410.829 -60.4688 412.468 -58.9196 413.347C-57.7592 414.005 -57.3943 414.137 -57.2148 413.946C-56.4899 413.085 -55.8862 412.129 -55.4204 411.104C-53.9681 407.985 -51.8365 405.23 -49.1817 403.041C-45.7961 400.254 -44.0017 400.696 -42.3149 401.45C-41.4954 401.815 -41.1186 401.982 -40.0838 401.42C-38.7379 400.684 -38.2893 399.626 -37.6911 398.429C-36.9913 396.85 -36.112 394.888 -33.1451 394.242C-31.0635 393.794 -29.616 394.41 -28.3599 394.954C-26.5654 395.708 -25.0521 396.36 -21.182 394.356C-18.5143 392.944 -16.9591 391.401 -16.995 390.229C-17.0368 389.457 -17.8025 388.817 -18.5502 388.518C-19.0467 388.321 -19.4474 388.518 -20.8411 389.409C-23.2786 391.049 -26.034 392.158 -28.9282 392.663C-34.7004 393.704 -36.5726 393.064 -39.3779 391.838C-40.0777 391.533 -40.8015 391.24 -41.7167 390.887C-43.1523 390.378 -43.9359 389.589 -44.0435 388.536C-44.3007 386.03 -40.4546 383.679 -32.0505 378.529L-29.7775 377.129C-18.598 370.256 -12.9814 370.944 -5.05583 372.906C-1.89758 373.69 0.0105057 375.897 2.0203 378.248C5.56137 382.363 9.57504 387.035 22.2619 386.269C37.8617 385.324 41.9411 383.105 45.213 381.322C46.251 380.727 47.3304 380.207 48.443 379.767C53.1624 377.973 68.8939 378.768 79.0446 381.31C79.2547 381.362 79.4486 381.466 79.6093 381.611C79.77 381.756 79.8925 381.938 79.9658 382.142C91.5193 414.56 92.0365 449.888 81.4372 482.632C81.3296 482.953 81.1055 483.221 80.8092 483.385C79.4852 484.164 78.2125 485.027 76.9989 485.969C75.7368 486.902 74.3072 487.955 72.758 488.93C69.827 490.766 68.2001 495.564 66.8961 499.416C65.5204 503.477 64.3181 506.988 61.5666 506.384C58.0494 505.631 56.7813 499.458 55.268 492.316C54.8852 490.521 54.4964 488.625 54.0717 486.962C52.331 480.006 44.579 472.81 36.4321 470.585C30.7855 469.035 29.5354 466.882 28.5365 465.153C27.9025 464.065 27.4478 463.275 25.7969 462.617C25.4153 462.452 25.0128 462.339 24.6006 462.282C24.8579 463.7 25.4036 465.05 26.2037 466.248C26.5865 466.882 27.1009 467.08 28.1417 467.444C29.8859 467.925 31.4177 468.978 32.4903 470.435C34.2848 472.894 33.6866 477.775 32.2032 481.124C31.1026 483.607 29.6012 485.072 27.9742 485.239C26.2455 485.419 24.9835 486.107 22.9019 487.243C21.5321 487.991 19.8274 488.924 17.5185 489.941C16.8241 490.285 16.0647 490.478 15.2904 490.507C14.516 490.535 13.7444 490.4 13.0264 490.108C9.92193 488.787 8.36074 484.528 7.33191 481.734C7.09863 481.136 6.89526 480.538 6.73376 480.113C6.02196 478.486 5.97412 476.243 5.92626 474.066C5.87841 472.038 5.83055 469.735 5.1666 468.826C5.10497 468.732 5.02575 468.651 4.93331 468.587C4.69405 468.671 3.13885 470.142 1.87077 475.609C0.566788 481.316 8.98879 491.131 12.6375 492.782C16.1308 494.379 20.4854 496.371 19.8513 502.418C19.4924 505.9 15.724 507.676 11.3635 509.728C8.18726 511.223 4.59238 512.922 1.43412 515.536C-2.89651 519.125 -2.15475 522.582 -1.35921 526.584C-0.892647 528.857 -0.408195 531.208 -0.8927 533.63C-2.08901 539.654 -5.39084 543.87 -9.20705 548.763C-10.7024 550.683 -12.2576 552.675 -13.8487 554.972C-18.592 561.516 -26.6253 564.698 -32.4991 564.698ZM-53.5841 432.345C-62.6162 432.345 -72.4019 434.893 -77.3307 445.941C-85.34 463.885 -85.3101 471.44 -77.2051 479.724C-72.6711 484.354 -66.0077 484.372 -60.1219 484.384C-55.1273 484.384 -50.8146 484.384 -49.2834 487.65C-47.3453 491.753 -47.5607 494.702 -47.8598 498.788C-48.0033 500.726 -48.1648 502.927 -48.1349 505.69C-47.7939 532.93 -42.6259 557.323 -36.3632 561.235C-32.4812 563.628 -21.4094 560.99 -16.1456 553.381C-14.5067 551.024 -12.9335 549.009 -11.4082 547.059C-7.6578 542.273 -4.69096 538.439 -3.63223 533.026C-3.2494 531.13 -3.63223 529.144 -4.09281 527.044C-4.96014 522.821 -5.94706 518.036 -0.402176 513.436C3.01328 510.601 6.77562 508.831 10.0894 507.269C13.8757 505.475 16.8725 504.075 17.0818 502.077C17.4826 498.189 15.1977 496.85 11.3874 495.109C7.09267 493.147 -2.50174 482.297 -0.82093 474.945C-0.109123 471.835 1.5119 466.529 4.36509 465.943C4.90585 465.841 5.46467 465.907 5.96701 466.132C6.46935 466.356 6.89126 466.729 7.17638 467.199C8.33083 468.772 8.37269 471.285 8.44447 473.94C8.48634 475.854 8.52821 477.834 9.04263 478.983C9.24599 479.455 9.4733 480.065 9.72453 480.777C10.5978 483.17 11.9257 486.759 13.9714 487.656C14.3586 487.801 14.772 487.861 15.1844 487.835C15.5968 487.808 15.9988 487.694 16.364 487.5C18.5772 486.526 20.2281 485.628 21.556 484.905C23.7632 483.708 25.3663 482.829 27.6153 482.596C28.1118 482.542 28.9552 481.728 29.7089 480.03C31.0069 477.099 31.276 473.33 30.307 471.972C29.5484 470.956 28.4589 470.237 27.2265 469.939C26.084 469.544 24.7861 469.095 23.8948 467.618C22.7344 465.698 21.0117 462.234 22.5011 460.44C23.3325 459.459 24.7562 459.363 26.7361 460.153C28.5081 460.802 29.9581 462.115 30.7796 463.814C31.6589 465.327 32.4903 466.762 37.0901 468.001C46.2239 470.495 54.61 478.361 56.5959 486.286C57.0265 487.997 57.4213 489.875 57.7922 491.741C58.7612 496.371 60.2207 503.376 62.063 503.77C62.6611 503.489 63.6721 500.504 64.336 498.536C65.7776 494.284 67.572 488.996 71.2985 486.657C72.758 485.736 74.0919 484.761 75.3779 483.81C76.5486 482.909 77.7645 482.069 79.0206 481.292C89.2133 449.466 88.7345 415.183 77.6569 383.655C67.5242 381.262 53.0489 380.772 49.3164 382.19C48.3169 382.586 47.3474 383.053 46.4153 383.589C42.9102 385.503 38.5496 387.878 22.3635 388.853C8.3727 389.696 3.70115 384.277 -0.0373077 379.917C-1.92149 377.727 -3.40495 375.999 -5.74971 375.418C-13.1967 373.576 -17.9281 372.852 -28.4796 379.33L-30.7585 380.73C-35.6514 383.721 -40.6999 386.819 -41.4296 388.129C-41.2655 388.221 -41.0932 388.297 -40.9151 388.356C-39.9162 388.709 -39.1207 389.062 -38.4029 389.373C-36.0462 390.402 -34.7482 390.97 -29.4784 390.013C-26.9071 389.574 -24.4596 388.588 -22.3006 387.124C-20.8172 386.191 -19.4115 385.33 -17.629 386.018C-16.1456 386.616 -14.5246 387.974 -14.411 390.037C-14.2854 392.4 -16.1576 394.625 -19.9738 396.617C-24.9265 399.237 -27.4029 398.178 -29.3948 397.335C-30.5312 396.85 -31.3507 396.503 -32.6068 396.778C-34.2697 397.137 -34.6644 398.011 -35.3044 399.458C-35.9445 400.906 -36.6803 402.545 -38.8157 403.705C-39.4967 404.136 -40.2815 404.374 -41.0871 404.395C-41.8926 404.416 -42.6889 404.219 -43.3915 403.825C-44.3725 403.388 -45.0843 403.065 -47.4948 405.021C-49.8759 406.985 -51.7835 409.461 -53.0756 412.265C-53.6461 413.525 -54.3999 414.694 -55.3127 415.734C-56.9636 417.433 -58.9016 416.332 -60.2116 415.584C-62.0958 414.514 -62.676 414.388 -63.6031 415.692C-65.3198 418.085 -65.3019 421.129 -64.4166 422.756C-64.2033 423.22 -63.8536 423.606 -63.4142 423.865C-62.9748 424.124 -62.4667 424.242 -61.9582 424.204C-60.2953 424.132 -58.3095 422.786 -56.204 421.363C-53.273 419.377 -49.9533 417.134 -45.9875 417.134H-45.9158C-43.9473 417.069 -41.9918 416.79 -40.0838 416.302C-37.4519 415.704 -35.3703 415.267 -33.9527 416.458C-33.1212 417.158 -32.7564 418.252 -32.8162 419.837L-32.8999 421.596C-33.0255 424.078 -33.2588 428.696 -32.5171 429.372C-32.0146 429.031 -31.3208 426.381 -31.0037 425.113C-30.4056 422.756 -29.9151 420.89 -28.6949 420.184C-28.4629 420.047 -28.2055 419.958 -27.9381 419.923C-27.6708 419.888 -27.3992 419.908 -27.1397 419.981C-25.6204 420.4 -24.6154 422.182 -23.3414 424.443C-22.0673 426.704 -20.566 429.378 -18.5143 430.634C-16.6839 431.753 -14.5665 432.261 -12.3174 432.799C-9.69752 433.433 -6.98789 434.085 -4.70893 435.79C-4.39191 436.029 -4.05692 436.269 -3.71597 436.508C-1.48486 438.105 1.06925 439.917 0.985512 442.777C0.931671 445.337 -1.25758 447.945 -5.90524 450.989C-6.08491 451.106 -6.29008 451.178 -6.50339 451.199C-7.25108 451.282 -24.8607 453.214 -31.5481 447.281C-34.6286 444.553 -34.9815 441.532 -35.2686 439.104C-35.6275 436.023 -35.8309 434.319 -40.8015 433.559C-45.0266 432.825 -49.3023 432.419 -53.59 432.345H-53.5841Z" fill="#718096"/>
<path d="M8.17539 330.766C-0.133156 330.755 -8.10594 334.045 -13.9894 339.911C-19.8728 345.778 -23.1851 353.741 -23.1978 362.05C-23.1978 366.368 -21.2358 372.41 -18.2929 379.037C-10.8818 395.756 2.76212 416.224 6.93126 422.338C7.06964 422.54 7.25522 422.705 7.47202 422.82C7.68882 422.934 7.93027 422.994 8.17539 422.994C8.42051 422.994 8.66196 422.934 8.87876 422.82C9.09556 422.705 9.28114 422.54 9.41952 422.338C15.2396 413.802 39.5485 377.255 39.5485 362.05C39.5358 353.741 36.2236 345.778 30.3402 339.911C24.4567 334.045 16.4839 330.755 8.17539 330.766Z" fill="#718096"/>
<path d="M8.16946 381.657C18.6845 381.657 27.2087 373.157 27.2087 362.671C27.2087 352.186 18.6845 343.686 8.16946 343.686C-2.34562 343.686 -10.8698 352.186 -10.8698 362.671C-10.8698 373.157 -2.34562 381.657 8.16946 381.657Z" fill="#F9F9F9"/>
<path d="M-66.5579 590C-138.887 590 -203.846 539.157 -218.854 465.584C-223.951 440.639 -222.841 414.824 -215.623 390.409C-208.404 365.993 -195.298 343.725 -177.456 325.562C-177.206 325.336 -176.879 325.213 -176.542 325.22C-176.204 325.226 -175.882 325.361 -175.642 325.598C-175.401 325.834 -175.259 326.153 -175.246 326.49C-175.233 326.827 -175.35 327.156 -175.571 327.411C-193.107 345.268 -205.987 367.159 -213.079 391.16C-220.171 415.162 -221.259 440.538 -216.246 465.058C-199.396 547.633 -118.508 601.114 -35.9384 584.27C46.6307 567.426 100.118 486.537 83.2737 403.962C75.1712 364.244 51.6229 329.371 17.8089 307.014C-16.0052 284.658 -57.3152 276.649 -97.0339 284.75C-97.3665 284.797 -97.7042 284.715 -97.9785 284.521C-98.2528 284.327 -98.4432 284.037 -98.511 283.708C-98.5787 283.379 -98.5188 283.036 -98.3433 282.75C-98.1679 282.464 -97.8901 282.255 -97.5663 282.166C-77.5598 278.085 -56.9453 277.985 -36.9 281.87C-16.8547 285.756 2.22899 293.552 19.2615 304.813C36.2939 316.074 50.9417 330.579 62.3683 347.501C73.7949 364.423 81.7765 383.429 85.8576 403.436C102.989 487.435 48.5927 569.723 -35.4121 586.854C-45.6619 588.947 -56.0966 590.001 -66.5579 590Z" fill="#718096"/>
<path d="M-201.181 512.202C-237.345 449.564 -225.794 367.886 -169.582 318.102C-150.527 301.216 -127.616 289.269 -102.862 283.313C-78.1084 277.356 -52.2704 277.573 -27.62 283.943C-27.2988 284.046 -27.0291 284.268 -26.8661 284.563C-26.7032 284.859 -26.6593 285.205 -26.7435 285.532C-26.8276 285.858 -27.0335 286.14 -27.3189 286.32C-27.6042 286.5 -27.9476 286.564 -28.2785 286.499C-52.5109 280.242 -77.9094 280.033 -102.241 285.891C-126.573 291.75 -149.093 303.496 -167.822 320.097C-230.909 375.978 -236.781 472.769 -180.909 535.854C-125.037 598.939 -28.2419 604.816 34.8483 548.941C65.1942 522.065 83.6211 484.235 86.0753 443.773C88.5296 403.311 74.8102 363.531 47.9352 333.184C47.7288 332.919 47.6309 332.586 47.6614 332.252C47.692 331.917 47.8486 331.607 48.0995 331.384C48.3504 331.161 48.6769 331.042 49.0125 331.05C49.3482 331.059 49.6679 331.195 49.9068 331.431C63.4444 346.717 73.8387 364.519 80.4963 383.822C87.1538 403.124 89.9442 423.549 88.7082 443.93C87.4722 464.311 82.234 484.249 73.2925 502.606C64.3511 520.963 51.8817 537.378 36.5961 550.916C-27.5834 607.751 -126.045 601.787 -182.883 537.602C-189.821 529.772 -195.951 521.262 -201.181 512.202Z" fill="#718096"/>
</g>
<g opacity="0.1">
<path d="M531.117 168.382L521.846 70.1811C521.785 69.4391 521.447 68.7473 520.899 68.2429C520.352 67.7385 519.634 67.4583 518.89 67.458L482.322 66.7927C418.926 65.6412 355.55 66.759 292.194 70.1461C287.32 70.214 282.565 71.668 278.487 74.3382C274.409 77.0084 271.175 80.7844 269.164 85.2247L233.618 163.703L224.784 174.284C221.395 178.338 218.968 183.106 217.684 188.231L212.506 208.849C211.113 214.399 210.409 220.1 210.409 225.822V296.204L446.208 292.372V300.098H473.989C473.502 297.542 473.102 294.808 472.79 291.929L502.613 291.443C502.298 294.489 501.882 297.391 501.368 300.087H516.101C518.506 300.108 520.863 299.418 522.877 298.103C524.891 296.788 526.47 294.906 527.417 292.695L527.46 292.497C530.823 284.492 532.542 275.893 532.517 267.21V199.477C532.533 189.094 532.105 178.719 531.117 168.382Z" fill="#F9F9F9"/>
<path d="M256.625 347.827C269.553 347.827 280.033 327.226 280.033 301.814C280.033 276.401 269.553 255.8 256.625 255.8C243.697 255.8 233.218 276.401 233.218 301.814C233.218 327.226 243.697 347.827 256.625 347.827Z" fill="#718096"/>
<path d="M256.625 255.718H232.148C219.221 255.718 208.74 276.36 208.74 301.775C208.74 327.061 219.124 347.614 231.965 347.808L256.474 348.384H256.622C269.549 348.384 280.029 327.466 280.029 302.051C280.029 276.636 269.553 255.718 256.625 255.718Z" fill="#F9F9F9"/>
<path d="M256.625 349.672H256.466L231.957 348.987C218.692 348.789 207.892 327.704 207.892 301.989C207.892 292.676 209.293 283.705 211.938 276.037C211.967 275.922 212.02 275.814 212.093 275.721C212.166 275.627 212.257 275.55 212.362 275.494C212.466 275.437 212.581 275.403 212.7 275.394C212.818 275.384 212.937 275.4 213.049 275.439C213.161 275.478 213.264 275.539 213.351 275.62C213.438 275.701 213.507 275.799 213.554 275.908C213.601 276.017 213.625 276.135 213.624 276.253C213.623 276.372 213.597 276.489 213.549 276.597C210.95 284.086 209.596 292.866 209.596 301.989C209.596 326.774 219.637 347.089 231.981 347.271L256.489 347.956H256.61C265.557 347.956 273.68 337.153 277.302 320.437C277.32 320.321 277.361 320.209 277.424 320.11C277.486 320.01 277.568 319.925 277.665 319.858C277.762 319.792 277.871 319.746 277.986 319.723C278.102 319.701 278.22 319.702 278.335 319.727C278.45 319.752 278.558 319.8 278.654 319.869C278.749 319.937 278.829 320.025 278.89 320.125C278.95 320.226 278.989 320.338 279.004 320.455C279.02 320.571 279.011 320.689 278.979 320.802C275.197 338.339 266.417 349.672 256.625 349.672Z" fill="#718096"/>
<path d="M513.338 0.86084H288.257V255.874H513.338V0.86084Z" fill="#F9F9F9"/>
<path d="M513.339 256.73H288.257C288.144 256.73 288.033 256.708 287.929 256.666C287.825 256.623 287.73 256.56 287.651 256.48C287.571 256.401 287.508 256.306 287.465 256.202C287.422 256.098 287.401 255.986 287.401 255.874V243.141C287.416 242.924 287.513 242.72 287.672 242.571C287.831 242.422 288.041 242.339 288.259 242.339C288.477 242.339 288.687 242.422 288.846 242.571C289.005 242.72 289.102 242.924 289.117 243.141V255.026H512.483V1.71657H289.117V61.1478C289.125 61.2653 289.108 61.3832 289.069 61.4941C289.029 61.6051 288.967 61.7067 288.887 61.7927C288.807 61.8788 288.709 61.9474 288.601 61.9943C288.493 62.0411 288.377 62.0653 288.259 62.0653C288.141 62.0653 288.025 62.0411 287.917 61.9943C287.809 61.9474 287.711 61.8788 287.631 61.7927C287.55 61.7067 287.489 61.6051 287.449 61.4941C287.41 61.3832 287.393 61.2653 287.401 61.1478V0.86072C287.401 0.748001 287.422 0.636291 287.465 0.532004C287.508 0.427718 287.571 0.33291 287.65 0.253024C287.73 0.173138 287.824 0.109748 287.929 0.0664947C288.033 0.023241 288.144 0.000975398 288.257 0.000976563L513.339 0.000976563C513.567 0.000976563 513.785 0.0915564 513.947 0.25279C514.108 0.414023 514.198 0.632702 514.198 0.86072V255.874C514.198 255.987 514.176 256.098 514.133 256.202C514.09 256.306 514.026 256.401 513.946 256.48C513.866 256.56 513.772 256.623 513.667 256.666C513.563 256.708 513.451 256.73 513.339 256.73Z" fill="#718096"/>
<path d="M216.093 146.426L219.252 191.234H209.993C208.023 191.234 206.073 190.846 204.253 190.092C202.433 189.337 200.78 188.232 199.387 186.838C197.995 185.445 196.891 183.791 196.138 181.97C195.385 180.15 194.998 178.199 195 176.229L195.019 149.387C195.02 148.439 195.208 147.501 195.572 146.627C195.936 145.752 196.47 144.958 197.142 144.29C197.814 143.623 198.611 143.094 199.488 142.736C200.365 142.377 201.304 142.196 202.251 142.201L211.063 142.248C212.255 142.255 213.408 142.676 214.325 143.437C215.242 144.199 215.867 145.255 216.093 146.426Z" fill="#718096"/>
<path d="M242.667 166.157L205.235 164.181L205.403 155.934H242.667V166.157Z" fill="#718096"/>
<path d="M531.117 168.382L521.846 70.1811C521.785 69.4391 521.447 68.7473 520.899 68.2429C520.352 67.7385 519.634 67.4583 518.89 67.458L482.322 66.7927C418.926 65.6412 355.55 66.759 292.194 70.1461C287.32 70.214 282.565 71.668 278.487 74.3382C274.409 77.0084 271.175 80.7844 269.164 85.2247L233.618 163.703L224.784 174.284C221.395 178.338 218.968 183.106 217.684 188.231L212.506 208.849C211.113 214.399 210.409 220.1 210.409 225.822V256.267C210.408 266.908 214.599 277.12 222.074 284.693C229.549 292.265 239.707 296.588 250.346 296.725L516.101 300.11C518.506 300.132 520.863 299.441 522.877 298.126C524.891 296.811 526.47 294.929 527.417 292.719L527.46 292.52C530.823 284.515 532.542 275.916 532.517 267.234V199.477C532.533 189.094 532.105 178.719 531.117 168.382Z" fill="#F9F9F9"/>
<path d="M368.567 252.143H264.456C261.471 252.143 258.525 251.453 255.85 250.128C253.175 248.803 250.841 246.878 249.032 244.503L245.141 239.403C243.836 237.692 243.041 235.646 242.849 233.502C242.657 231.359 243.076 229.204 244.056 227.289L253.999 207.837C255.971 203.974 258.972 200.73 262.671 198.465C266.37 196.199 270.623 195 274.96 195H359.293C363.686 195.001 367.991 196.231 371.721 198.551C375.451 200.872 378.458 204.189 380.401 208.129L389.403 226.351C390.305 228.173 390.703 230.204 390.557 232.232C390.41 234.259 389.725 236.211 388.571 237.886L384.533 243.752C382.75 246.339 380.366 248.455 377.585 249.917C374.804 251.378 371.709 252.143 368.567 252.143Z" fill="#F9F9F9"/>
<path d="M368.567 252.999H264.456C261.34 252.99 258.268 252.266 255.475 250.883C252.683 249.5 250.246 247.494 248.351 245.02L244.46 239.924C243.064 238.08 242.214 235.881 242.008 233.577C241.802 231.274 242.247 228.958 243.293 226.896L253.233 207.445C255.27 203.435 258.379 200.07 262.215 197.723C266.051 195.376 270.463 194.14 274.96 194.152H359.293C363.848 194.133 368.317 195.399 372.186 197.803C376.056 200.207 379.17 203.652 381.171 207.744L390.173 225.962C391.14 227.922 391.567 230.105 391.41 232.285C391.252 234.465 390.517 236.563 389.279 238.364L385.233 244.238C383.372 246.939 380.883 249.147 377.98 250.673C375.077 252.199 371.847 252.998 368.567 252.999ZM274.968 195.883C270.788 195.872 266.686 197.021 263.12 199.202C259.554 201.384 256.664 204.512 254.77 208.238L244.83 227.689C243.929 229.463 243.545 231.454 243.722 233.435C243.899 235.416 244.629 237.307 245.83 238.893L249.72 243.993C251.455 246.257 253.687 248.093 256.243 249.359C258.799 250.624 261.612 251.287 264.464 251.295H368.567C371.57 251.295 374.528 250.565 377.186 249.168C379.845 247.772 382.124 245.75 383.828 243.278L387.863 237.415C388.929 235.868 389.564 234.064 389.701 232.189C389.837 230.315 389.471 228.438 388.641 226.752L379.631 208.518C377.768 204.716 374.873 201.515 371.276 199.28C367.679 197.046 363.527 195.868 359.293 195.883H274.968Z" fill="#718096"/>
<path d="M212.23 210.117C211.752 212.028 212.028 214.049 213.001 215.761C213.974 217.473 215.569 218.746 217.454 219.314L231.218 223.453C232.243 223.724 233.329 223.649 234.308 223.241C235.286 222.834 236.104 222.115 236.633 221.196L244.803 206.985C245.453 205.854 245.819 204.581 245.869 203.276C245.919 201.972 245.652 200.675 245.091 199.497L245.001 199.31C244.283 197.796 243.253 196.45 241.98 195.361C240.706 194.272 239.217 193.463 237.61 192.988C231.374 191.183 225.39 188.599 219.8 185.297C219.665 185.214 219.513 185.164 219.355 185.151C219.198 185.138 219.039 185.162 218.893 185.221C218.746 185.281 218.616 185.374 218.512 185.493C218.408 185.613 218.333 185.755 218.295 185.908L212.23 210.117Z" fill="#F9F9F9"/>
<path d="M232.447 224.468C231.959 224.469 231.473 224.406 231 224.281L217.209 220.134C215.11 219.505 213.335 218.091 212.252 216.186C211.17 214.281 210.864 212.032 211.397 209.907L217.451 185.698C217.522 185.414 217.66 185.151 217.852 184.93C218.044 184.709 218.285 184.536 218.556 184.425C218.827 184.315 219.12 184.27 219.412 184.293C219.704 184.317 219.986 184.409 220.236 184.562C225.759 187.833 231.674 190.393 237.839 192.179C239.565 192.689 241.163 193.557 242.532 194.725C243.901 195.893 245.008 197.336 245.783 198.96L245.869 199.138C246.489 200.443 246.784 201.879 246.728 203.323C246.673 204.766 246.268 206.175 245.55 207.429L237.38 221.64C236.878 222.502 236.158 223.218 235.292 223.714C234.427 224.21 233.445 224.47 232.447 224.468ZM219.263 186.005C219.243 186.001 219.222 186.001 219.201 186.005C219.18 186.013 219.162 186.027 219.147 186.043C219.132 186.06 219.121 186.081 219.116 186.102L213.062 210.323C212.634 212.02 212.878 213.818 213.743 215.34C214.607 216.862 216.026 217.991 217.703 218.492L231.467 222.632C232.306 222.848 233.193 222.784 233.992 222.448C234.791 222.112 235.458 221.523 235.89 220.772L244.06 206.561C244.642 205.55 244.97 204.412 245.016 203.246C245.061 202.079 244.823 200.92 244.321 199.866L244.231 199.687C243.563 198.28 242.606 197.03 241.422 196.019C240.239 195.007 238.855 194.257 237.361 193.817C231.053 191.993 225.001 189.379 219.349 186.036C219.324 186.017 219.294 186.006 219.263 186.005Z" fill="#718096"/>
<path d="M516.108 300.954L250.342 297.569C227.853 297.285 209.561 278.756 209.561 256.267V225.822C209.561 220.029 210.273 214.258 211.681 208.639L216.851 188.02C218.174 182.772 220.661 177.889 224.126 173.731L232.887 163.251L268.385 84.9016C270.476 80.322 273.82 76.4279 278.031 73.6699C282.242 70.9119 287.149 69.4028 292.182 69.3173C355.204 65.9483 419.198 64.8202 482.341 65.9678L518.909 66.6291C519.862 66.6304 520.78 66.9886 521.482 67.633C522.184 68.2775 522.62 69.1615 522.702 70.1109L531.984 168.316C532.922 178.205 533.396 188.693 533.396 199.489V267.222C533.423 275.991 531.687 284.676 528.292 292.761L528.265 292.886C528.254 292.935 528.238 292.983 528.219 293.03C527.206 295.397 525.516 297.413 523.361 298.823C521.207 300.233 518.683 300.974 516.108 300.954ZM434.378 67.236C386.972 67.236 339.351 68.5042 292.24 71.0212C287.528 71.0951 282.933 72.5024 278.987 75.0801C275.041 77.6578 271.906 81.3005 269.945 85.5863L234.4 164.056C234.368 164.126 234.328 164.191 234.28 164.251L225.441 174.821C222.141 178.783 219.775 183.436 218.516 188.437L213.346 209.055C211.972 214.537 211.277 220.166 211.277 225.818V256.263C211.277 277.819 228.81 295.578 250.366 295.85L516.116 299.234C518.341 299.255 520.523 298.621 522.391 297.411C524.258 296.202 525.729 294.469 526.62 292.43L526.647 292.306C526.658 292.257 526.674 292.209 526.694 292.162C530.019 284.268 531.719 275.784 531.693 267.218V199.477C531.693 188.736 531.218 178.302 530.288 168.464L521.002 70.2626C520.961 69.7335 520.722 69.2394 520.333 68.8789C519.943 68.5183 519.432 68.3179 518.901 68.3175L482.333 67.6523C466.391 67.3748 450.406 67.236 434.378 67.236Z" fill="#718096"/>
<path d="M439.081 163.504H250.432C249.519 163.504 248.62 163.276 247.818 162.839C247.016 162.403 246.335 161.773 245.839 161.007C245.342 160.24 245.045 159.362 244.975 158.451C244.905 157.541 245.064 156.627 245.437 155.794L273.583 92.978C275.866 87.8857 280.048 84.3027 286.37 84.186L297.099 83.5947C357.969 80.2543 418.903 79.5592 479.902 81.5096C480.573 81.5311 481.231 81.7076 481.823 82.0253C482.415 82.343 482.925 82.7932 483.314 83.3409C483.703 83.8886 483.961 84.5188 484.066 85.1824C484.171 85.8459 484.121 86.5248 483.92 87.166L466.251 143.551C464.437 149.336 460.823 154.392 455.936 157.98C451.049 161.569 445.145 163.504 439.081 163.504Z" fill="#F9F9F9"/>
<path d="M439.082 164.364H250.432C249.376 164.364 248.336 164.1 247.407 163.595C246.479 163.091 245.692 162.362 245.117 161.475C244.543 160.588 244.2 159.571 244.119 158.518C244.038 157.464 244.223 156.407 244.655 155.443L272.805 92.6315C275.439 86.7494 280.255 83.4466 286.359 83.3338L297.057 82.7425C357.706 79.3969 419.238 78.6928 479.949 80.6495C480.752 80.676 481.539 80.8877 482.248 81.2683C482.956 81.6489 483.567 82.188 484.033 82.8436C484.499 83.4992 484.807 84.2535 484.933 85.0478C485.059 85.8421 485 86.6547 484.761 87.4225L467.068 143.804C465.218 149.775 461.501 154.994 456.463 158.695C451.425 162.396 445.333 164.383 439.082 164.364ZM412.632 81.307C374.064 81.307 335.422 82.3651 297.131 84.4775L286.421 85.0494C279.465 85.1778 276.034 89.6282 274.361 93.3356L246.219 156.144C245.904 156.847 245.77 157.617 245.83 158.385C245.889 159.153 246.139 159.894 246.558 160.541C246.977 161.187 247.551 161.719 248.227 162.087C248.904 162.455 249.662 162.648 250.432 162.648H439.082C444.967 162.666 450.703 160.796 455.446 157.312C460.189 153.828 463.69 148.915 465.434 143.294L483.104 86.9128C483.265 86.3975 483.306 85.8518 483.221 85.3183C483.137 84.7848 482.931 84.278 482.618 83.8376C482.305 83.3972 481.895 83.0352 481.419 82.7797C480.943 82.5243 480.415 82.3824 479.875 82.3651C457.545 81.6467 435.13 81.294 412.632 81.307Z" fill="#718096"/>
<path d="M468.531 95.8954C468.531 95.8954 383.206 95.0668 337.332 97.257L333.726 97.3115C329.513 97.3779 325.494 99.0989 322.539 102.103C319.584 105.107 317.929 109.153 317.932 113.367V124.069C317.93 131.068 320.659 137.792 325.537 142.812L325.689 142.971C327.721 145.064 330.153 146.728 332.84 147.864C335.527 148.999 338.414 149.585 341.331 149.585H345.805L351.995 127.021C352.435 125.417 353.391 124.001 354.714 122.993C356.038 121.984 357.656 121.438 359.32 121.439H379.709C380.706 121.438 381.694 121.634 382.616 122.016C383.538 122.397 384.375 122.956 385.081 123.662C385.786 124.367 386.346 125.204 386.728 126.126C387.11 127.047 387.306 128.035 387.306 129.033V149.569H429.582L435.771 127.006C436.212 125.401 437.167 123.986 438.491 122.977C439.814 121.969 441.432 121.423 443.096 121.423H463.477C463.541 121.422 463.604 121.431 463.664 121.45L471.561 99.5912C472.211 97.8017 470.701 95.9577 468.531 95.8954Z" fill="#F9F9F9"/>
<path d="M429.582 150.445H387.306C387.078 150.445 386.86 150.354 386.698 150.193C386.537 150.032 386.447 149.813 386.447 149.585V129.048C386.444 127.262 385.734 125.549 384.471 124.286C383.208 123.023 381.495 122.312 379.709 122.31H359.328C357.852 122.314 356.418 122.8 355.245 123.695C354.072 124.59 353.224 125.844 352.831 127.267L346.642 149.83C346.591 150.011 346.483 150.171 346.334 150.285C346.184 150.399 346.001 150.46 345.813 150.46H341.339C338.308 150.453 335.309 149.841 332.518 148.661C329.726 147.481 327.198 145.755 325.082 143.586L324.926 143.427C319.881 138.254 317.065 131.31 317.08 124.084V113.367C317.103 108.939 318.855 104.696 321.961 101.541C325.068 98.3868 329.284 96.5704 333.71 96.4791L337.317 96.4208C382.665 94.2461 467.686 95.0436 468.538 95.0514C469.206 95.0573 469.863 95.2211 470.455 95.5295C471.048 95.8378 471.558 96.2818 471.946 96.8254C472.253 97.2703 472.448 97.7824 472.516 98.3185C472.584 98.8547 472.522 99.3992 472.335 99.9064L464.477 121.766C464.404 121.973 464.254 122.144 464.059 122.243C463.863 122.342 463.637 122.362 463.427 122.299H443.1C441.624 122.301 440.19 122.787 439.017 123.682C437.843 124.577 436.996 125.832 436.603 127.255L430.414 149.818C430.362 149.999 430.252 150.157 430.102 150.27C429.952 150.383 429.769 150.444 429.582 150.445ZM388.158 148.729H428.928L434.946 126.823C435.439 125.034 436.505 123.456 437.98 122.332C439.456 121.207 441.26 120.599 443.116 120.599H463.077L470.752 99.3151C470.844 99.062 470.874 98.7903 470.838 98.5233C470.802 98.2564 470.702 98.0021 470.546 97.7824C470.311 97.4651 470.005 97.2073 469.652 97.0297C469.299 96.852 468.91 96.7594 468.515 96.7592C467.255 96.7592 382.587 95.9617 337.371 98.1286L333.738 98.1869C329.761 98.269 325.973 99.901 323.182 102.735C320.391 105.569 318.817 109.381 318.795 113.359V124.061C318.783 130.84 321.426 137.355 326.159 142.209L326.315 142.368C328.271 144.373 330.608 145.967 333.187 147.058C335.767 148.149 338.538 148.714 341.339 148.721H345.163L351.178 126.823C351.67 125.034 352.736 123.456 354.212 122.332C355.688 121.207 357.492 120.599 359.347 120.599H379.709C381.95 120.601 384.099 121.492 385.684 123.077C387.269 124.662 388.16 126.811 388.162 129.052L388.158 148.729Z" fill="#718096"/>
<path d="M447.519 313.524H231.059C228.43 313.523 225.83 312.991 223.413 311.959C220.996 310.926 218.813 309.416 216.995 307.517L215.288 305.735C210.924 301.18 208.01 295.433 206.912 289.221L202.489 264.215C202.262 262.928 202.295 261.609 202.584 260.335C202.874 259.061 203.416 257.858 204.177 256.796L210.331 248.238L239.784 252.334C243.492 252.849 247 254.324 249.961 256.613L251.37 257.706C253.423 259.294 255.944 260.156 258.539 260.157H375.32C378.044 260.157 380.682 259.208 382.782 257.473L383.443 256.928C386.933 254.045 391.246 252.34 395.764 252.058L483.38 246.643L468.562 291.31C466.587 297.266 463.567 302.822 459.645 307.719C459.645 307.719 455.012 313.524 447.519 313.524Z" fill="#F9F9F9"/>
<path d="M321.709 314.383H231.066C228.321 314.378 225.606 313.819 223.081 312.741C220.557 311.663 218.275 310.088 216.373 308.108L214.669 306.327C210.183 301.651 207.189 295.747 206.068 289.365L201.645 264.363C201.402 262.963 201.439 261.529 201.754 260.145C202.07 258.76 202.656 257.451 203.481 256.294L209.631 247.736C209.723 247.608 209.847 247.509 209.991 247.447C210.135 247.385 210.293 247.364 210.448 247.386L239.905 251.486C243.76 252.022 247.408 253.558 250.487 255.94L251.895 257.03C253.798 258.5 256.134 259.298 258.539 259.301H375.321C377.843 259.298 380.287 258.42 382.233 256.816L382.895 256.271C386.527 253.263 391.024 251.491 395.733 251.214L474.705 246.32C474.931 246.31 475.152 246.388 475.322 246.539C475.492 246.689 475.597 246.899 475.615 247.125C475.629 247.351 475.552 247.574 475.402 247.744C475.251 247.914 475.04 248.017 474.813 248.031L395.818 252.906C391.479 253.166 387.336 254.801 383.988 257.574L383.327 258.119C381.074 259.981 378.243 261 375.321 261.001H258.539C255.754 260.996 253.049 260.07 250.844 258.368L249.436 257.278C246.594 255.079 243.227 253.66 239.668 253.163L210.724 249.136L204.889 257.306C204.193 258.274 203.698 259.37 203.43 260.532C203.163 261.693 203.13 262.896 203.333 264.071L207.752 289.081C208.821 295.13 211.664 300.724 215.922 305.152L217.614 306.941C219.355 308.752 221.443 310.193 223.752 311.178C226.062 312.164 228.547 312.675 231.059 312.679H321.701C321.814 312.679 321.926 312.702 322.03 312.745C322.135 312.788 322.229 312.851 322.309 312.931C322.389 313.011 322.452 313.106 322.496 313.21C322.539 313.314 322.561 313.426 322.561 313.539C322.561 313.652 322.539 313.764 322.496 313.868C322.452 313.972 322.389 314.067 322.309 314.147C322.229 314.227 322.135 314.29 322.03 314.333C321.926 314.377 321.814 314.399 321.701 314.399L321.709 314.383Z" fill="#718096"/>
<path d="M318.737 298.207H284.444C281.958 298.204 279.507 297.617 277.289 296.493C275.07 295.369 273.147 293.741 271.673 291.738L267.156 285.58C266.759 285.039 266.519 284.399 266.464 283.731C266.409 283.062 266.54 282.392 266.843 281.793C267.147 281.195 267.61 280.693 268.182 280.342C268.753 279.991 269.411 279.806 270.082 279.807H341.709C341.926 279.821 342.13 279.918 342.279 280.077C342.428 280.237 342.511 280.446 342.511 280.664C342.511 280.882 342.428 281.092 342.279 281.252C342.13 281.411 341.926 281.508 341.709 281.522H270.082C269.727 281.519 269.378 281.615 269.075 281.798C268.771 281.982 268.525 282.247 268.363 282.562C268.202 282.878 268.132 283.233 268.16 283.586C268.189 283.94 268.315 284.279 268.526 284.564L273.046 290.723C274.36 292.508 276.075 293.961 278.053 294.963C280.03 295.965 282.216 296.489 284.433 296.492H318.725C318.943 296.507 319.147 296.603 319.296 296.763C319.444 296.922 319.527 297.132 319.527 297.35C319.527 297.568 319.444 297.778 319.296 297.937C319.147 298.096 318.943 298.193 318.725 298.207H318.737Z" fill="#718096"/>
</g>
<g opacity="0.1">
<path d="M109.045 130.07L5.70575 148.02L-97.5457 130.049L6.87824 111.885L109.045 130.07Z" fill="#F9F9F9"/>
<path d="M5.72693 300.126V147.869L109.471 130.007V281.847L5.72693 300.126Z" fill="#F9F9F9"/>
<path d="M5.72385 300.794C5.54698 300.793 5.37757 300.723 5.2525 300.598C5.12743 300.473 5.05683 300.303 5.05603 300.126V147.869C5.05593 147.712 5.1114 147.56 5.21262 147.44C5.31384 147.32 5.45425 147.24 5.60902 147.214L109.353 129.351C109.449 129.335 109.547 129.34 109.641 129.365C109.735 129.391 109.822 129.437 109.897 129.499C109.971 129.561 110.031 129.639 110.072 129.727C110.112 129.814 110.133 129.91 110.133 130.007V281.847C110.133 282.004 110.078 282.155 109.977 282.275C109.877 282.395 109.737 282.476 109.583 282.503L5.84171 300.794H5.72385ZM6.38865 148.431V299.335L108.8 281.288V130.799L6.38865 148.431Z" fill="#718096"/>
<path d="M24.4021 260.494C24.2258 260.493 24.0571 260.422 23.9327 260.297C23.8083 260.172 23.7381 260.003 23.7373 259.827V187.039C23.7371 186.881 23.7925 186.729 23.8936 186.608C23.9948 186.488 24.1353 186.407 24.2903 186.38L91.3457 174.722C91.4414 174.704 91.5398 174.708 91.6338 174.733C91.7278 174.758 91.8151 174.804 91.8895 174.866C91.964 174.929 92.0237 175.007 92.0645 175.095C92.1052 175.184 92.126 175.28 92.1254 175.377V247.902C92.125 248.059 92.0697 248.21 91.9692 248.33C91.8687 248.45 91.7293 248.53 91.5754 248.558L24.52 260.488C24.481 260.495 24.4415 260.497 24.4021 260.494ZM25.07 187.598V259.032L90.7927 247.337V176.169L25.07 187.598Z" fill="#718096"/>
<path d="M51.5536 246.935H51.4206C50.1952 246.901 48.9889 246.622 47.872 246.117C46.7551 245.612 45.7497 244.889 44.9145 243.992C43.1251 242.099 42.1357 239.589 42.1526 236.984V235.437C42.1429 234.669 42.438 233.929 42.9733 233.378C43.5086 232.828 44.2404 232.512 45.0082 232.5C45.3939 232.499 45.7756 232.577 46.1296 232.73C46.4836 232.883 46.8024 233.107 47.0661 233.388C47.5891 233.939 47.8783 234.671 47.873 235.431V237.045C47.8639 238.112 48.2666 239.141 48.9971 239.919C49.3311 240.278 49.7355 240.566 50.1851 240.763C50.6348 240.96 51.1201 241.062 51.611 241.064H51.6835C52.1589 241.05 52.6266 240.941 53.0593 240.743C53.492 240.546 53.8811 240.265 54.2038 239.916C54.9349 239.138 55.3376 238.109 55.3279 237.042V191.714C55.3267 191.3 55.4121 190.891 55.5786 190.513C55.7452 190.134 55.9892 189.795 56.2949 189.517C56.5887 189.252 56.9345 189.052 57.3102 188.928C57.6859 188.805 58.0832 188.761 58.4767 188.801C59.1955 188.894 59.8548 189.249 60.3299 189.796C60.8049 190.344 61.0627 191.046 61.0544 191.771V236.972C61.0688 239.576 60.0796 242.086 58.2924 243.98C57.447 244.883 56.43 245.608 55.3009 246.113C54.1718 246.618 52.9533 246.892 51.7168 246.92L51.608 246.255V246.92L51.5536 246.935ZM45.0082 233.842C44.5944 233.85 44.2009 234.023 43.9142 234.321C43.6276 234.62 43.471 235.02 43.4791 235.434V236.981C43.4609 239.244 44.3186 241.426 45.8725 243.07C46.593 243.842 47.46 244.463 48.4229 244.897C49.3858 245.331 50.4254 245.569 51.4811 245.597L51.5415 246.268V245.6H51.6745C52.7397 245.578 53.7897 245.343 54.7628 244.909C55.7359 244.475 56.6123 243.851 57.3405 243.073C58.8926 241.427 59.7508 239.247 59.7369 236.984V191.783C59.7478 191.388 59.6137 191.003 59.3598 190.7C59.1059 190.397 58.7498 190.197 58.3589 190.139C58.1501 190.119 57.9394 190.142 57.7401 190.208C57.5408 190.273 57.3574 190.38 57.2015 190.52C57.0342 190.673 56.9009 190.86 56.8103 191.069C56.7198 191.277 56.6739 191.502 56.6757 191.729L56.6606 237.057C56.6705 238.466 56.1356 239.825 55.1678 240.849C54.7133 241.342 54.1615 241.736 53.5472 242.005C52.933 242.275 52.2696 242.414 51.599 242.414C50.9283 242.414 50.2649 242.275 49.6506 242.005C49.0364 241.736 48.4846 241.342 48.0301 240.849C47.0638 239.825 46.5301 238.468 46.5403 237.06V235.446C46.5427 235.029 46.3848 234.626 46.0991 234.322C45.96 234.171 45.7914 234.051 45.6037 233.968C45.416 233.886 45.2133 233.842 45.0082 233.842Z" fill="#718096"/>
<path d="M79.3005 213.58C79.6248 213.524 79.934 213.402 80.2086 213.221C80.4832 213.039 80.717 212.803 80.8955 212.527C81.0739 212.25 81.1929 211.94 81.2451 211.615C81.2972 211.29 81.2812 210.958 81.1982 210.639C78.0797 198.782 67.5786 195.107 56.3796 197.041C45.6066 198.896 37.4596 207.237 34.7399 217.759C34.6375 218.143 34.633 218.547 34.7271 218.934C34.8211 219.32 35.0106 219.677 35.2781 219.971C35.5457 220.266 35.8829 220.488 36.2587 220.618C36.6345 220.749 37.0371 220.783 37.4294 220.717L79.3005 213.58Z" fill="#F9F9F9"/>
<path d="M37.0274 221.413C36.6095 221.413 36.196 221.326 35.8136 221.157C35.4311 220.989 35.0881 220.742 34.8064 220.433C34.4584 220.056 34.211 219.597 34.0869 219.099C33.9627 218.601 33.966 218.08 34.0962 217.584C36.9519 206.53 45.6549 198.208 56.2677 196.379C69.3675 194.122 78.9318 199.401 81.8449 210.47C81.9514 210.878 81.9719 211.304 81.9052 211.721C81.8384 212.137 81.6858 212.535 81.4571 212.889C81.2284 213.244 80.9285 213.547 80.5765 213.779C80.2245 214.011 79.828 214.168 79.4123 214.239L37.5412 221.367C37.3716 221.397 37.1997 221.412 37.0274 221.413ZM61.9458 197.204C60.1222 197.212 58.3026 197.375 56.5065 197.691C46.4074 199.431 38.1244 207.361 35.3986 217.919C35.3247 218.2 35.3225 218.495 35.3922 218.777C35.4619 219.059 35.6013 219.319 35.7975 219.533C35.9879 219.743 36.2283 219.9 36.4962 219.992C36.7641 220.083 37.0509 220.105 37.3296 220.056L79.2007 212.924C79.4338 212.884 79.6559 212.795 79.8531 212.665C80.0504 212.534 80.2184 212.364 80.3467 212.165C80.475 211.967 80.5608 211.744 80.5986 211.51C80.6365 211.277 80.6256 211.038 80.5666 210.809C78.2489 202.06 71.4587 197.204 61.9458 197.204Z" fill="#718096"/>
<path d="M5.72689 300.126V147.869L-97.1196 129.985V281.937L5.72689 300.126Z" fill="#F9F9F9"/>
<path d="M5.72383 300.795H5.60598L-97.2375 282.603C-97.3917 282.576 -97.5314 282.495 -97.632 282.375C-97.7326 282.255 -97.7877 282.104 -97.7875 281.947V129.986C-97.788 129.889 -97.7672 129.793 -97.7265 129.704C-97.6858 129.616 -97.6261 129.537 -97.5517 129.474C-97.4774 129.412 -97.3901 129.366 -97.2961 129.34C-97.2021 129.315 -97.1037 129.311 -97.0078 129.327L5.83564 147.214C5.99041 147.24 6.13083 147.321 6.23204 147.441C6.33326 147.561 6.38873 147.713 6.38863 147.87V300.127C6.38903 300.214 6.37214 300.301 6.33891 300.382C6.30567 300.463 6.25678 300.537 6.19501 300.599C6.13323 300.661 6.05981 300.71 5.97895 300.744C5.89809 300.777 5.81139 300.795 5.72383 300.795ZM-96.4548 281.379L5.05602 299.332V148.432L-96.4548 130.778V281.379Z" fill="#718096"/>
<path d="M143.237 124.706L107.129 129.668L7.3739 112.223L42.9384 107.219L143.237 124.706Z" fill="#F9F9F9"/>
<path d="M7.99332 111.688L-95.9441 130.149L-137.347 127.333L-34.3613 108.703L7.99332 111.688Z" fill="#F9F9F9"/>
<path d="M107.764 130.198C107.725 130.202 107.687 130.202 107.649 130.198L31.7997 116.971C31.7136 116.956 31.6313 116.924 31.5574 116.878C31.4835 116.831 31.4196 116.77 31.3692 116.699C31.3188 116.627 31.283 116.547 31.2638 116.461C31.2446 116.376 31.2424 116.288 31.2573 116.202C31.2722 116.116 31.3039 116.033 31.3506 115.96C31.3973 115.886 31.4581 115.822 31.5295 115.771C31.6009 115.721 31.6815 115.685 31.7668 115.666C31.852 115.647 31.9402 115.645 32.0264 115.659L107.785 128.868L139.052 124.468L43.0259 107.724L36.4141 108.655C36.2443 108.668 36.0757 108.617 35.9429 108.51C35.81 108.403 35.7229 108.25 35.6994 108.081C35.6758 107.913 35.7176 107.741 35.8162 107.602C35.9148 107.464 36.0627 107.368 36.2298 107.334L42.9444 106.391C43.0134 106.379 43.0839 106.379 43.1529 106.391L143.452 123.879C143.608 123.907 143.748 123.99 143.848 124.112C143.949 124.235 144.003 124.389 144 124.547C143.997 124.705 143.939 124.857 143.835 124.976C143.73 125.095 143.587 125.173 143.431 125.197L107.863 130.189L107.764 130.198Z" fill="#718096"/>
<path d="M5.7057 148.02L-17.5567 173.141L-126.302 154.061L-97.0834 130.14L5.7057 148.02Z" fill="#F9F9F9"/>
<path d="M-17.5445 173.808C-17.5827 173.812 -17.6211 173.812 -17.6593 173.808L-126.405 154.728C-126.53 154.705 -126.645 154.647 -126.738 154.56C-126.831 154.473 -126.898 154.362 -126.929 154.238C-126.961 154.115 -126.957 153.986 -126.918 153.865C-126.878 153.744 -126.805 153.637 -126.707 153.556L-97.4912 129.632C-97.4165 129.572 -97.3299 129.528 -97.2372 129.504C-97.1445 129.48 -97.0477 129.476 -96.9533 129.493L5.83575 147.37C5.9541 147.391 6.06467 147.443 6.15582 147.521C6.24698 147.599 6.31537 147.701 6.35373 147.815C6.39209 147.929 6.39902 148.051 6.37379 148.168C6.34859 148.286 6.29216 148.394 6.21046 148.482L-17.058 173.603C-17.1206 173.669 -17.1961 173.721 -17.2798 173.756C-17.3635 173.792 -17.4536 173.809 -17.5445 173.808ZM-124.743 153.656L-17.7862 172.421L4.39734 148.464L-96.8838 130.849L-124.743 153.656Z" fill="#718096"/>
<path d="M109.132 130.094L137.541 155.254L30.2735 174.341L5.86584 148.313L109.132 130.094Z" fill="#F9F9F9"/>
<path d="M30.2736 175.005C30.1827 175.005 30.0928 174.986 30.0092 174.95C29.9256 174.914 29.8501 174.862 29.7871 174.797L5.37944 148.769C5.29777 148.681 5.24129 148.573 5.21592 148.456C5.19054 148.338 5.19722 148.217 5.23525 148.103C5.27328 147.989 5.34127 147.888 5.43204 147.809C5.52282 147.731 5.63303 147.678 5.75113 147.657L109.015 129.453C109.114 129.435 109.216 129.44 109.312 129.467C109.409 129.494 109.499 129.543 109.574 129.61L137.979 154.771C138.073 154.854 138.141 154.962 138.177 155.082C138.212 155.202 138.213 155.33 138.179 155.451C138.145 155.571 138.078 155.68 137.985 155.764C137.892 155.848 137.777 155.904 137.653 155.925L30.3764 175.011L30.2736 175.005ZM7.19559 148.757L30.5124 173.621L136.066 154.84L108.93 130.807L7.19559 148.757Z" fill="#718096"/>
<path d="M6.38266 50.4165C-10.8088 50.4165 -24.7427 64.3171 -24.7427 81.4572C-24.7427 85.7422 -22.7966 91.7316 -19.8774 98.3132C-12.5222 114.897 1.01276 135.207 5.15273 141.275C5.28973 141.476 5.47363 141.64 5.6885 141.754C5.90335 141.867 6.14266 141.926 6.38564 141.926C6.62863 141.926 6.86797 141.867 7.08283 141.754C7.29769 141.64 7.4816 141.476 7.61859 141.275C13.3964 132.814 37.514 96.5515 37.514 81.4421C37.511 64.3141 23.5741 50.4165 6.38266 50.4165Z" fill="#718096"/>
<path d="M16.0142 91.0143C21.333 85.6955 21.333 77.0721 16.0142 71.7533C10.6954 66.4345 2.07198 66.4345 -3.2468 71.7533C-8.56558 77.0721 -8.56558 85.6955 -3.2468 91.0143C2.07198 96.3331 10.6954 96.3331 16.0142 91.0143Z" fill="#F9F9F9"/>
</g>
</svg>
