<?xml version="1.0" encoding="utf-8"?><svg viewBox="0 0 800 800" xmlns="http://www.w3.org/2000/svg" xmlns:xlink="http://www.w3.org/1999/xlink"><style>:root>svg{display:none}:root>svg:target{display:block}</style><svg viewBox="0 0 28 32" id="box" xmlns="http://www.w3.org/2000/svg"><path d="M27.442 8.907a.3.3 0 010-.127.269.269 0 010-.11v-.143l-.095-.238a.76.76 0 00-.142-.174l-.142-.127h-.08l-6.238-3.942-5.89-3.642a1.346 1.346 0 00-.46-.237h-.126a1.298 1.298 0 00-.427 0h-.159c-.184.04-.36.11-.522.205L1.333 7.735l-.142.11-.143.127-.158.111-.08.095-.094.238v.237a1.093 1.093 0 000 .317v13.822a1.583 1.583 0 00.744 1.346l11.875 7.347.237.095h.127c.268.085.556.085.824 0h.126l.238-.095 11.78-7.236a1.584 1.584 0 00.744-1.346V9.081s.031-.111.031-.174zM14 3.602l2.818 1.742-8.85 5.478-2.835-1.741L14 3.602zm-1.583 23.75l-8.709-5.32V11.915l8.709 5.383v10.055zM14 14.512l-3.024-1.821 8.85-5.494 3.04 1.884L14 14.51zm10.292 7.473L15.583 27.4V17.298l8.709-5.383v10.07z"/></svg><svg viewBox="0 0 30 26" id="car" xmlns="http://www.w3.org/2000/svg"><path d="M.333 13.667v6.666a1.333 1.333 0 001.334 1.334H3a4 4 0 008 0h8a4 4 0 108 0h1.333a1.334 1.334 0 001.334-1.334v-16a4 4 0 00-4-4h-12a4 4 0 00-4 4V7H7a4 4 0 00-3.2 1.6L.6 12.867a.813.813 0 00-.093.186l-.08.147c-.06.149-.09.307-.094.467zm21.334 8a1.334 1.334 0 112.667 0 1.334 1.334 0 01-2.667 0zM12.333 4.333A1.333 1.333 0 0113.667 3h12A1.333 1.333 0 0127 4.333V19h-1.04a4 4 0 00-5.92 0h-7.707V4.333zm-2.666 8H4.333l1.6-2.133A1.333 1.333 0 017 9.667h2.667v2.666zm-4 9.334a1.334 1.334 0 112.667 0 1.334 1.334 0 01-2.667 0zM3 15h6.667v3.707A4 4 0 004.04 19H3v-4z"/></svg><svg viewBox="0 0 28 21" id="cash" xmlns="http://www.w3.org/2000/svg"><path d="M7.333 14h4a1.333 1.333 0 100-2.667h-4a1.333 1.333 0 100 2.667zm16-13.333H4.667a4 4 0 00-4 4v12a4 4 0 004 4h18.666a4 4 0 004-4v-12a4 4 0 00-4-4zm1.334 16A1.333 1.333 0 0123.333 18H4.667a1.333 1.333 0 01-1.334-1.334v-8h21.334v8zm0-10.667H3.333V4.667a1.333 1.333 0 011.334-1.334h18.666a1.333 1.333 0 011.334 1.333V6z"/></svg><svg viewBox="0 0 22 26" id="clock" xmlns="http://www.w3.org/2000/svg"><path d="M19.4 8.453l1.213-1.2A1.339 1.339 0 1018.72 5.36l-1.2 1.213a10.667 10.667 0 00-13.053 0L3.253 5.347A1.344 1.344 0 001.36 7.253l1.227 1.214A10.56 10.56 0 00.333 15 10.667 10.667 0 1019.4 8.453zM11 23a8 8 0 110-16 8 8 0 010 16zM8.333 3h5.334a1.333 1.333 0 000-2.667H8.333a1.333 1.333 0 000 2.667zm4 8a1.333 1.333 0 10-2.666 0v2.52a2 2 0 102.666 0V11z"/></svg><svg viewBox="0 0 502.664 502.664" id="icon" xmlns="http://www.w3.org/2000/svg"><path d="M153.821 358.226L0 274.337v-46.463l153.821-83.414v54.574L46.636 250.523l107.185 53.431v54.272zm26.273 29.358L282.103 115.08h32.227L212.084 387.584h-31.99zm168.749-29.358v-54.272l107.164-52.999-107.164-52.59v-53.927l153.821 83.522v46.183l-153.821 84.083z"/></svg><svg viewBox="0 0 24 28" id="location" xmlns="http://www.w3.org/2000/svg"><path d="M20 3.973a11.314 11.314 0 10-16 16l7.027 7.04a1.334 1.334 0 001.893 0L20 19.907a11.266 11.266 0 000-15.934zM18.093 18L12 24.12 5.907 18a8.613 8.613 0 1112.186 0zM8 7.88a5.76 5.76 0 000 8.133 5.747 5.747 0 009.813-4 5.653 5.653 0 00-1.68-4.066A5.732 5.732 0 008 7.88zm6.253 6.24a3.106 3.106 0 11.894-2.173 3.107 3.107 0 01-.96 2.173h.066z"/></svg><svg viewBox="0 0 28 22" id="mail" xmlns="http://www.w3.org/2000/svg"><path d="M23.333.333H4.667a4 4 0 00-4 4v13.334a4 4 0 004 4h18.666a4 4 0 004-4V4.333a4 4 0 00-4-4zM22.787 3l-7.84 7.84a1.334 1.334 0 01-1.894 0L5.213 3h17.574zm1.88 14.667A1.333 1.333 0 0123.333 19H4.667a1.333 1.333 0 01-1.334-1.333V4.88l7.84 7.84a4 4 0 005.654 0l7.84-7.84v12.787z"/></svg><svg viewBox="0 0 30 20" id="pay" xmlns="http://www.w3.org/2000/svg"><path d="M7 8.666a1.333 1.333 0 100 2.667 1.333 1.333 0 000-2.667zm16 0a1.333 1.333 0 100 2.666 1.333 1.333 0 000-2.666zm2.667-8H4.333a4 4 0 00-4 4v10.667a4 4 0 004 4h21.334a4 4 0 004-4V4.667a4 4 0 00-4-4zM27 15.334a1.334 1.334 0 01-1.333 1.333H4.333A1.334 1.334 0 013 15.333V4.667a1.333 1.333 0 011.333-1.334h21.334A1.333 1.333 0 0127 4.666v10.667zM15 6a4 4 0 100 8 4 4 0 000-8zm0 5.333a1.334 1.334 0 110-2.667 1.334 1.334 0 010 2.667z"/></svg><svg viewBox="0 0 22 22" id="percent" xmlns="http://www.w3.org/2000/svg"><path d="M5.344 9.344a4 4 0 100-8 4 4 0 000 8zm0-5.333a1.333 1.333 0 110 2.667 1.333 1.333 0 010-2.667zm11.312 8.645a4 4 0 100 8 4 4 0 000-8zm0 5.333a1.334 1.334 0 110-2.667 1.334 1.334 0 010 2.667zM21.276.724a1.333 1.333 0 00-1.885 0L.724 19.391a1.333 1.333 0 101.885 1.885L21.276 2.609a1.333 1.333 0 000-1.885z"/></svg><svg viewBox="0 0 28 28" id="phone" xmlns="http://www.w3.org/2000/svg"><path d="M23.92 15.334c-.293 0-.6-.094-.893-.16a12.59 12.59 0 01-1.747-.52 2.666 2.666 0 00-3.307 1.333l-.293.6a16.24 16.24 0 01-3.547-2.667 16.241 16.241 0 01-2.666-3.546l.56-.374a2.666 2.666 0 001.333-3.307 13.777 13.777 0 01-.52-1.746 9.88 9.88 0 01-.16-.907 4 4 0 00-4-3.32h-4a4 4 0 00-4 4.547 25.333 25.333 0 0022.027 21.947h.506A4 4 0 0025.88 26.2a3.998 3.998 0 001.333-3v-4a4 4 0 00-3.293-3.866zm.667 8a1.334 1.334 0 01-.454 1 1.4 1.4 0 01-1.093.333A22.666 22.666 0 013.427 4.96a1.453 1.453 0 01.333-1.093 1.333 1.333 0 011-.454h4a1.333 1.333 0 011.333 1.054c.054.364.12.724.2 1.08.154.703.36 1.393.614 2.066L9.04 8.48a1.333 1.333 0 00-.653 1.774 19.32 19.32 0 009.333 9.333c.325.133.689.133 1.013 0a1.334 1.334 0 00.76-.694l.827-1.866c.69.246 1.393.451 2.107.613.355.08.715.147 1.08.2a1.333 1.333 0 011.053 1.334l.027 4.16z"/></svg><svg viewBox="0 0 34 30" id="pro" xmlns="http://www.w3.org/2000/svg"><path d="M20.958 7.083a6.333 6.333 0 100 12.667 6.333 6.333 0 000-12.667zm0 9.5a3.167 3.167 0 110-6.334 3.167 3.167 0 010 6.334zM22.542.75h-3.167A11.083 11.083 0 008.292 11.833v4.75H6.708a1.583 1.583 0 100 3.167h1.584v3.167H1.958A1.583 1.583 0 00.375 24.5v3.167a1.584 1.584 0 003.167 0v-1.584h19A11.084 11.084 0 0033.625 15v-3.167A11.083 11.083 0 0022.542.75zM30.458 15a7.916 7.916 0 01-7.916 7.917H11.458V11.833a7.917 7.917 0 017.917-7.916h3.167a7.916 7.916 0 017.916 7.916V15z"/></svg><svg viewBox="0 0 30 32" id="quality" xmlns="http://www.w3.org/2000/svg"><path d="M29.044 24.313l-4.29-7.41a10.924 10.924 0 001.33-5.257 11.083 11.083 0 00-22.167 0 10.925 10.925 0 001.33 5.256l-4.291 7.41a1.583 1.583 0 001.377 2.375h4.545l2.311 3.895c.078.13.174.247.285.349.294.283.685.441 1.093.443h.221a1.582 1.582 0 001.156-.776L15 25.342l3.056 5.304a1.583 1.583 0 001.156.76h.221c.413.002.811-.157 1.109-.444a1.39 1.39 0 00.269-.332l2.311-3.895h4.545a1.583 1.583 0 001.377-.792 1.584 1.584 0 000-1.63zm-18.493 2.422l-1.41-2.36a1.584 1.584 0 00-1.345-.775h-2.74l2.265-3.927a11.084 11.084 0 005.652 2.914l-2.422 4.148zM15 19.563a7.917 7.917 0 110-15.834 7.917 7.917 0 010 15.834zm7.204 4.037a1.583 1.583 0 00-1.346.776l-1.409 2.359-2.407-4.196a11.178 11.178 0 005.637-2.913l2.264 3.926-2.739.048z"/></svg><svg viewBox="0 0 24 24" id="telegram" xmlns="http://www.w3.org/2000/svg"><path fill-rule="evenodd" clip-rule="evenodd" d="M23.112 4.494c.318-1.55-1.205-2.837-2.68-2.267L2.342 9.216c-1.647.637-1.72 2.941-.117 3.682l3.94 1.818 1.873 6.559a1 1 0 001.67.432l2.886-2.887 4.043 3.033a2 2 0 003.16-1.198l3.315-16.16zM3.063 11.082l18.09-6.99-3.316 16.161L13.1 16.7a1 1 0 00-1.307.093l-1.236 1.236.371-2.043 7.28-7.279a1 1 0 00-1.204-1.575L6.95 12.876l-3.888-1.794zm5.114 3.397l.606 2.123.233-1.281a1 1 0 01.277-.528l2.22-2.22-3.336 1.906z"/></svg><svg viewBox="0 0 24 24" id="whatsapp" xmlns="http://www.w3.org/2000/svg"><path d="M17.6 6.32A7.851 7.851 0 0012 4a7.94 7.94 0 00-6.88 11.89L4 20l4.2-1.1a7.93 7.93 0 003.79 1 8 8 0 008-7.93 8 8 0 00-2.39-5.65zM12 18.53a6.58 6.58 0 01-3.36-.92l-.24-.15-2.49.66.66-2.43-.16-.25a6.6 6.6 0 0110.25-8.17 6.65 6.65 0 012 4.66 6.66 6.66 0 01-6.66 6.6zm3.61-4.94c-.2-.1-1.17-.58-1.35-.64-.18-.06-.32-.1-.45.1a9.004 9.004 0 01-.63.77c-.11.14-.23.15-.43 0a5.33 5.33 0 01-2.69-2.35c-.21-.35.2-.33.58-1.08a.38.38 0 000-.35c0-.1-.45-1.08-.61-1.47-.16-.39-.32-.33-.45-.34h-.39a.71.71 0 00-.53.25A2.19 2.19 0 008 10.17a3.82 3.82 0 00.81 2.05 8.89 8.89 0 003.39 3 3.85 3.85 0 002.38.5 1.999 1.999 0 001.33-.94 1.62 1.62 0 00.12-.94c-.09-.1-.22-.15-.42-.25z"/></svg></svg>